<svg id="圖層_1" data-name="圖層 1" xmlns="http://www.w3.org/2000/svg" xmlns:xlink="http://www.w3.org/1999/xlink" viewBox="0 0 1920 800"><defs><style>.cls-1{fill:none;}.cls-2{clip-path:url(#clip-path);}.cls-3{clip-path:url(#clip-path-2);}.cls-4{fill:url(#未命名漸層_31);}.cls-5{fill:#00697e;}.cls-6{clip-path:url(#clip-path-4);}.cls-7{fill:url(#未命名漸層_23);}.cls-8{clip-path:url(#clip-path-5);}.cls-9{fill:url(#未命名漸層_23-2);}.cls-10{clip-path:url(#clip-path-6);}.cls-11{fill:url(#未命名漸層_30);}.cls-12{clip-path:url(#clip-path-7);}.cls-13{fill:url(#未命名漸層_23-3);}.cls-14{clip-path:url(#clip-path-8);}.cls-15{fill:url(#未命名漸層_30-2);}.cls-16{clip-path:url(#clip-path-9);}.cls-17{fill:url(#未命名漸層_23-4);}.cls-18{clip-path:url(#clip-path-10);}.cls-19{fill:url(#未命名漸層_30-3);}.cls-20{clip-path:url(#clip-path-11);}.cls-21{fill:url(#未命名漸層_23-5);}.cls-22{clip-path:url(#clip-path-12);}.cls-23{fill:url(#未命名漸層_30-4);}.cls-24{clip-path:url(#clip-path-13);}.cls-25{fill:url(#未命名漸層_23-6);}.cls-26{clip-path:url(#clip-path-14);}.cls-27{fill:url(#未命名漸層_30-5);}.cls-28{clip-path:url(#clip-path-15);}.cls-29{fill:url(#未命名漸層_31-2);}.cls-30{clip-path:url(#clip-path-16);}.cls-31{fill:url(#未命名漸層_30-6);}.cls-32{clip-path:url(#clip-path-17);}.cls-33{fill:url(#未命名漸層_31-3);}.cls-34{clip-path:url(#clip-path-18);}.cls-35{fill:url(#未命名漸層_31-4);}.cls-36{clip-path:url(#clip-path-19);}.cls-37{fill:url(#未命名漸層_31-5);}.cls-38{clip-path:url(#clip-path-20);}.cls-39{fill:url(#未命名漸層_30-7);}.cls-40{clip-path:url(#clip-path-21);}.cls-41{fill:url(#未命名漸層_31-6);}.cls-42{clip-path:url(#clip-path-22);}.cls-43{fill:url(#未命名漸層_30-8);}.cls-44{clip-path:url(#clip-path-23);}.cls-45{fill:url(#未命名漸層_23-7);}.cls-46{clip-path:url(#clip-path-24);}.cls-47{fill:url(#未命名漸層_30-9);}.cls-48{clip-path:url(#clip-path-25);}.cls-49{fill:url(#未命名漸層_23-8);}.cls-50{clip-path:url(#clip-path-26);}.cls-51{fill:url(#未命名漸層_30-10);}.cls-52{clip-path:url(#clip-path-27);}.cls-53{fill:url(#未命名漸層_31-7);}.cls-54{clip-path:url(#clip-path-28);}.cls-55{fill:url(#未命名漸層_30-11);}.cls-56{clip-path:url(#clip-path-29);}.cls-57{fill:url(#未命名漸層_31-8);}.cls-58{clip-path:url(#clip-path-30);}.cls-59{fill:url(#未命名漸層_31-9);}.cls-60{clip-path:url(#clip-path-31);}.cls-61{fill:url(#未命名漸層_31-10);}.cls-62{clip-path:url(#clip-path-32);}.cls-63{fill:url(#未命名漸層_30-12);}.cls-64{clip-path:url(#clip-path-33);}.cls-65{fill:url(#未命名漸層_31-11);}</style><clipPath id="clip-path"><rect class="cls-1" x="1" y="2" width="1920" height="800"/></clipPath><clipPath id="clip-path-2"><path class="cls-1" d="M1117.17,445.56C984.39,508.57,870.63,526,763.58,540c-47.9,6.28-94.5,11.85-140.84,20.55-36.36,6.82-72.56,15.54-109.17,28-187.53,63.84-170,126.5-170,126.5v64.17l101-1h.06l36.4-.37H481l1056.93-10.5,25.16-.26,24.41-.25,218-2.17V360.43c-177,29.18-501-3.79-688.36,85.13"/></clipPath><linearGradient id="未命名漸層_31" y1="-0.55" x2="1" y2="-0.55" gradientTransform="matrix(1462.43, 0, 0, -1462.43, 342.1, -232.18)" gradientUnits="userSpaceOnUse"><stop offset="0" stop-color="#58b0c3"/><stop offset="1" stop-color="#3a5d76"/></linearGradient><clipPath id="clip-path-4"><path class="cls-1" d="M1.57,802H947.78V789.16s11.33-88.58-110-178.78a319.1,319.1,0,0,0-70.65-39.56c-30-12.3-60.15-20.17-91.16-29C606.64,522,533,497.33,447.08,408.26c-121.24-125.68-331-79.07-445.51-120.33Z"/></clipPath><linearGradient id="未命名漸層_23" x1="-0.73" x2="0.27" gradientTransform="translate(478.42 451.1) rotate(-90) scale(1091.93)" gradientUnits="userSpaceOnUse"><stop offset="0" stop-color="#1c2b42"/><stop offset="1" stop-color="#114d72"/></linearGradient><clipPath id="clip-path-5"><path class="cls-1" d="M1474.85,408.3c-73.59,76.3-138.18,105.31-198.72,124.5-28.65,9.11-56.43,16-83.84,24.64-36.26,11.49-71.86,26.08-108.06,53-121.31,90.17-110,178.78-110,178.78V802h946.18V287.93c-114.52,41.26-324.27-5.35-445.58,120.37"/></clipPath><linearGradient id="未命名漸層_23-2" x1="-0.73" y1="-0.01" x2="0.27" y2="-0.01" gradientTransform="translate(1453.03 442.41) rotate(-90) scale(1091.17)" xlink:href="#未命名漸層_23"/><clipPath id="clip-path-6"><rect class="cls-1" x="31.36" y="726.11" width="15.8" height="75.89"/></clipPath><linearGradient id="未命名漸層_30" x1="13.3" y1="0.83" x2="14.3" y2="0.83" gradientTransform="matrix(-60.2, 0, 0, 60.2, 859.62, 713.86)" gradientUnits="userSpaceOnUse"><stop offset="0" stop-color="#54435e"/><stop offset="1" stop-color="#3a334f"/></linearGradient><clipPath id="clip-path-7"><path class="cls-1" d="M30.19,547.2a15.11,15.11,0,0,0-5.58,7.7L3,621.21H49.28L1.63,633.16V750.52H96.38A15.34,15.34,0,0,0,111,730.35l-8.81-27.09-1.53-4.73-2.58-8-30.48-7.63h28l-26.37-81-22.62-5.64H67.36L53.88,554.9a15.39,15.39,0,0,0-23.69-7.7"/></clipPath><linearGradient id="未命名漸層_23-3" x1="-3.41" y1="-0.18" x2="-2.41" y2="-0.18" gradientTransform="translate(100.78 82.93) rotate(-90) scale(234.64)" xlink:href="#未命名漸層_23"/><clipPath id="clip-path-8"><rect class="cls-1" x="142.72" y="770.75" width="15.8" height="31.25"/></clipPath><linearGradient id="未命名漸層_30-2" x1="13.3" y1="0.81" x2="14.3" y2="0.81" gradientTransform="matrix(-60.2, 0, 0, 60.2, 948.68, 737.58)" xlink:href="#未命名漸層_30"/><clipPath id="clip-path-9"><path class="cls-1" d="M141.61,591.87a15.06,15.06,0,0,0-5.58,7.71l-21.57,66.31h46.27l-50.38,12.63L78.92,775A15.34,15.34,0,0,0,93.5,795.19H207.76A15.41,15.41,0,0,0,222.42,775l-12.93-39.74L179,727.64h28l-26.37-81L158,640.93h20.79l-13.44-41.35a15.45,15.45,0,0,0-23.73-7.71"/></clipPath><linearGradient id="未命名漸層_23-4" x1="-3.41" y1="-0.19" x2="-2.41" y2="-0.19" gradientTransform="translate(195.21 128.79) rotate(-90) scale(234.65)" xlink:href="#未命名漸層_23"/><clipPath id="clip-path-10"><rect class="cls-1" x="1778.56" y="770.75" width="15.8" height="31.25"/></clipPath><linearGradient id="未命名漸層_30-3" x1="13.3" y1="0.81" x2="14.3" y2="0.81" gradientTransform="matrix(-60.2, 0, 0, 60.2, 2584.52, 737.58)" xlink:href="#未命名漸層_30"/><clipPath id="clip-path-11"><path class="cls-1" d="M1777.42,591.87a15.06,15.06,0,0,0-5.58,7.71l-21.57,66.31h46.28l-50.39,12.63L1714.73,775a15.35,15.35,0,0,0,14.58,20.17h114.26A15.41,15.41,0,0,0,1858.23,775l-12.93-39.74-30.51-7.64h28l-26.37-81-22.62-5.67h20.79l-13.44-41.35a15.45,15.45,0,0,0-23.73-7.71"/></clipPath><linearGradient id="未命名漸層_23-5" x1="-3.41" y1="-0.19" x2="-2.41" y2="-0.19" gradientTransform="translate(1831.02 128.79) rotate(-90) scale(234.65)" xlink:href="#未命名漸層_23"/><clipPath id="clip-path-12"><rect class="cls-1" x="526.26" y="704.08" width="15.8" height="97.29"/></clipPath><linearGradient id="未命名漸層_30-4" x1="13.3" y1="0.81" x2="14.3" y2="0.81" gradientTransform="translate(583.01 -78.43) rotate(90) scale(60.2)" xlink:href="#未命名漸層_30"/><clipPath id="clip-path-13"><path class="cls-1" d="M519.47,532.87,506,574.22h20.79l-22.62,5.68-26.37,81h28l-30.52,7.64-12.92,39.75A15.41,15.41,0,0,0,477,728.49H591.27a15.38,15.38,0,0,0,14.62-20.17l-31.43-96.51-50.39-12.63h46.28l-21.57-66.31a15.15,15.15,0,0,0-5.58-7.7,15.43,15.43,0,0,0-23.73,7.7"/></clipPath><linearGradient id="未命名漸層_23-6" x1="-3.41" y1="-0.19" x2="-2.41" y2="-0.19" gradientTransform="translate(578.7 118.67) rotate(-90) scale(234.65)" xlink:href="#未命名漸層_23"/><clipPath id="clip-path-14"><rect class="cls-1" x="259.88" y="683.84" width="22.32" height="118.16"/></clipPath><linearGradient id="未命名漸層_30-5" x1="9.42" y1="0.59" x2="10.42" y2="0.59" gradientTransform="matrix(-84.97, 0, 0, 84.97, 1105.11, 692.66)" xlink:href="#未命名漸層_30"/><clipPath id="clip-path-15"><path class="cls-1" d="M258.32,431.37a21.44,21.44,0,0,0-7.9,10.87L220,535.8h65.3l-71.11,17.82L169.81,689.85a21.68,21.68,0,0,0,20.62,28.46H351.69a21.73,21.73,0,0,0,20.66-28.46L354.1,633.74l-43.05-10.8h39.53L313.34,508.59l-31.92-8h29.34l-19-58.35a21.76,21.76,0,0,0-33.45-10.87"/></clipPath><linearGradient id="未命名漸層_31-2" x1="1.37" y1="0.03" x2="2.37" y2="0.03" gradientTransform="matrix(-586.43, 0, 0, 586.43, 1450.9, 557.53)" xlink:href="#未命名漸層_31"/><clipPath id="clip-path-16"><rect class="cls-1" x="705.69" y="721.47" width="22.29" height="80.53"/></clipPath><linearGradient id="未命名漸層_30-6" x1="9.42" y1="0.58" x2="10.42" y2="0.58" gradientTransform="matrix(-84.97, 0, 0, 84.97, 1532.13, 712.65)" xlink:href="#未命名漸層_30"/><clipPath id="clip-path-17"><path class="cls-1" d="M704.09,469a21.56,21.56,0,0,0-7.9,10.87l-30.45,93.56h65.31l-71.12,17.82L615.58,727.47a21.71,21.71,0,0,0,20.63,28.46H797.46a21.72,21.72,0,0,0,20.66-28.46l-18.24-56.1-43-10.8h39.52L759.11,546.21l-31.91-8h29.34l-19-58.35A21.74,21.74,0,0,0,704.09,469"/></clipPath><linearGradient id="未命名漸層_31-3" x1="1.37" y1="0.03" x2="2.37" y2="0.03" gradientTransform="matrix(-586.43, 0, 0, 586.43, 1896.69, 595.15)" xlink:href="#未命名漸層_31"/><clipPath id="clip-path-18"><path class="cls-1" d="M1.6,716.22V802H186.39q-.28-3.42-.76-6.77A116.58,116.58,0,0,0,163.8,741.9l-59.36,39.68,49.77-51.07a117.26,117.26,0,0,0-50.75-31.13c-.92-.27-1.86-.56-2.81-.79-2.54-.72-5.09-1.34-7.7-1.86L72,750.55l-2.32,5.94.68-5.94,6.57-55.91c-2.42-.16-4.83-.22-7.25-.22A116.3,116.3,0,0,0,1.6,716.22"/></clipPath><linearGradient id="未命名漸層_31-4" x1="2.06" y1="0.56" x2="3.06" y2="0.56" gradientTransform="matrix(0, 372.56, -372.56, 0, 301.64, -255.47)" xlink:href="#未命名漸層_31"/><clipPath id="clip-path-19"><path class="cls-1" d="M869,747.84l0,40.08-8.26-39.17a65.75,65.75,0,0,0-34.89,18l20.6,29.53-26.57-22.68c-.81,1.08-1.6,2.19-2.38,3.3A65.52,65.52,0,0,0,807.38,802H936.81a65.77,65.77,0,0,0-64.62-54.24c-1.05,0-2.11,0-3.16.08"/></clipPath><linearGradient id="未命名漸層_31-5" x1="2.99" y1="-2.29" x2="3.99" y2="-2.29" gradientTransform="matrix(0, 209.14, 209.14, 0, 1350.3, 16.57)" xlink:href="#未命名漸層_31"/><clipPath id="clip-path-20"><rect class="cls-1" x="1565.91" y="740.5" width="15.8" height="61.5"/></clipPath><linearGradient id="未命名漸層_30-7" x1="13.3" y1="0.79" x2="14.3" y2="0.79" gradientTransform="matrix(0, 60.2, -60.2, 0, 1621.55, -42.02)" xlink:href="#未命名漸層_30"/><clipPath id="clip-path-21"><path class="cls-1" d="M1559.09,569.32l-13.45,41.35h20.79l-22.62,5.68-26.37,81h28L1514.93,705,1502,744.77a15.4,15.4,0,0,0,14.65,20.17h114.26a15.34,15.34,0,0,0,14.59-20.17l-31.43-96.5-50.39-12.63H1610l-21.58-66.32a15,15,0,0,0-5.58-7.7,15.42,15.42,0,0,0-23.72,7.7"/></clipPath><linearGradient id="未命名漸層_31-6" x1="3.32" y1="0.49" x2="4.32" y2="0.49" gradientTransform="matrix(0, 238.36, -238.36, 0, 1691.48, -361.7)" xlink:href="#未命名漸層_31"/><clipPath id="clip-path-22"><rect class="cls-1" x="1413.07" y="704.08" width="15.8" height="97.29"/></clipPath><linearGradient id="未命名漸層_30-8" x1="13.29" y1="0.84" x2="14.29" y2="0.84" gradientTransform="matrix(-60.2, 0, 0, 60.2, 2251.99, 701.87)" xlink:href="#未命名漸層_30"/><clipPath id="clip-path-23"><path class="cls-1" d="M1411.93,525.17a15,15,0,0,0-5.58,7.7l-21.57,66.31h46.28l-50.39,12.63-31.43,96.51a15.35,15.35,0,0,0,14.58,20.17h114.26a15.41,15.41,0,0,0,14.66-20.17l-12.93-39.75-30.51-7.64h28l-26.37-81-22.62-5.68h20.79l-13.44-41.35a15.43,15.43,0,0,0-23.73-7.7"/></clipPath><linearGradient id="未命名漸層_23-7" x1="-3.41" y1="-0.19" x2="-2.41" y2="-0.19" gradientTransform="translate(1465.53 62.11) rotate(-90) scale(234.65)" xlink:href="#未命名漸層_23"/><clipPath id="clip-path-24"><rect class="cls-1" x="1874.9" y="726.11" width="15.8" height="75.89"/></clipPath><linearGradient id="未命名漸層_30-9" x1="13.3" y1="0.83" x2="14.3" y2="0.83" gradientTransform="matrix(-60.2, 0, 0, 60.2, 2703.16, 713.86)" xlink:href="#未命名漸層_30"/><clipPath id="clip-path-25"><path class="cls-1" d="M1873.7,547.16a15.2,15.2,0,0,0-5.58,7.7l-21.58,66.32h46.28l-50.39,12.63-15.11,46.38v0l-12.24,37.63L1811,730.31a15.45,15.45,0,0,0,7.87,18.61h0a15.11,15.11,0,0,0,6.79,1.56h94.74v-65.2l-9.3-2.32h9.24V625.42l-7.67-23.56-22.62-5.65h20.79l-13.48-41.35a15.39,15.39,0,0,0-23.69-7.7"/></clipPath><linearGradient id="未命名漸層_23-8" x1="-3.43" y1="-0.21" x2="-2.43" y2="-0.21" gradientTransform="translate(1913.34 83.18) rotate(-90) scale(233.21)" xlink:href="#未命名漸層_23"/><clipPath id="clip-path-26"><rect class="cls-1" x="1672.92" y="683.84" width="22.29" height="118.16"/></clipPath><linearGradient id="未命名漸層_30-10" x1="9.42" y1="0.57" x2="10.42" y2="0.57" gradientTransform="matrix(0, 84.97, -84.97, 0, 1732.33, -91.27)" xlink:href="#未命名漸層_30"/><clipPath id="clip-path-27"><path class="cls-1" d="M1663.36,442.24l-19,58.35h29.34l-31.91,8-37.24,114.35h39.52l-43,10.8-18.24,56.11a21.73,21.73,0,0,0,20.66,28.46h161.25a21.7,21.7,0,0,0,20.63-28.46L1741,553.62l-71.12-17.82h65.31l-30.45-93.56a21.74,21.74,0,0,0-41.35,0"/></clipPath><linearGradient id="未命名漸層_31-7" x1="1.37" y1="0.02" x2="2.37" y2="0.02" gradientTransform="translate(1697.31 -607.13) rotate(90) scale(586.43)" xlink:href="#未命名漸層_31"/><clipPath id="clip-path-28"><rect class="cls-1" x="1227.11" y="721.47" width="22.29" height="80.53"/></clipPath><linearGradient id="未命名漸層_30-11" x1="9.42" y1="0.55" x2="10.42" y2="0.55" gradientTransform="translate(1285.35 -53.68) rotate(90) scale(84.97)" xlink:href="#未命名漸層_30"/><clipPath id="clip-path-29"><path class="cls-1" d="M1217.55,479.87l-19,58.35h29.34l-31.92,8-37.24,114.36h39.52l-43,10.8L1137,727.47a21.73,21.73,0,0,0,20.66,28.46h161.26a21.67,21.67,0,0,0,20.62-28.46l-44.35-136.22-71.11-17.82h65.3l-30.45-93.56A21.5,21.5,0,0,0,1251,469a21.74,21.74,0,0,0-33.45,10.87"/></clipPath><linearGradient id="未命名漸層_31-8" x1="1.37" y1="0.02" x2="2.37" y2="0.02" gradientTransform="translate(1251.51 -569.51) rotate(90) scale(586.43)" xlink:href="#未命名漸層_31"/><clipPath id="clip-path-30"><path class="cls-1" d="M1878.2,694.61l3.69,31.5,2.87,24.41.69,5.94-2.32-5.94-8.22-21.12-12.73-32.7a116.69,116.69,0,0,0-47.06,21.18,118.09,118.09,0,0,0-14.2,12.6l10.77,11.06,7.21,7.41h0l31.76,32.6-59.37-39.68a116.94,116.94,0,0,0-21.83,53.32c-.3,2.26-.55,4.53-.73,6.81h151.67V699.7a117,117,0,0,0-35-5.32c-2.45,0-4.87.07-7.25.23"/></clipPath><linearGradient id="未命名漸層_31-9" x1="2.06" y1="0.62" x2="3.06" y2="0.62" gradientTransform="translate(2077.36 -236.07) rotate(90) scale(372.56)" xlink:href="#未命名漸層_31"/><clipPath id="clip-path-31"><path class="cls-1" d="M1046.41,758.9a65.54,65.54,0,0,0-28.13,43.1h129.45a65.57,65.57,0,0,0-10.14-25.08c-.78-1.11-1.56-2.22-2.38-3.3l-26.56,22.68,20.59-29.53a65.68,65.68,0,0,0-34.89-18l-8.26,39.17,0-40.08c-1-.05-2.1-.08-3.16-.08a65.36,65.36,0,0,0-36.49,11.14"/></clipPath><linearGradient id="未命名漸層_31-10" x1="2.98" y1="-2.29" x2="3.98" y2="-2.29" gradientTransform="matrix(-209.14, 0, 0, -209.14, 1840.08, 295.12)" xlink:href="#未命名漸層_31"/><clipPath id="clip-path-32"><rect class="cls-1" x="373.42" y="740.5" width="15.8" height="61.5"/></clipPath><linearGradient id="未命名漸層_30-12" x1="13.29" y1="0.83" x2="14.29" y2="0.83" gradientTransform="matrix(-60.2, 0, 0, 60.2, 1194.47, 721.51)" xlink:href="#未命名漸層_30"/><clipPath id="clip-path-33"><path class="cls-1" d="M372.31,561.62a15,15,0,0,0-5.58,7.7l-21.57,66.32h46.28l-50.39,12.63-31.43,96.5a15.34,15.34,0,0,0,14.59,20.17H438.47a15.41,15.41,0,0,0,14.65-20.17L440.2,705l-30.52-7.63h28l-26.37-81-22.61-5.68h20.79L396,569.32a15.43,15.43,0,0,0-23.73-7.7"/></clipPath><linearGradient id="未命名漸層_31-11" x1="3.32" y1="0.5" x2="4.32" y2="0.5" gradientTransform="matrix(-238.36, 0, 0, 238.36, 1404.51, 542.14)" xlink:href="#未命名漸層_31"/></defs><g class="cls-2"><g class="cls-3"><rect class="cls-4" x="326.04" y="356.64" width="1479.49" height="422.57"/></g><g class="cls-2"><path class="cls-5" d="M1634.52,826.19v64.17l-104.82-1h-.06l-37.8-.37h0L394.34,878.49l-26.12-.25L342.87,878l-226.4-2.17V471.57c183.73,29.19,520.24-3.79,714.76,85.13,137.86,63,256,80.44,367.14,94.46,49.74,6.28,98.12,11.84,146.24,20.55,37.75,6.81,75.34,15.54,113.35,28,194.73,63.84,176.56,126.5,176.56,126.5"/></g><g class="cls-6"><rect class="cls-7" x="-0.7" y="278.38" width="962.07" height="527.82" transform="translate(-4.75 4.25) rotate(-0.5)"/></g><g class="cls-8"><rect class="cls-9" x="960.66" y="278.38" width="962.04" height="527.82" transform="translate(-4.72 12.7) rotate(-0.5)"/></g><g class="cls-10"><rect class="cls-11" x="0.9" y="753.81" width="76.73" height="20.48" transform="translate(-725.75 755.74) rotate(-86.44)"/></g><g class="cls-12"><rect class="cls-13" x="-4.83" y="540.88" width="125.55" height="213.02" transform="matrix(1, -0.06, 0.06, 1, -41.17, 5.01)"/></g><g class="cls-14"><rect class="cls-15" x="134.53" y="777.52" width="32.17" height="17.71" transform="translate(-643.6 887.82) rotate(-86.44)"/></g><g class="cls-16"><rect class="cls-17" x="69.19" y="584.36" width="162.88" height="215.41" transform="translate(-43.83 11.02) rotate(-3.66)"/></g><g class="cls-18"><rect class="cls-19" x="1770.38" y="777.52" width="32.17" height="17.71" transform="translate(890.57 2520.5) rotate(-86.44)"/></g><g class="cls-20"><rect class="cls-21" x="1705.01" y="584.36" width="162.88" height="215.41" transform="translate(-40.5 115.35) rotate(-3.66)"/></g><g class="cls-22"><rect class="cls-23" x="523.25" y="703.68" width="21.81" height="98.08" transform="translate(-45.76 34.66) rotate(-3.56)"/></g><g class="cls-24"><rect class="cls-25" x="452.73" y="517.65" width="162.84" height="215.4" transform="translate(-38.8 35.34) rotate(-3.66)"/></g><g class="cls-26"><rect class="cls-27" x="211.38" y="728.11" width="119.32" height="29.63" transform="translate(-487.29 967.26) rotate(-86.44)"/></g><g class="cls-28"><rect class="cls-29" x="123.31" y="463.86" width="295.47" height="217.81" transform="translate(-307.29 831.71) rotate(-88.8)"/></g><g class="cls-30"><rect class="cls-31" x="675.95" y="748.11" width="81.76" height="27.25" transform="translate(-87.99 1429.83) rotate(-86.44)"/></g><g class="cls-32"><rect class="cls-33" x="569.1" y="501.5" width="295.46" height="217.78" transform="translate(91.51 1314.24) rotate(-88.8)"/></g><g class="cls-34"><rect class="cls-35" x="-10.22" y="669.35" width="208.44" height="157.72" transform="translate(-218.51 61.92) rotate(-17.32)"/></g><g class="cls-36"><rect class="cls-37" x="804.69" y="713.16" width="134.81" height="123.44" transform="translate(-293.17 718.72) rotate(-38.86)"/></g><g class="cls-38"><rect class="cls-39" x="1564.01" y="740.07" width="19.59" height="62.37" transform="translate(-44.9 99.33) rotate(-3.56)"/></g><g class="cls-40"><rect class="cls-41" x="1482.68" y="547.65" width="182.22" height="228.33" transform="translate(-88.1 270.76) rotate(-9.57)"/></g><g class="cls-42"><rect class="cls-43" x="1371.93" y="741.81" width="98.08" height="21.81" transform="translate(581.37 2124.15) rotate(-86.44)"/></g><g class="cls-44"><rect class="cls-45" x="1339.52" y="517.65" width="162.88" height="215.41" transform="translate(-36.99 91.9) rotate(-3.66)"/></g><g class="cls-46"><rect class="cls-47" x="1844.44" y="753.81" width="76.73" height="20.48" transform="translate(1003.17 2595.71) rotate(-86.44)"/></g><g class="cls-48"><rect class="cls-49" x="1803.27" y="540.9" width="123.63" height="212.9" transform="translate(-37.49 120.27) rotate(-3.66)"/></g><g class="cls-50"><rect class="cls-51" x="1669.27" y="683.26" width="29.59" height="119.32" transform="translate(-42.93 106.13) rotate(-3.56)"/></g><g class="cls-52"><rect class="cls-53" x="1575.18" y="425.03" width="217.78" height="295.47" transform="translate(-11.67 35.52) rotate(-1.2)"/></g><g class="cls-54"><rect class="cls-55" x="1224.63" y="720.86" width="27.25" height="81.76" transform="translate(-44.96 78.45) rotate(-3.56)"/></g><g class="cls-56"><rect class="cls-57" x="1129.37" y="462.66" width="217.81" height="295.47" transform="translate(-12.55 26.16) rotate(-1.2)"/></g><g class="cls-58"><rect class="cls-59" x="1756.18" y="674.24" width="176.83" height="147.9" transform="translate(-139.11 583.13) rotate(-17.32)"/></g><g class="cls-60"><rect class="cls-61" x="1021.28" y="707.47" width="123.45" height="134.83" transform="translate(-199.9 1131.96) rotate(-51.14)"/></g><g class="cls-62"><rect class="cls-63" x="350.14" y="761.45" width="62.37" height="19.59" transform="translate(-412.14 1103.89) rotate(-86.44)"/></g><g class="cls-64"><rect class="cls-65" x="267.17" y="570.7" width="228.33" height="182.22" transform="translate(-334.65 927.85) rotate(-80.43)"/></g></g></svg>