<svg id="圖層_1" data-name="圖層 1" xmlns="http://www.w3.org/2000/svg" xmlns:xlink="http://www.w3.org/1999/xlink" viewBox="0 0 1920 800"><defs><style>.cls-1{fill:none;}.cls-2{clip-path:url(#clip-path);}.cls-3{fill:#cede98;}.cls-4{fill:#94a67a;}.cls-5{fill:#617e60;}.cls-6{fill:url(#未命名漸層_100);}.cls-7{fill:url(#未命名漸層_100-2);}.cls-8{fill:url(#未命名漸層_89);}.cls-9{fill:url(#未命名漸層_82);}.cls-10{fill:url(#未命名漸層_89-2);}.cls-11{fill:url(#未命名漸層_82-2);}.cls-12{fill:url(#未命名漸層_89-3);}.cls-13{fill:url(#未命名漸層_82-3);}.cls-14{fill:url(#未命名漸層_89-4);}.cls-15{fill:url(#未命名漸層_90);}.cls-16{fill:url(#未命名漸層_89-5);}.cls-17{fill:url(#未命名漸層_86);}.cls-18{fill:url(#未命名漸層_89-6);}.cls-19{fill:url(#未命名漸層_86-2);}.cls-20{fill:url(#未命名漸層_87);}.cls-21{fill:url(#未命名漸層_88);}.cls-22{fill:url(#未命名漸層_89-7);}.cls-23{fill:url(#未命名漸層_90-2);}.cls-24{fill:url(#未命名漸層_89-8);}.cls-25{fill:url(#未命名漸層_82-4);}.cls-26{fill:url(#未命名漸層_89-9);}.cls-27{fill:url(#未命名漸層_82-5);}.cls-28{fill:url(#未命名漸層_89-10);}.cls-29{fill:url(#未命名漸層_86-3);}.cls-30{fill:url(#未命名漸層_89-11);}.cls-31{fill:url(#未命名漸層_86-4);}.cls-32{fill:url(#未命名漸層_87-2);}.cls-33{fill:url(#未命名漸層_88-2);}</style><clipPath id="clip-path"><rect class="cls-1" x="0.07" width="1919.93" height="803.87"/></clipPath><linearGradient id="未命名漸層_100" x1="154.55" y1="929.34" x2="235.15" y2="102.02" gradientTransform="matrix(1, 0, 0, -1, 0, 802)" gradientUnits="userSpaceOnUse"><stop offset="0" stop-color="#fff"/><stop offset="1" stop-color="#fff" stop-opacity="0"/></linearGradient><linearGradient id="未命名漸層_100-2" x1="1625.1" y1="1019.94" x2="1716.21" y2="84.77" xlink:href="#未命名漸層_100"/><linearGradient id="未命名漸層_89" x1="1259.18" y1="55.36" x2="1262.93" y2="-4.76" gradientTransform="translate(1298.8 802) rotate(180)" gradientUnits="userSpaceOnUse"><stop offset="0" stop-color="#55425e"/><stop offset="1" stop-color="#3a334f"/></linearGradient><linearGradient id="未命名漸層_82" x1="64.16" y1="-83.91" x2="49.18" y2="150.4" gradientTransform="matrix(1, 0, 0, -1, 0, 802)" gradientUnits="userSpaceOnUse"><stop offset="0" stop-color="#1b4542"/><stop offset="1" stop-color="#016259"/></linearGradient><linearGradient id="未命名漸層_89-2" x1="1147.73" y1="10.67" x2="1151.47" y2="-49.45" xlink:href="#未命名漸層_89"/><linearGradient id="未命名漸層_82-2" x1="158.72" y1="-129.68" x2="143.74" y2="104.63" xlink:href="#未命名漸層_82"/><linearGradient id="未命名漸層_89-3" x1="-489.05" y1="10.67" x2="-485.31" y2="-49.45" xlink:href="#未命名漸層_89"/><linearGradient id="未命名漸層_82-3" x1="1795.53" y1="-129.68" x2="1780.56" y2="104.63" xlink:href="#未命名漸層_82"/><linearGradient id="未命名漸層_89-4" x1="1419.98" y1="77.4" x2="1423.72" y2="17.27" gradientTransform="matrix(1, 0, 0, -1, -888.98, 802)" xlink:href="#未命名漸層_89"/><linearGradient id="未命名漸層_90" x1="546.05" y1="-119.44" x2="531.08" y2="114.87" gradientTransform="matrix(1, 0, 0, -1, 0, 802)" gradientUnits="userSpaceOnUse"><stop offset="0" stop-color="#1d4942"/><stop offset="1" stop-color="#179072"/></linearGradient><linearGradient id="未命名漸層_89-5" x1="137.48" y1="90.2" x2="142.76" y2="5.35" gradientTransform="translate(409.82 802) rotate(180)" xlink:href="#未命名漸層_89"/><linearGradient id="未命名漸層_86" x1="129.61" y1="605" x2="141.94" y2="18.35" gradientTransform="translate(409.82 802) rotate(180)" gradientUnits="userSpaceOnUse"><stop offset="0" stop-color="#bbc54c"/><stop offset="1" stop-color="#12843c"/></linearGradient><linearGradient id="未命名漸層_89-6" x1="-308.56" y1="52.56" x2="-303.27" y2="-32.3" gradientTransform="translate(409.82 802) rotate(180)" xlink:href="#未命名漸層_89"/><linearGradient id="未命名漸層_86-2" x1="-316.43" y1="567.36" x2="-304.1" y2="-19.29" xlink:href="#未命名漸層_86"/><linearGradient id="未命名漸層_87" x1="-7.17" y1="269.43" x2="103.82" y2="-86.45" gradientTransform="matrix(1, 0, 0, -1, 0, 802)" gradientUnits="userSpaceOnUse"><stop offset="0" stop-color="#78a052"/><stop offset="1" stop-color="#3a5231"/></linearGradient><linearGradient id="未命名漸層_88" x1="1020.8" y1="-39.68" x2="1083.1" y2="-239.46" gradientTransform="translate(1303.63 -181.34) rotate(123.82)" gradientUnits="userSpaceOnUse"><stop offset="0" stop-color="#8cc778"/><stop offset="1" stop-color="#3a7e76"/></linearGradient><linearGradient id="未命名漸層_89-7" x1="1571.26" y1="40.94" x2="1575.01" y2="-19.18" gradientTransform="matrix(1, 0, 0, -1, 0, 802)" xlink:href="#未命名漸層_89"/><linearGradient id="未命名漸層_90-2" x1="1520.08" y1="364.73" x2="1559.71" y2="129.55" xlink:href="#未命名漸層_90"/><linearGradient id="未命名漸層_89-8" x1="-123.35" y1="77.4" x2="-119.6" y2="17.27" xlink:href="#未命名漸層_89"/><linearGradient id="未命名漸層_82-4" x1="1429.83" y1="-62.96" x2="1414.85" y2="171.35" xlink:href="#未命名漸層_82"/><linearGradient id="未命名漸層_89-9" x1="-585.45" y1="55.36" x2="-581.71" y2="-4.76" xlink:href="#未命名漸層_89"/><linearGradient id="未命名漸層_82-5" x1="1877.8" y1="-83.81" x2="1862.92" y2="149.07" xlink:href="#未命名漸層_82"/><linearGradient id="未命名漸層_89-10" x1="1680.8" y1="90.2" x2="1686.09" y2="5.35" gradientTransform="matrix(1, 0, 0, -1, 0, 802)" xlink:href="#未命名漸層_89"/><linearGradient id="未命名漸層_86-3" x1="1672.94" y1="605" x2="1685.27" y2="18.35" gradientTransform="matrix(1, 0, 0, -1, 0, 802)" xlink:href="#未命名漸層_86"/><linearGradient id="未命名漸層_89-11" x1="1234.77" y1="52.56" x2="1240.05" y2="-32.3" gradientTransform="matrix(1, 0, 0, -1, 0, 802)" xlink:href="#未命名漸層_89"/><linearGradient id="未命名漸層_86-4" x1="1226.89" y1="567.36" x2="1239.22" y2="-19.29" gradientTransform="matrix(1, 0, 0, -1, 0, 802)" xlink:href="#未命名漸層_86"/><linearGradient id="未命名漸層_87-2" x1="1767.86" y1="-11.99" x2="1920" y2="-11.99" xlink:href="#未命名漸層_87"/><linearGradient id="未命名漸層_88-2" x1="1879.72" y1="1242.62" x2="1942.03" y2="1042.84" gradientTransform="matrix(0.56, 0.83, 0.83, -0.56, -893.81, -181.34)" xlink:href="#未命名漸層_88"/></defs><g class="cls-2"><path class="cls-3" d="M440.79,720.36v64.17l100.95-1h0l36.41-.37h0l1056.92-10.5,25.17-.25,24.4-.26,218-2.17V365.74c-176.94,29.18-501-3.79-688.36,85.13-132.77,63-246.53,80.44-353.58,94.46-47.91,6.28-94.5,11.84-140.84,20.54-36.36,6.82-72.57,15.54-109.17,28C423.29,657.7,440.79,720.36,440.79,720.36Z"/><path class="cls-4" d="M1731.78,831.5v64.17l-104.83-1h0l-37.8-.37h0L491.6,883.8l-26.13-.25-25.34-.26-226.4-2.17V476.88C397.46,506.07,734,473.09,928.48,562c137.86,63,256,80.44,367.15,94.46,49.74,6.28,98.12,11.84,146.23,20.55,37.75,6.81,75.35,15.54,113.36,28C1750,768.84,1731.78,831.5,1731.78,831.5Z"/><path class="cls-5" d="M946.77,791.65V882.4L881.4,881h0l-23.58-.52h0L173.3,865.62,157,865.26l-15.81-.36L0,861.83V290.1c114.59,41.28,324.46-5.35,445.78,120.4,86,89.12,159.65,113.77,229,133.59,31,8.89,61.19,16.76,91.2,29.07a318.7,318.7,0,0,1,70.7,39.58C958.11,703,946.77,791.65,946.77,791.65Z"/><path class="cls-6" d="M440.36,546.64H.07V399.5c6.66-2.88,16.68-4.22,30.4,1.83,27.72,12.18,19.36,34.19,19.36,34.19s32.13-16,54,0,17.44,46.86,17.44,46.86,35.95-16.63,58.06-9.21,20.05,45.29,20.05,45.29L224,521.33l95,11.11Z"/><path class="cls-5" d="M1920,290.13V861.86l-126.15,2.75-14.4.32-1.44,0-679.29,14.72h0l-30.41.69h0l-95,2.06V791.69s-11.33-88.66,110-178.89c36.21-26.91,71.84-41.5,108.12-53,27.43-8.65,55.22-15.54,83.89-24.65,60.57-19.2,125.2-48.24,198.84-124.58C1595.54,284.78,1805.41,331.41,1920,290.13Z"/><path class="cls-7" d="M1920,330.2V546.61H1458.09l178.3-20.87,62.76-7.35s-1.73-32,15.15-42.94a20.51,20.51,0,0,1,4.87-2.35c22.11-7.44,58.06,9.21,58.06,9.21s-4.41-30.83,17.41-46.86,53.94,0,53.94,0-8.36-22,19.37-34.19c27.07-11.95,39.9,4.87,40.49,5.65C1907.85,405.34,1887.34,350.22,1920,330.2Z"/><polygon class="cls-8" points="29.81 825.91 45.62 825.91 45.62 728.56 29.81 728.56 29.81 825.91"/><path class="cls-9" d="M94.86,753H.07V635.56l47.67-11.95H1.47l21.58-66.36a15.27,15.27,0,0,1,5.59-7.7,15.41,15.41,0,0,1,23.71,7.7l13.48,41.38H45l22.63,5.65,26.39,81.08H66L96.53,693l2.58,8,1.53,4.74,8.82,27.1A15.35,15.35,0,0,1,94.86,753Z"/><polygon class="cls-10" points="141.27 870.61 157.07 870.61 157.07 773.24 141.27 773.24 141.27 870.61"/><path class="cls-11" d="M92,797.7H206.32A15.42,15.42,0,0,0,221,777.51l-12.93-39.77-30.54-7.64h28L179.15,649l-22.63-5.69h20.8L163.86,602a15.44,15.44,0,0,0-23.74-7.71,15.06,15.06,0,0,0-5.58,7.71L113,668.31h46.31L108.84,681,77.39,777.51A15.37,15.37,0,0,0,92,797.7Z"/><polygon class="cls-12" points="1778.05 870.61 1793.85 870.61 1793.85 773.24 1778.05 773.24 1778.05 870.61"/><path class="cls-13" d="M1728.8,797.7h114.33a15.42,15.42,0,0,0,14.66-20.19l-12.93-39.77-30.53-7.64h28L1816,649l-22.63-5.69h20.8L1800.68,602a15.44,15.44,0,0,0-23.74-7.71,15.13,15.13,0,0,0-5.59,7.71l-21.58,66.35h46.3L1745.65,681l-31.44,96.56A15.35,15.35,0,0,0,1728.8,797.7Z"/><rect class="cls-14" x="525" y="706.52" width="15.81" height="97.35"/><path class="cls-15" d="M590.08,731H475.75a15.42,15.42,0,0,1-14.66-20.18L474,671l30.54-7.64h-28l26.38-81.08,22.63-5.68h-20.8l13.46-41.38a15.44,15.44,0,0,1,23.74-7.7,15,15,0,0,1,5.58,7.7l21.59,66.36H522.81l50.42,12.64,31.45,96.56A15.36,15.36,0,0,1,590.08,731Z"/><polygon class="cls-16" points="258.5 823.69 280.8 823.69 280.8 686.27 258.5 686.27 258.5 823.69"/><path class="cls-17" d="M189,720.76H350.33A21.74,21.74,0,0,0,371,692.28l-18.26-56.13-43.07-10.81h39.55L312,510.92l-31.94-8h29.36l-19-58.39a21.77,21.77,0,0,0-33.47-10.88,21.51,21.51,0,0,0-7.9,10.88l-30.47,93.62h65.34L212.72,556l-44.38,136.3A21.69,21.69,0,0,0,189,720.76Z"/><polygon class="cls-18" points="704.54 861.34 726.84 861.34 726.84 723.93 704.54 723.93 704.54 861.34"/><path class="cls-19" d="M635,758.41H796.36A21.74,21.74,0,0,0,817,729.94L798.78,673.8,755.71,663h39.54L758,548.57l-31.93-8h29.35l-19-58.39a21.76,21.76,0,0,0-33.47-10.87A21.52,21.52,0,0,0,695,482.18L664.57,575.8h65.34l-71.16,17.83L614.38,729.94A21.71,21.71,0,0,0,635,758.41Z"/><path class="cls-20" d="M185.32,814A117.12,117.12,0,0,1,68.15,931.12,116.57,116.57,0,0,1,0,909.31V718.64a116.42,116.42,0,0,1,68.12-21.82c2.42,0,4.83.07,7.25.23L68.84,753l-.69,5.94L70.47,753l21-53.85c2.62.52,5.16,1.14,7.71,1.86,1,.23,1.9.53,2.81.79a117.34,117.34,0,0,1,50.78,31.15l-49.8,51.11,59.4-39.71a117,117,0,0,1,23,69.65Z"/><path class="cls-21" d="M834.44,870.71A65.77,65.77,0,1,0,868,750.34l0,40.11-8.26-39.19a65.72,65.72,0,0,0-34.91,18l20.61,29.55-26.58-22.7c-.82,1.08-1.6,2.19-2.39,3.3A65.81,65.81,0,0,0,834.44,870.71Z"/><rect class="cls-22" x="1565.27" y="742.96" width="15.81" height="97.35"/><path class="cls-23" d="M1630.31,767.42H1516a15.41,15.41,0,0,1-14.66-20.18l12.93-39.77,30.53-7.64h-28l26.39-81.09,22.63-5.68H1545l13.45-41.37a15.44,15.44,0,0,1,23.74-7.71,15.13,15.13,0,0,1,5.59,7.71L1609.35,638h-46.3l50.41,12.64,31.45,96.56A15.35,15.35,0,0,1,1630.31,767.42Z"/><polygon class="cls-24" points="1412.34 803.87 1428.15 803.87 1428.15 706.52 1412.34 706.52 1412.34 803.87"/><path class="cls-25" d="M1363.1,731h114.32a15.42,15.42,0,0,0,14.67-20.18L1479.15,671l-30.53-7.64h28l-26.39-81.08-22.63-5.68h20.81L1435,535.21a15.44,15.44,0,0,0-23.74-7.7,15,15,0,0,0-5.58,7.7l-21.59,66.36h46.31L1380,614.21l-31.45,96.56A15.35,15.35,0,0,0,1363.1,731Z"/><polygon class="cls-26" points="1874.45 825.91 1890.25 825.91 1890.25 728.56 1874.45 728.56 1874.45 825.91"/><path class="cls-27" d="M1920,685.39h-9.31l9.31,2.32V753h-94.8a15.08,15.08,0,0,1-6.79-1.57h0a15.46,15.46,0,0,1-7.22-7.41,15.25,15.25,0,0,1-.65-11.2l4.08-12.48,12.24-37.65v0L1842,636.21l50.42-12.63h-46.3l21.58-66.36a15.23,15.23,0,0,1,5.59-7.7,15.41,15.41,0,0,1,23.71,7.7l13.48,41.38h-20.8l22.63,5.65,7.67,23.57v57.57Z"/><rect class="cls-28" x="1672.34" y="686.28" width="22.3" height="137.41"/><path class="cls-29" d="M1764.17,720.76H1602.82a21.74,21.74,0,0,1-20.67-28.48l18.25-56.13,43.08-10.81h-39.55l37.26-114.42,31.94-8h-29.36l19-58.39a21.75,21.75,0,0,1,41.38,0l30.47,93.62h-65.35L1740.43,556l44.38,136.3A21.69,21.69,0,0,1,1764.17,720.76Z"/><rect class="cls-30" x="1226.3" y="723.93" width="22.3" height="137.41"/><path class="cls-31" d="M1318.13,758.41H1156.78a21.74,21.74,0,0,1-20.67-28.47l18.25-56.14L1197.44,663h-39.55l37.26-114.42,31.94-8h-29.36l19-58.39a21.75,21.75,0,0,1,41.37,0l30.47,93.62h-65.35l71.16,17.83,44.38,136.31A21.72,21.72,0,0,1,1318.13,758.41Z"/><path class="cls-32" d="M1920,702.15V925.83a117.25,117.25,0,0,1-137.58-55.22q-1.56-2.79-2.94-5.68c-.49-1-1-2-1.43-3.07A116.21,116.21,0,0,1,1767.86,814,122,122,0,0,1,1769,797.7a116.81,116.81,0,0,1,21.85-53.36l59.4,39.71-31.78-32.63h0l-7.22-7.41-10.77-11.07a119,119,0,0,1,14.2-12.61,117.1,117.1,0,0,1,47.09-21.19l12.74,32.72,8.23,21.13,2.31,5.94-.68-5.94-2.88-24.43-3.69-31.51c2.39-.16,4.8-.23,7.25-.23A118.14,118.14,0,0,1,1920,702.15Z"/><path class="cls-33" d="M1118.7,870.71a65.77,65.77,0,1,1-33.53-120.37l0,40.11,8.26-39.19a65.72,65.72,0,0,1,34.91,18l-20.6,29.55,26.58-22.7c.81,1.08,1.6,2.19,2.38,3.3A65.8,65.8,0,0,1,1118.7,870.71Z"/></g></svg>