<svg xmlns="http://www.w3.org/2000/svg" viewBox="0 0 1920 500"><defs><style>.cls-1{isolation:isolate;}.cls-2{fill:#f3c492;}.cls-3{fill:#819867;}.cls-4{fill:#0c1531;}.cls-5{fill:#617d5f;}.cls-6{fill:#0f4d71;}.cls-7{fill:#646543;}.cls-8{fill:#fcecc2;}.cls-9{fill:#898a43;}.cls-10{fill:#c7bfb9;}.cls-10,.cls-53,.cls-55,.cls-57,.cls-59,.cls-67{mix-blend-mode:multiply;}.cls-11{fill:#f29e50;}.cls-12{fill:#fdfae6;}.cls-13{fill:#c2492f;}.cls-14,.cls-35,.cls-39,.cls-42,.cls-46,.cls-47{fill:none;}.cls-14,.cls-46{stroke:#d7864b;}.cls-14,.cls-35,.cls-39,.cls-46,.cls-47{stroke-miterlimit:10;}.cls-14{stroke-width:2.36px;}.cls-15{fill:#64262e;}.cls-16{fill:#c6674a;}.cls-17{fill:#d7864b;}.cls-18,.cls-24{fill:#bdbdbd;}.cls-19{fill:#979696;}.cls-20{fill:#bf5747;}.cls-21{fill:#95313e;}.cls-22{fill:#64aca9;}.cls-23{fill:#407778;}.cls-24{stroke:#fff;stroke-width:1.65px;}.cls-24,.cls-42{stroke-linecap:round;stroke-linejoin:round;}.cls-25{fill:#538e8b;}.cls-26{fill:#331318;}.cls-27{fill:#421a1f;}.cls-28{fill:#7e2e1e;}.cls-29{fill:#963723;}.cls-30{fill:#752a1c;}.cls-31{fill:#c9c9c9;}.cls-32{fill:#8d5333;}.cls-33{fill:#6c212b;}.cls-34{fill:#4d1c22;}.cls-35{stroke:#c6674a;stroke-width:2.05px;}.cls-36{fill:#f8c499;}.cls-37{fill:#4a2030;}.cls-38{fill:#90d0ce;}.cls-39{stroke:#221f20;stroke-width:1.95px;}.cls-40{fill:#7f3843;}.cls-41{fill:#ef9a53;}.cls-42{stroke:#f8c499;stroke-width:1.06px;}.cls-43{fill:#f0a624;}.cls-44{fill:#ea832d;}.cls-45{fill:#c14151;}.cls-46,.cls-47{stroke-width:2.23px;}.cls-47{stroke:#c2492f;}.cls-48{fill:#e06e57;}.cls-49{fill:#d84152;}.cls-50{fill:#bc3348;}.cls-51{fill:#ec6d7c;}.cls-52,.cls-53{fill:#b9874a;}.cls-53{opacity:0.3;}.cls-54,.cls-55{fill:#e5e5e5;}.cls-56,.cls-57{fill:#9c632f;}.cls-57{opacity:0.4;}.cls-58{fill:#8d583d;}.cls-59,.cls-64{fill:#ccc;}.cls-59,.cls-67{opacity:0.5;}.cls-60{fill:#e6ac55;}.cls-61{fill:#e5c32e;}.cls-62,.cls-70{fill:#fff;}.cls-62{mix-blend-mode:soft-light;}.cls-63{fill:#b43831;}.cls-65{fill:#f4f4f5;}.cls-66{fill:#c3453d;}.cls-67{fill:#bcbcbc;}.cls-68{fill:#e3b787;}.cls-69{fill:#4e4d4d;}</style></defs><g class="cls-1"><g id="圖層_1" data-name="圖層 1"><rect class="cls-2" width="1920" height="500"/><path class="cls-3" d="M868.8,93c-41.3,62.3-93.1,126.4-166.9,149.9V368.1h333.9V242.9C962,219.4,910.2,155.3,868.8,93Z"/><polygon class="cls-4" points="868.8 368.1 804.1 368.1 868.8 222.3 933.6 368.1 868.8 368.1"/><path class="cls-5" d="M868.8,222.3,804.1,368.1s-.3-39.9-21-44.7C783.1,323.4,814,319.5,868.8,222.3Z"/><path class="cls-5" d="M868.8,222.3l64.8,145.8s.3-39.9,21-44.7C954.6,323.4,923.7,319.5,868.8,222.3Z"/><path class="cls-5" d="M1035.8,242.9C962,219.4,910.2,155.3,868.8,93l-1.5,2.4c7.4,30.3,66.3,132.2,87.6,148.5,4.1,3.2,17.7,11.2,20,12.4,6.5,3.2,6.1,10.4,6.1,16.3,0,23.9-.5,73.6.3,95.5h54.5Z"/><path class="cls-4" d="M702.1,242.9l-3,16.2c-1.7,9.7-4.3,22.6-6.8,35.5-1.2,6.5-2.3,13-3.6,19s-2.7,11.6-4,16.4c-2.6,9.5-4.8,15.7-4.8,15.7h-.4s.6-6.6,2.2-16.4c.7-4.9,1.8-10.5,3.1-16.6s3-12.4,4.5-18.7c3.1-12.8,6.1-25.6,8.5-35.2s3.9-16,3.9-16Z"/><rect class="cls-6" x="676.2" y="350.9" width="7" height="17.1"/><rect class="cls-6" x="671.1" y="345.8" width="17.2" height="5.14"/><path class="cls-4" d="M1036,242.8s1.6,6.4,3.9,16,5.4,22.4,8.5,35.2c1.5,6.3,3.2,12.7,4.5,18.7s2.4,11.7,3.1,16.6c1.6,9.8,2.2,16.4,2.2,16.4h-.4s-2.2-6.2-4.8-15.7c-1.3-4.8-2.7-10.4-4-16.4s-2.4-12.5-3.6-19c-2.5-12.9-5.1-25.8-6.8-35.5l-3-16.2Z"/><rect class="cls-6" x="1054.5" y="350.9" width="7" height="17.1"/><rect class="cls-6" x="1049.4" y="345.8" width="17.2" height="5.14"/><polygon class="cls-7" points="1664.8 180.8 1613.6 194.4 1565.3 172.7 1506.8 188.2 1518.8 41.2 1577.2 25.8 1625.6 47.5 1676.8 33.9 1731.9 58.6 1720 205.5 1664.8 180.8"/><polygon class="cls-8" points="1676.2 41.4 1625 54.9 1576.6 33.3 1525.4 46.8 1514.7 178.8 1565.9 165.2 1614.2 186.9 1665.4 173.4 1713.7 195 1724.5 63 1676.2 41.4"/><path class="cls-9" d="M1616,99.5c-.9-4.5-2.2-8.6-6-11.5s-8.1-4.4-7.6-10c.3-3.6,2.1-6.3,2-9.9-.3-8.4-11.8-6.2-15.8-2.6-6.8,6.2-8.4,3-12.9-3.6-3.1-4.6-7.5-6.9-12.4-9.2s-9-1.3-13.2,1.2c-2.7,1.6-7.5,11.5-7.8,12.5-2.4,7.1-4.6,16.5,3,21.9,10,7.2,24.1,1.7,35.4,2.7,8.2.8,12.5,6.3,16.5,12.7,2.5,4,2.8,6.9,7.4,8.8C1613.1,116,1617.3,106.4,1616,99.5Z"/><path class="cls-7" d="M1607.9,107.9l-1.3-.3c-1.6-.7-1.9-1.2-3.1-3.5s-1.1-2-1.8-3.2c-4.3-6.8-9.8-14.2-20.5-15.1h-.3a78.8,78.8,0,0,0-12.8.5,65.6,65.6,0,0,1-11.5.5c-3.5-.3-6.1-1.1-8.2-2.7-3.7-2.6-4-7.2-1.1-15.9.7-1.8,4.2-8.3,5.7-9.7a8.1,8.1,0,0,1,5.4-1.6,7.2,7.2,0,0,1,2.7.7c4.3,2.1,7.9,3.9,10.2,7.4l.6.8c2.8,4.1,5.4,8,10.1,8.4s7.6-2.3,10.1-4.6a9.8,9.8,0,0,1,6.1-1.9l.9.2v.5a11.8,11.8,0,0,1-.8,3.7,26,26,0,0,0-1.2,5.6c-.6,7.6,4.7,11.2,7.9,13.4l1.7,1.2c2.1,1.6,3.2,3.9,4.1,8.3.4,2.4-.2,5.3-1.5,6.8s-1,.7-1.4.6Z"/><path class="cls-9" d="M1704,115.9c-3-4.5-7.6-7.4-4.4-14.3,1.9-4-.3-7.2-.1-11.4v-.7c-.1-5.6-1.3-11.8-6-15.4-8.2-6.3-16.4-5.8-26.1-7.7-6.6-1.4-14.2,1.6-19.2,5.8s-5.6,16-5.4,22c.3,9.9,1.2,19.5-2.2,29.1-1.2,3.6-10,7.5-13.3,7.6-5.7.3-11.1-1.6-16.8-.7-4.2.7-13,.5-13.5,6.6-.7,8,.6,11.5,8.2,15.1,3.5,1.6,8,1.3,11.7,1.6,5.4.4,10.3.9,15.7-.2,8-1.5,15.5-5,20.5-11.5s7.7,4.6,9.1,6.5c2.6,3.7,5.3,7.3,9.2,9.7,5.8,3.5,12.7,1.6,16.8-3.2s8.1-8.5,4.6-13.5a14.7,14.7,0,0,0-2.9-3.2c-5-4.3,4.4-4.6,7.7-4.5s4.6-.7,5.9-2.2C1707.6,126.4,1707.5,120.9,1704,115.9Z"/><path class="cls-7" d="M1677.2,154.5a6.7,6.7,0,0,1-3-1c-3-1.8-5.2-4.8-7.6-8.2l-.6-1.2c-1.6-3.6-4-9.1-9.4-9.5-2-.2-4.9.4-7.7,4s-9.5,8-17.3,9.5c-4.1.8-8,.6-13,.2h-1.3l-3.2-.2H1611a11.3,11.3,0,0,1-3.5-.8c-5.2-2.4-5.8-3.5-5.2-9.9.7-.8,4.6-1.2,6.3-1.4l2.8-.3a13.7,13.7,0,0,1,4.6-.1l3.2.3,3.8.4a24,24,0,0,0,4.6.1c4.4-.2,15.8-4.7,18-11.1,3.3-9.4,3-18.6,2.6-27.5,0-1.2-.1-2.4-.1-3.5-.3-8.5,1.2-15.8,3.6-17.9s9.1-5.2,13.4-4.8h1.2a73.7,73.7,0,0,0,7.3,1.2c6.5,1,11.6,1.7,16.7,5.6,3.2,2.5,3.8,7.5,3.9,11.2v.8a36.8,36.8,0,0,0,.5,5.3c.4,2.1.5,2.9.1,3.7-4,8.5.3,13.8,3.1,17.3l1.7,2.2c2.3,3.4,2.3,6.2-.1,9.1a6,6,0,0,1-1.8.4c-8.3-.2-12.6,1.5-14.1,5.3-.7,1.7-1.2,5,2.8,8.5a14.2,14.2,0,0,1,2.1,2.2c.8,1.2-1.4,3.7-3.6,6.2l-.7.9a8.8,8.8,0,0,1-7,3.1Z"/><path class="cls-9" d="M1575.3,124.5c-7.5-10.5-34.5,4.5-34.7,5.3a10.5,10.5,0,0,0-5,5.7c-1.7,4.6-1.9,10.2,1.7,13.8s9.7,1.4,13.3.1c6.9-2.6,12.5,1.6,19.3,0C1579.3,147.2,1580.3,131.5,1575.3,124.5Z"/><path class="cls-7" d="M1542.1,145.7a2.1,2.1,0,0,1-1.1-.2c-1.8-1.8-1.4-5.4-.4-8.2a4.9,4.9,0,0,1,2.5-2.8l1.1-.8c2.8-1.9,15.6-8.2,23.3-7.5,2.6.2,3.3,1.1,3.5,1.4,2.1,3,2.6,8.9,1.1,13-.8,2.1-2,3.3-3.4,3.7a11.2,11.2,0,0,1-3.2.1h-.1l-3.4-.5c-1.4-.2-2.9-.5-4.4-.6a20.1,20.1,0,0,0-8.9,1.1A14.8,14.8,0,0,1,1542.1,145.7Z"/><polygon class="cls-10" points="1577.2 25.8 1565.3 172.7 1613.6 194.4 1625.6 47.5 1577.2 25.8"/><polygon class="cls-10" points="1676.8 33.9 1664.8 180.8 1720 205.5 1731.9 58.6 1676.8 33.9"/><path class="cls-11" d="M1831.7,99.3a37.2,37.2,0,1,1-19-49A37.1,37.1,0,0,1,1831.7,99.3Z"/><circle class="cls-12" cx="1797.7" cy="84.3" r="31.4" transform="translate(954.4 1674.2) rotate(-64.7)"/><polygon class="cls-13" points="1792.6 89.2 1784.5 89.4 1790.6 84.1 1769.9 72 1792.8 79.2 1792.6 71.1 1797.9 77.2 1810 56.5 1802.8 79.4 1810.9 79.2 1804.8 84.5 1825.6 96.6 1802.6 89.4 1802.8 97.5 1797.5 91.4 1785.4 112.1 1792.6 89.2"/><path class="cls-10" d="M1812.7,50.3l-30,68a37.2,37.2,0,1,0,30-68Z"/><path class="cls-14" d="M1822.5,45a6.8,6.8,0,0,1-9,3.5,6.9,6.9,0,1,1,5.5-12.6A6.8,6.8,0,0,1,1822.5,45Z"/><path class="cls-15" d="M66.5,64.5a22.6,22.6,0,0,1,7.8-1,119.1,119.1,0,0,0,13.4-1.2c10.7-1.3,22-.3,32.8-.3,8.7,0,18.3,1.3,26.9-.4,10.3-2,20.3-1.4,30.7-2.3,4.2-.3,48.5-1.1,56.4-4.4,2.4-1,2.1-2.7-.6-3-14.1-1.5-51.7-.3-65.9-2l-3.1-.3.6-.7c1.6-1.2,3.4-2.2,5.1-3.3s7.2-4.2,9.5-7.3c.7-.9.3-2.1-.8-1.6-3.8,1.7-12.2,4.7-17.9,7.7s-5.3,1.4-10.5,2.5A115.5,115.5,0,0,1,130.6,49c-6.7.2-6.7-1.5-13.2-2.2a163.2,163.2,0,0,0-18.5-.4c-12.1.2-23.6-2.5-35.4-3a2.1,2.1,0,0,0-2.3,2.3,2,2,0,0,0-1.3,1.1c-2.7,5.9-5.4,17.8,4.2,18.3A7.1,7.1,0,0,0,66.5,64.5Z"/><path class="cls-16" d="M156,54.9c9.3-.5,18.6-.7,27.9-.7h30.5c7.2,0,14.5-.8,21.7-.8.1-.7-.7-1.4-2.2-1.5-14.1-1.5-51.7-.3-65.9-2l-3.1-.3.6-.7c1.6-1.2,3.4-2.2,5.1-3.3s7.2-4.2,9.5-7.3c.7-.9.3-2.1-.8-1.6-3.8,1.7-12.2,4.7-17.9,7.7s-5.3,1.4-10.5,2.5A115.5,115.5,0,0,1,130.6,49c-6.7.2-6.7-1.5-13.2-2.2a163.2,163.2,0,0,0-18.5-.4c-12.1.2-23.6-2.5-35.4-3a2.1,2.1,0,0,0-2.3,2.3,2,2,0,0,0-1.3,1.1,24.7,24.7,0,0,0-1.6,4.6c1.8,1.5,5.3,1.8,7.4,2.8s6.9,1.3,10.1,1.2c10.6-.3,20.8-1.6,31.4-1.6,3.8,0,7.4,1,11.2.8s9.9,0,14.6,1.6C140.1,58.5,148.8,55.3,156,54.9Z"/><path class="cls-12" d="M209.3,71.6c3.6-.6,9.8-3.1,10.9-6.6.6-1.9,0-4.2-.6-6-1.7-5.1-1.1-10.1.8-15.1s-1.3-5.1-5.3-6.4a2.2,2.2,0,0,0-1.8.2c-4.1.2-7.3.2-10.9-1.6a9.4,9.4,0,0,0-5-.4c-4.3.7-6.5,4.5-6.6,8.1s.9,5.9,1.1,9-2.8,6.3-3.7,9.8,0,6.5,3.4,7.7A42.2,42.2,0,0,0,209.3,71.6Z"/><path class="cls-8" d="M220.2,65a9.7,9.7,0,0,0-.4-5.3c-3.9,1.4-10.5.8-13.2.9-6.4.2-10.7-2.2-15-5.5-.7,2.7-2.7,4.7-3.4,7.5s0,6.5,3.4,7.7a42.2,42.2,0,0,0,17.7,1.3C212.9,71,219.1,68.5,220.2,65Z"/><path class="cls-15" d="M1827.4,426.9a23.3,23.3,0,0,1-7.8,1,123,123,0,0,0-13.5,1.2c-10.7,1.3-21.9.4-32.7.4-8.7,0-18.3-1.4-26.9.3-10.4,2-20.3,1.5-30.8,2.3-4.1.3-48.4,1.1-56.4,4.4-2.4,1-2,2.8.7,3,14.1,1.5,51.7.3,65.8,2l3.1.3-.5.8-5.1,3.2c-3.2,2-7.2,4.2-9.6,7.3-.7.9-.2,2.1.9,1.6,3.8-1.7,12.1-4.7,17.8-7.7s5.4-1.3,10.5-2.5a116.7,116.7,0,0,1,20.4-2.1c6.6-.2,6.6,1.5,13.1,2.2a144.4,144.4,0,0,0,18.6.4c12-.2,23.5,2.5,35.4,3.1a2.1,2.1,0,0,0,2.2-2.4,1.9,1.9,0,0,0,1.4-1.1c2.6-5.9,5.3-17.8-4.2-18.3A6.1,6.1,0,0,0,1827.4,426.9Z"/><path class="cls-16" d="M1737.8,436.5c-9.3.5-18.5.7-27.9.7h-30.4c-7.3,0-14.5.8-21.8.8,0,.7.7,1.4,2.3,1.5,14.1,1.5,51.7.3,65.8,2l3.1.3-.5.8-5.1,3.2c-3.2,2-7.2,4.2-9.6,7.3-.7.9-.2,2.1.9,1.6,3.8-1.7,12.1-4.7,17.8-7.7s5.4-1.3,10.5-2.5a116.7,116.7,0,0,1,20.4-2.1c6.6-.2,6.6,1.5,13.1,2.2a144.4,144.4,0,0,0,18.6.4c12-.2,23.5,2.5,35.4,3.1a2.1,2.1,0,0,0,2.2-2.4,1.9,1.9,0,0,0,1.4-1.1c.5-1.3,1.1-2.9,1.6-4.6-1.9-1.5-5.4-1.8-7.5-2.8s-6.9-1.3-10.1-1.2c-10.5.3-20.8,1.6-31.4,1.6-3.8,0-7.3-.9-11.2-.8s-9.9,0-14.5-1.6C1753.7,432.9,1745,436.1,1737.8,436.5Z"/><path class="cls-12" d="M1684.6,419.8c-3.6.6-9.9,3.1-10.9,6.6-.6,1.9,0,4.2.5,6,1.7,5.2,1.1,10.1-.7,15.1s1.2,5.1,5.2,6.4a2,2,0,0,0,1.9-.2c4-.1,7.2-.2,10.9,1.6a9.4,9.4,0,0,0,5,.4c4.2-.7,6.4-4.5,6.6-8.1s-1-5.9-1.1-9,2.8-6.3,3.6-9.8,0-6.5-3.3-7.6A40.8,40.8,0,0,0,1684.6,419.8Z"/><path class="cls-8" d="M1673.7,426.4a9.6,9.6,0,0,0,.3,5.3c3.9-1.4,10.6-.8,13.3-.9,6.4-.2,10.6,2.2,14.9,5.5.7-2.7,2.8-4.7,3.4-7.5s0-6.5-3.3-7.6a40.8,40.8,0,0,0-17.7-1.4C1681,420.4,1674.7,422.9,1673.7,426.4Z"/><path class="cls-17" d="M164.9,348.6a6,6,0,0,1-6,6h-6.5a6,6,0,0,1-6-6V213.3h18.5Z"/><path class="cls-16" d="M158.9,354.6a6,6,0,0,0,6-6V213.3h-8.8c.1,4.2-.5,120.5-.5,120.5,0,6.8.8,14.1-.5,20.8Z"/><path class="cls-18" d="M144.1,207.4c-12.6-4.1-25.6-2.9-37.3,0h0c10.1-8.3,22.6-14,37.3-13.2Z"/><path class="cls-19" d="M144.1,207.4v-7.2c-2.4-.6-24.2,1-32.2,3.3q-2.6,1.8-5.1,3.9C118.5,204.5,131.5,203.3,144.1,207.4Z"/><path class="cls-19" d="M167.2,207.4c12.6-4.1,25.6-2.9,37.3,0h0c-10.1-8.3-22.6-14-37.3-13.2Z"/><rect class="cls-18" x="139.9" y="190.2" width="31.6" height="23.11" rx="6"/><path class="cls-19" d="M159.5,213.3h6a5.9,5.9,0,0,0,5.9-5.9V196.2a5.9,5.9,0,0,0-5.9-6h-7.7c4.3,2.3,5.4,6.6,5.4,11.8,0,2.6.3,5.3-.4,7.8A4.4,4.4,0,0,1,159.5,213.3Z"/><path class="cls-17" d="M93.9,295.1a6.7,6.7,0,0,1-6.7,6.7H79.7a6.7,6.7,0,0,1-6.7-6.7V141.7H93.9Z"/><path class="cls-16" d="M87.2,301.8a6.7,6.7,0,0,0,6.7-6.7V141.7H84c.1,4.8-.6,136.6-.6,136.6,0,7.6.9,16-.6,23.5Z"/><path class="cls-19" d="M139.1,102.1a5.2,5.2,0,0,0-7.7-3.4c-6.9,3.8-18.1,9.6-25.5,10.8s-26.7.7-36.9.3a6.8,6.8,0,0,0-6.8,6.9v18.8a6.6,6.6,0,0,0,6.8,6.8c10.2-.4,29.2-.9,36.9.3s18.6,7,25.5,10.9A5.1,5.1,0,0,0,139,150,113.7,113.7,0,0,0,139.1,102.1Z"/><path class="cls-18" d="M123,147.5c-.1.5-.1,1-.2,1.4l8.6,4.6A5.1,5.1,0,0,0,139,150a113.7,113.7,0,0,0,.1-47.9,5.2,5.2,0,0,0-7.7-3.4l-7.5,4a38.9,38.9,0,0,1,.4,4.9v19.8C124.3,134.3,124.4,140.8,123,147.5Z"/><rect class="cls-20" x="73" y="225.1" width="20.9" height="47.3"/><rect class="cls-21" x="83.7" y="225.1" width="10.3" height="47.3"/><path class="cls-22" d="M407.9,447.6a8.3,8.3,0,0,1-8.2,8.3H384.6a8.3,8.3,0,0,1-8.3-8.3V354.9h31.6Z"/><path class="cls-22" d="M414.1,352.7H370.2l-5.7-27.2a6.7,6.7,0,0,1,6.6-8.1h42.1a6.7,6.7,0,0,1,6.5,8.1Z"/><rect class="cls-23" x="370.2" y="352.7" width="43.8" height="2.16"/><path class="cls-18" d="M392.1,309.7c-11.8,0-21.4,5.3-21.4,7.7h42.9C413.6,315,404,309.7,392.1,309.7Z"/><path class="cls-24" d="M388.9,312.5h3.2"/><path class="cls-24" d="M377.5,314.9a20.2,20.2,0,0,1,7-2"/><rect class="cls-25" x="376.3" y="354.9" width="31.6" height="7.15"/><circle class="cls-23" cx="392.1" cy="396.5" r="7.3" transform="translate(-83.7 687.4) rotate(-76.8)"/><polygon class="cls-23" points="365 327.9 419.2 327.9 419.7 325.7 364.6 325.7 365 327.9"/><path class="cls-23" d="M376.3,447.6a8.3,8.3,0,0,0,8.3,8.3h15.1a8.3,8.3,0,0,0,8.2-8.3v-9.7H376.3Z"/><path class="cls-10" d="M399.7,455.9a8.3,8.3,0,0,0,8.2-8.3V354.9h6.2v-2.2h0l5.5-26.5v-.7a6.7,6.7,0,0,0-6.5-8.1h.4c0-2.4-9.6-7.7-21.5-7.7V455.9Z"/><rect class="cls-15" x="470.7" y="399.6" width="20.4" height="55.13" rx="9.3"/><rect class="cls-18" x="477.6" y="298.8" width="6.3" height="101.02"/><path class="cls-18" d="M487.4,250.9v32.8c0,5.5-2.7,9.9-5.9,9.9h-1.2c-3.3,0-5.9-4.4-5.9-9.9V250.9a9,9,0,0,0-3.7,7.4v31.9a9.2,9.2,0,0,0,9.3,9.3h1.8a9.3,9.3,0,0,0,9.3-9.3V258.3A9.3,9.3,0,0,0,487.4,250.9Z"/><path class="cls-26" d="M481.8,399.8v54.9a9.1,9.1,0,0,0,9.3-9V409.1C491.1,404,487.5,399.6,481.8,399.8Z"/><rect class="cls-19" x="480.8" y="298.8" width="3.1" height="101.02"/><path class="cls-13" d="M1332.9,97.5c-20.8,31.3-46.9,63.6-84,75.3v63h167.9v-63C1379.7,161.1,1353.7,128.8,1332.9,97.5Z"/><polygon class="cls-27" points="1332.9 235.8 1300.3 235.8 1332.9 162.5 1365.4 235.8 1332.9 235.8"/><path class="cls-28" d="M1332.9,162.5l-32.6,73.3s-.1-20-10.6-22.5C1289.7,213.3,1305.3,211.4,1332.9,162.5Z"/><path class="cls-28" d="M1332.9,162.5l32.5,73.3s.2-20,10.6-22.5C1376,213.3,1360.4,211.4,1332.9,162.5Z"/><path class="cls-29" d="M1416.8,172.8c-37.1-11.7-63.1-44-83.9-75.3a8.3,8.3,0,0,0-.8,1.2c3.7,15.2,33.3,66.5,44,74.7,2.1,1.6,8.9,5.6,10.1,6.2,3.2,1.6,3,5.2,3,8.2,0,12-.2,37,.2,48h27.4Z"/><path class="cls-27" d="M1249,172.9l-1.5,8.1c-.9,4.9-2.1,11.4-3.4,17.9-.6,3.2-1.2,6.5-1.8,9.5s-1.4,5.8-2,8.2c-1.3,4.8-2.4,8-2.4,8h-.2s.3-3.3,1.1-8.2c.4-2.4.9-5.3,1.5-8.3s1.5-6.3,2.3-9.5c1.5-6.4,3.1-12.8,4.3-17.7s1.9-8,1.9-8Z"/><rect class="cls-30" x="1236" y="227.2" width="3.5" height="8.6"/><rect class="cls-30" x="1233.5" y="224.6" width="8.6" height="2.58"/><path class="cls-27" d="M1416.9,172.8l2,8c1.2,4.9,2.7,11.3,4.2,17.7.8,3.2,1.6,6.4,2.3,9.5s1.2,5.9,1.6,8.3c.8,4.9,1,8.2,1,8.2h-.1s-1.2-3.2-2.5-8c-.6-2.4-1.3-5.2-2-8.2s-1.2-6.3-1.8-9.5c-1.2-6.5-2.5-13-3.4-17.9l-1.5-8.1Z"/><rect class="cls-30" x="1426.2" y="227.2" width="3.5" height="8.6"/><rect class="cls-30" x="1423.6" y="224.6" width="8.6" height="2.58"/><path class="cls-31" d="M1813.7,286a1.2,1.2,0,0,0-1.2,1.2l-.3,15.5c0,.6-.2,1.1-.8,1.1s-.8-.5-.8-1.1l-.4-15.9a.8.8,0,1,0-1.6,0l-.4,15.9c0,.6-.1,1.1-.8,1.1s-.8-.5-.8-1.1l-.3-15.9a.9.9,0,0,0-.8-.8.8.8,0,0,0-.8.8l-.4,15.9c0,.6-.2,1.1-.8,1.1s-.8-.5-.8-1.1l-.4-15.5a1.1,1.1,0,0,0-1.1-1.2,1.2,1.2,0,0,0-1.2,1.2V307c0,2.1,3,4.2,3.7,6.9,4.1,15.4-.8,74.4-.8,74.4a1.9,1.9,0,0,0,1.9,1.8h5.3a1.8,1.8,0,0,0,1.8-1.8s-4.8-59-.7-74.4c.7-2.7,3.6-4.8,3.6-6.9V287.2A1.1,1.1,0,0,0,1813.7,286Z"/><path class="cls-31" d="M1837.7,322.7c.5-2,7.9-15.1,7.9-20,0-8.6-4.8-17.8-10.7-17.8s-10.7,9.2-10.7,17.8c0,5.3,7.7,18.1,8.2,20,4,15.4-1.9,65.6-1.9,65.6a1.8,1.8,0,0,0,1.9,1.9h5.3a1.8,1.8,0,0,0,1.8-1.9S1833.6,338.1,1837.7,322.7Z"/><path class="cls-19" d="M1814.8,307V287.2a1.1,1.1,0,0,0-1.1-1.2,1.2,1.2,0,0,0-1.2,1.2l-.3,15.5c0,.6-.2,1.1-.8,1.1s-.8-.5-.8-1.1l-.4-15.9a.8.8,0,1,0-1.6,0l-.4,15.9c0,.6-.1,1.1-.8,1.1v86.3h2.7a1.8,1.8,0,0,0,1.8-1.8s-4.8-59-.7-74.4C1811.9,311.2,1814.8,309.1,1814.8,307Z"/><path class="cls-19" d="M1837.7,322.7c.5-2,7.9-15.1,7.9-20,0-8.6-4.8-17.8-10.7-17.8,9.4,27.4-2.2,4.7,0,105.3h2.8a1.8,1.8,0,0,0,1.8-1.9S1833.6,338.1,1837.7,322.7Z"/><path class="cls-32" d="M537.3,442.4a2.9,2.9,0,0,0,1,2.6,3,3,0,0,0,3,1.9c27.3,0,93.7-.2,93.7-3.9a157.4,157.4,0,0,0-2.4-19.5c-.9-3.3-16.6-10.4-32.3-4.4L580,408.6s-.1-50-.2-50.3c.3-1.9-.7-4-3.2-4H540.2a3.3,3.3,0,0,0-4,3.3C537,389.6,540.8,410.4,537.3,442.4Z"/><path class="cls-33" d="M538.3,445a2.9,2.9,0,0,1-1-2.6c3.5-32-.3-52.8-1.1-84.7a3.3,3.3,0,0,1,4-3.3h28.1s-3.1,50.1,6.4,60.7c7.9,8.8,21.1,13,32.1,15.8,5.1,1.4,15.8,4.7,16.1,4.5a110.1,110.1,0,0,1,10.5-7.4c.2,1.7,1.6,11.8,1.6,15.1s-2.3,4.9-5.1,5.2a4.7,4.7,0,0,1-1.7.4c-27.3,0-59.6-1.7-86.9-1.7A3,3,0,0,1,538.3,445Z"/><path class="cls-34" d="M581.8,368.9c0,1.5-.8,2.6-1.8,2.6H569.2c-1,0-1.8-1.1-1.8-2.6s.8-2.6,1.8-2.6H580C581,366.3,581.8,367.5,581.8,368.9Z"/><path class="cls-34" d="M581.8,379.6c0,1.5-.8,2.6-1.8,2.6H569.2c-1,0-1.8-1.1-1.8-2.6s.8-2.6,1.8-2.6H580C581,377,581.8,378.2,581.8,379.6Z"/><path class="cls-34" d="M581.8,390.3c0,1.4-.8,2.6-1.8,2.6H569.2c-1,0-1.8-1.2-1.8-2.6s.8-2.6,1.8-2.6H580C581,387.7,581.8,388.9,581.8,390.3Z"/><path class="cls-34" d="M581.8,401c0,1.4-.8,2.6-1.8,2.6H569.2c-1,0-1.8-1.2-1.8-2.6s.8-2.6,1.8-2.6H580C581,398.4,581.8,399.6,581.8,401Z"/><path class="cls-32" d="M634.1,432.8"/><path class="cls-34" d="M635.8,441.7a8.9,8.9,0,0,1-8.9,9H545.7a8.9,8.9,0,0,1-8.8-9l.8-3.3h96.9Z"/><path class="cls-32" d="M1846.9,150.6a3.1,3.1,0,0,0-4-3.2l-36.3-.2a3.3,3.3,0,0,0-3.3,4c-.1.4-.1,50.3-.1,50.3L1782.8,212c-15.7-6-31.4,1.2-32.2,4.4a157.4,157.4,0,0,0-2.4,19.5c0,3.7,66.4,3.9,93.6,3.9a3,3,0,0,0,3-1.9,2.9,2.9,0,0,0,1-2.6C1842.3,203.4,1846.1,182.5,1846.9,150.6Z"/><path class="cls-33" d="M1844.8,237.9a2.9,2.9,0,0,0,1-2.6c-3.5-31.9.3-52.8,1.1-84.7a3.1,3.1,0,0,0-4-3.2l-28-.2s3,50.1-6.5,60.7c-7.9,8.8-21,13-32,15.9-5.2,1.3-15.9,4.6-16.2,4.4a110.1,110.1,0,0,0-10.5-7.4c-.2,1.7-1.5,11.8-1.5,15.1s2.2,5,5.1,5.2a2.9,2.9,0,0,0,1.7.4c27.2,0,59.6-1.7,86.8-1.7A3,3,0,0,0,1844.8,237.9Z"/><path class="cls-34" d="M1801.3,161.8c0,1.5.8,2.6,1.8,2.6H1814c1,0,1.7-1.1,1.7-2.6s-.7-2.6-1.7-2.6h-10.9C1802.1,159.2,1801.3,160.4,1801.3,161.8Z"/><path class="cls-34" d="M1801.3,172.5c0,1.5.8,2.6,1.8,2.6H1814c1,0,1.7-1.1,1.7-2.6s-.7-2.6-1.7-2.6h-10.9C1802.1,169.9,1801.3,171.1,1801.3,172.5Z"/><path class="cls-34" d="M1801.3,183.2c0,1.5.8,2.6,1.8,2.6H1814c1,0,1.7-1.1,1.7-2.6s-.7-2.6-1.7-2.6h-10.9C1802.1,180.6,1801.3,181.8,1801.3,183.2Z"/><path class="cls-34" d="M1801.3,193.9c0,1.4.8,2.6,1.8,2.6H1814c1,0,1.7-1.2,1.7-2.6s-.7-2.6-1.7-2.6h-10.9C1802.1,191.3,1801.3,192.5,1801.3,193.9Z"/><path class="cls-22" d="M59.3,429.2v2.4a24.1,24.1,0,0,0,24.1,24.1h46.8a24.1,24.1,0,0,0,24.2-24.1v-2.4a24.1,24.1,0,0,0-24.2-24.1H83.4A24.1,24.1,0,0,0,59.3,429.2Zm70.9-15.7A15.7,15.7,0,0,1,146,429.2v2.4a15.8,15.8,0,0,1-15.8,15.7H83.4a15.7,15.7,0,0,1-15.7-15.7v-2.4a15.7,15.7,0,0,1,15.7-15.7Z"/><rect class="cls-13" x="87.8" y="403.8" width="40" height="10.93" rx="1.1"/><rect class="cls-22" x="87.8" y="442.8" width="40" height="10.93" rx="1.1"/><path class="cls-27" d="M96.6,406.8a2.5,2.5,0,1,1-2.5,2.5A2.5,2.5,0,0,1,96.6,406.8Z"/><path class="cls-27" d="M119.1,406.8a2.5,2.5,0,1,1,0,4.9,2.5,2.5,0,0,1,0-4.9Z"/><rect class="cls-19" x="1334.7" y="42.3" width="151.7" height="8.96"/><polygon class="cls-13" points="1440.4 93.5 1440.4 51.3 1486.4 51.3 1486.4 93.5 1463.3 72.1 1440.4 93.5"/><rect class="cls-10" x="1334.7" y="46.8" width="151.7" height="4.48"/><polygon class="cls-17" points="291.7 204 289.2 206.2 289.3 209.4 285.9 209.6 284.6 212.7 281.4 211.9 279.5 214.7 276.4 213.4 274.2 215.9 271.3 214.2 268.8 216.4 266.1 214.5 263.4 216.4 260.8 214.2 257.9 215.9 255.7 213.4 252.6 214.7 250.7 211.9 247.5 212.7 246.2 209.6 242.9 209.4 242.9 206.2 240.4 204 242.9 201.9 242.9 198.6 246.2 198.4 247.5 195.4 250.7 196.1 252.6 193.4 255.7 194.6 257.9 192.2 260.8 193.8 263.4 191.6 266.1 193.5 268.8 191.6 271.3 193.8 274.2 192.2 276.4 194.6 279.5 193.4 281.4 196.1 284.7 195.4 285.9 198.4 289.3 198.6 289.2 201.9 291.7 204"/><path class="cls-35" d="M266.1,211.4c-12.8,0-20.6-4.8-20.6-7.4s7.8-7.4,20.6-7.4,20.5,4.8,20.5,7.4S278.8,211.4,266.1,211.4Z"/><path class="cls-13" d="M266.1,226.4c-14.4,0-26.1-2.9-26.1-6.5v24.6c0,3.6,11.7,6.5,26.1,6.5s26.1-2.9,26.1-6.5V219.9C292.2,223.5,280.5,226.4,266.1,226.4Z"/><path class="cls-36" d="M266.1,244.8c-10.1,0-17.1-1.5-20-2.6V230.5c6.4,1.7,14.2,2.1,20,2.1s13.5-.4,19.9-2.1v11.7C283.2,243.3,276.1,244.8,266.1,244.8Z"/><path class="cls-13" d="M292.2,219.9c0,3.6-11.7,6.5-26.1,6.5s-26.1-2.9-26.1-6.5,11.7-6.5,26.1-6.5S292.2,216.4,292.2,219.9Z"/><path class="cls-37" d="M289.4,220.6c0,3.2-10.4,5.8-23.3,5.8s-23.4-2.6-23.4-5.8,10.5-5.8,23.4-5.8S289.4,217.4,289.4,220.6Z"/><polygon class="cls-17" points="1478.9 397.2 1476.5 399.3 1476.5 402.6 1473.2 402.8 1471.9 405.8 1468.7 405.1 1466.8 407.8 1463.7 406.6 1461.4 409 1458.5 407.4 1456 409.5 1453.3 407.6 1450.6 409.5 1448.1 407.4 1445.2 409 1442.9 406.6 1439.9 407.8 1438 405.1 1434.7 405.8 1433.4 402.8 1430.1 402.6 1430.2 399.3 1427.7 397.2 1430.2 395 1430.1 391.8 1433.4 391.6 1434.7 388.5 1438 389.2 1439.9 386.5 1442.9 387.8 1445.2 385.3 1448.1 386.9 1450.6 384.8 1453.3 386.7 1456 384.8 1458.5 386.9 1461.4 385.3 1463.7 387.8 1466.8 386.5 1468.7 389.2 1471.9 388.5 1473.2 391.6 1476.5 391.8 1476.5 395 1478.9 397.2"/><path class="cls-35" d="M1453.3,404.5c-12.7,0-20.5-4.7-20.5-7.3s7.8-7.4,20.5-7.4,20.6,4.8,20.6,7.4S1466.1,404.5,1453.3,404.5Z"/><path class="cls-13" d="M1453.3,419.5c-14.4,0-26.1-2.9-26.1-6.4v24.5c0,3.6,11.7,6.5,26.1,6.5s26.1-2.9,26.1-6.5V413.1C1479.4,416.6,1467.7,419.5,1453.3,419.5Z"/><path class="cls-36" d="M1453.3,438c-10.1,0-17.1-1.5-19.9-2.7V423.7c6.4,1.6,14.1,2,19.9,2a88.7,88.7,0,0,0,20-2v11.6C1470.4,436.5,1463.4,438,1453.3,438Z"/><path class="cls-13" d="M1479.4,413.1c0,3.5-11.7,6.4-26.1,6.4s-26.1-2.9-26.1-6.4,11.7-6.5,26.1-6.5S1479.4,409.5,1479.4,413.1Z"/><path class="cls-37" d="M1476.7,413.8c0,3.2-10.5,5.7-23.4,5.7s-23.3-2.5-23.3-5.7,10.4-5.8,23.3-5.8S1476.7,410.5,1476.7,413.8Z"/><polygon class="cls-17" points="1410.1 398.3 1407.6 400.4 1407.7 403.7 1404.4 403.9 1403.1 407 1399.8 406.2 1397.9 409 1394.9 407.7 1392.6 410.1 1389.7 408.5 1387.2 410.7 1384.5 408.8 1381.8 410.7 1379.3 408.5 1376.4 410.1 1374.1 407.7 1371 409 1369.1 406.2 1365.9 407 1364.6 403.9 1361.3 403.7 1361.3 400.4 1358.9 398.3 1361.3 396.2 1361.3 392.9 1364.6 392.7 1365.9 389.7 1369.1 390.4 1371 387.7 1374.1 388.9 1376.4 386.5 1379.3 388.1 1381.8 385.9 1384.5 387.8 1387.2 385.9 1389.7 388.1 1392.6 386.5 1394.9 388.9 1397.9 387.7 1399.8 390.4 1403.1 389.7 1404.4 392.7 1407.7 392.9 1407.6 396.2 1410.1 398.3"/><path class="cls-35" d="M1384.5,405.7c-12.8,0-20.6-4.8-20.6-7.4s7.8-7.4,20.6-7.4,20.5,4.8,20.5,7.4S1397.2,405.7,1384.5,405.7Z"/><path class="cls-22" d="M1384.5,420.7c-14.4,0-26.1-2.9-26.1-6.5v24.6c0,3.6,11.7,6.5,26.1,6.5s26.1-2.9,26.1-6.5V414.2C1410.6,417.8,1398.9,420.7,1384.5,420.7Z"/><path class="cls-36" d="M1384.5,439.1c-10.1,0-17.1-1.5-20-2.6V424.8c6.5,1.7,14.2,2,20,2s13.5-.3,19.9-2v11.7C1401.6,437.6,1394.6,439.1,1384.5,439.1Z"/><path class="cls-23" d="M1410.6,414.2c0,3.6-11.7,6.5-26.1,6.5s-26.1-2.9-26.1-6.5,11.7-6.5,26.1-6.5S1410.6,410.6,1410.6,414.2Z"/><path class="cls-37" d="M1407.8,414.9c0,3.2-10.4,5.8-23.3,5.8s-23.4-2.6-23.4-5.8,10.5-5.8,23.4-5.8S1407.8,411.7,1407.8,414.9Z"/><rect class="cls-17" x="680.6" y="413" width="312.1" height="15.39"/><path class="cls-17" d="M1107.7,427.4c0,12.8-9.3,23.2-20.8,23.2l-73.3-5.5c-11.5,0-20.9-4.9-20.9-17.7V414c0-12.8,9.4-17.7,20.9-17.7l73.3-5.5c11.5,0,20.8,10.4,20.8,23.2Z"/><path class="cls-17" d="M693.8,429.3a7.8,7.8,0,1,1-15.6,0V412.1a7.8,7.8,0,1,1,15.6,0Z"/><path class="cls-16" d="M678.2,420.7v8.6a7.8,7.8,0,1,0,15.6,0v-.9H992.7v-1c0,12.8,9.4,17.7,20.9,17.7l73.3,5.5c11.5,0,20.8-10.4,20.8-23.2v-6.7Z"/><rect class="cls-22" x="713" y="412.1" width="70.3" height="17.19"/><rect class="cls-23" x="713" y="420.9" width="70.3" height="8.42"/><path class="cls-22" d="M1219.2,447.4c0,4.1-4.4,7.5-9.7,7.5h-36c-5.3,0-9.7-3.4-9.7-7.5V338.1h55.4Z"/><path class="cls-22" d="M1163.8,316.6c0-8.3,8.7-15,19.4-15h16.6c10.7,0,19.4,6.7,19.4,15v19.1h-55.4Z"/><path class="cls-38" d="M1181.7,317.5c0-2.4-11.4-2.4-11.4,0,.1,14.1,0,28.3,0,42.4,0,2.4,11.4,2.4,11.4,0C1181.7,345.8,1181.8,331.6,1181.7,317.5Z"/><path class="cls-27" d="M1222.4,337.2a1.7,1.7,0,0,1-1.9,1.5h-58a1.5,1.5,0,1,1,0-3h58A1.7,1.7,0,0,1,1222.4,337.2Z"/><rect class="cls-23" x="1163.8" y="376.4" width="55.4" height="22.84"/><path class="cls-27" d="M1219.2,425.9c6.9,0,14.3-4.3,14.3-9.7V355.7c0-5.3-7.4-9.7-14.3-9.7v4.5c3.7,0,8.5,2.3,8.5,5.2v60.5c0,2.9-4.8,5.3-8.5,5.3Z"/><path class="cls-10" d="M1222.4,337.2a1.7,1.7,0,0,0-1.9-1.5h-1.3V316.6c0-8.3-8.7-15-19.4-15h-8.2c.9,2.9,2.5,108.4,1.1,124.8-.5,6.3-4.3,14.1-8.3,19.6s-10.9,6.1-17.7,6.7a10.9,10.9,0,0,0,6.8,2.2h36c5.3,0,9.7-3.4,9.7-7.5V338.7h1.3A1.7,1.7,0,0,0,1222.4,337.2Z"/><path class="cls-39" d="M617.1,97.8"/><path class="cls-17" d="M657.3,44.4c-5,5.6-11.8,11.3-29.8,3.3-65.6-29.4-60.3,50.1-60.3,50.1s-5.3,79.6,60.3,50.2c18-8.1,24.8-2.4,29.8,3.3,9,10.3,11.4,16.1,45.5,15.3,37.3-1,52.9-39.1,53.8-68.8-.9-29.7-16.5-67.8-53.8-68.7S666.3,34,657.3,44.4Z"/><path class="cls-16" d="M657.3,44.4c-5,5.6-11.8,11.3-29.8,3.3-65.6-29.4-60.3,50.1-60.3,50.1s-.2,2.6-.1,6.6c7.1,3.1,15.1,4.1,16.6-4.3a3.1,3.1,0,0,0-1.8-3.4,2.6,2.6,0,0,0,1.9-2.8c-.4-8,6.8-14.6,12.4-19.5,7.4-6.4,21.2-7.5,30.5-7.2,16.6.7,31.5,4.5,46.7-3.9,23.9-13.2,54.5-12,76.8,2.7-7.8-19.7-23-36.3-47.4-36.9C666.9,28.2,666.3,34,657.3,44.4Z"/><circle class="cls-36" cx="643.3" cy="97.8" r="27.8" transform="translate(538.1 739.9) rotate(-89.3)"/><path class="cls-15" d="M643.3,77.9a20,20,0,1,1-19.9,19.9A19.9,19.9,0,0,1,643.3,77.9Z"/><rect class="cls-40" x="435.9" y="85.8" width="187.2" height="24.06"/><path class="cls-17" d="M441.9,81.2c-16.3,4.1-32.7,4.6-49.3.2-10.5.1-10.2,34.6,0,32.8,16.6-4.3,33-3.9,49.3.2a5.5,5.5,0,0,0,6.8-5.5V86.7A5.5,5.5,0,0,0,441.9,81.2Z"/><path class="cls-41" d="M402.6,111.7a3.2,3.2,0,0,1,3.2,3.2v7.5a3.2,3.2,0,1,1-6.3,0v-7.5A3.1,3.1,0,0,1,402.6,111.7Z"/><path class="cls-41" d="M415.9,111.7a3.2,3.2,0,0,1,3.2,3.2v7.5a3.2,3.2,0,1,1-6.3,0v-7.5A3.1,3.1,0,0,1,415.9,111.7Z"/><path class="cls-41" d="M429.3,111.7a3.1,3.1,0,0,1,3.1,3.2v7.5a3.2,3.2,0,1,1-6.3,0v-7.5A3.2,3.2,0,0,1,429.3,111.7Z"/><path class="cls-41" d="M402.6,70.1a3.1,3.1,0,0,1,3.2,3.1v7.6a3.2,3.2,0,0,1-6.3,0V73.2A3.1,3.1,0,0,1,402.6,70.1Z"/><path class="cls-41" d="M415.9,70.1a3.1,3.1,0,0,1,3.2,3.1v7.6a3.2,3.2,0,0,1-6.3,0V73.2A3.1,3.1,0,0,1,415.9,70.1Z"/><path class="cls-41" d="M429.3,70.1a3.1,3.1,0,0,1,3.1,3.1v7.6a3.2,3.2,0,0,1-6.3,0V73.2A3.1,3.1,0,0,1,429.3,70.1Z"/><path class="cls-40" d="M708.9,70a7.4,7.4,0,0,1,7.5,7.4v40.8a7.5,7.5,0,0,1-7.5,7.5H704V70Z"/><line class="cls-42" x1="385.3" y1="104.6" x2="710.2" y2="104.6"/><line class="cls-42" x1="385.3" y1="100.2" x2="710.2" y2="100.2"/><line class="cls-42" x1="385.3" y1="95.9" x2="710.2" y2="95.9"/><line class="cls-42" x1="385.3" y1="91.5" x2="710.2" y2="91.5"/><path class="cls-43" d="M1432.5,352.8c0-5.3,5.9-15.3,5.9-15.3s5.9,10,5.9,15.3-2.6,6.4-5.9,6.4S1432.5,358,1432.5,352.8Z"/><path class="cls-44" d="M1434.8,354.7c0-3.2,3.6-9.4,3.6-9.4s3.7,6.2,3.7,9.4-1.7,4-3.7,4S1434.8,357.9,1434.8,354.7Z"/><rect class="cls-17" x="1439.6" y="355.1" width="34.5" height="1.85"/><path class="cls-40" d="M1438.9,354.6c1.9,0,3.4.6,3.4,1.4s-1.5,1.4-3.4,1.4-3.3-.6-3.3-1.4S1437.1,354.6,1438.9,354.6Z"/><path class="cls-19" d="M1335.1,378.2c0,2-1,3.5-2.2,3.5h-57.8c-1.2,0-2.2-1.5-2.2-3.5s1-3.4,2.2-3.4h57.8C1334.1,374.8,1335.1,376.3,1335.1,378.2Z"/><path class="cls-21" d="M1332.9,436.4a8.5,8.5,0,0,1-8.4,8.4h-40.9a8.4,8.4,0,0,1-8.4-8.4V381.7h57.7Z"/><path class="cls-21" d="M1275.5,432.7c-6.7,0-13.9-5.5-13.9-12.2V400.8c0-6.7,7.2-12.1,13.9-12.1v5.6c-3.6,0-8.2,2.9-8.2,6.5v19.7c0,3.6,4.6,6.5,8.2,6.5Z"/><path class="cls-15" d="M1299,444.8h25.5a8.5,8.5,0,0,0,8.4-8.4V381.7h-24.4C1308.7,397.8,1310,440.8,1299,444.8Z"/><path class="cls-45" d="M1286.4,387.8c0-1.6-5.1-1.6-5.1,0,.1,9.8,0,19.6,0,29.4,0,1.7,5.1,1.7,5.1,0Z"/><rect class="cls-22" x="245.6" y="69.1" width="65.6" height="49.27" transform="translate(87.9 317.3) rotate(-68.2)"/><rect class="cls-17" x="248.1" y="71.7" width="60.5" height="44.13" transform="translate(87.9 317.3) rotate(-68.2)"/><rect class="cls-36" x="242.1" y="86" width="40.6" height="2.52" transform="translate(83.9 298.3) rotate(-68.2)"/><path class="cls-40" d="M272,68.2c-.9,2.4-2.5,4-3.5,3.6s-.9-2.6,0-5,2.5-3.9,3.5-3.5S272.9,65.9,272,68.2Z"/><rect class="cls-36" x="247.4" y="88.1" width="40.6" height="2.52" transform="translate(85.2 304.6) rotate(-68.2)"/><path class="cls-40" d="M277.3,70.3c-.9,2.4-2.5,4-3.5,3.6s-.9-2.6,0-5,2.5-3.9,3.5-3.5S278.2,68,277.3,70.3Z"/><rect class="cls-36" x="252.7" y="90.2" width="40.6" height="2.52" transform="translate(86.6 310.8) rotate(-68.2)"/><path class="cls-40" d="M282.6,72.5c-.9,2.3-2.5,3.9-3.5,3.5s-1-2.6,0-4.9,2.5-4,3.4-3.6S283.5,70.1,282.6,72.5Z"/><rect class="cls-36" x="258" y="92.3" width="40.6" height="2.52" transform="translate(87.9 317.1) rotate(-68.2)"/><path class="cls-40" d="M287.9,74.6c-.9,2.3-2.5,3.9-3.5,3.5s-1-2.6,0-4.9,2.5-4,3.4-3.6S288.8,72.2,287.9,74.6Z"/><rect class="cls-36" x="263.2" y="94.4" width="40.6" height="2.52" transform="translate(89.3 323.3) rotate(-68.2)"/><path class="cls-40" d="M293.2,76.7c-1,2.3-2.5,3.9-3.5,3.5s-1-2.6,0-4.9,2.5-3.9,3.4-3.6S294.1,74.4,293.2,76.7Z"/><rect class="cls-36" x="268.5" y="96.6" width="40.6" height="2.52" transform="translate(90.6 329.6) rotate(-68.2)"/><path class="cls-40" d="M298.5,78.8c-1,2.4-2.5,4-3.5,3.6s-1-2.6,0-5,2.5-3.9,3.4-3.5S299.4,76.5,298.5,78.8Z"/><rect class="cls-36" x="273.8" y="98.7" width="40.6" height="2.52" transform="translate(92 335.8) rotate(-68.2)"/><path class="cls-40" d="M303.8,80.9c-1,2.4-2.5,4-3.5,3.6s-1-2.6,0-5,2.5-3.9,3.4-3.5S304.7,78.6,303.8,80.9Z"/><rect class="cls-22" x="228.4" y="93.1" width="78.5" height="54.99" transform="translate(56.2 324.2) rotate(-68.2)"/><rect class="cls-23" x="237.4" y="102.1" width="60.5" height="36.97" transform="translate(56.2 324.2) rotate(-68.2)"/><polygon class="cls-22" points="263.1 131.4 247.6 133 255.7 119.7 249.4 105.4 264.6 109.1 276.2 98.6 277.4 114.2 291 122.1 276.5 128 273.2 143.3 263.1 131.4"/><path class="cls-43" d="M310.4,96.3c2.7-6.7,15.3-16.4,15.3-16.4s2.4,15.7-.3,22.4-6.6,6.8-10.7,5.1S307.8,102.9,310.4,96.3Z"/><path class="cls-44" d="M312.4,99.9c1.6-4.1,9.3-10.1,9.3-10.1s1.5,9.7-.1,13.7-4.1,4.2-6.7,3.2S310.7,103.9,312.4,99.9Z"/><rect class="cls-17" x="283.9" y="124.3" width="47" height="2.52" transform="translate(76.6 364.2) rotate(-68.2)"/><path class="cls-17" d="M318.3,103.5c-1,2.4-2.5,4-3.5,3.6s-1-2.6,0-5,2.4-3.9,3.4-3.5S319.2,101.2,318.3,103.5Z"/><path class="cls-13" d="M313.4,443.3a16.3,16.3,0,0,1-16.2,16.2H220.6a16.2,16.2,0,0,1-16.1-16.2V367.9H313.4Z"/><rect class="cls-30" x="256" y="337.5" width="5.8" height="4.27"/><rect class="cls-30" x="251.8" y="333.3" width="14.3" height="4.27"/><path class="cls-13" d="M258.9,341.8c-30,0-54.4,12.5-54.4,22H313.4C313.4,354.3,289,341.8,258.9,341.8Z"/><path class="cls-46" d="M313.4,352.5c0-9.5,0-62.4-54.5-62.4s-54.4,52.9-54.4,62.4"/><path class="cls-47" d="M313.4,363.8"/><path class="cls-47" d="M204.5,363.8"/><path class="cls-29" d="M269.7,459.5h27.5a16.3,16.3,0,0,0,16.2-16.2V363.8h-.1c0-9.5-24.4-22-54.4-22a109.8,109.8,0,0,0-15.5,1.1c11.2,5.8,22.1,13.1,28,24.6,6.7,13,4.2,84.5-1,91.2A2.7,2.7,0,0,0,269.7,459.5Z"/><path class="cls-46" d="M208.6,356.3a4.1,4.1,0,1,1-8.1,0,4.1,4.1,0,0,1,8.1,0Z"/><path class="cls-46" d="M317.4,356.3a4.1,4.1,0,1,1-4-4A4,4,0,0,1,317.4,356.3Z"/><path class="cls-29" d="M313.4,378.9h13.2a4.6,4.6,0,0,1,0,9.1H313.4Z"/><path class="cls-13" d="M204.5,378.9H191.3a4.6,4.6,0,0,0,0,9.1h13.2Z"/><rect class="cls-30" x="204.5" y="363.8" width="108.8" height="4.27"/><path class="cls-48" d="M228.2,377.7c0-2.6-9.5-2.6-9.5,0,.1,15.2,0,30.5,0,45.8,0,2.6,9.5,2.6,9.5,0C228.2,408.2,228.3,392.9,228.2,377.7Z"/><path class="cls-49" d="M1343,323.8c-.6-3.8-7.2-5.6-10.1-6.8-9.4-4-31.1-.2-33,16.8-.7.7-.9,4-.8,4.6.7,3.2,3.3,6.8,7,6.8,5.6,0,6.9-8.4,9.5-11.6s12.4-3.8,16.8-1.7a11.7,11.7,0,0,0,6,1.6C1343.1,333.1,1343.5,327.2,1343,323.8Z"/><path class="cls-49" d="M1304.6,348.6c-.2-1-.7-1.8-.8-2.8s0-2,0-3-.3-.7-.7-.5l-.6.2-.3-.2h-.5l-.2-.2c.2-.1.1-.4.1-.6l-.3-.2a1.4,1.4,0,0,0,0-.9l-.3-.4c0-.2-.2-.3-.4-.2h0a.9.9,0,0,0-.7.4,3.6,3.6,0,0,0-.4.9c-.6.8-1.1,1.6-1.7,2.3s-1.8,1.8-2.6,2.8l-.3.4h-.1v.3a.7.7,0,0,0,1.3.4c0-.1,0-.1.1-.2s.5.2.6.2.6.4.6.9a.7.7,0,0,0,.4.6,5.6,5.6,0,0,1-.5.8.5.5,0,0,0,.3.7,2.2,2.2,0,0,0,2-.7c1.9-1.5,2.7,1.2,3.3,2.4s.6.3.8.1A3.8,3.8,0,0,0,1304.6,348.6Z"/><path class="cls-49" d="M1347.8,324.1a14.8,14.8,0,0,1-2.5,1.4,24.7,24.7,0,0,1-2.9.6c-.3.1-.6.5-.4.8l.3.6c0,.1-.1.2-.1.3s0,.3,0,.5-.1.1-.1.2-.5.1-.6.1-.2.2-.1.3a1.6,1.6,0,0,0-1,.2l-.3.4c-.1,0-.2.3,0,.4h0c0,.3.1.5.5.6l.9.2a20.6,20.6,0,0,1,2.6,1.2c1.1.6,2.2,1.4,3.3,1.9l.5.3h.4a.7.7,0,0,0,.1-1.3h-.1c.1-.1,0-.6,0-.7s.3-.7.7-.8.5-.2.5-.5l.9.3a.4.4,0,0,0,.6-.4c.1-.9-.4-1.3-1.1-1.8s.6-2.9,1.7-3.8.2-.6-.1-.8A4,4,0,0,0,1347.8,324.1Z"/><path class="cls-50" d="M1343,323.8c-.6-3.8-7.2-5.6-10.1-6.8a17.6,17.6,0,0,0-4.9-1.3c.1.1.1.2.3.3,2.3,1.5,1.9,4.9.3,6.8s-4.2,2-5.9,2.4-5.2,1.7-7.8,2.7c-4.4,1.7-10,5.3-11.5,10.2-.6,2.1-1.4,4-1.3,5.5a5.8,5.8,0,0,0,4,1.6c5.6,0,6.9-8.4,9.5-11.6s12.4-3.8,16.8-1.7a11.7,11.7,0,0,0,6,1.6C1343.1,333.1,1343.5,327.2,1343,323.8Z"/><path class="cls-51" d="M1313.5,321.4c3.8-2,7.4-4.1,11.3-5.9-10.3,0-23.4,5.3-24.9,18.3a4.5,4.5,0,0,0-.6,1.5,2.5,2.5,0,0,0,1.5-1.9C1301.9,327.6,1308.8,323.9,1313.5,321.4Z"/><path class="cls-49" d="M1259.5,325.8c-3.4-1.8-3-8.7-3.2-11.8-.7-10.1,10-29.4,26.7-25.6.9-.5,4.2.4,4.7.7,2.8,1.7,5.3,5.3,4.1,8.8-1.9,5.3-10.2,3.8-14.1,5.2-5.5,1.9-7.6,10.4-7.1,15.3a10.9,10.9,0,0,1-.5,6.2C1268.2,328.9,1262.5,327.4,1259.5,325.8Z"/><path class="cls-49" d="M1295.5,297.7a17.7,17.7,0,0,0-2.4-1.7l-2.8-1c-.3-.1-.6-.6-.3-.9l.4-.5a.4.4,0,0,1-.1-.3.9.9,0,0,1,.1-.5v-.2c-.2.1-.5-.1-.6-.2a.2.2,0,0,1-.1-.3,1.6,1.6,0,0,1-.9-.3.8.8,0,0,1-.2-.4c-.2-.1-.3-.3-.1-.4h0a.9.9,0,0,1,.6-.6h1l2.7-.8,3.5-1.6h.5a.1.1,0,0,1,.1-.1h.4c.6.2.5,1.2-.1,1.4h-.2c.1.1-.1.5-.1.7s.2.7.7.9.4.2.4.5l1-.2a.5.5,0,0,1,.5.5,2.1,2.1,0,0,1-1.3,1.6c-2,1.4.2,3,1.2,3.9a.5.5,0,0,1-.2.8A3.8,3.8,0,0,1,1295.5,297.7Z"/><path class="cls-49" d="M1258.2,330.5a19.9,19.9,0,0,0,2.1-2c.6-.8,1.1-1.7,1.6-2.5a.6.6,0,0,1,.9-.1l.4.5h1a.9.9,0,0,1,.3-.5c.1-.2.2-.1.3-.1a1.6,1.6,0,0,1,.6-.8h.4c.1-.2.4-.2.4,0h0a.7.7,0,0,1,.5.7c-.1.3-.1.7-.2,1a26.6,26.6,0,0,0,.3,2.8c.2,1.2.6,2.5.7,3.8a.7.7,0,0,1,.1.5h0a.4.4,0,0,1-.1.3c-.3.7-1.3.3-1.3-.3s0-.1,0-.2-.5-.2-.6-.2-.7,0-1,.5a.7.7,0,0,1-.6.3v.9a.6.6,0,0,1-.6.5,2.4,2.4,0,0,1-1.4-1.7c-.8-2.2-2.9-.4-4,.3a.6.6,0,0,1-.8-.3A3.8,3.8,0,0,1,1258.2,330.5Z"/><path class="cls-50" d="M1259.5,325.8c-3.4-1.8-3-8.7-3.2-11.8a18,18,0,0,1,.5-5c0,.1.1.2.1.3.7,2.8,4,3.5,6.4,2.6s3.2-3.3,4.2-4.8a63.4,63.4,0,0,1,5.1-6.5c3.1-3.6,8.3-7.7,13.3-7.5,2.2.1,4.3-.1,5.7.6a6,6,0,0,1,.2,4.2c-1.9,5.3-10.2,3.8-14.1,5.2-5.5,1.9-7.6,10.4-7.1,15.3a10.9,10.9,0,0,1-.5,6.2C1268.2,328.9,1262.5,327.4,1259.5,325.8Z"/><path class="cls-51" d="M1266.9,297.2c-3.1,2.9-6.3,5.6-9.3,8.7,3.3-9.7,12.6-20.4,25.4-17.5a2.6,2.6,0,0,1,1.6-.1,2.3,2.3,0,0,1-2.2.8C1276.6,288.3,1270.7,293.6,1266.9,297.2Z"/><path class="cls-49" d="M380.4,244.6c2.5,2.8-.2,9.2-1,12.2-2.9,9.8-19.5,24.2-33.9,15-1,.2-3.7-1.8-4.1-2.3-2.1-2.5-3.2-6.7-.9-9.6s10.8-.1,15-.1c5.8.1,10.8-7.2,11.9-12,.5-2.2,1-4.1,2.6-5.7C373.2,238.8,378.1,242.1,380.4,244.6Z"/><path class="cls-49" d="M337,258.8a20,20,0,0,0,1.6,2.4c.7.7,1.6,1.3,2.3,1.9a.6.6,0,0,1,0,.9l-.5.3c0,.2,0,.3-.1.4a.5.5,0,0,1-.2.4v.3a.9.9,0,0,1,.5.3c.1.1.1.3,0,.3a1.6,1.6,0,0,1,.7.7.6.6,0,0,1,.1.4.2.2,0,0,1-.1.4h0a.7.7,0,0,1-.7.4l-1-.3a13.1,13.1,0,0,0-2.8-.1l-3.8.2a.6.6,0,0,1-.6,0H332c-.6-.4-.1-1.3.5-1.2h.2c-.1-.1.2-.5.3-.6a.8.8,0,0,0-.3-1.1.7.7,0,0,1-.3-.6l-.9-.2a.4.4,0,0,1-.3-.6c.3-.8,1-.9,1.7-1.1,2.4-.6.8-2.9.3-4.1a.5.5,0,0,1,.4-.7A4.4,4.4,0,0,1,337,258.8Z"/><path class="cls-49" d="M383.2,240.7a15.3,15.3,0,0,0-2.7,1.1,19.2,19.2,0,0,0-2.3,1.9.6.6,0,0,1-.9-.3.8.8,0,0,0-.2-.5l-.4-.2-.3-.3h-.2c-.1.2-.4.3-.5.4s-.2,0-.3-.1a1.2,1.2,0,0,1-.8.6h-.4c-.2.1-.4,0-.4-.2h0a.8.8,0,0,1-.2-.8,4.1,4.1,0,0,1,.5-.9,26.8,26.8,0,0,0,.7-2.7c.2-1.3.3-2.6.6-3.8a.7.7,0,0,1,.1-.5h0l.2-.3c.5-.5,1.3.2,1.1.8h-.1c.2,0,.4.3.6.4s.7.2,1.1-.1h.6a5.9,5.9,0,0,0,.4-.8.4.4,0,0,1,.7-.2c.7.5.7,1.1.7,2,.1,2.4,2.6,1.3,3.9,1s.7.3.6.6A3.9,3.9,0,0,1,383.2,240.7Z"/><path class="cls-50" d="M380.4,244.6c2.5,2.8-.2,9.2-1,12.2a23.7,23.7,0,0,1-2.2,4.6V261c.3-2.8-2.6-4.6-5.2-4.6s-4.1,2-5.5,3.1-4.6,3-7,4.4c-4.1,2.3-10.4,4.4-15.1,2.5-2.1-.8-4-1.4-5.2-2.5a6.6,6.6,0,0,1,1.3-4c3.6-4.4,10.8-.1,15-.1,5.8.1,10.8-7.2,11.9-12,.5-2.2,1-4.1,2.6-5.7C373.2,238.8,378.1,242.1,380.4,244.6Z"/><path class="cls-51" d="M363.7,269c3.9-1.7,7.8-3.1,11.6-5-6.4,8-18.8,14.9-29.8,7.8a2.1,2.1,0,0,1-1.5-.5,2.4,2.4,0,0,1,2.3.1C351.5,274.1,358.8,271.1,363.7,269Z"/><rect class="cls-22" x="1429" y="259.7" width="65.6" height="49.27" transform="translate(13.5 630.8) rotate(-24.5)"/><rect class="cls-17" x="1431.5" y="262.3" width="60.5" height="44.13" transform="translate(13.5 630.8) rotate(-24.5)"/><rect class="cls-36" x="1448.6" y="298.9" width="40.6" height="2.52" transform="translate(7.6 635.2) rotate(-24.5)"/><path class="cls-40" d="M1448.8,307.2c2.3-1,4.5-1.1,4.9-.2s-1.1,2.6-3.4,3.6-4.5,1.2-4.9.2S1446.5,308.2,1448.8,307.2Z"/><rect class="cls-36" x="1446.2" y="293.7" width="40.6" height="2.52" transform="translate(9.5 633.7) rotate(-24.5)"/><path class="cls-40" d="M1446.4,302c2.3-1,4.5-1.1,5-.2s-1.1,2.6-3.4,3.6-4.6,1.2-5,.2S1444.1,303.1,1446.4,302Z"/><rect class="cls-36" x="1443.8" y="288.5" width="40.6" height="2.52" transform="translate(11.4 632.3) rotate(-24.5)"/><path class="cls-40" d="M1444,296.8c2.3-1,4.6-1.1,5-.2s-1.1,2.6-3.4,3.7-4.5,1.1-4.9.1S1441.7,297.9,1444,296.8Z"/><rect class="cls-36" x="1441.5" y="283.3" width="40.6" height="2.52" transform="translate(13.4 630.9) rotate(-24.5)"/><path class="cls-40" d="M1441.7,291.6c2.3-1,4.5-1.1,4.9-.2s-1.1,2.6-3.4,3.7-4.5,1.1-4.9.1S1439.4,292.7,1441.7,291.6Z"/><rect class="cls-36" x="1439.1" y="278.1" width="40.6" height="2.52" transform="translate(15.3 629.4) rotate(-24.5)"/><path class="cls-40" d="M1439.3,286.4c2.3-1,4.5-1.1,5-.1s-1.1,2.5-3.4,3.6-4.5,1.1-5,.1S1437,287.5,1439.3,286.4Z"/><rect class="cls-36" x="1436.8" y="272.9" width="40.6" height="2.52" transform="translate(17.3 628) rotate(-24.5)"/><path class="cls-40" d="M1436.9,281.2c2.4-1,4.6-1.1,5-.1s-1.1,2.5-3.4,3.6-4.5,1.1-4.9.2S1434.6,282.3,1436.9,281.2Z"/><rect class="cls-36" x="1434.4" y="267.7" width="40.6" height="2.52" transform="translate(19.2 626.5) rotate(-24.5)"/><path class="cls-40" d="M1434.6,276c2.3-1,4.5-1.1,4.9-.1s-1,2.5-3.3,3.6-4.6,1.1-5,.2S1432.3,277.1,1434.6,276Z"/><rect class="cls-22" x="1448.9" y="244.9" width="78.5" height="54.99" transform="translate(20.8 640.7) rotate(-24.5)"/><rect class="cls-23" x="1457.9" y="253.9" width="60.5" height="36.97" transform="translate(20.8 640.7) rotate(-24.5)"/><polygon class="cls-22" points="1498.9 267.7 1511.2 277.3 1496.1 281.2 1490.8 295.9 1482.4 282.8 1466.7 282.3 1476.6 270.2 1472.3 255.2 1486.8 260.9 1499.8 252.1 1498.9 267.7"/><path class="cls-43" d="M1440.4,260.4c-6.5,2.9-22.3,1.2-22.3,1.2s9.1-13,15.6-15.9,9.5-.4,11.3,3.7S1446.9,257.4,1440.4,260.4Z"/><path class="cls-44" d="M1441.5,256.5c-4,1.8-13.7.7-13.7.7s5.6-8,9.6-9.8,5.8-.2,6.9,2.3S1445.5,254.6,1441.5,256.5Z"/><rect class="cls-17" x="1439.3" y="240" width="47" height="2.52" transform="translate(31.4 627.4) rotate(-24.5)"/><path class="cls-17" d="M1439.7,249.7c2.3-1,4.6-1.1,5-.2s-1.1,2.6-3.4,3.6-4.5,1.2-5,.2S1437.4,250.8,1439.7,249.7Z"/><path class="cls-31" d="M487.4,177.3a1.2,1.2,0,0,0-1.2-1.2l-15.5-.3c-.6,0-1.1-.2-1.1-.8s.5-.8,1.1-.8l15.9-.4a.8.8,0,1,0,0-1.6l-15.9-.4c-.6,0-1.1-.1-1.1-.8s.5-.8,1.1-.8l15.9-.3a.9.9,0,0,0,.8-.8.8.8,0,0,0-.8-.8l-15.9-.4c-.6,0-1.1-.2-1.1-.8s.5-.8,1.1-.8l15.5-.4a1.1,1.1,0,0,0,1.2-1.1,1.2,1.2,0,0,0-1.2-1.2H466.4c-2.1,0-4.2,3-6.9,3.7-15.4,4.1-74.4-.8-74.4-.8a1.8,1.8,0,0,0-1.8,1.9v5.3a1.8,1.8,0,0,0,1.8,1.8s59-4.8,74.4-.7c2.7.7,4.8,3.6,6.9,3.6h19.8A1.1,1.1,0,0,0,487.4,177.3Z"/><path class="cls-31" d="M450.7,201.2c2,.6,15.1,8,20,8,8.6,0,17.8-4.8,17.8-10.7s-9.2-10.7-17.8-10.7c-5.2,0-18.1,7.7-20,8.1-15.4,4.1-65.6-1.8-65.6-1.8a1.8,1.8,0,0,0-1.9,1.8v5.3a1.8,1.8,0,0,0,1.9,1.9S435.3,197.2,450.7,201.2Z"/><path class="cls-19" d="M466.4,178.4h19.8a1.1,1.1,0,0,0,1.2-1.1,1.2,1.2,0,0,0-1.2-1.2l-15.5-.3c-.6,0-1.1-.2-1.1-.8s.5-.8,1.1-.8l15.9-.4a.8.8,0,1,0,0-1.6l-15.9-.4c-.6,0-1.1-.1-1.1-.8H383.3v2.7a1.8,1.8,0,0,0,1.8,1.8s59-4.8,74.4-.7C462.2,175.5,464.3,178.4,466.4,178.4Z"/><path class="cls-19" d="M450.7,201.2c2,.6,15.1,8,20,8,8.6,0,17.8-4.8,17.8-10.7-27.4,9.4-4.7-2.2-105.3,0v2.7a1.8,1.8,0,0,0,1.9,1.9S435.3,197.2,450.7,201.2Z"/><path class="cls-52" d="M1621.3,272.3s-.1-7.8,20.7-9.4,48.7-2.7,54.2,7.2c0,3.5-3.7,5-7.9,5.6s-7.2,1.4-12.1.2c-4.6,1.6-15.4,1.6-20.5-.3-7,2.1-16.1,1.6-19.7-.2C1630.4,276.4,1621.3,276.2,1621.3,272.3Z"/><path class="cls-53" d="M1691.1,265.7c3.9,7.3-8.3,9.9-16.4,5.7.3,1.1-2.6,3.2-3.8,3.2-5.5,1.1-9.6,0-14.2-3.2-3.5,6.4-13.7,4.6-18.3.5-4.1,3.8-11.6,3.7-16.9,1.3,1.4,3,9.4,3.1,14.5,2.2,3.6,1.8,12.7,2.3,19.7.2,5.1,1.9,15.9,1.9,20.5.3,4.9,1.2,7.9.5,12.1-.2s7.9-2.1,7.9-5.6A10.6,10.6,0,0,0,1691.1,265.7Z"/><rect class="cls-54" x="1621.2" y="271.2" width="11.4" height="19.3" rx="4.9"/><path class="cls-55" d="M1626.6,271.2h-.5a5,5,0,0,0-4.9,5v9.4a4.9,4.9,0,0,0,4.9,4.9h.8C1625.4,284,1623.1,277.1,1626.6,271.2Z"/><rect class="cls-54" x="1686.2" y="269.4" width="11.4" height="19.3" rx="4.9"/><path class="cls-55" d="M1691.6,269.4h-.5a5,5,0,0,0-4.9,5v9.4a4.9,4.9,0,0,0,4.9,4.9h.8C1690.4,282.2,1688.1,275.3,1691.6,269.4Z"/><path class="cls-56" d="M1769.4,293.7V394.4c0,1.3-1.2,2.8-3.2,4.3-5.5,4.4-16.9,9.1-21.9,9.1l-16.7-1.5-33-2.8-18.8-1.7-63-5.4-14-1.2a4.6,4.6,0,0,1-4.1-2.6,5.7,5.7,0,0,1-.3-1.8V293.7a4.8,4.8,0,0,1,.3-1.8,4.5,4.5,0,0,1,4.1-2.7l14-1.1,63-4.9,18.8-1.5,30.3-2.4,20.8-1.6c1.8,0,13.8,5.4,20,10.6C1767.9,290.2,1769.4,292.1,1769.4,293.7Z"/><path class="cls-57" d="M1761.4,401.3a.9.9,0,0,1-.8.8h0a.9.9,0,0,1-.8-.8V285.8a.9.9,0,0,1,.8-.8h0a.9.9,0,0,1,.8.8Z"/><path class="cls-52" d="M1759,283.2c-1.5,6-4.7,12.3-10.1,15.2H1747c-11.1,0-20.3-8.5-22.1-19.6-.1-.4-.1-.8-.2-1.3l19.6-.6h.6C1746.7,277,1753.6,279.5,1759,283.2Z"/><path class="cls-52" d="M1748.9,282.9V402.3c0,3-2.1,5.5-4.6,5.5l-17-.6-32.7-1.1-18.8-.6-63-2-18.1-.6-17.7-.6-11.2-.4a4.9,4.9,0,0,1-4.9-4.9V288.2a4.9,4.9,0,0,1,4.9-4.9l10.3-.4,18.6-.6,18.1-.5,63-2.1,18.8-.6,30.1-1,19.6-.6,1.4.2A5.6,5.6,0,0,1,1748.9,282.9Z"/><polygon class="cls-58" points="1702.8 406.4 1683.9 405.8 1683.9 279.4 1702.8 278.8 1702.8 406.4"/><polygon class="cls-58" points="1612.8 403.6 1594.7 403 1594.7 282.3 1612.8 281.8 1612.8 403.6"/><path class="cls-59" d="M1601.4,385.9c-4.8-33.8-1.6-70.1-3.3-103.7h-3.4V403l18.1.6h0l-3.2-1.8C1603.2,398.2,1602.3,392.6,1601.4,385.9Z"/><path class="cls-59" d="M1690.9,387.9c-5-35.4-1.7-73.3-3.5-108.5h-3.5V405.8l18.9.6h0l-3.4-1.9C1692.7,400.7,1691.8,394.9,1690.9,387.9Z"/><path class="cls-60" d="M1577.1,281.9a25.9,25.9,0,0,1-17.3,17.3V287.9a5.6,5.6,0,0,1,5.6-5.6Z"/><path class="cls-60" d="M1577,402.3l-11.2-.4a4.9,4.9,0,0,1-4.9-4.9V383.4A23.2,23.2,0,0,1,1577,402.3Z"/><path class="cls-60" d="M1748.9,282.4v16H1747c-11.1,0-20.3-8.5-22.1-19.6-.1-.4-.1-.8-.2-1.3l19.6-.6,1.4.2A5.6,5.6,0,0,1,1748.9,282.4Z"/><path class="cls-52" d="M1761,402.4c-8.3,5.2-11.7,5.9-16.7,5.9,2.5,0,4.6-2.4,4.6-5.4V390.6C1753.5,391.9,1758.9,396.5,1761,402.4Z"/><path class="cls-60" d="M1748.9,390.6v12.3c0,3-2.1,5.4-4.6,5.4l-17-.6.3-.9A22.5,22.5,0,0,1,1748.9,390.6Z"/><path class="cls-52" d="M1762.7,285.8s1.6,15.7,7,16.5v-8.7s-.1-2.9-3.4-5.5S1762.7,285.8,1762.7,285.8Z"/><path class="cls-52" d="M1769.7,386s-5.6,6.5-5.4,14.2c0,0,0,.2.2.1s5-3.5,5.1-5.1S1769.7,386,1769.7,386Z"/><path class="cls-61" d="M1612.8,295.5h0l-18.1.6h-.1a3.1,3.1,0,0,0-2.9,3V318a3,3,0,0,0,2.9,3h.1l18.1.7h0a2.9,2.9,0,0,0,3-2.8V298.3A2.9,2.9,0,0,0,1612.8,295.5Zm.7,11.7h-.7v2.7h.7v6.5a2.9,2.9,0,0,1-.7,1.9,2.6,2.6,0,0,1-2.2.9l-13.8-.4a3.5,3.5,0,0,1-2.1-1,3,3,0,0,1-.8-2v-5.9h.8v-2.7h-.8v-5.8a3,3,0,0,1,.8-2,3.5,3.5,0,0,1,2.1-1l13.8-.4a2.6,2.6,0,0,1,2.2.9,2.9,2.9,0,0,1,.7,1.9Z"/><path class="cls-61" d="M1702.9,294.7h-.1l-18.9.7h-.2a3.2,3.2,0,0,0-3,3.1v19.9a3.1,3.1,0,0,0,3,3.1h.2l18.9.7h.1a3,3,0,0,0,3-3V297.7A3,3,0,0,0,1702.9,294.7Zm.7,12.3h-.8v2.8h.8v6.9a2.9,2.9,0,0,1-3.1,2.9l-14.4-.5a2.9,2.9,0,0,1-2.2-1,2.7,2.7,0,0,1-.9-2.1v-6.2h.9V307h-.9v-6a2.9,2.9,0,0,1,.9-2.2,2.9,2.9,0,0,1,2.2-1l14.4-.5a2.9,2.9,0,0,1,2.3,1,2.8,2.8,0,0,1,.8,2Z"/><path class="cls-61" d="M1604.6,301.1a1.6,1.6,0,0,1-1.6,1.6h0a1.6,1.6,0,0,1-1.6-1.6v-4.4a1.6,1.6,0,0,1,1.6-1.6h0a1.6,1.6,0,0,1,1.6,1.6Z"/><path class="cls-61" d="M1695.1,300.8a1.7,1.7,0,0,1-1.8,1.7h0a1.7,1.7,0,0,1-1.7-1.7v-4.9a1.8,1.8,0,0,1,1.7-1.7h0a1.8,1.8,0,0,1,1.8,1.7Z"/><path class="cls-62" d="M1729.3,277.7s13.3-.8,16.4-.5a101.7,101.7,0,0,1,10.1,4.1s-7.4-3.4-7.3-2.1a68.5,68.5,0,0,1,.4,14c-1-7.4-.1-14.3-3.5-14.8S1729.3,277.7,1729.3,277.7Z"/><path class="cls-62" d="M1729.3,407.8s15.3.7,18.4.3a54,54,0,0,0,8.1-3.2s-7.4,2.7-7.3,1.4a68,68,0,0,0,.4-14c-1,7.5-.1,14.3-3.5,14.8S1729.3,407.8,1729.3,407.8Z"/><polygon class="cls-12" points="1299.2 74.6 928.1 74.6 947.4 55.4 928.1 36.1 1299.2 36.1 1279.9 55.4 1299.2 74.6"/><path class="cls-23" d="M1012.4,66.2a5.4,5.4,0,0,1-4-1.6,5.6,5.6,0,0,1-1.7-4V47.7a5.7,5.7,0,0,1,9.7-4,5.4,5.4,0,0,1,1.6,4v2.7h-3.7V47.6a1.8,1.8,0,0,0-.6-1.4,2,2,0,0,0-1.4-.6,2,2,0,0,0-1.5.6,1.8,1.8,0,0,0-.6,1.4V60.5a2.1,2.1,0,0,0,2.1,2.1,2,2,0,0,0,1.4-.6,2,2,0,0,0,.6-1.5V57.3h3.7v3.3a5.5,5.5,0,0,1-5.6,5.6Z"/><path class="cls-23" d="M1025.7,60.5l-.9,5.4h-3.7l4-23.6h4.9l4,23.6h-3.8l-.8-5.4Zm1.8-12.8-1.3,9.3h2.7Z"/><path class="cls-23" d="M1041.5,65.9H1038V42.3h5.1l3.3,17,3.2-17h4.9V65.9h-3.6V51.1l-3,14.8H1045l-3.5-14.8Z"/><path class="cls-23" d="M1064.3,42.3a5.9,5.9,0,0,1,4.2,1.6,6.1,6.1,0,0,1,1.4,4v3.5a5.5,5.5,0,0,1-1.6,4,5.4,5.4,0,0,1-4,1.6h-2v8.9h-3.6V42.3Zm2.2,5.7a2.1,2.1,0,0,0-2.1-2.1h-2.1v7.6h2.1a2.1,2.1,0,0,0,2.1-2.1Z"/><path class="cls-23" d="M1077.3,65.9h-3.5V42.3h3.5Z"/><path class="cls-23" d="M1085.6,42.3l4.7,15.9V42.3h3.5V65.9H1090l-4.9-15.1V65.9h-3.5V42.3Z"/><path class="cls-23" d="M1103.6,66.2a5.2,5.2,0,0,1-4-1.7,5.3,5.3,0,0,1-1.6-3.9V47.7a5.4,5.4,0,0,1,1.7-4,5.4,5.4,0,0,1,3.9-1.7,5.8,5.8,0,0,1,5.7,5.7v2.7h-3.7V47.6a1.8,1.8,0,0,0-.6-1.4,2,2,0,0,0-1.5-.6,2,2,0,0,0-1.4.6,1.8,1.8,0,0,0-.6,1.4V60.5a2,2,0,0,0,.6,1.5,2,2,0,0,0,1.4.6,2.1,2.1,0,0,0,2.1-2.1V55.9h-2V52.3h5.7v8.3a5.6,5.6,0,0,1-1.7,4A5.4,5.4,0,0,1,1103.6,66.2Z"/><path class="cls-23" d="M1133.6,54.8a25.2,25.2,0,0,1-2.3,6.4,3.9,3.9,0,0,0,2.4,1.2v3.3a6.6,6.6,0,0,1-4.3-1.9,6.2,6.2,0,0,1-4.5,2.3,4.6,4.6,0,0,1-4.2-2.3,5.7,5.7,0,0,1-1-3.4,9.5,9.5,0,0,1,.9-3.8,15.3,15.3,0,0,1,1-1.7,7.1,7.1,0,0,1,1-1.4l-.8-1.7-.7-1.7a15.4,15.4,0,0,1-.5-1.7,9.9,9.9,0,0,1-.2-1.7,5.9,5.9,0,0,1,.7-2.9,5.3,5.3,0,0,1,2.1-2.1,4.6,4.6,0,0,1,2.3-.5,5,5,0,0,1,2.7.7,4.4,4.4,0,0,1,1.8,2,4.3,4.3,0,0,1,.6,2.2,6.7,6.7,0,0,1-1.5,4.1l-.8,1c-.7.9-1.4,1.8-1.9,2.6a30,30,0,0,0,2.6,4.6,21.6,21.6,0,0,0,1.4-4.3Zm-8.7,8a3.4,3.4,0,0,0,2.3-1.4,23.3,23.3,0,0,1-2.9-4.5,4.1,4.1,0,0,0-.7,1.1,6,6,0,0,0-.6,2.4,2.5,2.5,0,0,0,.5,1.6A1.6,1.6,0,0,0,1124.9,62.8Zm-1.2-16.1a10.4,10.4,0,0,0,1.1,3.7l.4-.6.5-.6.8-1a3.7,3.7,0,0,0,.8-2.1,2.5,2.5,0,0,0-.2-1,1.6,1.6,0,0,0-1.6-1.2,1.5,1.5,0,0,0-1.4,1A3.4,3.4,0,0,0,1123.7,46.7Z"/><path class="cls-23" d="M1147.7,55.9v10h-3.5V42.3h3.5v10h4.3v-10h3.6V65.9H1152v-10Z"/><path class="cls-23" d="M1163.3,65.9h-3.5V42.3h3.5Z"/><path class="cls-23" d="M1171.1,58.4v7.5h-3.5V42.3h3.5v8.4l4.4-8.4h3.8l-4.9,9.6,5.7,14h-4.2l-3.7-9.6Z"/><path class="cls-23" d="M1187.6,65.9H1184V42.3h3.6Z"/><path class="cls-23" d="M1195.8,42.3l4.7,15.9V42.3h3.6V65.9h-3.9l-4.8-15.1V65.9h-3.6V42.3Z"/><path class="cls-23" d="M1213.9,66.2a5.1,5.1,0,0,1-4-1.7,5.4,5.4,0,0,1-1.7-3.9V47.7a5.7,5.7,0,0,1,9.7-4,5.4,5.4,0,0,1,1.6,4v2.7h-3.7V47.6a1.8,1.8,0,0,0-.6-1.4,2,2,0,0,0-1.4-.6,2,2,0,0,0-1.5.6,1.8,1.8,0,0,0-.6,1.4V60.5a2.1,2.1,0,0,0,2.1,2.1,2,2,0,0,0,1.4-.6,2,2,0,0,0,.6-1.5V55.9h-2V52.3h5.7v8.3a5.5,5.5,0,0,1-5.6,5.6Z"/><polygon class="cls-23" points="994.1 58.5 959.8 55.1 994.1 51.8 994.1 58.5"/><polygon class="cls-23" points="1233.2 51.8 1267.5 55.1 1233.2 58.5 1233.2 51.8"/><path class="cls-63" d="M646.7,218.2l1.3,7.1,6.9,36.4s.7,3.2-1.8,4.9-10,5.4-13,6c-10.8,3.9-6.4-22-10.3-44.7a141.8,141.8,0,0,1-2.3-21.9s7.7.1,16.5,6.9C645.5,214.2,645.9,214.1,646.7,218.2Z"/><path class="cls-64" d="M646.7,218.2l1.3,7.1-9.2,1.8a37.9,37.9,0,0,1-9,.8,141.8,141.8,0,0,1-2.3-21.9s7.7.1,16.5,6.9C645.5,214.2,645.9,214.1,646.7,218.2Z"/><path class="cls-56" d="M559.1,224.1a1.1,1.1,0,0,1-1,1.2l-17.5,4.1a1.1,1.1,0,0,1-1.4-.6l-1.9-7.4c-.2-.5.3-1,1-1.2l17.4-4.1c.7-.1,1.3.1,1.5.6Z"/><path class="cls-52" d="M556.2,216.3c.1.4-3.9,1.6-8.9,2.8s-9.2,1.8-9.3,1.4,3.9-1.7,8.9-2.8S556.1,215.9,556.2,216.3Z"/><path class="cls-52" d="M537.6,220.8s.4,1.3,13.9-2.5C551.5,218.3,539.8,221.4,537.6,220.8Z"/><path class="cls-65" d="M636.1,213.2a8.9,8.9,0,0,0-10.7-7l-92.9,21.6a9.2,9.2,0,0,0-7.4,10.5l2,10,111.7-21.2Z"/><path class="cls-66" d="M645.7,262.6a9.1,9.1,0,0,1,0,3.3,9.3,9.3,0,0,1-3.5,5.6h0a9.9,9.9,0,0,1-3.8,1.6h-.1l-93.7,17.4h-.9a10.5,10.5,0,0,1-4-.5,4.8,4.8,0,0,1-1.6-.8l-.4-.2a3.9,3.9,0,0,1-1-.8,7.7,7.7,0,0,1-1.5-1.6l-.3-.6-.3-.5a5.8,5.8,0,0,1-.7-2.1l-6.6-33.9-.2-1.2h0l111.7-21.2Z"/><path class="cls-67" d="M645.7,265.9a9.3,9.3,0,0,1-3.5,5.6h0a19.5,19.5,0,0,1-3.8,1.6h-.1l-93.7,17.4h-.9a10.5,10.5,0,0,1-4-.5l-1.6-.8-.4-.2a3.9,3.9,0,0,1-1-.8,7.7,7.7,0,0,1-1.5-1.6l-.3-.6-.3-.5a8.6,8.6,0,0,1-.7-2.1l-6.6-33.9-.2-1.2c1.9-.3,2.7,3.2,3.6,4.9,4.5,9,10,15.5,18.6,20.2C575.9,287.3,614.5,273.1,645.7,265.9Z"/><path class="cls-68" d="M623.9,245.4A31.9,31.9,0,1,1,586.5,220,31.8,31.8,0,0,1,623.9,245.4Z"/><path class="cls-52" d="M622.4,245.7a30.4,30.4,0,1,1-35.6-24.1A30.4,30.4,0,0,1,622.4,245.7Z"/><path class="cls-69" d="M616.9,246.7a24.8,24.8,0,1,1-29-19.6A24.7,24.7,0,0,1,616.9,246.7Z"/><path class="cls-59" d="M613.7,238.5c4.3,25.7-19.3,37.6-33.6,34.4a25.3,25.3,0,0,0,17.2,2.8,24.7,24.7,0,0,0,19.6-29A25.5,25.5,0,0,0,613.7,238.5Z"/><path class="cls-52" d="M606.2,210.7l-39.7,9.1a39.6,39.6,0,0,1,2.2-7.5,9.8,9.8,0,0,1,5.9-5.4l18.8-4.3a9.7,9.7,0,0,1,7.7,2.3A38.2,38.2,0,0,1,606.2,210.7Z"/><path class="cls-56" d="M601.1,204.9a9.7,9.7,0,0,0-7.7-2.3l-.9.2c5.1.6,6,3.6,10.6,8.5l3.1-.6A38.2,38.2,0,0,0,601.1,204.9Z"/><path class="cls-69" d="M560.5,231.5a4.2,4.2,0,1,0-8.3,1.5,4.4,4.4,0,0,0,5,3.4A4.1,4.1,0,0,0,560.5,231.5Z"/><path class="cls-52" d="M552.8,233.5a4.1,4.1,0,0,1,3.3-4.9,4.2,4.2,0,0,1,3.3.6,4.4,4.4,0,0,0-3.8-1.1,4.2,4.2,0,0,0-3.4,4.9,4,4,0,0,0,1.8,2.7A3.7,3.7,0,0,1,552.8,233.5Z"/><path class="cls-70" d="M574.3,246.4s-.2-5.5,6.4-9.9,8.7-1.7,8.7-1.7,1.1,1.2-4.9,3.8C575.5,242.7,575.4,250.9,574.3,246.4Z"/><path class="cls-70" d="M577.1,253.7a2.1,2.1,0,0,1-1.7,2.4,2.1,2.1,0,0,1-2.5-1.7,2.1,2.1,0,0,1,1.7-2.4A2.2,2.2,0,0,1,577.1,253.7Z"/><path class="cls-64" d="M1092.7,197.7a1.9,1.9,0,0,0,2.8.1h0a1.9,1.9,0,0,0,.1-2.8l-44.7-48.8a2,2,0,0,0-2.8-.2h0a2.1,2.1,0,0,0-.1,2.9Z"/><path class="cls-64" d="M1111.8,180.3a2,2,0,0,0,2.8.1h0a2,2,0,0,0,.1-2.8L1070,128.7a2,2,0,0,0-2.8-.1h0a1.9,1.9,0,0,0-.1,2.8Z"/><path class="cls-56" d="M1075.8,219.4l47,51.4c3.8,4.1,11.2,4.4,17.9,2.5l3.2-1.1a19.9,19.9,0,0,0,3.6-1.7,17.9,17.9,0,0,0,3.8-2.5l.4-.3,19.9-18.3c6.8-6.2-1.2-16-7.4-22.7l-43.9-48c-6.2-6.8-29.1-3-35.8,3.2,0,0-3.2,4.5-5.6,8.2h0l-2.2,3.4h0l-.9,1.6c-.7,1.2-1.3,2.6-1.9,3.9C1071,206.4,1070.8,214,1075.8,219.4Z"/><path class="cls-52" d="M1072.1,126c-5.7-6.3-4-1.6-10.4,3.4-3.9,3-12.4,11.8-16.6,14.6s-1,2.9-.3,5.5,2.9.6,4.6-.5a12.2,12.2,0,0,0,4.3-3.9,18.7,18.7,0,0,0,7.2-6.8c3.2-1.5,6.3-4.6,7-6.4C1070.2,130.4,1073.3,127.4,1072.1,126Z"/><path class="cls-53" d="M1043.7,147.6c3.5,2.2,7.6-.5,9.1-4.6.3.5,2,.3,2.4-.1a8.2,8.2,0,0,0,4-5.7c3.3,1.1,6.4-2.8,6.7-5.8,2.7.1,5.3-2.4,6.4-5,.5,1.5-2.3,4.1-4.4,5.5s-3.8,4.9-7,6.4a18.7,18.7,0,0,1-7.2,6.8,12.2,12.2,0,0,1-4.3,3.9c-1.7,1.1-3.5,1.8-4.6.5S1044.8,148.6,1043.7,147.6Z"/><rect class="cls-52" x="1100.5" y="156" width="66.6" height="108.67" rx="18.4" transform="translate(155.3 820.4) rotate(-42.5)"/><path class="cls-59" d="M1134.1,161.3l48.6,53.1a18.3,18.3,0,0,1-1.2,25.9l-22,20.2a17.5,17.5,0,0,1-5.4,3.4C1195.2,223.6,1162.4,201.7,1134.1,161.3Z"/><rect class="cls-58" x="1103" y="162.2" width="53.8" height="87.81" rx="14.8" transform="translate(157.1 816.7) rotate(-42.5)"/><rect class="cls-58" x="1103" y="162.4" width="52.9" height="86.25" rx="14.6" transform="translate(157.4 816.2) rotate(-42.5)"/><path class="cls-60" d="M1126.7,266.5c4.4,4.9,10.8,6.4,14,6.8l3.2-1.1a19.9,19.9,0,0,0,3.6-1.7c-7.2,2.5-16.8-6.3-16.8-6.3l-49.8-54.6a16.3,16.3,0,0,1-4.2-16.1h0l-.9,1.6c-.7,1.2-1.3,2.6-1.9,3.9a20.5,20.5,0,0,0,3.7,13.7"/><path class="cls-60" d="M1097.7,189.1a4.2,4.2,0,0,1,.3-6l11.9-10.9a4.2,4.2,0,0,1,6,.3h0a4.3,4.3,0,0,1-.2,6l-12,10.9a4.2,4.2,0,0,1-6-.3Z"/></g></g></svg>