<?xml version="1.0" encoding="utf-8"?>
<!-- Generator: Adobe Illustrator 25.2.3, SVG Export Plug-In . SVG Version: 6.00 Build 0)  -->
<svg version="1.1" id="圖層_1" xmlns="http://www.w3.org/2000/svg" xmlns:xlink="http://www.w3.org/1999/xlink" x="0px" y="0px"
	 viewBox="0 0 1920 500" style="enable-background:new 0 0 1920 500;" xml:space="preserve">
<style type="text/css">
	.st0{fill:#4C95AD;}
	.st1{fill:#819867;}
	.st2{fill:#0C1531;}
	.st3{fill:#617D5F;}
	.st4{fill:#0F4D71;}
	.st5{fill:#646543;}
	.st6{fill:#FCECC2;}
	.st7{fill:#898A43;}
	.st8{fill:#F29E50;}
	.st9{fill:#FDFAE6;}
	.st10{fill:#C2492F;}
	.st11{fill:none;stroke:#D7864B;stroke-width:2.36;stroke-miterlimit:10;}
	.st12{fill:#64262E;}
	.st13{fill:#C6674A;}
	.st14{fill:#D7864B;}
	.st15{fill:#BDBDBD;}
	.st16{fill:#979696;}
	.st17{fill:#BF5747;}
	.st18{fill:#95313E;}
	.st19{fill:#64ACA9;}
	.st20{fill:#407778;}
	.st21{fill:#BDBDBD;stroke:#FFFFFF;stroke-width:1.65;stroke-linecap:round;stroke-linejoin:round;}
	.st22{fill:#538E8B;}
	.st23{fill:#331318;}
	.st24{fill:#421A1F;}
	.st25{fill:#7E2E1E;}
	.st26{fill:#963723;}
	.st27{fill:#752A1C;}
	.st28{fill:#C9C9C9;}
	.st29{fill:#8D5333;}
	.st30{fill:#6C212B;}
	.st31{fill:#4D1C22;}
	.st32{fill:#C7BFB9;}
	.st33{fill:none;stroke:#C6674A;stroke-width:2.05;stroke-miterlimit:10;}
	.st34{fill:#F8C499;}
	.st35{fill:#4A2030;}
	.st36{fill:#90D0CE;}
	.st37{fill:none;stroke:#221F20;stroke-width:1.95;stroke-miterlimit:10;}
	.st38{fill:#7F3843;}
	.st39{fill:#EF9A53;}
	.st40{fill:none;stroke:#F8C499;stroke-width:1.06;stroke-linecap:round;stroke-linejoin:round;}
	.st41{fill:#F0A624;}
	.st42{fill:#EA832D;}
	.st43{fill:#C14151;}
	.st44{fill:none;stroke:#D7864B;stroke-width:2.23;stroke-miterlimit:10;}
	.st45{fill:none;stroke:#C2492F;stroke-width:2.23;stroke-miterlimit:10;}
	.st46{fill:#E06E57;}
	.st47{fill:#D84152;}
	.st48{fill:#BC3348;}
	.st49{fill:#EC6D7C;}
	.st50{fill:#B9874A;}
	.st51{opacity:0.3;fill:#B9874A;enable-background:new    ;}
	.st52{fill:#E5E5E5;}
	.st53{fill:#9C632F;}
	.st54{opacity:0.4;fill:#9C632F;enable-background:new    ;}
	.st55{fill:#8D583D;}
	.st56{fill:#E6AC55;}
	.st57{fill:#E5C32E;}
	.st58{fill:#FFFFFF;}
	.st59{fill:#B43831;}
	.st60{fill:#CCCCCC;}
	.st61{fill:#F4F4F5;}
	.st62{fill:#C3453D;}
	.st63{fill:#E3B787;}
	.st64{fill:#4E4D4D;}
	.st65{opacity:0.5;fill:#CCCCCC;enable-background:new    ;}
</style>
<rect class="st0" width="1920" height="500"/>
<path class="st1" d="M868.8,93c-41.3,62.2-93.2,126.4-166.9,149.8V368h333.8V242.9C962,219.4,910.2,155.3,868.8,93z"/>
<polygon class="st2" points="868.8,368.1 804.1,368.1 868.8,222.3 933.6,368.1 "/>
<path class="st3" d="M868.8,222.3l-64.7,145.8c0,0-0.3-39.8-21.1-44.7C783.1,323.4,814,319.5,868.8,222.3z"/>
<path class="st3" d="M868.8,222.3l64.7,145.8c0,0,0.3-39.8,21.1-44.7C954.6,323.4,923.7,319.5,868.8,222.3z"/>
<path class="st3" d="M1035.8,242.9C962,219.4,910.2,155.3,868.8,93l-1.6,2.4c7.4,30.2,66.3,132.2,87.6,148.5
	c4.1,3.2,17.7,11.2,20,12.3c6.5,3.3,6.1,10.4,6.1,16.3c0,23.9-0.5,73.6,0.3,95.4h54.4v-125L1035.8,242.9z"/>
<path class="st2" d="M702.1,242.9l-3,16.2c-1.8,9.7-4.3,22.6-6.8,35.5c-1.2,6.5-2.4,12.9-3.6,19s-2.7,11.6-4,16.4
	c-2.6,9.5-4.8,15.8-4.8,15.8h-0.4c0,0,0.5-6.6,2.1-16.4c0.8-4.9,1.8-10.5,3.1-16.6s3-12.4,4.5-18.8c3.1-12.8,6.1-25.6,8.5-35.2
	s3.9-16,3.9-16L702.1,242.9z"/>
<rect x="676.2" y="350.9" class="st4" width="7" height="17.1"/>
<rect x="671.1" y="345.8" class="st4" width="17.2" height="5.1"/>
<path class="st2" d="M1036,242.8c0,0,1.6,6.4,3.9,16c2.3,9.6,5.4,22.4,8.5,35.2c1.5,6.4,3.2,12.8,4.5,18.8s2.3,11.7,3.1,16.6
	c1.6,9.7,2.1,16.4,2.1,16.4h-0.4c0,0-2.2-6.2-4.8-15.8c-1.3-4.8-2.7-10.3-4-16.4s-2.4-12.5-3.6-19c-2.5-12.9-5-25.8-6.8-35.5
	l-3-16.2L1036,242.8z"/>
<rect x="1054.5" y="350.9" class="st4" width="7" height="17.1"/>
<rect x="1049.4" y="345.8" class="st4" width="17.2" height="5.1"/>
<polygon class="st5" points="1664.8,180.8 1613.6,194.4 1565.3,172.7 1506.8,188.2 1518.8,41.2 1577.2,25.8 1625.6,47.5 
	1676.8,33.9 1731.9,58.6 1720,205.5 "/>
<polygon class="st6" points="1676.2,41.4 1625,54.9 1576.6,33.3 1525.4,46.8 1514.7,178.8 1565.9,165.2 1614.2,186.9 1665.4,173.4 
	1713.7,195 1724.5,63 "/>
<path class="st7" d="M1616,99.5c-0.9-4.5-2.2-8.6-6-11.5s-8-4.4-7.6-10c0.3-3.6,2.2-6.3,2-9.9c-0.3-8.4-11.8-6.2-15.8-2.6
	c-6.8,6.1-8.4,2.9-12.9-3.6c-3.1-4.6-7.5-6.9-12.4-9.2s-9-1.3-13.2,1.2c-2.7,1.6-7.4,11.4-7.8,12.5c-2.4,7.1-4.6,16.5,3,22
	c10,7.2,24.1,1.7,35.4,2.7c8.1,0.7,12.4,6.2,16.5,12.7c2.5,4,2.8,6.9,7.4,8.8C1613.1,116,1617.3,106.4,1616,99.5z"/>
<path class="st5" d="M1607.9,107.9c-0.4,0-0.8-0.1-1.2-0.3c-1.6-0.7-1.9-1.2-3.1-3.5s-1-2-1.8-3.2c-4.3-6.8-9.8-14.2-20.5-15.1h-0.2
	c-4.3-0.2-8.6,0-12.8,0.5c-3.8,0.5-7.7,0.7-11.6,0.5c-2.9-0.1-5.8-1.1-8.2-2.7c-3.7-2.7-4-7.3-1.1-15.9c0.7-1.8,4.2-8.3,5.7-9.7
	c1.6-1.1,3.5-1.6,5.4-1.6c0.9,0.1,1.8,0.3,2.6,0.7c4.4,2.1,7.9,3.9,10.3,7.4l0.6,0.9c2.8,4.1,5.4,8,10.1,8.3s7.6-2.3,10.1-4.6
	c1.8-1.3,3.9-1.9,6.1-1.8c0.3,0,0.6,0,0.8,0.2c0.1,0.2,0.1,0.3,0.1,0.5c-0.1,1.3-0.3,2.5-0.8,3.7c-0.7,1.8-1.1,3.7-1.2,5.6
	c-0.6,7.7,4.7,11.3,7.9,13.4l1.8,1.2c2.1,1.6,3.2,3.8,4.1,8.3c0.5,2.3-0.1,4.8-1.5,6.7C1608.7,107.9,1608.3,108,1607.9,107.9
	L1607.9,107.9z"/>
<path class="st7" d="M1704,115.9c-3-4.5-7.7-7.4-4.4-14.3c1.9-3.9-0.3-7.2-0.1-11.3c0-0.2,0-0.5-0.1-0.7c0-5.6-1.3-11.8-5.9-15.4
	c-8.2-6.4-16.5-5.8-26.2-7.8c-6.6-1.3-14.2,1.6-19.1,5.9s-5.6,16-5.5,22c0.3,9.9,1.2,19.5-2.2,29.1c-1.3,3.6-10.1,7.4-13.3,7.6
	c-5.7,0.3-11.1-1.6-16.8-0.7s-13,0.4-13.5,6.5c-0.7,8,0.6,11.6,8.2,15.1c3.4,1.6,8,1.2,11.6,1.5c5.4,0.4,10.4,0.9,15.8-0.1
	c8-1.5,15.5-5,20.5-11.5s7.7,4.6,9.1,6.5c2.6,3.7,5.3,7.3,9.2,9.7c5.8,3.6,12.7,1.6,16.8-3.2s8.1-8.5,4.6-13.5
	c-0.8-1.2-1.9-2.3-3-3.2c-5-4.3,4.5-4.6,7.8-4.5s4.6-0.7,5.9-2.2C1707.6,126.4,1707.5,120.9,1704,115.9z"/>
<path class="st5" d="M1677.2,154.5c-1.1-0.1-2.2-0.4-3.1-1c-2.9-1.8-5.2-4.7-7.6-8.1c-0.2-0.4-0.4-0.8-0.6-1.3c-1.6-3.6-4-9-9.4-9.5
	c-2-0.2-5,0.4-7.7,4s-9.5,8-17.3,9.5c-4.1,0.8-8,0.6-13.1,0.2h-1.3l-3.2-0.2h-3c-1.2,0-2.5-0.3-3.6-0.8c-5.2-2.4-5.7-3.5-5.2-9.9
	c0.7-0.8,4.7-1.2,6.4-1.4l2.8-0.3c1.5-0.2,3.1-0.2,4.6-0.1l3.3,0.4l3.7,0.4c1.5,0.1,3.1,0.2,4.6,0.1c4.4-0.2,15.8-4.7,18.1-11.1
	c3.3-9.4,2.9-18.6,2.6-27.5c0-1.2-0.1-2.3-0.1-3.5c-0.3-8.4,1.2-15.8,3.6-17.8s9.1-5.2,13.4-4.9l1.3,0.2l7.3,1.2
	c6.5,0.9,11.6,1.7,16.7,5.6c3.2,2.5,3.8,7.4,3.9,11.2c0,0.2,0,0.5,0.1,0.7c0,1.8,0.2,3.6,0.5,5.4c0.4,2,0.5,2.8,0.1,3.7
	c-4,8.5,0.3,13.8,3.1,17.3c0.6,0.8,1.2,1.5,1.7,2.3c2.3,3.3,2.2,6.1-0.1,9c-0.6,0.3-1.2,0.4-1.8,0.4c-8.3-0.2-12.7,1.5-14.1,5.4
	c-0.6,1.7-1.1,5,2.8,8.5c0.8,0.7,1.5,1.4,2.1,2.3c0.8,1.1-1.3,3.7-3.6,6.2l-0.7,0.8c-1.9,1.8-4.5,2.8-7.2,2.8L1677.2,154.5z"/>
<path class="st7" d="M1575.3,124.5c-7.5-10.5-34.5,4.4-34.8,5.3c-2.3,1.1-4.1,3.2-4.9,5.6c-1.7,4.6-1.9,10.2,1.7,13.8
	s9.7,1.4,13.2,0.1c6.9-2.6,12.5,1.6,19.3,0C1579.3,147.2,1580.3,131.5,1575.3,124.5z"/>
<path class="st5" d="M1542.1,145.7l-1-0.2c-1.9-1.8-1.5-5.4-0.4-8.1c0.4-1.2,1.3-2.2,2.5-2.8l1.1-0.8c2.8-1.9,15.5-8.1,23.3-7.5
	c2.6,0.2,3.3,1.2,3.5,1.5c2.1,2.9,2.6,8.9,1.1,12.9c-0.8,2.1-2,3.4-3.4,3.7c-1.1,0.2-2.1,0.3-3.2,0.2l0,0l-3.5-0.5
	c-1.4-0.2-2.9-0.5-4.4-0.6c-3-0.3-6,0.1-8.8,1.1C1546.7,145.4,1544.4,145.8,1542.1,145.7z"/>
<path class="st8" d="M1831.7,99.3c-8.3,18.8-30.2,27.3-49,19.1c-18.8-8.3-27.3-30.2-19.1-49c8.3-18.8,30.2-27.3,49-19.1
	c0,0,0,0,0.1,0c18.8,8.2,27.3,30.1,19,48.9C1831.7,99.2,1831.7,99.3,1831.7,99.3z"/>
<ellipse transform="matrix(0.4274 -0.9041 0.9041 0.4274 953.3036 1674.9819)" class="st9" cx="1798.9" cy="85" rx="31.4" ry="31.4"/>
<polygon class="st10" points="1792.6,89.2 1784.5,89.4 1790.6,84.1 1769.9,72 1792.8,79.2 1792.6,71.1 1797.9,77.2 1810,56.5 
	1802.8,79.4 1810.9,79.2 1804.8,84.5 1825.6,96.6 1802.6,89.4 1802.8,97.5 1797.5,91.4 1785.4,112.1 "/>
<path class="st11" d="M1822.5,45c-1.5,3.5-5.6,5.1-9.1,3.5c-3.5-1.5-5.1-5.6-3.5-9.1c1.5-3.5,5.6-5.1,9.1-3.5c0,0,0,0,0,0
	c3.5,1.5,5.1,5.5,3.6,8.9C1822.6,44.9,1822.5,44.9,1822.5,45z"/>
<path class="st12" d="M66.5,64.5c2.5-0.7,5.2-1.1,7.8-1c4.5-0.1,9-0.5,13.4-1.2c10.7-1.3,22-0.3,32.7-0.3c8.7,0,18.3,1.4,26.9-0.3
	c10.4-2,20.3-1.5,30.8-2.3c4.2-0.3,48.5-1.1,56.4-4.4c2.4-1,2.1-2.7-0.6-3c-14.1-1.5-51.7-0.3-65.9-1.9c-1-0.2-2.1-0.2-3.1-0.3
	l0.6-0.8c1.6-1.2,3.4-2.2,5.1-3.3s7.2-4.2,9.6-7.3c0.7-0.9,0.2-2.1-0.8-1.6c-3.8,1.7-12.2,4.7-17.8,7.7s-5.4,1.3-10.5,2.4
	c-6.7,1.3-13.6,2-20.4,2.1c-6.6,0.2-6.6-1.5-13.1-2.2c-6.2-0.6-12.4-0.7-18.6-0.4c-12,0.3-23.5-2.4-35.4-3c-1.1-0.1-2.1,0.7-2.2,1.8
	c0,0.2,0,0.4,0,0.5c-0.6,0.2-1.1,0.6-1.3,1.2c-2.7,5.9-5.4,17.7,4.2,18.3L66.5,64.5z"/>
<path class="st13" d="M156,54.9c9.3-0.5,18.6-0.8,27.9-0.8h30.4c7.3,0,14.5-0.8,21.8-0.8c0.1-0.7-0.7-1.3-2.2-1.5
	c-14.1-1.5-51.7-0.3-65.9-1.9c-1-0.2-2.1-0.2-3.1-0.3l0.6-0.8c1.6-1.2,3.4-2.2,5.1-3.3s7.2-4.2,9.6-7.3c0.7-0.9,0.2-2.1-0.8-1.6
	c-3.8,1.7-12.2,4.7-17.8,7.7s-5.4,1.3-10.5,2.4c-6.7,1.3-13.6,2-20.4,2.1c-6.6,0.2-6.6-1.5-13.1-2.2c-6.2-0.6-12.4-0.7-18.6-0.4
	c-12,0.3-23.5-2.4-35.4-3c-1.1-0.1-2.1,0.7-2.2,1.8c0,0.2,0,0.4,0,0.5c-0.6,0.2-1.1,0.6-1.3,1.2c-0.7,1.5-1.2,3-1.6,4.6
	c1.9,1.5,5.4,1.8,7.5,2.8s6.9,1.3,10.1,1.2c10.5-0.3,20.8-1.6,31.4-1.6c3.8,0,7.4,1,11.2,0.9c4.9-0.4,9.8,0.1,14.5,1.5
	C140.1,58.5,148.8,55.3,156,54.9z"/>
<path class="st9" d="M209.3,71.6c3.6-0.6,9.9-3.2,10.9-6.6c0.6-1.9,0-4.2-0.6-6c-1.7-5.2-1.1-10.1,0.8-15.1s-1.2-5.1-5.2-6.4
	c-0.6-0.3-1.3-0.2-1.9,0.2c-4.1,0.2-7.3,0.2-10.9-1.6c-1.6-0.6-3.3-0.7-5-0.4c-4.3,0.7-6.5,4.6-6.6,8.2s1,5.9,1.1,9
	s-2.8,6.3-3.7,9.8c-0.9,3.5,0,6.4,3.4,7.6C197.3,72,203.4,72.4,209.3,71.6z"/>
<path class="st6" d="M220.2,65c0.4-1.8,0.2-3.6-0.4-5.3c-3.9,1.4-10.6,0.8-13.3,0.9c-6.4,0.2-10.6-2.2-14.9-5.5
	c-0.7,2.7-2.8,4.8-3.4,7.6s0,6.4,3.4,7.6s12.7,2.2,17.7,1.4S219.1,68.5,220.2,65z"/>
<path class="st12" d="M1827.4,426.9c-2.5,0.7-5.2,1.1-7.8,1c-4.5,0.1-9,0.5-13.4,1.2c-10.7,1.3-22,0.3-32.7,0.3
	c-8.7,0-18.3-1.4-26.9,0.3c-10.4,2-20.3,1.5-30.8,2.3c-4.2,0.3-48.5,1.1-56.4,4.4c-2.4,1-2.1,2.7,0.6,3c14.1,1.5,51.7,0.3,65.9,1.9
	c1,0.2,2.1,0.2,3.1,0.3l-0.6,0.8c-1.6,1.2-3.4,2.2-5.1,3.3s-7.2,4.2-9.6,7.3c-0.7,0.9-0.2,2.1,0.8,1.6c3.8-1.7,12.2-4.7,17.8-7.7
	s5.4-1.3,10.5-2.4c6.7-1.3,13.6-2,20.4-2.1c6.6-0.2,6.6,1.5,13.1,2.2c6.2,0.6,12.4,0.7,18.6,0.4c12-0.3,23.5,2.4,35.4,3
	c1.1,0.1,2.1-0.7,2.2-1.8c0-0.2,0-0.4,0-0.5c0.6-0.2,1.1-0.6,1.3-1.2c2.7-5.9,5.4-17.7-4.2-18.3
	C1828.8,426.3,1828.1,426.6,1827.4,426.9z"/>
<path class="st13" d="M1737.8,436.5c-9.3,0.5-18.6,0.8-27.9,0.8h-30.4c-7.3,0-14.5,0.8-21.8,0.8c-0.1,0.7,0.7,1.3,2.2,1.5
	c14.1,1.5,51.7,0.3,65.9,1.9c1,0.2,2.1,0.2,3.1,0.3l-0.6,0.8c-1.6,1.2-3.4,2.2-5.1,3.3s-7.2,4.2-9.6,7.3c-0.7,0.9-0.2,2.1,0.8,1.6
	c3.8-1.7,12.2-4.7,17.8-7.7s5.4-1.3,10.5-2.4c6.7-1.3,13.6-2,20.4-2.1c6.6-0.2,6.6,1.5,13.1,2.2c6.2,0.6,12.4,0.7,18.6,0.4
	c12-0.3,23.5,2.4,35.4,3c1.1,0.1,2.1-0.7,2.2-1.8c0-0.2,0-0.4,0-0.5c0.6-0.2,1.1-0.6,1.3-1.2c0.7-1.5,1.2-3,1.6-4.6
	c-1.9-1.5-5.4-1.8-7.5-2.8s-6.9-1.3-10.1-1.2c-10.5,0.3-20.8,1.6-31.4,1.6c-3.8,0-7.4-1-11.2-0.9c-4.9,0.4-9.8-0.1-14.5-1.5
	C1753.7,432.9,1745,436.1,1737.8,436.5z"/>
<path class="st9" d="M1684.6,419.8c-3.6,0.6-9.9,3.2-10.9,6.6s0,4.2,0.6,6c1.7,5.2,1.1,10.1-0.8,15.1s1.2,5.1,5.2,6.4
	c0.6,0.3,1.3,0.2,1.9-0.2c4.1-0.2,7.3-0.2,10.9,1.6c1.6,0.6,3.3,0.7,5,0.4c4.3-0.7,6.5-4.6,6.6-8.2s-1-5.9-1.1-9s2.8-6.3,3.7-9.8
	s0-6.4-3.4-7.6C1696.6,419.4,1690.5,419,1684.6,419.8z"/>
<path class="st6" d="M1673.7,426.4c-0.4,1.8-0.2,3.6,0.4,5.3c3.9-1.4,10.6-0.8,13.3-0.9c6.4-0.2,10.6,2.2,14.9,5.5
	c0.7-2.7,2.8-4.8,3.4-7.6s0-6.4-3.4-7.6s-12.7-2.2-17.7-1.4S1674.7,422.9,1673.7,426.4z"/>
<path class="st14" d="M164.9,348.6c0,3.3-2.7,6-6,6h-6.6c-3.3,0-6-2.7-6-6V213.3h18.5v135.3H164.9z"/>
<path class="st13" d="M158.9,354.6c3.3,0,6-2.7,6-6V213.3h-8.8c0.1,4.2-0.5,120.5-0.5,120.5c0,6.7,0.8,14.1-0.5,20.8L158.9,354.6z"
	/>
<path class="st15" d="M144.1,207.4c-12.5-4-25.6-2.8-37.3,0l0,0c10.1-8.2,22.6-13.9,37.3-13.2V207.4z"/>
<path class="st16" d="M144.1,207.4v-7.2c-2.4-0.6-24.2,1.1-32.1,3.4c-1.8,1.2-3.5,2.5-5.1,3.8C118.5,204.5,131.5,203.3,144.1,207.4z
	"/>
<path class="st16" d="M167.2,207.4c12.5-4,25.6-2.8,37.3,0l0,0c-10.1-8.2-22.6-13.9-37.3-13.2V207.4z"/>
<path class="st15" d="M171.4,207.4c0,3.3-2.7,6-6,6h-19.7c-3.3,0-6-2.7-6-6v-11.2c0-3.3,2.7-6,6-6h19.7c3.3,0,6,2.7,6,6V207.4z"/>
<path class="st16" d="M159.5,213.3h6c3.3,0,6-2.7,6-6v-11.2c0-3.3-2.7-6-6-6h-7.7c4.3,2.3,5.4,6.6,5.4,11.8c0,2.6,0.3,5.3-0.4,7.8
	C162.5,211.5,161.2,212.9,159.5,213.3z"/>
<path class="st14" d="M93.9,295.1c0,3.8-3,6.8-6.8,6.8h-7.4c-3.8,0-6.8-3-6.8-6.8V141.7h20.9L93.9,295.1z"/>
<path class="st13" d="M87.2,301.8c3.8,0,6.8-3,6.8-6.8V141.6H84c0.1,4.8-0.6,136.6-0.6,136.6c0,7.6,0.9,16-0.6,23.5L87.2,301.8
	L87.2,301.8z"/>
<path class="st16" d="M139.1,102.1c-0.6-2.8-3.4-4.6-6.2-4c-0.5,0.1-1,0.3-1.5,0.6c-6.9,3.8-18.1,9.6-25.5,10.8s-26.7,0.7-36.9,0.3
	c-3.7,0-6.7,3-6.7,6.7c0,0.1,0,0.1,0,0.2v18.8c-0.1,3.7,2.8,6.8,6.5,6.9c0.1,0,0.1,0,0.2,0c10.2-0.4,29.2-0.9,36.9,0.3
	s18.6,7,25.5,10.8c2.4,1.4,5.6,0.6,7-1.8c0.3-0.5,0.5-1.1,0.6-1.7C142.4,134.2,142.5,117.9,139.1,102.1z"/>
<path class="st15" d="M123,147.5l-0.3,1.4l8.6,4.5c2.4,1.4,5.6,0.6,7-1.8c0.3-0.5,0.5-1.1,0.6-1.7c3.4-15.8,3.5-32.1,0.1-47.9
	c-0.6-2.8-3.4-4.6-6.2-4c-0.5,0.1-1,0.3-1.5,0.6l-7.5,4c0.3,1.6,0.5,3.3,0.5,4.9v19.8C124.3,134.3,124.4,140.8,123,147.5z"/>
<rect x="73" y="225.1" class="st17" width="20.9" height="47.3"/>
<rect x="83.7" y="225.1" class="st18" width="10.3" height="47.3"/>
<path class="st19" d="M407.9,447.6c0,4.5-3.7,8.2-8.2,8.2h0h-15.1c-4.5,0-8.2-3.7-8.2-8.2v0v-92.8H408v92.8L407.9,447.6z"/>
<path class="st19" d="M414.1,352.7h-43.9l-5.7-27.2c-0.8-3.6,1.5-7.2,5.2-8c0.5-0.1,1-0.2,1.4-0.1h42.1c3.7,0,6.7,3,6.7,6.7
	c0,0.5,0,1-0.1,1.4L414.1,352.7z"/>
<rect x="370.2" y="352.7" class="st20" width="43.8" height="2.2"/>
<path class="st15" d="M392.1,309.7c-11.9,0-21.5,5.3-21.5,7.7h42.9C413.6,315,404,309.7,392.1,309.7z"/>
<path class="st21" d="M388.9,312.5h3.2"/>
<path class="st21" d="M377.5,314.9c2.2-1.1,4.6-1.8,7-2.1"/>
<rect x="376.3" y="354.9" class="st22" width="31.6" height="7.1"/>
<circle class="st20" cx="392.1" cy="396.6" r="7.3"/>
<polygon class="st20" points="365,327.9 419.2,327.9 419.7,325.7 364.6,325.7 "/>
<path class="st20" d="M376.3,447.6c0,4.5,3.7,8.2,8.2,8.2h0h15.1c4.5,0,8.2-3.7,8.2-8.2v0v-9.8h-31.6L376.3,447.6L376.3,447.6z"/>
<path class="st12" d="M491.1,445.4c0,5.1-4.2,9.3-9.3,9.3H480c-5.1,0-9.3-4.2-9.3-9.3v-36.6c0-5.1,4.2-9.3,9.3-9.3h1.9
	c5.1,0,9.3,4.2,9.3,9.3L491.1,445.4L491.1,445.4z"/>
<rect x="477.6" y="298.8" class="st15" width="6.3" height="101"/>
<path class="st15" d="M487.4,250.9v32.9c0,5.4-2.6,9.8-5.9,9.8h-1.2c-3.3,0-5.9-4.4-5.9-9.8v-32.9c-2.3,1.8-3.7,4.5-3.7,7.4v32
	c0,5.1,4.2,9.3,9.3,9.3h1.9c5.1,0,9.3-4.2,9.3-9.3v-32C491.1,255.4,489.7,252.7,487.4,250.9z"/>
<path class="st23" d="M481.8,399.8v54.9c5,0.1,9.2-3.9,9.3-8.9c0,0,0-0.1,0-0.1v-36.6C491.1,404,487.5,399.6,481.8,399.8z"/>
<rect x="480.8" y="298.8" class="st16" width="3.1" height="101"/>
<path class="st10" d="M1332.9,97.5c-20.8,31.3-46.8,63.5-83.9,75.3v62.9h167.8v-62.9C1379.7,161.1,1353.7,128.8,1332.9,97.5z"/>
<polygon class="st24" points="1332.9,235.8 1300.3,235.8 1332.9,162.5 1365.4,235.8 "/>
<path class="st25" d="M1332.9,162.5l-32.5,73.3c0,0-0.2-20-10.6-22.5C1289.7,213.3,1305.3,211.4,1332.9,162.5z"/>
<path class="st25" d="M1332.9,162.5l32.5,73.3c0,0,0.2-20,10.6-22.5C1376,213.3,1360.4,211.4,1332.9,162.5z"/>
<path class="st26" d="M1416.8,172.8c-37.1-11.8-63.1-44-83.9-75.3l-0.8,1.2c3.7,15.2,33.3,66.5,44,74.7c2.1,1.6,8.9,5.6,10.1,6.2
	c3.3,1.6,3.1,5.2,3.1,8.2c0,12-0.2,37,0.2,48h27.4L1416.8,172.8L1416.8,172.8z"/>
<path class="st24" d="M1249,172.9l-1.5,8.1c-0.9,4.9-2.2,11.4-3.4,17.9c-0.6,3.2-1.2,6.5-1.8,9.5s-1.4,5.8-2,8.2
	c-1.3,4.8-2.4,7.9-2.4,7.9h-0.2c0,0,0.3-3.3,1.1-8.2c0.4-2.5,0.9-5.3,1.6-8.3s1.5-6.2,2.3-9.4c1.5-6.4,3.1-12.9,4.3-17.7L1249,172.9
	z"/>
<rect x="1236" y="227.2" class="st27" width="3.5" height="8.6"/>
<rect x="1233.5" y="224.6" class="st27" width="8.6" height="2.6"/>
<path class="st24" d="M1416.9,172.8l2,8c1.2,4.8,2.7,11.3,4.3,17.7c0.8,3.2,1.6,6.4,2.3,9.4s1.2,5.9,1.6,8.3
	c0.8,4.9,1.1,8.2,1.1,8.2h-0.2c0,0-1.1-3.1-2.4-7.9c-0.7-2.4-1.4-5.2-2-8.2s-1.2-6.3-1.8-9.5c-1.2-6.5-2.5-13-3.4-17.9L1416.9,172.8
	z"/>
<rect x="1426.2" y="227.2" class="st27" width="3.5" height="8.6"/>
<rect x="1423.6" y="224.6" class="st27" width="8.6" height="2.6"/>
<path class="st28" d="M1813.7,286c-0.6,0-1.1,0.5-1.1,1.1l-0.4,15.5c0,0.6-0.1,1.2-0.8,1.2s-0.8-0.5-0.8-1.2l-0.4-15.8
	c0-0.4-0.4-0.8-0.8-0.8c-0.4,0-0.8,0.4-0.8,0.8c0,0,0,0,0,0l-0.4,15.8c0,0.6-0.1,1.2-0.8,1.2s-0.8-0.5-0.8-1.2l-0.4-15.8
	c0-0.4-0.4-0.8-0.8-0.8c-0.4,0-0.8,0.4-0.8,0.8c0,0,0,0,0,0l-0.4,15.8c0,0.6-0.1,1.2-0.8,1.2s-0.8-0.5-0.8-1.2l-0.4-15.5
	c0-0.6-0.5-1.1-1.1-1.1c-0.6,0-1.1,0.5-1.1,1.1v19.8c0,2.1,3,4.1,3.7,6.9c4.1,15.4-0.8,74.4-0.8,74.4c0,1,0.8,1.8,1.8,1.9h5.3
	c1,0,1.8-0.8,1.8-1.8c0,0,0-0.1,0-0.1c0,0-4.8-59-0.8-74.4c0.7-2.7,3.7-4.8,3.7-6.9v-19.8c0.1-0.5-0.3-1-0.9-1.1
	C1813.8,286,1813.7,286,1813.7,286z"/>
<path class="st28" d="M1837.7,322.7c0.5-2,7.9-15.1,7.9-19.9c0-8.7-4.8-17.8-10.7-17.8s-10.7,9.2-10.7,17.8c0,5.2,7.7,18.1,8.2,19.9
	c4.1,15.4-1.8,65.7-1.8,65.7c0,1,0.8,1.8,1.8,1.9h5.3c1,0,1.8-0.8,1.8-1.8c0,0,0-0.1,0-0.1C1839.5,388.3,1833.6,338.1,1837.7,322.7z
	"/>
<path class="st16" d="M1814.8,307v-19.8c0-0.6-0.5-1.1-1.1-1.1c-0.6,0-1.1,0.5-1.1,1.1l-0.4,15.5c0,0.6-0.1,1.2-0.8,1.2
	s-0.8-0.5-0.8-1.2l-0.4-15.8c0-0.4-0.4-0.8-0.8-0.8c-0.4,0-0.8,0.4-0.8,0.8c0,0,0,0,0,0l-0.4,15.8c0,0.6-0.1,1.2-0.8,1.2v86.3h2.6
	c1,0,1.8-0.8,1.8-1.8c0,0,0-0.1,0-0.1c0,0-4.8-59-0.8-74.4C1811.9,311.2,1814.8,309.1,1814.8,307z"/>
<path class="st16" d="M1837.7,322.7c0.5-2,7.9-15.1,7.9-19.9c0-8.7-4.8-17.8-10.7-17.8c9.4,27.5-2.2,4.7,0,105.3h2.8
	c1,0,1.8-0.8,1.8-1.8c0,0,0-0.1,0-0.1C1839.5,388.3,1833.6,338.1,1837.7,322.7z"/>
<path class="st29" d="M537.3,442.4c-0.1,1,0.2,2,1,2.6c0.5,1.2,1.7,2,3,2c27.3,0,93.7-0.2,93.7-4c-0.4-6.5-1.2-13.1-2.4-19.5
	c-0.9-3.3-16.6-10.4-32.2-4.4L580,408.6c0,0-0.1-49.9-0.2-50.2c0.4-1.8-0.8-3.6-2.6-4c-0.2,0-0.4-0.1-0.6-0.1l-36.4,0.2
	c-1.9-0.3-4.1,0.7-4,3.2C537,389.6,540.8,410.4,537.3,442.4z"/>
<path class="st30" d="M538.3,445c-0.8-0.6-1.2-1.6-1-2.6c3.5-31.9-0.3-52.8-1.1-84.7c-0.1-1.7,1.1-3.2,2.9-3.3c0.4,0,0.8,0,1.1,0.1
	l28.1-0.2c0,0-3.1,50.1,6.5,60.7c7.9,8.8,21,13,32,15.8c5.2,1.3,15.8,4.7,16.1,4.4c3.3-2.7,6.8-5.1,10.5-7.3
	c0.2,1.6,1.5,11.7,1.5,15s-2.2,5-5.1,5.2c-0.5,0.3-1.1,0.4-1.7,0.4c-27.2,0-59.6-1.7-86.9-1.7C539.9,447,538.7,446.2,538.3,445z"/>
<path class="st31" d="M581.8,368.9c0,1.4-0.8,2.6-1.8,2.6h-10.9c-1,0-1.8-1.2-1.8-2.6s0.8-2.6,1.8-2.6H580
	C581,366.3,581.8,367.5,581.8,368.9z"/>
<path class="st31" d="M581.8,379.6c0,1.4-0.8,2.6-1.8,2.6h-10.9c-1,0-1.8-1.2-1.8-2.6s0.8-2.6,1.8-2.6H580
	C581,377,581.8,378.2,581.8,379.6z"/>
<path class="st31" d="M581.8,390.3c0,1.4-0.8,2.6-1.8,2.6h-10.9c-1,0-1.8-1.2-1.8-2.6s0.8-2.6,1.8-2.6H580
	C581,387.7,581.8,388.9,581.8,390.3z"/>
<path class="st31" d="M581.8,401c0,1.4-0.8,2.6-1.8,2.6h-10.9c-1,0-1.8-1.2-1.8-2.6s0.8-2.6,1.8-2.6H580
	C581,398.4,581.8,399.6,581.8,401z"/>
<path class="st29" d="M634.1,432.8"/>
<path class="st31" d="M635.8,441.7c0.1,4.9-3.9,8.9-8.8,9c0,0,0,0,0,0h-81.2c-4.9-0.1-8.9-4.1-8.8-9c0,0,0,0,0,0l0.8-3.3h96.9
	L635.8,441.7z"/>
<path class="st29" d="M1846.9,150.6c0.1-1.7-1.1-3.2-2.9-3.3c-0.4,0-0.8,0-1.1,0.1l-36.4-0.2c-1.8,0-3.3,1.5-3.3,3.3
	c0,0.3,0,0.5,0.1,0.8c-0.1,0.3-0.2,50.2-0.2,50.2l-20.4,10.5c-15.7-6-31.3,1.1-32.2,4.4c-1.2,6.4-2,13-2.4,19.5c0,3.7,66.4,4,93.7,4
	c1.3,0,2.5-0.8,3-2c0.8-0.6,1.2-1.6,1-2.6C1842.3,203.4,1846.1,182.5,1846.9,150.6z"/>
<path class="st30" d="M1844.8,237.9c0.8-0.6,1.2-1.6,1-2.6c-3.5-31.9,0.3-52.8,1.1-84.7c0.1-1.7-1.1-3.2-2.9-3.3
	c-0.4,0-0.8,0-1.1,0.1l-28.1-0.2c0,0,3.1,50.1-6.5,60.7c-7.9,8.8-21,13-32,15.8c-5.2,1.3-15.8,4.7-16.1,4.4
	c-3.3-2.7-6.8-5.1-10.5-7.3c-0.2,1.6-1.5,11.7-1.5,15s2.2,5,5.1,5.2c0.5,0.3,1.1,0.4,1.7,0.4c27.2,0,59.6-1.7,86.9-1.7
	C1843.2,239.9,1844.4,239.1,1844.8,237.9z"/>
<path class="st31" d="M1801.3,161.8c0,1.4,0.8,2.6,1.8,2.6h10.9c1,0,1.8-1.2,1.8-2.6s-0.8-2.6-1.8-2.6h-10.9
	C1802.1,159.2,1801.3,160.4,1801.3,161.8z"/>
<path class="st31" d="M1801.3,172.5c0,1.4,0.8,2.6,1.8,2.6h10.9c1,0,1.8-1.2,1.8-2.6s-0.8-2.6-1.8-2.6h-10.9
	C1802.1,169.9,1801.3,171.1,1801.3,172.5z"/>
<path class="st31" d="M1801.3,183.2c0,1.4,0.8,2.6,1.8,2.6h10.9c1,0,1.8-1.2,1.8-2.6s-0.8-2.6-1.8-2.6h-10.9
	C1802.1,180.6,1801.3,181.8,1801.3,183.2z"/>
<path class="st31" d="M1801.3,193.9c0,1.4,0.8,2.6,1.8,2.6h10.9c1,0,1.8-1.2,1.8-2.6s-0.8-2.6-1.8-2.6h-10.9
	C1802.1,191.3,1801.3,192.5,1801.3,193.9z"/>
<path class="st19" d="M59.3,429.2v2.4c0,13.3,10.8,24.1,24.1,24.1h0h46.9c13.3,0,24.1-10.8,24.1-24.1l0,0v-2.4
	c0-13.3-10.8-24.1-24.1-24.1h0H83.4C70.1,405.1,59.3,415.9,59.3,429.2L59.3,429.2z M130.2,413.5c8.7,0,15.7,7,15.7,15.7l0,0v2.4
	c0,8.7-7,15.7-15.7,15.7c0,0,0,0,0,0H83.4c-8.7,0-15.7-7-15.7-15.7l0,0v-2.4c0-8.7,7-15.7,15.7-15.7h0H130.2z"/>
<path class="st10" d="M126.6,403.8c0.6,0,1.1,0.5,1.1,1.1l0,0v8.7c0,0.6-0.5,1.1-1.1,1.1c0,0,0,0,0,0H88.9c-0.6,0-1.1-0.5-1.1-1.1
	l0,0v-8.7c0-0.6,0.5-1.1,1.1-1.1c0,0,0,0,0,0H126.6z"/>
<path class="st19" d="M126.6,442.8c0.6,0,1.1,0.5,1.1,1.1l0,0v8.7c0,0.6-0.5,1.1-1.1,1.1c0,0,0,0,0,0H88.9c-0.6,0-1.1-0.5-1.1-1.1
	l0,0V444c0-0.6,0.5-1.1,1.1-1.1c0,0,0,0,0,0h37.7L126.6,442.8z"/>
<path class="st24" d="M96.6,406.8c1.3,0,2.4,1.1,2.4,2.4c0,1.3-1.1,2.4-2.4,2.4c-1.3,0-2.4-1.1-2.4-2.4l0,0
	c-0.1-1.3,0.9-2.3,2.2-2.4C96.5,406.8,96.5,406.8,96.6,406.8z"/>
<path class="st24" d="M119.1,406.8c1.3,0,2.4,1.1,2.4,2.4c0,1.3-1.1,2.4-2.4,2.4c-1.3,0-2.4-1.1-2.4-2.4l0,0
	C116.7,407.9,117.8,406.8,119.1,406.8z"/>
<rect x="1334.7" y="42.3" class="st16" width="151.7" height="9"/>
<polygon class="st10" points="1440.4,93.5 1440.4,51.3 1486.4,51.3 1486.4,93.5 1463.3,72.1 "/>
<rect x="1334.7" y="46.8" class="st32" width="151.7" height="4.5"/>
<polygon class="st14" points="291.7,204 289.2,206.2 289.3,209.4 285.9,209.6 284.6,212.7 281.4,211.9 279.5,214.7 276.4,213.4 
	274.2,215.9 271.3,214.2 268.8,216.4 266.1,214.5 263.4,216.4 260.8,214.2 257.9,215.9 255.7,213.4 252.6,214.7 250.7,212 
	247.5,212.7 246.2,209.6 242.9,209.4 242.9,206.2 240.4,204 242.9,201.9 242.9,198.6 246.2,198.4 247.5,195.4 250.7,196.1 
	252.6,193.4 255.7,194.6 257.9,192.2 260.8,193.8 263.4,191.6 266.1,193.5 268.8,191.6 271.3,193.8 274.2,192.2 276.4,194.6 
	279.5,193.4 281.4,196.1 284.7,195.4 285.9,198.4 289.3,198.6 289.2,201.9 "/>
<path class="st33" d="M266.1,211.4c-12.8,0-20.6-4.8-20.6-7.4s7.8-7.4,20.6-7.4c12.8,0,20.6,4.8,20.6,7.4S278.8,211.4,266.1,211.4z"
	/>
<path class="st10" d="M266.1,226.4c-14.4,0-26.1-2.9-26.1-6.5v24.6c0,3.6,11.7,6.5,26.1,6.5c14.4,0,26.1-2.9,26.1-6.5v-24.6
	C292.2,223.5,280.5,226.4,266.1,226.4z"/>
<path class="st34" d="M266.1,244.8c-10.1,0-17.1-1.5-20-2.6v-11.7c6.4,1.6,14.1,2,20,2c6.7,0.1,13.4-0.6,20-2v11.7
	C283.2,243.3,276.1,244.8,266.1,244.8z"/>
<path class="st10" d="M292.2,219.9c0,3.6-11.7,6.5-26.1,6.5s-26.1-2.9-26.1-6.5s11.7-6.5,26.1-6.5
	C280.5,213.4,292.2,216.4,292.2,219.9z"/>
<path class="st35" d="M289.4,220.6c0,3.2-10.5,5.8-23.3,5.8s-23.3-2.6-23.3-5.8s10.5-5.8,23.3-5.8
	C278.9,214.8,289.4,217.4,289.4,220.6z"/>
<polygon class="st14" points="1478.9,397.2 1476.5,399.3 1476.5,402.6 1473.2,402.8 1471.9,405.8 1468.7,405.1 1466.8,407.8 
	1463.7,406.6 1461.4,409 1458.5,407.4 1456,409.5 1453.3,407.6 1450.6,409.5 1448.1,407.4 1445.2,409 1442.9,406.6 1439.9,407.8 
	1438,405.1 1434.7,405.8 1433.4,402.8 1430.1,402.6 1430.2,399.3 1427.7,397.2 1430.2,395 1430.1,391.8 1433.4,391.6 1434.7,388.5 
	1438,389.2 1439.9,386.5 1442.9,387.8 1445.2,385.3 1448.1,386.9 1450.6,384.8 1453.3,386.7 1456,384.8 1458.5,386.9 1461.4,385.3 
	1463.7,387.8 1466.8,386.5 1468.7,389.2 1471.9,388.5 1473.2,391.6 1476.5,391.8 1476.5,395 "/>
<path class="st33" d="M1453.3,404.5c-12.8,0-20.6-4.8-20.6-7.4s7.8-7.4,20.6-7.4s20.6,4.8,20.6,7.4S1466.1,404.5,1453.3,404.5z"/>
<path class="st10" d="M1453.3,419.5c-14.4,0-26.1-2.9-26.1-6.5v24.6c0,3.6,11.7,6.5,26.1,6.5s26.1-2.9,26.1-6.5V413
	C1479.4,416.6,1467.7,419.5,1453.3,419.5z"/>
<path class="st34" d="M1453.3,438c-10.1,0-17.1-1.5-20-2.6v-11.7c6.4,1.6,14.1,2,20,2c6.7,0.1,13.4-0.6,20-2v11.7
	C1470.4,436.5,1463.4,438,1453.3,438z"/>
<path class="st10" d="M1479.4,413.1c0,3.6-11.7,6.5-26.1,6.5s-26.1-2.9-26.1-6.5s11.7-6.5,26.1-6.5S1479.4,409.5,1479.4,413.1z"/>
<path class="st35" d="M1476.7,413.8c0,3.2-10.5,5.8-23.3,5.8s-23.3-2.6-23.3-5.8s10.5-5.8,23.3-5.8S1476.7,410.5,1476.7,413.8z"/>
<polygon class="st14" points="1410.1,398.3 1407.6,400.4 1407.7,403.7 1404.4,403.9 1403.1,407 1399.8,406.2 1397.9,409 
	1394.9,407.7 1392.6,410.1 1389.7,408.5 1387.2,410.7 1384.5,408.8 1381.8,410.7 1379.3,408.5 1376.4,410.1 1374.1,407.7 1371,409 
	1369.1,406.2 1365.9,407 1364.6,403.9 1361.3,403.7 1361.3,400.4 1358.9,398.3 1361.3,396.2 1361.3,392.9 1364.6,392.7 
	1365.9,389.7 1369.1,390.4 1371,387.7 1374.1,388.9 1376.4,386.5 1379.3,388.1 1381.8,385.9 1384.5,387.8 1387.2,385.9 
	1389.7,388.1 1392.6,386.5 1394.9,388.9 1397.9,387.7 1399.8,390.4 1403.1,389.7 1404.4,392.7 1407.7,392.9 1407.6,396.2 "/>
<path class="st33" d="M1384.5,405.7c-12.8,0-20.6-4.8-20.6-7.4s7.8-7.4,20.6-7.4s20.6,4.8,20.6,7.4S1397.2,405.7,1384.5,405.7z"/>
<path class="st19" d="M1384.5,420.7c-14.4,0-26.1-2.9-26.1-6.5v24.6c0,3.6,11.7,6.5,26.1,6.5s26.1-2.9,26.1-6.5v-24.6
	C1410.6,417.8,1398.9,420.7,1384.5,420.7z"/>
<path class="st34" d="M1384.5,439.1c-10.1,0-17.1-1.5-20-2.6v-11.7c6.4,1.6,14.1,2,20,2c6.7,0.1,13.4-0.6,20-2v11.7
	C1401.6,437.6,1394.6,439.1,1384.5,439.1z"/>
<path class="st20" d="M1410.6,414.2c0,3.6-11.7,6.5-26.1,6.5s-26.1-2.9-26.1-6.5s11.7-6.5,26.1-6.5S1410.6,410.6,1410.6,414.2z"/>
<path class="st35" d="M1407.8,414.9c0,3.2-10.5,5.8-23.4,5.8s-23.3-2.6-23.3-5.8s10.5-5.8,23.3-5.8S1407.8,411.7,1407.8,414.9z"/>
<rect x="680.6" y="413" class="st14" width="312.1" height="15.4"/>
<path class="st14" d="M1107.7,427.4c0,12.8-9.3,23.1-20.9,23.1l-73.3-5.5c-11.5,0-20.9-4.9-20.9-17.6V414c0-12.8,9.3-17.6,20.9-17.6
	l73.3-5.5c11.5,0,20.9,10.3,20.9,23.1V427.4z"/>
<path class="st14" d="M693.8,429.3c0,4.3-3.5,7.8-7.8,7.8c-4.3,0-7.8-3.5-7.8-7.8c0,0,0,0,0,0V412c0-4.3,3.5-7.8,7.8-7.8
	c4.3,0,7.8,3.5,7.8,7.8V429.3z"/>
<path class="st13" d="M678.2,420.7v8.6c0,4.3,3.5,7.8,7.8,7.8c4.3,0,7.8-3.5,7.8-7.8c0,0,0,0,0,0v-0.9h298.9v-1
	c0,12.8,9.3,17.6,20.9,17.6l73.3,5.5c11.5,0,20.9-10.4,20.9-23.1v-6.7H678.2z"/>
<rect x="713" y="412.1" class="st19" width="70.3" height="17.2"/>
<rect x="713" y="420.9" class="st20" width="70.3" height="8.4"/>
<path class="st19" d="M1219.2,447.4c0,4.1-4.3,7.5-9.7,7.5h-35.9c-5.4,0-9.7-3.3-9.7-7.5V338.1h55.4v109.3H1219.2z"/>
<path class="st19" d="M1163.8,316.6c0-8.3,8.7-15,19.4-15h16.5c10.7,0,19.4,6.7,19.4,15v19.1h-55.4L1163.8,316.6L1163.8,316.6z"/>
<path class="st36" d="M1181.7,317.5c0-2.3-11.4-2.4-11.4,0c0.1,14.1,0,28.3,0,42.5c0,2.3,11.4,2.3,11.4,0
	C1181.7,345.8,1181.8,331.6,1181.7,317.5z"/>
<path class="st24" d="M1222.4,337.2c-0.2,0.9-1,1.6-1.9,1.5h-58c-0.9,0.1-1.8-0.5-1.9-1.5c0,0,0,0,0,0c0.2-0.9,1-1.6,1.9-1.5h58
	C1221.4,335.6,1222.3,336.2,1222.4,337.2C1222.4,337.2,1222.4,337.2,1222.4,337.2z"/>
<rect x="1163.8" y="376.4" class="st20" width="55.4" height="22.8"/>
<path class="st24" d="M1219.2,425.9c6.9,0,14.3-4.3,14.3-9.7v-60.5c0-5.3-7.4-9.7-14.3-9.7v4.5c3.7,0,8.5,2.3,8.5,5.2v60.5
	c0,2.9-4.8,5.2-8.5,5.2V425.9z"/>
<path class="st37" d="M617.1,97.8"/>
<path class="st14" d="M657.3,44.4c-5,5.7-11.8,11.3-29.7,3.3c-65.6-29.4-60.4,50.2-60.4,50.2s-5.2,79.6,60.4,50.2
	c18-8.1,24.8-2.4,29.7,3.3c9.1,10.4,11.5,16.2,45.5,15.3c37.3-1,52.9-39,53.9-68.7c-0.9-29.7-16.5-67.8-53.9-68.7
	C666.9,28.2,666.3,34,657.3,44.4z"/>
<path class="st13" d="M657.3,44.4c-5,5.7-11.8,11.3-29.7,3.3c-65.6-29.4-60.4,50.2-60.4,50.2s-0.2,2.6-0.1,6.6
	c7.2,3.1,15.1,4.1,16.6-4.3c0.3-1.4-0.5-2.8-1.8-3.4c1.2-0.4,2-1.5,1.9-2.8c-0.4-8.1,6.8-14.6,12.4-19.5c7.4-6.4,21.2-7.5,30.5-7.2
	c16.6,0.6,31.5,4.5,46.7-3.9c23.9-13.2,54.5-12,76.8,2.7c-7.8-19.7-22.9-36.3-47.4-36.9C666.9,28.2,666.3,34,657.3,44.4z"/>
<ellipse transform="matrix(1.221695e-02 -0.9999 0.9999 1.221695e-02 538.0516 740.3513)" class="st34" cx="643.8" cy="97.8" rx="27.8" ry="27.8"/>
<path class="st12" d="M643.3,77.9c11,0,19.9,8.9,19.9,19.9s-8.9,19.9-19.9,19.9c-11,0-19.9-8.9-19.9-19.9S632.3,77.9,643.3,77.9
	L643.3,77.9z"/>
<rect x="435.9" y="85.8" class="st38" width="187.2" height="24.1"/>
<path class="st14" d="M441.9,81.2c-16.3,4.1-32.7,4.6-49.2,0.2c-10.5,0-10.3,34.6,0,32.7c16.1-4.1,33.1-4.1,49.2,0.2
	c3,0.7,5.9-1.1,6.6-4c0.1-0.5,0.2-1,0.2-1.5V86.7c0.1-3-2.3-5.6-5.3-5.7C442.9,81,442.4,81.1,441.9,81.2z"/>
<path class="st39" d="M402.6,111.7c1.8,0,3.2,1.4,3.2,3.2v0v7.5c0,1.8-1.4,3.2-3.2,3.2s-3.2-1.4-3.2-3.2c0,0,0,0,0,0v-7.5
	C399.5,113.2,400.9,111.8,402.6,111.7z"/>
<path class="st39" d="M415.9,111.7c1.8,0,3.2,1.4,3.2,3.2v0v7.5c0,1.8-1.4,3.2-3.2,3.2c-1.8,0-3.2-1.4-3.2-3.2v-7.5
	C412.8,113.2,414.2,111.8,415.9,111.7z"/>
<path class="st39" d="M429.3,111.7c1.8,0,3.2,1.4,3.2,3.2v0v7.5c0,1.8-1.4,3.2-3.2,3.2s-3.2-1.4-3.2-3.2c0,0,0,0,0,0v-7.5
	C426.1,113.1,427.5,111.7,429.3,111.7z"/>
<path class="st39" d="M402.6,70.1c1.8,0,3.2,1.4,3.2,3.2v0v7.5c0,1.8-1.4,3.2-3.2,3.2s-3.2-1.4-3.2-3.2c0,0,0,0,0,0v-7.5
	C399.5,71.6,400.9,70.2,402.6,70.1z"/>
<path class="st39" d="M415.9,70.1c1.8,0,3.2,1.4,3.2,3.2v0v7.5c0,1.8-1.4,3.2-3.2,3.2c-1.8,0-3.2-1.4-3.2-3.2v-7.5
	C412.8,71.6,414.2,70.2,415.9,70.1z"/>
<path class="st39" d="M429.3,70.1c1.8,0,3.2,1.4,3.2,3.2v0v7.5c0,1.8-1.4,3.2-3.2,3.2s-3.2-1.4-3.2-3.2c0,0,0,0,0,0v-7.5
	C426.1,71.5,427.5,70.1,429.3,70.1z"/>
<path class="st38" d="M708.9,70c4.1,0,7.4,3.3,7.4,7.4c0,0,0,0,0,0v40.8c0,4.1-3.3,7.4-7.4,7.4l0,0h-5V70H708.9z"/>
<line class="st40" x1="385.3" y1="104.6" x2="710.2" y2="104.6"/>
<line class="st40" x1="385.3" y1="100.2" x2="710.2" y2="100.2"/>
<line class="st40" x1="385.3" y1="95.9" x2="710.2" y2="95.9"/>
<line class="st40" x1="385.3" y1="91.5" x2="710.2" y2="91.5"/>
<path class="st41" d="M1432.5,352.8c0-5.2,5.9-15.3,5.9-15.3s5.9,10.1,5.9,15.3s-2.7,6.5-5.9,6.5S1432.5,358,1432.5,352.8z"/>
<path class="st42" d="M1434.8,354.7c0-3.2,3.6-9.4,3.6-9.4s3.6,6.2,3.6,9.4s-1.6,4-3.6,4S1434.8,357.9,1434.8,354.7z"/>
<rect x="1439.6" y="355.1" class="st14" width="34.5" height="1.9"/>
<path class="st38" d="M1438.9,354.6c1.9,0,3.4,0.6,3.4,1.4s-1.5,1.4-3.4,1.4s-3.4-0.6-3.4-1.4S1437.1,354.6,1438.9,354.6z"/>
<path class="st16" d="M1335.1,378.2c0,1.9-1,3.5-2.2,3.5h-57.8c-1.2,0-2.2-1.6-2.2-3.5s1-3.5,2.2-3.5h57.8
	C1334.1,374.8,1335.1,376.3,1335.1,378.2z"/>
<path class="st18" d="M1332.9,436.4c-0.1,4.6-3.8,8.3-8.4,8.4h-40.9c-4.6-0.1-8.3-3.8-8.4-8.4v-54.7h57.7L1332.9,436.4L1332.9,436.4
	z"/>
<path class="st18" d="M1275.5,432.7c-6.7,0-13.9-5.5-13.9-12.2v-19.7c0-6.7,7.1-12.2,13.9-12.2v5.6c-3.6,0-8.2,2.9-8.2,6.6v19.7
	c0,3.6,4.6,6.6,8.2,6.6V432.7z"/>
<path class="st12" d="M1299,444.8h25.4c4.6-0.1,8.3-3.8,8.4-8.4v-54.7h-24.4C1308.7,397.8,1310,440.8,1299,444.8z"/>
<path class="st43" d="M1286.4,387.8c0-1.6-5.1-1.6-5,0c0.1,9.8,0,19.6,0,29.4c0,1.6,5,1.6,5,0V387.8z"/>
<rect x="245.5" y="69" transform="matrix(0.3714 -0.9285 0.9285 0.3714 88.0402 317.2854)" class="st19" width="65.6" height="49.3"/>
<rect x="248" y="71.6" transform="matrix(0.3714 -0.9285 0.9285 0.3714 87.9392 317.2434)" class="st14" width="60.5" height="44.1"/>
<rect x="242.1" y="85.9" transform="matrix(0.3714 -0.9285 0.9285 0.3714 83.9928 298.3911)" class="st34" width="40.6" height="2.5"/>
<path class="st38" d="M272,68.2c-0.9,2.3-2.5,3.9-3.5,3.6s-1-2.6-0.1-5s2.5-3.9,3.5-3.5S272.9,65.9,272,68.2z"/>
<rect x="247.4" y="88" transform="matrix(0.3714 -0.9285 0.9285 0.3714 85.4242 304.6232)" class="st34" width="40.6" height="2.5"/>
<path class="st38" d="M277.3,70.3c-0.9,2.3-2.5,3.9-3.5,3.6s-1-2.6-0.1-5s2.5-3.9,3.5-3.5S278.2,68,277.3,70.3z"/>
<rect x="252.6" y="90" transform="matrix(0.3714 -0.9285 0.9285 0.3714 86.7928 310.7624)" class="st34" width="40.6" height="2.5"/>
<path class="st38" d="M282.6,72.5c-0.9,2.3-2.5,3.9-3.5,3.5s-1-2.6-0.1-5s2.5-3.9,3.5-3.5S283.5,70.1,282.6,72.5z"/>
<rect x="257.9" y="92.3" transform="matrix(0.3714 -0.9285 0.9285 0.3714 88.0218 317.0812)" class="st34" width="40.6" height="2.5"/>
<path class="st38" d="M287.9,74.6c-0.9,2.3-2.5,3.9-3.5,3.6s-1-2.6-0.1-5s2.5-3.9,3.5-3.5S288.8,72.2,287.9,74.6z"/>
<rect x="263.1" y="94.4" transform="matrix(0.3714 -0.9285 0.9285 0.3714 89.3515 323.237)" class="st34" width="40.6" height="2.5"/>
<path class="st38" d="M293.2,76.7c-0.9,2.3-2.5,3.9-3.5,3.6s-1-2.6-0.1-5s2.5-3.9,3.5-3.5S294.1,74.4,293.2,76.7z"/>
<rect x="268.4" y="96.4" transform="matrix(0.3714 -0.9285 0.9285 0.3714 90.7996 329.5081)" class="st34" width="40.6" height="2.5"/>
<path class="st38" d="M298.5,78.8c-0.9,2.3-2.5,3.9-3.5,3.6s-1-2.6-0.1-5s2.5-3.9,3.5-3.5S299.4,76.5,298.5,78.8z"/>
<rect x="273.7" y="98.7" transform="matrix(0.3714 -0.9285 0.9285 0.3714 92.0287 335.8269)" class="st34" width="40.6" height="2.5"/>
<path class="st38" d="M303.8,80.9c-0.9,2.3-2.5,3.9-3.5,3.5s-1-2.6-0.1-5s2.5-3.9,3.5-3.5S304.7,78.6,303.8,80.9z"/>
<rect x="228.3" y="93" transform="matrix(0.3714 -0.9285 0.9285 0.3714 56.3425 324.173)" class="st19" width="78.5" height="55"/>
<rect x="237.3" y="102" transform="matrix(0.3714 -0.9285 0.9285 0.3714 56.3425 324.173)" class="st20" width="60.5" height="37"/>
<polygon class="st19" points="263.1,131.4 247.6,133 255.7,119.7 249.4,105.4 264.6,109.1 276.2,98.6 277.4,114.2 291,122.1 
	276.5,128 273.2,143.3 "/>
<path class="st41" d="M310.4,96.3c2.7-6.6,15.2-16.3,15.2-16.3s2.4,15.7-0.3,22.4s-6.6,6.8-10.8,5.2S307.8,102.9,310.4,96.3z"/>
<path class="st42" d="M312.4,99.9c1.6-4.1,9.4-10,9.4-10s1.5,9.7-0.2,13.7s-4.1,4.2-6.6,3.2S310.7,103.9,312.4,99.9z"/>
<rect x="283.8" y="124.3" transform="matrix(0.3714 -0.9285 0.9285 0.3714 76.6644 364.2502)" class="st14" width="47" height="2.5"/>
<path class="st14" d="M318.3,103.5c-0.9,2.3-2.5,3.9-3.5,3.6s-1-2.6-0.1-5s2.5-3.9,3.5-3.5S319.2,101.2,318.3,103.5z"/>
<path class="st10" d="M313.4,443.3c0,8.9-7.2,16.1-16.1,16.1l0,0h-76.6c-8.9,0-16.1-7.2-16.1-16.1l0,0v-75.4h108.8V443.3z"/>
<rect x="256" y="337.5" class="st27" width="5.8" height="4.3"/>
<rect x="251.8" y="333.3" class="st27" width="14.3" height="4.3"/>
<path class="st10" d="M258.9,341.8c-30.1,0-54.4,12.6-54.4,22.1h108.8C313.4,354.3,289,341.8,258.9,341.8z"/>
<path class="st44" d="M313.4,352.5c0-9.5,0-62.4-54.4-62.4s-54.4,52.9-54.4,62.4"/>
<path class="st45" d="M313.4,363.8"/>
<path class="st45" d="M204.5,363.8"/>
<path class="st26" d="M269.7,459.5h27.5c8.9,0,16.1-7.2,16.1-16.1l0,0v-79.6l0,0c-0.1-9.5-24.4-22-54.4-22c-5.2,0-10.4,0.4-15.5,1.1
	c11.2,5.9,22.1,13.1,28,24.6c6.7,13,4.2,84.5-1,91.2C270.1,458.9,269.9,459.2,269.7,459.5z"/>
<path class="st44" d="M208.6,356.3c0,2.2-1.8,4-4,4s-4-1.8-4-4s1.8-4,4-4S208.6,354.1,208.6,356.3z"/>
<path class="st44" d="M317.4,356.3c0,2.2-1.8,4-4,4s-4-1.8-4-4s1.8-4,4-4S317.4,354.1,317.4,356.3z"/>
<path class="st26" d="M313.4,378.9h13.2c2.5,0,4.6,2.1,4.6,4.6s-2.1,4.6-4.6,4.6h-13.2V378.9z"/>
<path class="st10" d="M204.5,378.9h-13.2c-2.5,0-4.6,2.1-4.6,4.6s2.1,4.6,4.6,4.6h13.2V378.9z"/>
<rect x="204.5" y="363.8" class="st27" width="108.8" height="4.3"/>
<path class="st46" d="M228.2,377.7c0-2.5-9.5-2.5-9.5,0c0.1,15.3,0,30.6,0,45.9c0,2.5,9.5,2.5,9.5,0
	C228.2,408.2,228.3,392.9,228.2,377.7z"/>
<path class="st47" d="M1343,323.8c-0.6-3.7-7.3-5.6-10.1-6.8c-9.4-4-31.1-0.2-33,16.8c-0.7,0.7-0.9,4-0.8,4.6
	c0.6,3.2,3.2,6.8,6.9,6.8c5.7,0,6.9-8.3,9.5-11.6s12.4-3.8,16.8-1.7c1.9,1.1,4,1.6,6.1,1.6C1343.1,333.1,1343.5,327.2,1343,323.8z"
	/>
<path class="st47" d="M1304.6,348.6c-0.2-1-0.7-1.8-0.8-2.8s0-2,0-3s-0.4-0.7-0.7-0.6l-0.6,0.2l-0.3-0.2h-0.4l-0.2-0.2
	c0.1-0.1,0-0.5,0-0.6s-0.1-0.2-0.3-0.2c0.1-0.3,0.1-0.7,0-1l-0.3-0.4c0-0.2-0.2-0.3-0.4-0.2l0,0c-0.3,0-0.6,0.2-0.7,0.4
	c-0.2,0.3-0.3,0.6-0.4,0.9c-0.6,0.8-1.1,1.6-1.7,2.3s-1.8,1.8-2.6,2.8l-0.3,0.4h-0.1c0,0.1-0.1,0.2-0.1,0.3s1,0.9,1.3,0.3h0.1
	c0,0.1,0.5,0.1,0.6,0.1s0.6,0.4,0.6,0.9c0,0.2,0.1,0.5,0.3,0.6c-0.1,0.3-0.2,0.5-0.4,0.8c-0.1,0.2,0,0.5,0.2,0.7c0,0,0,0,0.1,0
	c0.8,0.2,1.3-0.2,2-0.7s2.7,1.2,3.3,2.4s0.6,0.3,0.8,0.1C1304.6,351.1,1305,349.8,1304.6,348.6z"/>
<path class="st47" d="M1347.8,324.1c-0.9,0.4-1.6,1.1-2.5,1.4s-2,0.4-2.9,0.6s-0.6,0.5-0.4,0.8l0.3,0.5c-0.1,0.1-0.1,0.2-0.1,0.4
	v0.4c0,0.1,0,0.1-0.1,0.2c-0.2-0.1-0.4,0-0.6,0.1c-0.1,0-0.2,0.2-0.1,0.3c0,0,0,0,0,0c-0.3,0-0.6,0-0.9,0.2l-0.3,0.4
	c-0.1,0-0.2,0-0.3,0.2c0,0.1,0,0.2,0.2,0.2l0,0c0,0.3,0.2,0.6,0.5,0.6l1,0.2c0.9,0.3,1.8,0.7,2.6,1.2l3.3,2l0.5,0.2h0.5
	c0.4-0.1,0.6-0.5,0.5-0.9c-0.1-0.2-0.2-0.3-0.4-0.4h-0.2c0.1-0.1,0-0.5,0-0.7s0.3-0.7,0.8-0.8c0.2,0,0.4-0.2,0.5-0.4l0.9,0.3
	c0.2,0.1,0.4,0,0.5-0.1c0-0.1,0.1-0.2,0.1-0.3c-0.1-0.7-0.5-1.4-1.1-1.8c-1.8-1.6,0.6-2.9,1.6-3.7c0.2-0.2,0.2-0.5,0-0.7
	c0,0-0.1-0.1-0.1-0.1C1350.5,323.7,1349,323.6,1347.8,324.1z"/>
<path class="st48" d="M1343,323.8c-0.6-3.7-7.3-5.6-10.1-6.8c-1.6-0.6-3.2-1-4.9-1.2c0.1,0.1,0.1,0.2,0.3,0.3c2.4,1.6,2,4.9,0.3,6.9
	s-4.2,1.9-5.9,2.4c-2.7,0.7-5.3,1.6-7.8,2.7c-4.4,1.7-9.9,5.3-11.4,10.2c-0.7,2.1-1.5,4-1.3,5.6c1.1,1,2.5,1.6,4,1.6
	c5.7,0,6.9-8.3,9.5-11.6s12.4-3.8,16.8-1.7c1.9,1.1,4,1.6,6.1,1.6C1343.1,333.1,1343.5,327.2,1343,323.8z"/>
<path class="st49" d="M1313.5,321.4c3.8-2,7.4-4.1,11.2-5.9c-10.3,0-23.4,5.2-24.9,18.3c-0.3,0.2-0.4,0.8-0.6,1.5
	c0.8-0.3,1.3-1,1.5-1.8C1301.9,327.6,1308.8,323.9,1313.5,321.4z"/>
<path class="st47" d="M1259.5,325.8c-3.4-1.8-3-8.7-3.2-11.8c-0.7-10.2,10-29.4,26.7-25.7c0.9-0.5,4.1,0.5,4.6,0.8
	c2.8,1.7,5.3,5.3,4.1,8.8c-1.9,5.4-10.1,3.8-14.1,5.2s-7.6,10.5-7.1,15.3c0.4,2.1,0.3,4.2-0.5,6.2
	C1268.2,328.9,1262.5,327.4,1259.5,325.8z"/>
<path class="st47" d="M1295.5,297.7c-0.7-0.6-1.5-1.2-2.3-1.7l-2.8-1c-0.3-0.1-0.6-0.6-0.3-0.9l0.4-0.5c0-0.1-0.1-0.2-0.1-0.4
	s0-0.3,0.1-0.4c0-0.1,0-0.1-0.1-0.2c-0.2,0.1-0.4-0.1-0.6-0.2s-0.2-0.2-0.1-0.3c-0.3,0-0.6-0.1-0.9-0.3l-0.3-0.4
	c-0.1,0-0.2-0.1-0.2-0.2c0-0.1,0.1-0.2,0.2-0.2l0,0c0-0.3,0.2-0.5,0.6-0.6h1c0.9-0.3,1.8-0.5,2.7-0.9l3.5-1.6l0.5-0.2h0.5
	c0.3,0.2,0.5,0.6,0.3,0.9c-0.1,0.2-0.2,0.3-0.4,0.4h-0.2c0.1,0.1-0.1,0.5-0.1,0.7s0.2,0.7,0.7,0.9c0.2,0,0.4,0.3,0.4,0.5h0.9
	c0.3,0,0.6,0.2,0.5,0.5s-0.6,1.2-1.3,1.7s0.2,3,1.2,3.9c0.2,0.2,0.2,0.5,0,0.7c0,0-0.1,0.1-0.2,0.1
	C1297.9,298.5,1296.6,298.4,1295.5,297.7z"/>
<path class="st47" d="M1258.2,330.5c0.7-0.7,1.6-1.1,2.1-1.9c0.6-0.8,1.1-1.7,1.5-2.6c0.2-0.3,0.7-0.4,0.9-0.1l0.4,0.5h0.4
	c0.2,0,0.3,0.1,0.4,0.2h0.3c0-0.2,0.1-0.4,0.3-0.5c0.1-0.1,0.2-0.1,0.3,0c0,0,0,0,0,0c0.1-0.3,0.3-0.6,0.5-0.8l0.4-0.2
	c0.1-0.2,0.4-0.2,0.4,0l0,0c0.3,0.1,0.4,0.3,0.4,0.7c0,0.3-0.1,0.7-0.2,1c0.1,0.9,0.2,1.9,0.3,2.8c0.2,1.2,0.6,2.5,0.8,3.8
	c0.1,0.2,0.1,0.3,0.1,0.5l0,0c0,0.1,0,0.2-0.1,0.3c-0.3,0.6-1.3,0.3-1.3-0.4v-0.2c-0.1,0.1-0.5-0.2-0.6-0.2s-0.8,0-1,0.5
	c-0.1,0.2-0.4,0.3-0.6,0.3c0,0.3,0,0.6-0.1,0.9c0,0.2-0.1,0.4-0.3,0.5c-0.1,0-0.2,0-0.3-0.1c-0.8-0.2-1-0.9-1.3-1.6
	s-2.9-0.4-4.1,0.3c-0.1,0.2-0.4,0.2-0.6,0c-0.1-0.1-0.1-0.2-0.1-0.3C1256.9,332.7,1257.3,331.4,1258.2,330.5z"/>
<path class="st48" d="M1259.5,325.8c-3.4-1.8-3-8.7-3.2-11.8c-0.1-1.7,0-3.4,0.4-5.1l0.2,0.3c0.7,2.7,4,3.5,6.4,2.6s3.2-3.3,4.2-4.8
	c1.6-2.3,3.3-4.4,5.1-6.5c3.1-3.6,8.3-7.7,13.3-7.5c2.2,0.1,4.3-0.1,5.7,0.6c0.6,1.3,0.6,2.8,0.2,4.2c-1.9,5.4-10.1,3.8-14.1,5.2
	s-7.6,10.5-7.1,15.3c0.4,2.1,0.3,4.2-0.5,6.2C1268.2,328.9,1262.5,327.4,1259.5,325.8z"/>
<path class="st49" d="M1266.9,297.2c-3.1,2.9-6.3,5.7-9.3,8.7c3.3-9.7,12.6-20.4,25.4-17.5c0.5-0.2,1.1-0.2,1.6-0.1
	c-0.5,0.6-1.4,1-2.2,0.8C1276.6,288.3,1270.7,293.6,1266.9,297.2z"/>
<path class="st47" d="M380.4,244.6c2.6,2.8-0.2,9.2-1,12.1c-2.8,9.8-19.5,24.2-33.9,15c-1,0.2-3.7-1.9-4.1-2.3
	c-2.1-2.5-3.2-6.8-0.9-9.6c3.6-4.4,10.8-0.1,15-0.1c5.8,0.1,10.8-7.2,11.9-12c0.3-2.1,1.2-4.1,2.6-5.7
	C373.2,238.8,378.1,242.1,380.4,244.6z"/>
<path class="st47" d="M337,258.8c0.5,0.8,1,1.6,1.6,2.4c0.7,0.7,1.6,1.3,2.3,1.9c0.2,0.2,0.3,0.6,0.1,0.8c0,0,0,0-0.1,0.1l-0.5,0.3
	v0.4c0,0.2-0.1,0.3-0.2,0.4v0.3c0.2,0,0.4,0.1,0.5,0.3c0.1,0.1,0.1,0.2,0,0.3c0,0,0,0,0,0c0.3,0.2,0.6,0.3,0.7,0.6
	c0.1,0.1,0.1,0.3,0.1,0.5c0.1,0.1,0.1,0.4-0.1,0.4l0,0c-0.1,0.3-0.4,0.4-0.7,0.3l-1-0.3c-0.9-0.1-1.9-0.1-2.8-0.1l-3.8,0.3h-0.9
	c-0.6-0.4-0.1-1.3,0.5-1.2h0.2c-0.1-0.1,0.2-0.5,0.3-0.6c0.2-0.4,0.1-0.9-0.3-1.1c0,0,0,0,0,0c-0.2-0.2-0.3-0.4-0.2-0.6l-0.9-0.2
	c-0.3-0.1-0.5-0.3-0.3-0.6s1-0.9,1.8-1.1c2.3-0.6,0.8-2.9,0.2-4.1s0.1-0.7,0.4-0.7C335.1,257.5,336.2,258,337,258.8z"/>
<path class="st47" d="M383.2,240.7c-0.9,0.3-1.8,0.6-2.7,1.1c-0.8,0.6-1.6,1.2-2.3,1.9c-0.3,0.2-0.6,0.2-0.8-0.1c0,0,0-0.1-0.1-0.1
	c-0.1-0.2-0.1-0.4-0.2-0.6h-0.4l-0.3-0.3h-0.3c0,0.2-0.3,0.3-0.4,0.4c-0.1,0.1-0.2,0-0.3-0.1c0,0,0,0,0,0c-0.2,0.3-0.5,0.5-0.8,0.6
	h-0.5c-0.2,0.1-0.3,0-0.4-0.2c0,0,0,0,0,0l0,0c-0.2-0.2-0.3-0.5-0.2-0.8c0.1-0.3,0.3-0.6,0.5-0.9c0.3-0.9,0.5-1.8,0.7-2.7
	c0.2-1.2,0.3-2.6,0.5-3.8c0-0.2,0-0.3,0.1-0.5l0,0l0.2-0.3c0.5-0.5,1.3,0.2,1.1,0.8v0.2c0.1-0.1,0.4,0.3,0.5,0.4s0.7,0.2,1.1-0.1
	c0.2-0.2,0.5-0.2,0.7-0.1l0.4-0.9c0-0.2,0.2-0.4,0.5-0.3c0.1,0,0.2,0.1,0.2,0.1c0.7,0.5,0.7,1.2,0.7,2c0.1,2.4,2.6,1.4,3.9,1.1
	s0.6,0.3,0.6,0.6C385,239.2,384.2,240.2,383.2,240.7z"/>
<path class="st48" d="M380.4,244.6c2.6,2.8-0.2,9.2-1,12.1c-0.5,1.6-1.2,3.2-2.1,4.6c0-0.1-0.1-0.2,0-0.4c0.3-2.8-2.6-4.6-5.1-4.6
	s-4.1,2-5.6,3.1s-4.6,3-7,4.4c-4.1,2.3-10.4,4.4-15.1,2.5c-2.1-0.8-4-1.4-5.2-2.5c-0.1-1.5,0.4-2.9,1.3-4.1c3.6-4.4,10.8-0.1,15-0.1
	c5.8,0.1,10.8-7.2,11.9-12c0.3-2.1,1.2-4.1,2.6-5.7C373.2,238.8,378.1,242.1,380.4,244.6z"/>
<path class="st49" d="M363.7,269c3.9-1.7,7.9-3.2,11.7-5c-6.4,8-18.8,14.9-29.9,7.8c-0.3,0.1-0.9-0.2-1.5-0.5c0.7-0.4,1.7-0.4,2.4,0
	C351.5,274.1,358.8,271.1,363.7,269z"/>
<rect x="1428.8" y="258.8" transform="matrix(0.91 -0.4147 0.4147 0.91 14.0562 631.6368)" class="st19" width="65.6" height="49.3"/>
<rect x="1431.3" y="261.3" transform="matrix(0.91 -0.4147 0.4147 0.91 14.085 631.6108)" class="st14" width="60.5" height="44.1"/>
<rect x="1448.4" y="297.9" transform="matrix(0.91 -0.4147 0.4147 0.91 8.1722 636.003)" class="st34" width="40.6" height="2.5"/>
<path class="st38" d="M1448.8,307.2c2.3-1,4.5-1.1,5-0.2s-1.1,2.6-3.4,3.6s-4.5,1.1-5,0.2S1446.5,308.2,1448.8,307.2z"/>
<rect x="1446" y="292.8" transform="matrix(0.91 -0.4147 0.4147 0.91 10.0826 634.5285)" class="st34" width="40.6" height="2.5"/>
<path class="st38" d="M1446.4,302c2.3-1,4.5-1.1,5-0.2s-1.1,2.6-3.4,3.6s-4.5,1.1-5,0.2S1444.1,303.1,1446.4,302z"/>
<rect x="1443.5" y="287.6" transform="matrix(0.91 -0.4147 0.4147 0.91 12.0344 633.0451)" class="st34" width="40.6" height="2.5"/>
<path class="st38" d="M1444,296.8c2.3-1,4.5-1.1,5-0.2s-1.1,2.6-3.4,3.6s-4.5,1.1-5,0.2S1441.7,297.9,1444,296.8z"/>
<rect x="1441.2" y="282.4" transform="matrix(0.91 -0.4147 0.4147 0.91 13.9538 631.6121)" class="st34" width="40.6" height="2.5"/>
<path class="st38" d="M1441.7,291.6c2.3-1,4.5-1.1,5-0.2s-1.1,2.6-3.4,3.6s-4.5,1.1-5,0.2S1439.4,292.7,1441.7,291.6z"/>
<rect x="1438.8" y="277.2" transform="matrix(0.91 -0.4147 0.4147 0.91 15.9056 630.1286)" class="st34" width="40.6" height="2.5"/>
<path class="st38" d="M1439.3,286.4c2.3-1,4.5-1.1,5-0.2s-1.1,2.6-3.4,3.6s-4.5,1.1-5,0.2S1437,287.5,1439.3,286.4z"/>
<rect x="1436.5" y="272" transform="matrix(0.91 -0.4147 0.4147 0.91 17.8504 628.7296)" class="st34" width="40.6" height="2.5"/>
<path class="st38" d="M1436.9,281.2c2.3-1,4.5-1.1,5-0.2s-1.1,2.6-3.4,3.6s-4.5,1.1-5,0.2S1434.6,282.3,1436.9,281.2z"/>
<rect x="1434.1" y="266.8" transform="matrix(0.91 -0.4147 0.4147 0.91 19.8022 627.2462)" class="st34" width="40.6" height="2.5"/>
<path class="st38" d="M1434.6,276c2.3-1,4.5-1.1,5-0.2s-1.1,2.6-3.4,3.6s-4.5,1.1-5,0.2S1432.3,277.1,1434.6,276z"/>
<rect x="1448.7" y="243.9" transform="matrix(0.91 -0.4147 0.4147 0.91 21.403 641.4717)" class="st19" width="78.5" height="55"/>
<rect x="1457.7" y="252.9" transform="matrix(0.91 -0.4147 0.4147 0.91 21.403 641.4717)" class="st20" width="60.5" height="37"/>
<polygon class="st19" points="1498.9,267.7 1511.2,277.3 1496.1,281.2 1490.8,295.9 1482.4,282.8 1466.7,282.3 1476.6,270.2 
	1472.3,255.2 1486.8,260.9 1499.8,252.1 "/>
<path class="st41" d="M1440.4,260.4c-6.5,3-22.3,1.3-22.3,1.3s9.1-13,15.6-16s9.5-0.4,11.4,3.7S1446.9,257.4,1440.4,260.4z"/>
<path class="st42" d="M1441.5,256.5c-4,1.8-13.7,0.8-13.7,0.8s5.6-8,9.6-9.8s5.8-0.2,7,2.3S1445.5,254.6,1441.5,256.5z"/>
<rect x="1438.9" y="239.1" transform="matrix(0.91 -0.4147 0.4147 0.91 32.0025 628.1075)" class="st14" width="47" height="2.5"/>
<path class="st14" d="M1439.7,249.7c2.3-1,4.5-1.1,5-0.2s-1.1,2.6-3.4,3.6s-4.5,1.1-5,0.2S1437.4,250.8,1439.7,249.7z"/>
<path class="st28" d="M470.6,192.6c0-0.6-0.5-1.1-1.1-1.1l0,0l-15.5-0.4c-0.6,0-1.2-0.1-1.2-0.8s0.5-0.8,1.2-0.8l15.8-0.4
	c0.4,0,0.8-0.4,0.8-0.8s-0.4-0.8-0.8-0.8l-15.8-0.4c-0.6,0-1.2-0.1-1.2-0.8s0.5-0.8,1.2-0.8l15.8-0.4c0.4,0,0.8-0.4,0.8-0.8
	s-0.4-0.8-0.8-0.8l-15.8-0.4c-0.6,0-1.2-0.1-1.2-0.8s0.5-0.8,1.2-0.8l15.5-0.4c0.6,0,1.1-0.5,1.1-1.1s-0.5-1.1-1.1-1.1c0,0,0,0,0,0
	h-19.8c-2.1,0-4.1,3-6.9,3.7c-15.4,4.1-74.4-0.8-74.4-0.8c-1,0-1.8,0.8-1.9,1.8v5.3c0,1,0.8,1.8,1.8,1.8c0,0,0.1,0,0.1,0
	c0,0,59-4.8,74.4-0.8c2.7,0.7,4.8,3.7,6.9,3.7h19.8C470.1,193.8,470.6,193.3,470.6,192.6z"/>
<path class="st28" d="M434,216.6c2,0.5,15.1,7.9,19.9,7.9c8.7,0,17.8-4.8,17.8-10.7s-9.2-10.7-17.8-10.7c-5.2,0-18.1,7.7-19.9,8.2
	c-15.4,4.1-65.7-1.8-65.7-1.8c-1,0-1.8,0.8-1.9,1.8v5.3c0,1,0.8,1.8,1.8,1.8c0,0,0.1,0,0.1,0C368.3,218.5,418.6,212.5,434,216.6z"/>
<path class="st16" d="M449.6,193.8h19.8c0.6,0,1.1-0.5,1.1-1.1s-0.5-1.1-1.1-1.1c0,0,0,0,0,0l-15.5-0.4c-0.6,0-1.2-0.1-1.2-0.8
	s0.5-0.8,1.2-0.8l15.8-0.4c0.4,0,0.8-0.4,0.8-0.8s-0.4-0.8-0.8-0.8l-15.8-0.4c-0.6,0-1.2-0.1-1.2-0.8h-86.3v2.6c0,1,0.8,1.8,1.8,1.8
	c0,0,0.1,0,0.1,0c0,0,59-4.8,74.4-0.8C445.5,190.8,447.6,193.8,449.6,193.8z"/>
<path class="st16" d="M434,216.6c2,0.5,15.1,7.9,19.9,7.9c8.7,0,17.8-4.8,17.8-10.7c-27.5,9.4-4.7-2.2-105.3,0v2.8
	c0,1,0.8,1.8,1.8,1.8c0,0,0.1,0,0.1,0C368.3,218.5,418.6,212.5,434,216.6z"/>
<path class="st50" d="M1621.3,272.3c0,0,0-7.8,20.7-9.4s48.7-2.6,54.2,7.2c0,3.6-3.7,5-7.9,5.7s-7.2,1.3-12.1,0.2
	c-4.7,1.6-15.4,1.6-20.6-0.3c-6.9,2.1-16.1,1.6-19.6-0.2C1630.4,276.4,1621.3,276.2,1621.3,272.3z"/>
<path class="st51" d="M1691.1,265.7c4,7.4-8.3,9.9-16.3,5.7c0.3,1.2-2.6,3.2-3.8,3.2c-5.5,1.2-9.6,0-14.3-3.2
	c-3.5,6.4-13.7,4.7-18.3,0.6c-4,3.8-11.5,3.6-16.9,1.3c1.4,3,9.4,3.1,14.6,2.2c3.5,1.8,12.7,2.3,19.6,0.2c5.1,1.9,15.9,1.9,20.6,0.3
	c4.8,1.2,7.9,0.5,12.1-0.2s7.9-2.1,7.9-5.7C1695.1,268.1,1693.2,266.6,1691.1,265.7z"/>
<path class="st52" d="M1632.6,276.2c0-2.7-2.2-4.9-4.9-4.9l0,0h-1.5c-2.7,0-4.9,2.2-4.9,4.9c0,0,0,0,0,0v9.4c0,2.7,2.2,4.9,4.9,4.9
	l0,0h1.5c2.7,0,4.9-2.2,4.9-4.9c0,0,0,0,0,0V276.2z"/>
<path class="st52" d="M1626.6,271.2h-0.5c-2.7,0-4.9,2.2-4.9,4.9c0,0,0,0,0,0v9.4c0,2.7,2.2,4.9,4.9,4.9l0,0h0.7
	C1625.4,284,1623.1,277.1,1626.6,271.2z"/>
<path class="st52" d="M1697.6,274.4c0-2.7-2.2-4.9-4.9-4.9l0,0h-1.5c-2.7,0-4.9,2.2-4.9,4.9c0,0,0,0,0,0v9.4c0,2.7,2.2,4.9,4.9,4.9
	l0,0h1.5c2.7,0,4.9-2.2,4.9-4.9c0,0,0,0,0,0V274.4z"/>
<path class="st52" d="M1691.6,269.4h-0.5c-2.7,0-4.9,2.2-4.9,4.9c0,0,0,0,0,0v9.4c0,2.7,2.2,4.9,4.9,4.9l0,0h0.7
	C1690.4,282.2,1688.1,275.3,1691.6,269.4z"/>
<path class="st53" d="M1769.4,293.7v100.7c0,1.3-1.2,2.8-3.1,4.3c-5.5,4.4-16.9,9.1-21.9,9.1l-16.8-1.4l-32.9-2.8l-18.8-1.6
	l-63.1-5.4l-14-1.2c-1.7,0-3.3-1-4-2.6c-0.2-0.6-0.4-1.2-0.4-1.8v-97.1c0-0.6,0.1-1.2,0.4-1.8c0.7-1.6,2.3-2.6,4-2.6l14-1.1
	l63.1-4.9l18.8-1.5l30.3-2.4l20.8-1.6c1.8,0,13.8,5.4,20,10.6C1767.9,290.2,1769.4,292.1,1769.4,293.7z"/>
<path class="st54" d="M1761.4,401.3c0,0.4-0.4,0.8-0.8,0.8l0,0l0,0c-0.4,0-0.8-0.4-0.8-0.8v0V285.8c0-0.4,0.4-0.8,0.8-0.8l0,0l0,0
	c0.4,0,0.8,0.4,0.8,0.8v0V401.3z"/>
<path class="st50" d="M1759,283.2c-1.5,5.9-4.7,12.3-10.1,15.2h-1.9c-11.1,0-20.3-8.5-22.1-19.6c-0.1-0.4-0.1-0.8-0.2-1.2l19.6-0.6
	h0.6C1746.7,277,1753.6,279.5,1759,283.2z"/>
<path class="st50" d="M1748.9,282.9v119.4c0,3-2,5.4-4.5,5.4l-17-0.6l-32.7-1.1l-18.8-0.6l-63.1-2.1l-18-0.6l-17.8-0.6l-11.2-0.4
	c-2.7,0-4.9-2.2-4.9-4.9c0,0,0,0,0,0V288.2c0-2.7,2.2-4.9,4.9-4.9l0,0l10.3-0.3l18.6-0.6l18-0.6l63.1-2.1l18.8-0.6l30.1-1l19.6-0.6
	l1.4,0.2C1747.7,278.6,1749,280.7,1748.9,282.9z"/>
<polygon class="st55" points="1702.8,406.4 1683.9,405.8 1683.9,279.4 1702.8,278.8 "/>
<polygon class="st55" points="1612.8,403.6 1594.7,403 1594.7,282.3 1612.8,281.8 "/>
<path class="st56" d="M1577.1,281.9c-2.5,8.3-9,14.7-17.3,17.2v-11.2c0-3.1,2.5-5.6,5.6-5.6L1577.1,281.9z"/>
<path class="st56" d="M1577,402.3l-11.2-0.4c-2.7,0-4.9-2.2-4.9-4.9c0,0,0,0,0,0v-13.6C1569.5,386.1,1575.7,393.4,1577,402.3z"/>
<path class="st56" d="M1748.9,282.4v16h-1.9c-11.1,0-20.3-8.5-22.1-19.6c-0.1-0.4-0.1-0.8-0.2-1.2l19.6-0.6l1.4,0.2
	C1747.8,278.1,1749,280.2,1748.9,282.4z"/>
<path class="st50" d="M1761,402.4c-8.4,5.2-11.7,5.9-16.7,5.9c2.5,0,4.5-2.4,4.5-5.4v-12.3C1753.5,391.9,1758.9,396.5,1761,402.4z"
	/>
<path class="st56" d="M1748.9,390.6v12.3c0,3-2,5.4-4.5,5.4l-17-0.6l0.3-0.9C1730.4,397.3,1739,390.7,1748.9,390.6z"/>
<path class="st50" d="M1762.7,285.8c0,0,1.7,15.7,7.1,16.5v-8.7c0,0-0.1-2.9-3.5-5.5S1762.7,285.8,1762.7,285.8z"/>
<path class="st50" d="M1769.7,386c0,0-5.6,6.4-5.4,14.2c0,0,0,0.2,0.2,0.1s5-3.4,5.1-5.1S1769.7,386,1769.7,386z"/>
<path class="st57" d="M1612.8,295.5L1612.8,295.5l-18.1,0.6h-0.1c-1.6,0.1-2.9,1.4-2.9,3V318c0,1.6,1.3,2.9,2.9,3h0.1l18,0.6h0.1
	c1.5,0.1,2.8-1.2,2.9-2.7c0,0,0-0.1,0-0.1v-20.5c0-1.5-1.3-2.8-2.8-2.8C1612.9,295.5,1612.8,295.5,1612.8,295.5z M1613.5,307.2h-0.7
	v2.6h0.7v6.6c0,0.7-0.3,1.4-0.7,1.9c-0.6,0.6-1.4,0.9-2.2,0.9l-13.8-0.5c-0.8,0-1.6-0.4-2.1-1c-0.5-0.5-0.8-1.3-0.8-2v-5.9h0.8v-2.6
	h-0.8v-5.8c0-0.7,0.3-1.5,0.8-2c0.5-0.6,1.3-0.9,2.1-1l13.8-0.5c0.8,0,1.6,0.3,2.2,0.9c0.5,0.5,0.7,1.2,0.7,1.9V307.2z"/>
<path class="st57" d="M1702.9,294.7L1702.9,294.7l-19,0.6h-0.1c-1.7,0.1-3.1,1.5-3.1,3.2v19.8c0,1.7,1.4,3.1,3.1,3.2h0.1l18.9,0.6
	h0.1c1.7,0.1,3-1.2,3.1-2.9c0,0,0,0,0,0v-21.6C1705.8,296,1704.5,294.7,1702.9,294.7z M1703.6,307h-0.8v2.7h0.8v6.9
	c0,1.6-1.3,2.9-2.9,2.9c-0.1,0-0.1,0-0.2,0L1686,319c-0.8,0-1.6-0.4-2.2-1c-0.5-0.6-0.9-1.3-0.9-2.1v-6.2h0.9V307h-0.9v-6
	c0-0.8,0.3-1.6,0.9-2.1c0.6-0.6,1.4-1,2.2-1l14.5-0.5c0.9,0,1.7,0.3,2.3,0.9c0.5,0.5,0.8,1.3,0.8,2L1703.6,307z"/>
<path class="st57" d="M1604.6,301.1c0,0.9-0.7,1.6-1.6,1.6l0,0c-0.9,0-1.6-0.7-1.6-1.6v-4.4c0-0.9,0.7-1.6,1.6-1.6l0,0
	c0.9,0,1.6,0.7,1.6,1.6V301.1z"/>
<path class="st57" d="M1695.1,300.8c0,0.9-0.8,1.7-1.7,1.7c0,0-0.1,0-0.1,0l0,0c-0.9,0-1.7-0.8-1.7-1.7v-4.9c0-1,0.7-1.7,1.7-1.8
	l0,0c1,0,1.8,0.8,1.8,1.8v0V300.8z"/>
<path class="st58" d="M1729.3,277.7c0,0,13.3-0.8,16.4-0.5s10.1,4.1,10.1,4.1s-7.5-3.4-7.3-2.1c0.6,4.6,0.7,9.3,0.3,14
	c-1-7.4,0-14.3-3.5-14.8S1729.3,277.7,1729.3,277.7z"/>
<path class="st58" d="M1729.3,407.8c0,0,15.3,0.7,18.4,0.3c2.8-0.9,5.5-2,8.1-3.3c0,0-7.5,2.7-7.3,1.5c0.6-4.6,0.7-9.3,0.3-14
	c-1,7.5,0,14.3-3.5,14.8S1729.3,407.8,1729.3,407.8z"/>
<polygon class="st9" points="1299.2,74.6 928.1,74.6 947.4,55.4 928.1,36.1 1299.2,36.1 1279.9,55.4 "/>
<path class="st20" d="M1012.4,66.2c-3,0.1-5.5-2.4-5.6-5.4c0-0.1,0-0.1,0-0.2V47.7c0-1.5,0.6-3,1.7-4c1.1-1.1,2.5-1.6,4-1.6
	c1.5,0,3,0.6,4,1.7c1.1,1.1,1.6,2.5,1.6,4v2.7h-3.7v-2.8c0-0.6-0.2-1.1-0.6-1.5c-0.4-0.4-0.9-0.6-1.5-0.6c-0.5,0-1,0.2-1.4,0.6
	c-0.4,0.4-0.6,0.9-0.6,1.5v12.9c0,0.5,0.2,1,0.6,1.4c0.4,0.4,0.9,0.6,1.4,0.6c0.6,0,1.1-0.2,1.5-0.6c0.4-0.4,0.6-0.9,0.6-1.4v-3.3
	h3.7v3.3c0,1.5-0.6,3-1.7,4C1015.3,65.7,1013.9,66.2,1012.4,66.2z"/>
<path class="st20" d="M1025.7,60.5l-0.9,5.4h-3.7l4-23.6h4.9l4,23.6h-3.7l-0.8-5.4H1025.7z M1027.5,47.7l-1.3,9.3h2.6L1027.5,47.7z"
	/>
<path class="st20" d="M1041.5,65.9h-3.6V42.3h5.1l3.3,17l3.2-17h4.9v23.6h-3.6V51.1l-3.1,14.8h-2.9l-3.4-14.8L1041.5,65.9
	L1041.5,65.9z"/>
<path class="st20" d="M1064.3,42.3c1.5-0.1,3,0.5,4.1,1.6c1,1.1,1.5,2.5,1.4,4v3.4c0.1,3.1-2.4,5.6-5.5,5.7c0,0,0,0,0,0h-2.1v8.9
	h-3.6V42.3H1064.3z M1066.5,48c0-1.2-0.9-2.1-2.1-2.1h-2.1v7.6h2.1c0.5,0,1-0.2,1.4-0.6c0.4-0.4,0.6-0.9,0.6-1.5L1066.5,48
	L1066.5,48z"/>
<path class="st20" d="M1077.3,65.9h-3.6V42.3h3.6V65.9z"/>
<path class="st20" d="M1085.6,42.3l4.7,15.9V42.3h3.6v23.6h-3.8l-4.9-15.1v15.1h-3.6V42.3H1085.6z"/>
<path class="st20" d="M1103.6,66.2c-1.5,0-3-0.6-4-1.7c-1.1-1.1-1.6-2.5-1.6-4V47.7c0-1.5,0.6-3,1.7-4c1.1-1.1,2.5-1.6,4-1.6
	c1.5,0,3,0.6,4,1.7c1.1,1.1,1.6,2.5,1.6,4v2.7h-3.7v-2.8c0-0.6-0.2-1.1-0.6-1.5c-0.4-0.4-0.9-0.6-1.5-0.6c-0.5,0-1,0.2-1.4,0.6
	c-0.4,0.4-0.6,0.9-0.6,1.5v12.9c0,0.5,0.2,1,0.6,1.4c0.4,0.4,0.9,0.6,1.4,0.6c0.6,0,1.1-0.2,1.5-0.6c0.4-0.4,0.6-0.9,0.6-1.4V56h-2
	v-3.6h5.7v8.2c0,1.5-0.6,3-1.7,4C1106.5,65.7,1105.1,66.2,1103.6,66.2z"/>
<path class="st20" d="M1133.6,54.8c-0.5,2.2-1.2,4.4-2.3,6.4c0.6,0.7,1.5,1.2,2.4,1.3v3.3c-1.6-0.1-3.1-0.8-4.3-1.9
	c-1.1,1.3-2.8,2.1-4.5,2.2c-1.7,0.1-3.4-0.8-4.3-2.3c-0.6-1-0.9-2.1-0.9-3.3c0-1.3,0.3-2.6,0.9-3.8c0.3-0.6,0.6-1.2,1-1.7l0.9-1.5
	l-0.7-1.7c-0.3-0.5-0.5-1.1-0.7-1.7c-0.2-0.5-0.4-1.1-0.5-1.7c-0.1-0.6-0.2-1.1-0.2-1.7c0-1,0.2-2,0.7-2.9c0.5-0.9,1.2-1.6,2.1-2.1
	c0.7-0.4,1.6-0.6,2.4-0.6c1.9-0.1,3.7,1,4.5,2.7c0.3,0.7,0.5,1.4,0.5,2.2c0,1.5-0.5,2.9-1.5,4l-0.8,1l-1.9,2.6
	c0.8,1.6,1.7,3.1,2.7,4.6c0.6-1.4,1.1-2.8,1.4-4.3L1133.6,54.8z M1124.9,62.8c0.9-0.1,1.8-0.6,2.3-1.4c-1.1-1.4-2.1-3-2.9-4.6
	l-0.7,1.2c-0.4,0.7-0.6,1.6-0.6,2.4c-0.1,0.6,0.1,1.1,0.4,1.6C1123.7,62.5,1124.3,62.8,1124.9,62.8z M1123.7,46.7
	c0.2,1.3,0.6,2.5,1.1,3.7l0.5-0.6l0.5-0.6l0.8-1c0.5-0.5,0.8-1.3,0.8-2c0-0.4-0.1-0.7-0.2-1.1c-0.2-0.7-0.8-1.2-1.5-1.2
	c-0.7,0-1.2,0.4-1.5,1C1123.8,45.4,1123.6,46.1,1123.7,46.7L1123.7,46.7z"/>
<path class="st20" d="M1147.7,55.9v10h-3.6V42.3h3.6v10h4.3v-10h3.6v23.6h-3.6v-10H1147.7z"/>
<path class="st20" d="M1163.3,65.9h-3.6V42.3h3.6V65.9z"/>
<path class="st20" d="M1171.1,58.4v7.5h-3.6V42.3h3.6v8.4l4.4-8.4h3.8l-4.9,9.6l5.7,14h-4.2l-3.7-9.6L1171.1,58.4z"/>
<path class="st20" d="M1187.6,65.9h-3.6V42.3h3.6V65.9z"/>
<path class="st20" d="M1195.8,42.3l4.7,15.9V42.3h3.6v23.6h-3.8l-4.9-15.1v15.1h-3.6V42.3H1195.8z"/>
<path class="st20" d="M1213.9,66.2c-1.5,0-3-0.6-4-1.7c-1.1-1.1-1.6-2.5-1.6-4V47.7c0-1.5,0.6-3,1.7-4c1.1-1.1,2.5-1.6,4-1.6
	c1.5,0,3,0.6,4,1.7c1.1,1.1,1.6,2.5,1.6,4v2.7h-3.7v-2.8c0-0.6-0.2-1.1-0.6-1.5c-0.4-0.4-0.9-0.6-1.5-0.6c-0.5,0-1,0.2-1.4,0.6
	c-0.4,0.4-0.6,0.9-0.6,1.5v12.9c0,0.5,0.2,1,0.6,1.4c0.4,0.4,0.9,0.6,1.4,0.6c0.6,0,1.1-0.2,1.5-0.6c0.4-0.4,0.6-0.9,0.6-1.4V56h-2
	v-3.6h5.7v8.2c0,1.5-0.6,3-1.7,4C1216.8,65.7,1215.4,66.2,1213.9,66.2z"/>
<polygon class="st20" points="994.1,58.5 959.8,55.1 994.1,51.8 "/>
<polygon class="st20" points="1233.2,51.8 1267.5,55.1 1233.2,58.5 "/>
<path class="st59" d="M646.7,218.2l1.4,7.1c2.3,12.3,6.9,36.3,6.9,36.3s0.6,3.2-1.9,4.9s-10,5.5-13,6.1c-10.8,3.8-6.4-22-10.3-44.7
	c-1.3-7.2-2.1-14.6-2.3-21.9c0,0,7.7,0.1,16.4,6.9C645.5,214.2,645.9,214.1,646.7,218.2z"/>
<path class="st60" d="M646.7,218.2l1.4,7.1l-9.2,1.7c-3,0.7-6,0.9-9.1,0.8c-1.3-7.2-2.1-14.6-2.3-21.9c0,0,7.7,0.1,16.4,6.9
	C645.5,214.2,645.9,214.1,646.7,218.2z"/>
<path class="st53" d="M559.1,224.1c0.1,0.5-0.3,1-1,1.2l-17.4,4.1c-0.6,0.2-1.2,0-1.5-0.6l-1.9-7.4c-0.1-0.5,0.3-1,1-1.2l17.4-4.1
	c0.6-0.2,1.2,0,1.5,0.6L559.1,224.1z"/>
<path class="st50" d="M556.2,216.3c0.1,0.4-3.9,1.6-8.9,2.8s-9.2,1.8-9.3,1.4s3.9-1.6,8.9-2.8S556.1,215.9,556.2,216.3z"/>
<path class="st50" d="M537.6,220.8c0,0,0.4,1.3,13.9-2.5C551.5,218.3,539.8,221.4,537.6,220.8z"/>
<path class="st61" d="M636.1,213.2c-1-4.9-5.7-8-10.6-7c0,0-0.1,0-0.1,0l-93,21.7c-4.9,0.9-8.2,5.5-7.3,10.4c0,0,0,0.1,0,0.1l1.9,10
	l111.8-21.2L636.1,213.2z"/>
<path class="st62" d="M645.7,262.6c0.2,1.1,0.2,2.2,0,3.3c-0.4,2.2-1.7,4.2-3.5,5.6l0,0c-1.1,0.8-2.4,1.4-3.8,1.7l0,0l-93.7,17.3
	h-0.9c-1.4,0.1-2.7,0-4-0.5l-1.6-0.7l-0.4-0.2c-0.4-0.2-0.7-0.5-1-0.8c-0.5-0.5-1-1-1.4-1.6l-0.4-0.6l-0.3-0.5
	c-0.3-0.7-0.6-1.4-0.7-2.1l-6.5-33.8l-0.2-1.2l0,0l111.8-21.2L645.7,262.6z"/>
<path class="st63" d="M623.9,245.4c3.4,17.3-7.9,34.1-25.3,37.5c-17.3,3.4-34.1-7.9-37.5-25.3c-3.4-17.3,7.9-34.1,25.3-37.5
	c0,0,0,0,0,0C603.7,216.7,620.5,228.1,623.9,245.4z"/>
<path class="st50" d="M622.4,245.7c3.2,16.5-7.6,32.4-24.1,35.6c-16.5,3.2-32.4-7.6-35.6-24.1s7.6-32.4,24.1-35.6c0,0,0,0,0,0
	C603.3,218.4,619.2,229.2,622.4,245.7z"/>
<path class="st64" d="M616.9,246.7c2.6,13.4-6.1,26.5-19.6,29.1c-13.4,2.6-26.5-6.1-29.1-19.6c-2.6-13.4,6.1-26.5,19.6-29.1
	c0,0,0.1,0,0.1,0C601.3,224.5,614.3,233.3,616.9,246.7z"/>
<path class="st65" d="M613.7,238.5c4.3,25.7-19.3,37.6-33.5,34.3c5.2,3,11.2,4.1,17.1,2.9c13.4-2.6,22.2-15.6,19.6-29
	C616.3,243.8,615.2,241,613.7,238.5z"/>
<path class="st50" d="M606.2,210.7l-39.7,9.1c0.5-2.6,1.2-5.1,2.1-7.5c1.1-2.6,3.3-4.5,6-5.4l18.7-4.3c2.8-0.4,5.6,0.4,7.7,2.2
	C602.9,206.6,604.7,208.6,606.2,210.7z"/>
<path class="st53" d="M601.1,204.9c-2.1-1.8-4.9-2.7-7.7-2.2l-0.9,0.2c5.1,0.6,6,3.6,10.7,8.5l3.1-0.7
	C604.7,208.6,603,206.7,601.1,204.9z"/>
<path class="st64" d="M560.5,231.5c-0.4-2.3-2.6-3.8-4.9-3.4c-2.3,0.4-3.8,2.6-3.4,4.9c0.5,2.3,2.7,3.8,5,3.4
	c2.2-0.4,3.7-2.5,3.3-4.7C560.5,231.6,560.5,231.6,560.5,231.5z"/>
<path class="st50" d="M552.8,233.5c-0.5-2.3,0.9-4.5,3.2-5c1.2-0.3,2.4,0,3.4,0.7c-1-1-2.4-1.4-3.8-1.2c-2.3,0.5-3.8,2.6-3.4,4.9
	c0.2,1.1,0.8,2,1.7,2.7C553.3,235,552.9,234.3,552.8,233.5z"/>
<path class="st58" d="M574.3,246.4c0,0-0.2-5.5,6.4-9.8s8.7-1.7,8.7-1.7s1.2,1.2-4.8,3.8C575.5,242.7,575.4,250.9,574.3,246.4z"/>
<path class="st58" d="M577.1,253.7c0.2,1.1-0.6,2.2-1.7,2.4c-1.1,0.2-2.2-0.6-2.4-1.7c-0.2-1.1,0.5-2.2,1.6-2.4
	C575.8,251.8,576.8,252.6,577.1,253.7z"/>
<path class="st60" d="M1092.7,197.7c0.7,0.8,1.9,0.9,2.7,0.2c0,0,0.1-0.1,0.1-0.1l0,0c0.8-0.7,0.9-1.9,0.2-2.7c0,0-0.1-0.1-0.1-0.1
	l-44.7-48.9c-0.7-0.8-1.9-0.9-2.7-0.2c0,0-0.1,0.1-0.1,0.1l0,0c-0.8,0.7-0.9,1.9-0.2,2.7c0,0,0.1,0.1,0.1,0.1L1092.7,197.7z"/>
<path class="st60" d="M1111.8,180.3c0.7,0.8,1.9,0.9,2.7,0.2c0,0,0.1-0.1,0.1-0.1l0,0c0.8-0.7,0.9-1.9,0.2-2.7c0,0-0.1-0.1-0.1-0.1
	l-44.7-48.9c-0.7-0.8-1.9-0.9-2.7-0.2c0,0-0.1,0.1-0.1,0.1l0,0c-0.8,0.7-0.9,1.9-0.2,2.7c0,0,0.1,0.1,0.1,0.1L1111.8,180.3z"/>
<path class="st53" d="M1075.8,219.4l47.1,51.5c3.8,4.1,11.1,4.4,17.9,2.5l3.2-1.1c1.2-0.5,2.4-1.1,3.6-1.7c1.4-0.7,2.6-1.6,3.8-2.6
	l0.4-0.3l20-18.3c6.8-6.2-1.3-16-7.5-22.7l-43.9-48c-6.2-6.8-29-3-35.8,3.2l-5.6,8.2l0,0l-2.2,3.4l0,0l-0.9,1.5
	c-0.7,1.3-1.3,2.6-1.9,3.9C1071,206.4,1070.8,214,1075.8,219.4z"/>
<path class="st50" d="M1072.1,126c-5.7-6.3-4-1.6-10.4,3.4c-3.9,3-12.4,11.8-16.5,14.7s-1,2.8-0.4,5.5s2.9,0.6,4.6-0.6
	c1.7-0.9,3.2-2.3,4.3-3.9c3-1.6,5.5-3.9,7.2-6.8c3.1-1.5,6.2-4.6,6.9-6.4C1070.2,130.4,1073.3,127.4,1072.1,126z"/>
<path class="st51" d="M1043.7,147.6c3.5,2.2,7.6-0.5,9.1-4.6c0.3,0.5,2,0.3,2.4-0.1c2.1-1.2,3.6-3.4,4-5.8c3.3,1.1,6.4-2.8,6.7-5.7
	c2.7,0,5.3-2.5,6.4-5c0.5,1.5-2.3,4.2-4.5,5.5c-0.7,1.8-3.8,4.9-6.9,6.4c-1.7,2.9-4.2,5.2-7.2,6.8c-1.3,2-2.6,2.7-4.3,3.9
	s-3.5,1.8-4.6,0.6S1044.8,148.6,1043.7,147.6z"/>
<path class="st50" d="M1133.5,259.4c6.9,7.5,18.5,8,26,1.2l22.1-20.2c7.5-6.9,8-18.5,1.2-26l-48.5-53.1c-6.9-7.5-18.5-8-26-1.2
	l-22.1,20.2c-7.5,6.9-8,18.5-1.2,26L1133.5,259.4z"/>
<path class="st55" d="M1129.7,245.7c5.6,6,14.9,6.4,21,0.9l17.8-16.3c6-5.5,6.5-14.9,1-20.9c0,0-0.1-0.1-0.1-0.1l-39.2-42.9
	c-5.6-6-14.9-6.4-21-0.9l-17.8,16.3c-6,5.6-6.4,14.9-0.9,21L1129.7,245.7z"/>
<path class="st55" d="M1129.2,244.4c5.4,5.9,14.7,6.3,20.6,0.9l17.5-16c5.9-5.4,6.3-14.7,0.9-20.6l-38.5-42.1
	c-5.4-5.9-14.7-6.3-20.6-0.9l-17.5,16c-5.9,5.4-6.3,14.7-0.9,20.6L1129.2,244.4z"/>
<path class="st56" d="M1126.7,266.5c4.5,4.9,10.9,6.4,14,6.8l3.2-1.1c1.2-0.5,2.4-1.1,3.6-1.7c-7.2,2.4-16.8-6.4-16.8-6.4
	l-49.9-54.5c-5.8-6.4-5.1-12.8-4.1-16.1l0,0l-0.9,1.5c-0.7,1.3-1.3,2.6-1.9,3.9c-0.5,4.9,0.8,9.7,3.7,13.7"/>
<path class="st56" d="M1097.7,189.1c-1.6-1.7-1.5-4.4,0.2-5.9c0,0,0,0,0.1-0.1l11.9-10.9c1.7-1.6,4.4-1.5,5.9,0.2c0,0,0,0,0.1,0.1
	l0,0c1.6,1.7,1.5,4.4-0.2,5.9c0,0,0,0-0.1,0.1l-11.9,10.9C1102,191,1099.3,190.9,1097.7,189.1
	C1097.7,189.1,1097.7,189.1,1097.7,189.1z"/>
</svg>
