<svg id="圖層_1" data-name="圖層 1" xmlns="http://www.w3.org/2000/svg" viewBox="0 0 1920 800.1"><defs><style>.cls-1{fill:#c9d896;}.cls-2{fill:#ea887b;}.cls-3{fill:#e97156;}.cls-4{fill:#f0c77e;}.cls-5{fill:#f6ddb0;}.cls-6{fill:#f0c87f;}.cls-7{fill:#f0efef;}.cls-8{fill:#bcc64d;}.cls-9{fill:#78a152;}.cls-10{fill:#124926;}.cls-11{fill:#2d6d36;}.cls-12{fill:#b8dbaf;}.cls-13{fill:#0f3a1e;}.cls-14{fill:#3a8a78;}.cls-15{fill:#0f3659;}.cls-16{fill:#325083;}.cls-17{fill:#164553;}.cls-18{fill:#50b79e;}.cls-19{fill:#efa08e;}.cls-20{fill:#f6bcb8;}.cls-21{fill:#93d0c1;}.cls-22{fill:#e97157;}.cls-23{fill:#174554;}.cls-24{fill:#4468aa;}.cls-25{fill:#b05541;}.cls-26{fill:#073357;}.cls-27{fill:#9abae2;}.cls-28{fill:#333;}.cls-29{fill:#ef948f;}.cls-30{fill:#fff;}.cls-31{fill:#eba343;}.cls-32{fill:#fefffe;}.cls-33{fill:#08102a;}.cls-34{fill:#5e411d;}</style></defs><rect class="cls-1" width="1920" height="800"/><path class="cls-2" d="M1190.88,440.5a10.23,10.23,0,0,1,3.79-7.91,7.93,7.93,0,0,1,11.33,1.15c3.23,3.89,3.65,11.33-1.88,22.69-12.18,3.36-19.42,1.6-22.65-2.29a7.92,7.92,0,0,1,.94-11.35A10.26,10.26,0,0,1,1190.88,440.5Z"/><path class="cls-2" d="M1162.13,467a105.55,105.55,0,0,0,10-6.66c1-.73,2.88-1.71,2.92-3.05a1.27,1.27,0,0,0-1-1.41c-1.32-.27-2.55,1.15-3.53,1.88-3,2.23-6.47,4.62-10.13,6.83a1.49,1.49,0,0,0-.35,2.07,1.52,1.52,0,0,0,2.07.34Z"/><path class="cls-2" d="M1217.73,437.38c1.45-1.05,2.88-2.12,4.31-3.19s3.16-2,4.11-3.42a1.29,1.29,0,0,0-1.44-2c-1.65.5-3.07,1.93-4.44,3s-2.85,2.14-4.26,3.23.17,3.54,1.72,2.42Z"/><path class="cls-2" d="M1189.29,475.89c-.45-4.35,1-6.91,1.86-9.31a1.2,1.2,0,0,0-2-1.25c-2.65,2.71-3.19,7.29-2.79,10.88a1.48,1.48,0,0,0,2.94-.32Z"/><path class="cls-2" d="M1211.42,471.17a13.09,13.09,0,0,1-2.49-4.83c-.29-1.09-.34-4.72-2.35-3.91s-.81,4-.37,5.38a15.55,15.55,0,0,0,2.78,5.1c1.22,1.47,3.64-.24,2.43-1.74Z"/><path class="cls-2" d="M1216.87,453.13l3.67,0c1.23,0,2.61.26,3.5-.73a1.31,1.31,0,0,0-.17-1.8c-.84-.88-2.54-.51-3.65-.49l-3.68.06a1.53,1.53,0,0,0-1.34,1.66,1.55,1.55,0,0,0,1.67,1.34Z"/><path class="cls-2" d="M1174.5,439c-8.47-5.06-8.44-5.14-9.5-5.29a1.32,1.32,0,0,0-1.26,2c.67.9.57.74,9.51,6a1.54,1.54,0,0,0,2-.77,1.57,1.57,0,0,0-.77-2Z"/><path class="cls-2" d="M1187.51,429.25a22.41,22.41,0,0,0-1.76-4.52c-.7-1.34-1.59-3.49-3.32-3.5a1.13,1.13,0,0,0-.94.69c-.5,1.44.92,2.92,1.56,4.16a27.68,27.68,0,0,1,1.7,4.23,1.5,1.5,0,0,0,1.91.85,1.52,1.52,0,0,0,.85-1.91Z"/><path class="cls-2" d="M1206.85,416.76a1.32,1.32,0,0,0-1.66-.75c-1.28.35-1.86,2.27-2.33,3.37a26.36,26.36,0,0,0-1.28,4,1.49,1.49,0,0,0,1.25,1.69,1.52,1.52,0,0,0,1.7-1.24C1206,418.73,1207.34,418.53,1206.85,416.76Z"/><path class="cls-3" d="M1006,249.46l-.06-7.51-6.23-4.22a1,1,0,0,1,.25-1.83l7.13-2.38,2.08-7.22A1,1,0,0,1,1011,226l4.46,6,7.51-.25a1,1,0,0,1,.88,1.64l-4.37,6.11,2.56,7.07a1,1,0,0,1-1.28,1.33l-7.17-2.26-5.93,4.62A1,1,0,0,1,1006,249.46Z"/><path class="cls-3" d="M828.44,201.25l-.06-7.51-6.22-4.21a1,1,0,0,1,.25-1.84l7.13-2.38,2.08-7.22a1,1,0,0,1,1.83-.33l4.46,6.05,7.51-.26a1,1,0,0,1,.88,1.64l-4.37,6.11,2.56,7.07a1,1,0,0,1-1.28,1.34L836,197.44l-5.93,4.62A1,1,0,0,1,828.44,201.25Z"/><path class="cls-3" d="M307.58,327.38l-.06-7.51-6.22-4.22a1,1,0,0,1,.25-1.83l7.13-2.38,2.08-7.22a1,1,0,0,1,1.83-.33l4.46,6.05,7.51-.26a1,1,0,0,1,.88,1.64l-4.37,6.11,2.56,7.07a1,1,0,0,1-1.28,1.34l-7.17-2.27-5.93,4.62A1,1,0,0,1,307.58,327.38Z"/><path class="cls-3" d="M1096.1,378.53,1096,371l-6.22-4.21a1,1,0,0,1,.25-1.84l7.13-2.38,2.08-7.22a1,1,0,0,1,1.83-.33l4.46,6.05,7.51-.25a1,1,0,0,1,.88,1.63l-4.37,6.12,2.56,7.06a1,1,0,0,1-1.28,1.34l-7.17-2.27-5.93,4.62A1,1,0,0,1,1096.1,378.53Z"/><path class="cls-3" d="M351.13,115.64l-.06-7.51-6.22-4.21a1,1,0,0,1,.25-1.84l7.13-2.38,2.08-7.22a1,1,0,0,1,1.82-.33l4.47,6,7.51-.26a1,1,0,0,1,.88,1.64l-4.37,6.11,2.56,7.07a1,1,0,0,1-1.28,1.34l-7.17-2.27-5.93,4.62A1,1,0,0,1,351.13,115.64Z"/><path class="cls-4" d="M715.5,38.58a9.57,9.57,0,1,1,10.21,8.88A9.55,9.55,0,0,1,715.5,38.58Z"/><path class="cls-4" d="M731.72,65.6a65,65,0,0,0-1.86-8.43,2.18,2.18,0,0,0-4.22.88,67.07,67.07,0,0,0,1.8,9,2.28,2.28,0,0,0,2.89,1.39,2.32,2.32,0,0,0,1.39-2.89Z"/><path class="cls-4" d="M748.12,53.74a93.05,93.05,0,0,1-8.86-6.39,2.19,2.19,0,0,0-2.87,3.3,41.61,41.61,0,0,0,9.66,7.26,2.35,2.35,0,0,0,3.12-1,2.38,2.38,0,0,0-1-3.12Z"/><path class="cls-4" d="M742.11,36.62a1.65,1.65,0,0,0-.42,2.21c1.08,1.94,3.8,1.84,5.73,1.78a20.75,20.75,0,0,0,5.94-1.13c2.82-1,1.29-5.34-1.54-4.37C746.29,37,744.19,35,742.11,36.62Z"/><path class="cls-4" d="M739.07,18c-2.79,4.07-5.06,5.45-4.71,7.69a1.93,1.93,0,0,0,2.51,1.65c1.49-.34,2.31-1.93,3.21-3s1.7-2.14,2.47-3.27a2.4,2.4,0,0,0-.23-3.26,2.32,2.32,0,0,0-3.25.23Z"/><path class="cls-4" d="M728.22,17.31c-.89-2.47-1.09-3.36-2.24-4.51a2,2,0,0,0-3.26,1.11c-.17,1.71.19,2.35,1.13,4.94a2.32,2.32,0,1,0,4.37-1.54Z"/><path class="cls-4" d="M716.5,23.29c-4-3.05-4.83-3.91-6.41-3.74a1.9,1.9,0,0,0-1.76,2c.38,1.93,1.5,2.45,5.19,5.14a2.33,2.33,0,0,0,3.2-.22,2.28,2.28,0,0,0-.22-3.2Z"/><path class="cls-4" d="M700.38,37.26c-1.58.84-1,3.58.77,3.8s2.27-.05,10.24-1.5a2.4,2.4,0,0,0,2.15-2.47,2.32,2.32,0,0,0-2.47-2.15C702.79,36.43,702,36.42,700.38,37.26Z"/><path class="cls-4" d="M712.86,50.3c-4.36,4.23-5,3.48-6.73,6.06A2,2,0,0,0,708,59.18c1.76-.33,2.23-.62,4.53-2.44q2-1.59,3.84-3.38a2.35,2.35,0,0,0-.23-3.29,2.39,2.39,0,0,0-3.3.23Z"/><path class="cls-5" d="M350.08,164.2c32.6-4,61,9,63.47,29,1.22,10-4.27,19.89-14.15,27.76l16.84,27.91-30.65-19.55A90.45,90.45,0,0,1,359,236.72c-32.6,4-61-9-63.47-29S317.48,168.18,350.08,164.2Z"/><path class="cls-6" d="M377.3,201.31a20.72,20.72,0,1,1-17.58-23.45A20.71,20.71,0,0,1,377.3,201.31Z"/><path class="cls-7" d="M345.35,200.06a11.08,11.08,0,0,0,21.94,3.14Z"/><path class="cls-8" d="M422.21,758S588.7,490,652.14,478s117.78,97.65,117.78,97.65,28.72-25,72.88-15.27,281,232.06,281,232.06l-713.77-8.9Z"/><path class="cls-9" d="M501,539.93c147.81,24.59,369.61,245.62,538.54,245.62s205.3-52.86,268.65-41.68,148.4,41.68,148.4,41.68L201.2,789.26S353.13,515.33,501,539.93Z"/><polygon class="cls-10" points="598.1 446.42 569.21 679.85 626.98 679.85 598.1 446.42"/><polygon class="cls-10" points="652.14 498.55 623.25 731.98 681.02 731.98 652.14 498.55"/><rect class="cls-10" x="246.02" y="669.29" width="8.85" height="98.08"/><polygon class="cls-11" points="250.44 479.01 221.56 712.44 279.32 712.44 250.44 479.01"/><polygon class="cls-12" points="232.03 627.78 273.22 663.1 271.63 650.3 233.31 617.44 232.03 627.78"/><polygon class="cls-12" points="238.36 576.62 263.58 585.24 262.4 575.65 239.45 567.81 238.36 576.62"/><rect class="cls-10" x="313.24" y="631.06" width="6.37" height="111.53"/><polygon class="cls-11" points="318.09 432.21 286.72 657.34 349.45 657.34 318.09 432.21"/><polygon class="cls-12" points="288.71 643.05 344.99 625.31 344.14 619.21 289.64 636.39 288.71 643.05"/><polygon class="cls-12" points="298.62 571.93 335.92 560.18 335.07 554.07 299.55 565.27 298.62 571.93"/><path class="cls-12" d="M201.2,789.26s162.06-140.77,371-149.42c70.17-2.9,357.5,55.32,599.45,101.06,10.18,1.92,32.17,20.74,42.47,22.68,114.54,21.53,221.29,26.08,255.81,27.47Z"/><path class="cls-10" d="M1504.81,794.24s-59.5-79-96.93-91.15-2.16,36-2.16,36-66.41-72.62-90.78-66.08c-22.35,6,0,51,0,51s-25.17-24.93-55.68-24.93,23.58,93.34,23.58,93.34Z"/><path class="cls-10" d="M1314.94,792.46s-40.67-108.75-91-96.18c-40.81,10.19-11.79,64.92-14.28,62.43s-24.38-39.63-59.8-39.63,10.88,50.13,10.88,50.13-75.47-23.57-81.38,1.18c-4.9,20.53,22.53,22.07,22.53,22.07Z"/><path class="cls-13" d="M800.07,629.14a84.13,84.13,0,0,1,8.44,6.38c14.81,11.77,29.84,23.15,50.28,47.09A307.72,307.72,0,0,1,919,790.67c.45,1.42,2.69.81,2.24-.62a306.81,306.81,0,0,0-34-72.52c-39-61-87.64-88.7-87.11-88.39Z"/><path class="cls-13" d="M873.84,636.48c3.27,21.51,14.49,40.84,22.22,60.91,20.69,53.68,24.08,94.56,26,99.09a.43.43,0,0,0,.84-.11c.51-4.2-4.05-33.65-13-64.27-14.94-50.91-30.59-70.79-35.26-95.81-.09-.47-.78-.26-.71.19Z"/><path class="cls-13" d="M824.65,630.24c-.56,1.11-2.86,4.14-3.17,7.74a14.88,14.88,0,0,0,.85,7.36,16.15,16.15,0,0,1-5.05-6.55c-1.9-4-1.76-10-.37-12.21,2.26-4.77,7.18-5.89,8.43-3.89S825.74,627.73,824.65,630.24Z"/><path class="cls-13" d="M858.55,664.28c-.42,1.17-2.34,4.43-2.22,8a14.91,14.91,0,0,0,1.71,7.17,16.13,16.13,0,0,1-5.77-5.88c-2.35-3.78-2.92-9.73-1.8-12,1.67-5,6.4-6.67,7.88-4.84S859.33,661.67,858.55,664.28Z"/><path class="cls-13" d="M901.71,681.05c-.87.29-3.64.69-5.66,2.43a10.91,10.91,0,0,0-3.35,4.3,11.9,11.9,0,0,1,.72-6c1.1-3.11,4.27-6.18,6.11-6.6,3.65-1.34,6.81.61,6.44,2.31S903.58,680.29,901.71,681.05Z"/><path class="cls-13" d="M906,691.54c-.87.3-3.64.69-5.66,2.43a11,11,0,0,0-3.35,4.3,11.9,11.9,0,0,1,.72-6c1.1-3.1,4.26-6.18,6.11-6.6,3.65-1.34,6.81.61,6.44,2.31S907.87,690.78,906,691.54Z"/><path class="cls-13" d="M810.29,652.51c.72-.89,2.37-4,5.27-5.62a13.89,13.89,0,0,1,6.48-2.1,14.8,14.8,0,0,0-7.41-1.72c-4.12,0-9.09,2.37-10.37,4.36-3.13,3.72-2.19,8.26,0,8.55S808.6,654.38,810.29,652.51Z"/><path class="cls-13" d="M831,671.67c.72-.89,2.37-4,5.27-5.62a13.75,13.75,0,0,1,6.49-2.1,15,15,0,0,0-7.42-1.73c-4.12,0-9.08,2.38-10.37,4.37-3.13,3.72-2.18,8.26,0,8.55S829.35,673.54,831,671.67Z"/><path class="cls-13" d="M867.86,654.5c1.15,0,4.61-.42,7.65,1a13.77,13.77,0,0,1,5.5,4,14.85,14.85,0,0,0-3-7c-2.39-3.35-7.26-6-9.62-5.82-4.85-.36-8,3.08-6.94,5S865.35,654.23,867.86,654.5Z"/><path class="cls-13" d="M873.94,669.2c1.15.06,4.61-.41,7.64,1a13.83,13.83,0,0,1,5.51,4,14.81,14.81,0,0,0-3-7c-2.39-3.36-7.26-6-9.62-5.83-4.85-.36-8,3.08-6.94,5S871.43,668.93,873.94,669.2Z"/><path class="cls-13" d="M857.46,701.2c.72-.89,2.37-4,5.27-5.62a13.75,13.75,0,0,1,6.49-2.1,15,15,0,0,0-7.42-1.73c-4.12,0-9.08,2.37-10.37,4.37-3.13,3.72-2.18,8.26,0,8.54S855.77,703.07,857.46,701.2Z"/><path class="cls-13" d="M798.06,636.6a11.59,11.59,0,0,1,4.06-2.83,8.79,8.79,0,0,1,4.35-.46,9.49,9.49,0,0,0-4.43-2.07c-2.58-.56-6,.29-7.09,1.37-2.46,1.93-2.46,4.91-1.15,5.37S796.76,637.55,798.06,636.6Z"/><path class="cls-13" d="M803.57,624.53a11.64,11.64,0,0,0,.18,5,8.89,8.89,0,0,0,2.24,3.75,9.52,9.52,0,0,1-4.31-2.3c-2-1.72-3.38-5-3.16-6.49.05-3.12,2.43-4.91,3.59-4.14S803.55,622.92,803.57,624.53Z"/><path class="cls-13" d="M1456.57,644.43a437.64,437.64,0,0,1,20.15,149.81h1.93a440.49,440.49,0,0,0-20.24-148.61c-3.54-11.14-7.08-24.17-17.47-30.93-.2-.13-.38.18-.19.32C1450.1,621.72,1453.26,634,1456.57,644.43Z"/><path class="cls-13" d="M1470,794.24a547.23,547.23,0,0,0-78.1-137.41c-.34-.43-1.11.15-.77.6a546.47,546.47,0,0,1,76.49,136.81Z"/><path class="cls-13" d="M1461,618.41c-.94.81-4.22,2.7-5.89,5.9a15,15,0,0,0-2,7.09,16.15,16.15,0,0,1-2.13-8c-.19-4.45,2.24-9.91,4.35-11.36,3.91-3.53,8.85-2.67,9.24-.35S1462.94,616.51,1461,618.41Z"/><path class="cls-13" d="M1444.91,653.26c1.17-.43,4.41-2.38,8-2.3a14.91,14.91,0,0,1,7.19,1.64,16.07,16.07,0,0,0-5.93-5.72c-3.81-2.31-9.76-2.82-12-1.68-5,1.72-6.61,6.47-4.76,7.93S1442.31,654.07,1444.91,653.26Z"/><path class="cls-13" d="M1450.08,671.81c1.17-.43,4.41-2.38,8-2.3a14.91,14.91,0,0,1,7.19,1.64,16,16,0,0,0-5.93-5.71c-3.81-2.32-9.76-2.83-12-1.69-5,1.73-6.61,6.47-4.77,7.93S1447.48,672.62,1450.08,671.81Z"/><path class="cls-13" d="M1406.37,699.91c1.16-.43,4.41-2.39,8-2.3a14.66,14.66,0,0,1,7.19,1.64,16,16,0,0,0-5.93-5.72c-3.81-2.31-9.76-2.82-12.05-1.68-5,1.72-6.61,6.47-4.77,7.93S1403.76,700.71,1406.37,699.91Z"/><path class="cls-13" d="M1393.2,680.09c1.16-.43,4.41-2.38,8-2.3a14.91,14.91,0,0,1,7.19,1.64,16.09,16.09,0,0,0-5.94-5.71c-3.8-2.32-9.75-2.83-12-1.68-5,1.72-6.61,6.46-4.77,7.92S1390.59,680.9,1393.2,680.09Z"/><path class="cls-13" d="M1469.36,640.08c-1.06.65-4.59,2-6.75,4.9a14.79,14.79,0,0,0-3.12,6.67,16,16,0,0,1-.86-8.19c.52-4.43,3.78-9.43,6.09-10.54,4.41-2.86,9.16-1.23,9.18,1.12S1471.6,638.52,1469.36,640.08Z"/><path class="cls-13" d="M1478.4,662c-1.33.3-5.73.33-8.6,2.84a12.88,12.88,0,0,0-4.43,6.63c.17.26-1.71-5.28-.23-10.26,1.06-5.1,5.47-9.65,8.37-9.94,5.6-1.44,11.17,2.68,11,5.52S1481.25,661.1,1478.4,662Z"/><path class="cls-13" d="M1485.68,693.4c-1.38.08-5.71-.63-9,1.36a12.88,12.88,0,0,0-5.48,5.79c.12.28-.79-5.49,1.51-10.16,1.89-4.85,7-8.59,9.91-8.39,5.77-.48,10.56,4.52,9.87,7.28S1488.63,693,1485.68,693.4Z"/><path class="cls-13" d="M1437.2,700.94c-1.07.33-4.64.6-6.84,2.81a10.48,10.48,0,0,0-3.22,5.64c.15.2-1.69-4.19-.77-8.34.57-4.2,3.9-8.16,6.24-8.55,4.47-1.5,9.24,1.54,9.22,3.86S1439.47,700.08,1437.2,700.94Z"/><path class="cls-13" d="M1435.15,618.39a11.43,11.43,0,0,1,4.64-1.72,8.88,8.88,0,0,1,4.33.66,9.51,9.51,0,0,0-3.76-3.12c-2.36-1.21-5.9-1.25-7.21-.47-2.86,1.24-3.62,4.12-2.47,4.9S1433.65,619,1435.15,618.39Z"/><path class="cls-13" d="M1443.54,608.11a11.41,11.41,0,0,0-1.08,4.82,8.89,8.89,0,0,0,1.22,4.2,9.56,9.56,0,0,1-3.59-3.32c-1.5-2.17-2-5.67-1.42-7.07.85-3,3.6-4.14,4.53-3.1S1443.93,606.53,1443.54,608.11Z"/><path class="cls-13" d="M1384.93,661.29a11.39,11.39,0,0,1,4.64-1.71,8.85,8.85,0,0,1,4.32.65,9.5,9.5,0,0,0-3.76-3.12c-2.35-1.2-5.89-1.24-7.2-.47-2.87,1.24-3.63,4.12-2.47,4.9S1383.42,661.88,1384.93,661.29Z"/><path class="cls-13" d="M1394.43,651.2a11.48,11.48,0,0,0-1.48,4.72,8.89,8.89,0,0,0,.88,4.29,9.63,9.63,0,0,1-3.31-3.6c-1.32-2.29-1.54-5.83-.83-7.17,1.09-2.93,3.92-3.83,4.76-2.72S1394.94,649.67,1394.43,651.2Z"/><path class="cls-13" d="M977.85,769.86a46.21,46.21,0,0,1,5.72,4.81,42.83,42.83,0,0,1,10.12,17.24c.13.44.17.84.58,1.09a.21.21,0,0,0,.3-.08c.24-.45,0-.88-.1-1.36a40.2,40.2,0,0,0-6-12c-5.13-7.12-8.93-8.77-10.57-9.75,0,0,0,0,0,0Z"/><path class="cls-13" d="M973.68,774.11a11.54,11.54,0,0,1,4.64-1.71,8.88,8.88,0,0,1,4.33.66,9.59,9.59,0,0,0-3.77-3.12c-2.35-1.21-5.89-1.25-7.2-.47-2.87,1.23-3.62,4.11-2.47,4.9S972.18,774.7,973.68,774.11Z"/><path class="cls-13" d="M982.07,763.83a11.35,11.35,0,0,0-1.08,4.83,8.76,8.76,0,0,0,1.22,4.2,9.56,9.56,0,0,1-3.59-3.32c-1.51-2.17-2-5.67-1.42-7.07.85-3,3.6-4.14,4.53-3.1S982.45,762.26,982.07,763.83Z"/><path class="cls-13" d="M701.84,735.52c28.78,8.8,53.68,27,77.63,44.62,16.14,11.91,14.79,14.17,18.16,16.12a.74.74,0,0,0,1.08-.82c-.87-3-4.16-5.58-6.4-7.65a99.91,99.91,0,0,0-8.23-6.74c-6.09-4.53-12.41-8.77-18.69-13-12.76-8.68-25.81-17-39.77-23.68a152.32,152.32,0,0,0-23.71-9c-.15,0-.22.19-.07.23Z"/><path class="cls-13" d="M730.06,731.44c-.42,1.17-2.34,4.43-2.23,8a14.9,14.9,0,0,0,1.72,7.17,16,16,0,0,1-5.78-5.88c-2.35-3.78-2.92-9.72-1.8-12,1.67-5,6.4-6.67,7.88-4.84S730.83,728.83,730.06,731.44Z"/><path class="cls-13" d="M754.18,745.63c-.42,1.17-2.34,4.43-2.22,8a14.92,14.92,0,0,0,1.71,7.18A16.13,16.13,0,0,1,747.9,755c-2.35-3.79-2.92-9.73-1.8-12,1.67-5,6.4-6.67,7.88-4.84S755,743,754.18,745.63Z"/><path class="cls-13" d="M778.26,762.35c-.42,1.16-2.34,4.43-2.22,8a14.82,14.82,0,0,0,1.71,7.17,16,16,0,0,1-5.77-5.87c-2.35-3.79-2.92-9.73-1.8-12,1.67-5,6.4-6.67,7.87-4.84S779,759.73,778.26,762.35Z"/><path class="cls-13" d="M717.74,754.16c.72-.89,2.37-4,5.27-5.62a13.75,13.75,0,0,1,6.49-2.1,15,15,0,0,0-7.42-1.73c-4.12,0-9.08,2.38-10.37,4.37-3.13,3.72-2.18,8.26,0,8.55S716.05,756,717.74,754.16Z"/><path class="cls-13" d="M742.85,768.81c.73-.9,2.38-4,5.28-5.62a13.63,13.63,0,0,1,6.48-2.1,14.75,14.75,0,0,0-7.41-1.73c-4.12,0-9.09,2.37-10.37,4.36-3.14,3.72-2.19,8.27,0,8.55S741.17,770.68,742.85,768.81Z"/><path class="cls-13" d="M699.09,740.46a11.33,11.33,0,0,1,4.06-2.83,8.85,8.85,0,0,1,4.35-.47,9.65,9.65,0,0,0-4.43-2.06c-2.58-.57-6,.29-7.09,1.37-2.46,1.92-2.46,4.9-1.15,5.36S697.78,741.41,699.09,740.46Z"/><path class="cls-13" d="M704.6,728.39a11.43,11.43,0,0,0,.18,4.94,8.7,8.7,0,0,0,2.24,3.75,9.56,9.56,0,0,1-4.31-2.29c-2-1.73-3.39-5-3.16-6.49.05-3.12,2.43-4.92,3.59-4.14S704.58,726.77,704.6,728.39Z"/><path class="cls-14" d="M1542.86,800.1H6.64c-3.22,0-5.83-1.9-5.83-4.25h0c0-2.34,2.61-4.24,5.83-4.24H1542.86c3.22,0,5.84,1.9,5.84,4.24h0C1548.7,798.2,1546.08,800.1,1542.86,800.1Z"/><path class="cls-15" d="M380.85,321.85c-11.19,3-13.05,46.13-13.05,46.13l-35.47-4.07s6.47-45,25.2-63.77,66.06-7.3,84.06,4.4,10.19,26.6,10.19,26.6S392,318.86,380.85,321.85Z"/><path class="cls-16" d="M345.2,357.76c-1.85,41-13.33,44.59-13.56,45.16-.24,0-9.41,7.09-19.56-2.23l3.38-3.42a13.9,13.9,0,0,0,5.77,3.41,10.37,10.37,0,0,0,8.14-1.24,13.5,13.5,0,0,0,3.86-3.64c5.89-7.88,8.7-28.34,9.5-38.12Z"/><path class="cls-17" d="M464.42,327.82s-5,19.52-5.54,35.38S447.38,392.3,446,432a732.19,732.19,0,0,1-7.09,76.19s-44.05,3.07-52.73-6.28-4.91-94.34,3.66-135.65-29.12-52.59-9.53-66.12,45.07-4.36,55.85-.69S464.74,319.07,464.42,327.82Z"/><path class="cls-4" d="M391.68,360.66s-5.2,31.7-1.29,63.81-2.31,95.44-2.31,95.44-32.82,22.92-42.46,4.72c-1.81-3.41-6.14-44-6.53-60.95-.42-18,2.06-80.95,2.9-101.35a25,25,0,0,1,3.67-12.07c7.17-11.72,23.63-37.64,29.35-38.54C382.48,310.56,395.6,326.71,391.68,360.66Z"/><path class="cls-15" d="M341.12,384.23c4.62,4.5,33.95,32.71,48.67,34.75-.17-1.8-.32-3.59-.45-5.36-11.51-1.85-37.45-25.75-48-35.95C341.29,379.76,341.21,382,341.12,384.23Z"/><path class="cls-15" d="M391.6,460.05c0-1.76.06-3.52.07-5.27-8.9,3.81-40.2,1.38-52.61,0,0,1.84,0,3.53,0,5.05C350.42,461.1,381,464.44,391.6,460.05Z"/><path class="cls-15" d="M342,501c.18,1.66.37,3.29.55,4.86,12.37,2.48,36.2-8.09,47.63-13.05.12-1.87.24-3.81.35-5.79C379.91,491.67,352.89,503.08,342,501Z"/><path class="cls-15" d="M341.29,494.16c5.5,2.3,39.71,17,47.52,17.48.12-1.45.25-3.06.39-4.81-5.5-.51-31.55-11.4-48.46-18.45C340.92,490.3,341.1,492.24,341.29,494.16Z"/><rect class="cls-18" x="367.58" y="429.75" width="25.32" height="78.73" rx="12.6" transform="translate(760.48 938.23) rotate(-180)"/><rect class="cls-15" x="367.58" y="453.19" width="25.32" height="5.3"/><path class="cls-19" d="M372.63,730.13l-11.75,10.78c-1.65,1.22-6.05,3.88-7.33,5.2-4.81,4.94,26,17.26,23.21,10.26-.25-.63-.73-6.21.76-8,2.3-2.82,6.43-6.82,6.43-6.82Z"/><path class="cls-17" d="M376.75,756.27s-6.61-3.53-9.62-5.73-3.38-8.78-6.08-9.75c-3-1.06-15.46,11.71-15.46,11.71S370,779,382.77,787.86c2.75,1.9,6.08,1.29,7.26,1.31C394.54,789.25,383.84,770.09,376.75,756.27Z"/><path class="cls-19" d="M520.32,751,524,768.67c.22,2.3.25,8.13.79,10.13,2,7.53,31.69-15.33,23.32-16.67-.76-.12-4.53-1.63-5.82-4-2.25-4-4.39-11.62-4.39-11.62Z"/><path class="cls-17" d="M548,762.08a124.06,124.06,0,0,1-11.09,6.06c-3.87,1.65-10.93-2.93-13.42-.86-2.74,2.28,1.72,22.47,1.72,22.47S576,776.29,586.78,769.3C591.06,766.53,565.43,763.16,548,762.08Z"/><path class="cls-20" d="M555.89,496.81c-8.1-3.57-8.44-2.09-9.47-2.57-1.21-.58-10.16-15.82-10.16-15.82s-26.69-44.75-28-47.21l-5.31-53.92-28.27-4.09S482,431.66,483,434.63s44.38,59.1,48,64.17c0,0,2,7.7,3.45,12.48s5,8.63,5.61,9.91a42.46,42.46,0,0,0,6.68,8.63c3.68,3.71,2-1.52,2-1.52s-5.51-8.11-4.77-8.44c.58-.26,3.31,4.35,7.34,8.49,1,1.07,2.06,2.12,3,3.07,2.49,2.51,4.83,1.68,2.67-1.37a33.92,33.92,0,0,0-3.21-3.94,28.09,28.09,0,0,1-2.77-3.88,35.64,35.64,0,0,1-2.84-4c.18,0,.19-.73,1.32.36,1.37,1.32,3.61,4.77,5.78,6.55,1.22,1,3.66,3.28,3.66,3.28s4.35,2.74,4.61,2.54c1.4-1.09-1-3.8-2.87-5a22.56,22.56,0,0,0-3.4-3.65s-4.2-5.89-3.34-6.51c.37-.26,3.4,3,6.91,5.78,3.25,2.56,7,4.6,7.62,4,1.09-1-2.2-4.19-2.2-4.19s-2.44-2.13-3.19-2.9-3.29-3.82-3.29-3.82-7.91-10.53-7-11.05,3.61-1,4.34-.54,1.57,2.06,2.29,2.53a2.31,2.31,0,0,0,2.83-.36c.7-.85-1.86-4.51-1.86-4.51S558.23,497.84,555.89,496.81Z"/><path class="cls-14" d="M477,328c21.88,5.21,27.39,54,28.72,60.35-7.26,2.55-15.86,5.12-23.31,7.29L473.48,327A34.74,34.74,0,0,0,477,328Z"/><path class="cls-16" d="M493,509.14l31.47,125.79,19.9,121.82-24.78,3.34s-34.89-93.16-35.87-103.88-18.48-60.85-18.48-60.85Z"/><path class="cls-15" d="M419.55,494.57s2.35,120.62.41,131.83-54.67,106.83-54.67,106.83L383,752.53s75.44-87.47,78.76-95.18c5.21-12.1,30.94-148.46,30.94-148.46Z"/><path class="cls-21" d="M448.45,327.67s-13.36-1.23-18.7,11.44-10.69,73.59-8.26,102.83-7.82,69.71-7.82,69.71c46.59,24.12,79.7-2,79.7-2s12.31-111.89,7.78-132.56C491.68,333.93,473.47,327,473.47,327Z"/><path class="cls-20" d="M411.44,529.17c-5.05-8.22-6.18-7-6.8-8.13-.73-1.26.08-20.85.08-20.85s2-57.74,2.24-60.85L432.8,386l-22.34-20.93s-26.6,58.77-27.46,62.1,5.29,81.8,5.61,88.72c0,0-2.59,8.37-4.05,13.69s-.52,11-.7,12.6a50.08,50.08,0,0,0,.94,12.06c1.11,5.68,2.59-.2,2.59-.2s-.22-10.87.62-10.73c.65.11.43,6,1.6,12.34.3,1.61.6,3.21.89,4.67.75,3.84,3.27,4.49,3.1.35a40.26,40.26,0,0,0-.57-5.61,33.4,33.4,0,0,1-.23-5.28,43.94,43.94,0,0,1-.2-5.45c.17.09.57-.57.95,1.14.44,2,.45,6.62,1.33,9.58.5,1.69,1.34,5.27,1.34,5.27s2.25,5.18,2.59,5.15c1.83-.16,1.26-4.13.29-6.33a27,27,0,0,0-.9-5.46s-.34-8,.77-8.06c.47,0,1.25,4.87,2.75,9.55,1.39,4.34,3.49,8.51,4.37,8.37,1.49-.24.45-5.23.45-5.23s-.92-3.46-1.14-4.63c-.25-1.37-.71-5.54-.71-5.54s-.94-14.58.11-14.54,3.72,1.25,4.09,2.14.2,2.85.56,3.74a2.36,2.36,0,0,0,2.68,1.37c1.09-.36.93-5.31.93-5.31S412.89,531.55,411.44,529.17Z"/><path class="cls-14" d="M399.46,380.72l29.29,22.71s12.93-12.33,19.42-26c6.58-13.8-1.43-50.18-8.43-48.31C424.09,333.34,399.46,380.72,399.46,380.72Z"/><path class="cls-20" d="M454.05,300.61l-4.39,28.88s16,34.4,25.56,31.41c8-2.5,3.09-32.93,3.09-32.93s-4.37-16.34-3.06-24.52S454.05,300.61,454.05,300.61Z"/><path class="cls-22" d="M475.25,303.45c1.31-8.18-21.2-2.84-21.2-2.84l-.37,2.4a13.46,13.46,0,0,0,2.44,4,29.68,29.68,0,0,0,19.69,8.91C475.13,311.53,474.71,306.8,475.25,303.45Z"/><path class="cls-20" d="M450.35,259.75c-.63-.23-5.1,32.9,3.37,42s25,12.1,30.9,4.92c6.54-7.94,6.22-43.55-6.95-52.92S450.35,259.75,450.35,259.75Z"/><path class="cls-23" d="M472.65,236a36.44,36.44,0,0,0-19.19,11c-4.62.54-10.91,3.1-17.39,13.84-8,13.2-2.09,27.84,7.2,35s9.15,15.48,9.15,15.48l1.47-4.29a23.94,23.94,0,0,0,1.16-10.11,19.46,19.46,0,0,0-1.5-6.07c-2.23-4.8,4.8-8,6.77-12,1.52-3.07,1.59-10.1,4-15.17l2.86-3.88s6.59-5.13,13-3.68S485.71,233.37,472.65,236Z"/><path class="cls-20" d="M459.89,284.78c.06,4-1.77,7.35-4.11,7.39s-4.28-3.21-4.34-7.25,1.77-7.35,4.1-7.39S459.82,280.73,459.89,284.78Z"/><path class="cls-17" d="M465.17,388.91c.61-25.17-.95-59.76-24.95-69.57-8.58-3.6-19.05.45-27,3.4h0c9.75-1.36,18.94,2.39,23.69,5.06,19.76,10,19.6,38.6,18.89,60.89-1.8,56-44.75,50.1-44.75,50.1l-1,3.73s16.14,5.29,36.71-4.86C463.17,429.56,465.17,388.91,465.17,388.91Z"/><path class="cls-24" d="M1255.13,573.33s-13.26,65.19-7.21,71.23S1287.43,663,1295,660.13s23.23-77.29,18.89-84.67S1258.66,563,1255.13,573.33Z"/><path class="cls-20" d="M1260.51,766.85s.87,7.49.87,8.76v1.27l-.62,1.29-.25.51L1265,785l18.38.26c.4,0-2.41-4.34-2.41-4.34s-6-4.48-7-7.62.9-9.69.9-9.69Z"/><path class="cls-20" d="M1173.86,722.07s-6.4,4-7.4,4.76l-1,.79-.63,1.29-.24.51-7.71.4s-11.38-13.91-11.63-14.23,3.27.48,3.27.48,7.19,1,10.31-.15,9.45-7.34,9.45-7.34Z"/><path class="cls-25" d="M1232,651.84l-69,58.75,10.62,15s67.68-42.53,71.39-43,9.53.81,10.23,3.52,2.87,82.83,2.87,82.83h18.41l9.6-102.24Z"/><path class="cls-20" d="M1331.4,568.06c5.11-3.34,17.09-16.2,21.15-20.58,0-.52.43-3.49,3.7-7.27,2.31-2.67,4-8.77,5.56-7s-2.24,6.57-.52,6.6,10.25-9.55,11.62-8-7.29,10.09-5.75,10.12,8.56-8.61,10.5-6.39-9.21,9.38-8.17,10.57,8-3.52,9.51-1.73-9.75,6-8.85,6,7.43-.16,7.48,1.09c.06,1.42-16.5,3.63-18.53,6.09h0c-4.33,6.89-12,19.48-19.83,25-9.54,6.75-31.6,21.08-31.6,21.08l-11-14.15S1325.35,572,1331.4,568.06Z"/><path class="cls-20" d="M1361.29,542.82a6.91,6.91,0,0,1-1.49,8A11.26,11.26,0,0,0,1361.29,542.82Z"/><path class="cls-20" d="M1230.3,552.58c-4-4.56-12.26-20.11-15-25.4.09-.51.5-3.48-1.67-8-1.52-3.19-1.62-9.52-3.53-8.25s.45,6.92-1.22,6.5-7.39-11.9-9.12-10.74,4.4,11.64,2.9,11.26-6-10.54-8.46-8.91,6.43,11.47,5.12,12.34-6.75-5.47-8.72-4.16,7.84,8.32,7,8.1-7.13-2.1-7.5-.9c-.42,1.36,15,7.82,16.3,10.72h0c2.37,7.78,6.51,21.94,12.6,29.31,7.44,9,25,28.62,25,28.62l14.28-10.8S1235.1,558,1230.3,552.58Z"/><path class="cls-20" d="M1208.05,520.39a7,7,0,0,0-1.34,2.4,6.65,6.65,0,0,0,.68,5.73A11.35,11.35,0,0,1,1208.05,520.39Z"/><path class="cls-4" d="M1241.87,563,1229,579.83l16,23.77s-1.51,17.67-3.81,23.18S1225.53,655,1225.53,655s32.38,19.85,64,16.94c0,0,8.92-45.91,11.43-50.32s26.67-26.26,26.67-26.26L1316,576.36l-20.25,11.23s-37-6-38.8-7.76S1241.87,563,1241.87,563Z"/><path class="cls-3" d="M1283.64,528.68s-12.5-6.62-16.78,4.34c0,0-11.23-1.13-9.29,10.5,0,0-11.29,5.68-4.14,20.31,0,0-3.14,13.77,13,14.64,0,0,2.41,4.88,9.76,3.74s9.22-3.07,9.22-3.07,13,3.8,17-8c0,0,9-2.14,2.94-13.63,0,0,7.82-14.9-6-19.38C1299.34,538.17,1297.74,522.93,1283.64,528.68Z"/><path class="cls-20" d="M1288.68,561c-1,2.84-.28,5.69,1.63,6.38s4.29-1.06,5.31-3.89.29-5.69-1.63-6.37S1289.7,558.13,1288.68,561Z"/><path class="cls-20" d="M1255,554c-.15,3,1.39,5.52,3.42,5.62s3.79-2.27,3.94-5.27-1.39-5.53-3.43-5.62S1255.12,551,1255,554Z"/><path class="cls-20" d="M1269.27,573.92c0,.2-1.63,7.18-2.49,10.87a3,3,0,0,0,1.66,3.37c3.44,1.56,10.2,3.75,14.87-.48a2,2,0,0,0,.63-1.51l-.57-16.66Z"/><path class="cls-2" d="M1268.4,577.83c3.63,1.83,8.21,1.87,13.34-1.14a18.7,18.7,0,0,0,1.83-1.21l-.2-6-14.1,4.41C1269.27,574,1268.89,575.7,1268.4,577.83Z"/><path class="cls-20" d="M1279.27,535.47a17.92,17.92,0,0,1,9.77,7.62c3.61,6,5.61,23.29-7.3,30.86s-22.31-4.15-22.07-15.24S1264.85,533.44,1279.27,535.47Z"/><path class="cls-24" d="M1257.24,789.56c-2.75-.34,2-9.86,3.52-11.39l20.2,2.72s9.73,4.51,12,6.82c.55.54.62,1.5-1.75,1.85C1283.61,790.7,1263.33,790.33,1257.24,789.56Z"/><path class="cls-24" d="M1157.91,738.9c2.37,1.43,6.69-7.85,6.93-10l-16.31-12.84s-12.58-3.61-15.12-1.07C1131.1,717.3,1152.53,735.67,1157.91,738.9Z"/><path class="cls-24" d="M1294.72,653.34c-13-13-10.44-53.05-8.06-70l5.59.79c-2,14.31-4.77,53.94,6.46,65.17Z"/><path class="cls-24" d="M1239.14,630.92l-.63-5.08A452.05,452.05,0,0,1,1258,578.55l5,2.55C1262.94,581.28,1252.26,606.51,1239.14,630.92Z"/><path class="cls-14" d="M1044.2,579.69s-22.22-3-30.32,1.25-12.54,54.11-12.54,54.11l7.19,2.19s-1,34.56,4.48,37,44.15-5.05,53-13.86-7.78-82.49-7.78-82.49Z"/><path class="cls-20" d="M1088.06,544.44c2.58-5.81,5.84-23.85,6.93-30-.25-.47-1.59-3.3-.86-8.46.52-3.64-1.39-10,.91-9.3s1.74,7,3.27,6.08,3.59-14.16,5.68-13.56-.71,12.95.66,12.11,2.66-12.37,5.61-11.52-2.79,13.42-1.21,13.88,5-7.57,7.36-6.89-5.17,10.74-4.37,10.25,6.42-4.33,7.17-3.26-12.42,12.49-12.82,15.79h0c.1,8.48.44,23.86-3.28,33.1C1098.55,564,1087.29,589,1087.29,589l-17.59-6.23S1085,551.33,1088.06,544.44Z"/><path class="cls-20" d="M1100,505.45a7.2,7.2,0,0,1,3.22,7.87A11.75,11.75,0,0,0,1100,505.45Z"/><path class="cls-20" d="M975.45,584.17s.77-2.85-1.16-7.6c-1.24-3-1.08-9-2.83-7.86s.12,6.47-1.35,6-6.13-11.48-7.73-10.49,3.48,11.08,2.16,10.65-5-10.14-7.21-8.74,5.3,11,4.09,11.76-5.82-5.44-7.63-4.32,6.68,8.15,5.91,7.9-6.28-2.32-6.67-1.22,11,6.25,12.06,9,18.58,31.19,24.39,31.83,33.81-14.22,36.32-19.76.81-11.88-2.91-13.08S993,602,991.79,601.57,975.45,584.17,975.45,584.17Z"/><path class="cls-2" d="M970.36,576.7a7.26,7.26,0,0,0-1.41,2.49,6.92,6.92,0,0,0,.68,6A11.83,11.83,0,0,1,970.36,576.7Z"/><path class="cls-20" d="M999.23,716.71c-3-1.05-8.45-6.55-8.45-6.55-7,5.39-21.46,22.23-21.46,22.23s2.7,1.86,5,.81,12.93-5.8,17.87-4.09c1.29.45,15.69,5.34,28.46,8.63,1.57-4.58-2.74-13.74-.61-18C1013.23,717.49,1000.22,717.05,999.23,716.71Z"/><path class="cls-26" d="M995.74,714.58s-12.52,12.8-13.74,15.07c-1,1.85-16.54,8.21-17.32,5.83s18.49-27.82,21.53-28.75S995.74,714.58,995.74,714.58Z"/><path class="cls-20" d="M1076.87,753.92c-1,2.91-6.7,8.22-6.7,8.22,5.67,6.67,23.28,20.44,23.28,20.44s1.91-2.62.79-4.84-6.74-16-5-20.77c.45-1.25,3.74-10.52,6.83-15.76a124.77,124.77,0,0,1-13.92-5.73C1079.91,742.08,1077.21,753,1076.87,753.92Z"/><path class="cls-25" d="M1074.9,654.68s32.59,32.18,35.91,38.38c2.49,4.64-12.56,52.34-12.56,52.34s-14.14-1.08-20-6.78c0,0,7.48-33.28,5.93-34.78s-38.8-23.1-38.8-23.1L1050,661Z"/><path class="cls-3" d="M1067.71,653.83s-8.51,19.75-8.51,27.46c0,5.9,2.61,53.17-9.85,57.73-7.07,2.59-40.36-1.23-40.36-1.23l3-21.4s15.86,2.35,17.25,1-12.7-37-9.76-49.22,27.37-19.69,27.37-19.69Z"/><path class="cls-27" d="M1078.27,562s4,1.19,16.21,17.81l-19.64,31-12-28.85Z"/><path class="cls-27" d="M1049.65,582.33s10.84-1.22,14.74-2.64,29.53,83.13,20.57,85.06c-18.72,4-67.34,14.73-67.34,14.73s-.84-4.83,1.78-13.18c4.54-14.45,7.11-47.51,7.11-53.34,0-3.43-17.74,8.44-17.74,8.44l-7.43-26.86s22.64-9.09,30.58-10.73C1034.13,583.36,1049.65,582.33,1049.65,582.33Z"/><path class="cls-14" d="M1083.42,636.61c-2.85-13.8-27.11-55.21-27.32-55.6l5-2.67c.87,1.63,20.5,36.64,23.51,51.24Z"/><path class="cls-26" d="M1074.92,757s14.13,12.89,16.69,14.13c2.08,1,6.9,16.27,4.25,17.11S1067,770.2,1065.91,767,1074.92,757,1074.92,757Z"/><path class="cls-14" d="M1019.2,654.74l-2.54-4c.22-.14,21.67-13.83,24.09-31.31,2.45-17.65-10-36.2-10.13-36.39l4-2.69c.56.82,13.61,20.24,10.91,39.74C1042.76,639.74,1020.16,654.14,1019.2,654.74Z"/><path class="cls-17" d="M1050,525.8s8.57-3.11,14.12,5.58,2.54,7.87,5.24,12.21,9.74,3.45,9.74,10.19-3.15,7.79-3.15,7.79a11.47,11.47,0,0,1-.3,10.64c-3.14,5.39-11,10-17.55,9.28,0,0-9.86,5.41-19.75,2.86s-6.44-2.56-10.49-2.56-15-5.54-13.18-13.63c0,0-6.66-7.92-.2-14.38s7.69-13,11.44-21.72S1045.45,523.71,1050,525.8Z"/><path class="cls-20" d="M1055.68,572.06s-.36,11.93.76,13.05,2.68,3,1,5.82-8.81,1-12.14-.6a15.67,15.67,0,0,1-5.26-4.47l1.67-18.9Z"/><path class="cls-25" d="M1050.92,577a16.73,16.73,0,0,1-9.41-7.39l.24-2.65,13.93,5.1s-.09,2.91,0,6A16.11,16.11,0,0,1,1050.92,577Z"/><path class="cls-20" d="M1039.29,553.47s-.34-7-4.64-5.65-1,11.95,2.54,11.6S1039.29,553.47,1039.29,553.47Z"/><path class="cls-20" d="M1052.83,530.56s6.74-.15,10.19,5.09,7.19,20.23,1.5,30.56-13,7.79-16,6.74-8.91-3.37-11.91-13S1035.83,528.54,1052.83,530.56Z"/><path class="cls-28" d="M1278,550.69a1.27,1.27,0,0,0,1.18,1.38,1.27,1.27,0,1,0,.25-2.53A1.3,1.3,0,0,0,1278,550.69Z"/><path class="cls-28" d="M1266.71,550.36a1.29,1.29,0,0,0,1.19,1.39,1.31,1.31,0,0,0,1.43-1.15,1.29,1.29,0,0,0-1.18-1.39A1.31,1.31,0,0,0,1266.71,550.36Z"/><path class="cls-3" d="M1276.69,548a11.92,11.92,0,0,1,1.92-.43,6.3,6.3,0,0,1,1.84,0,5.9,5.9,0,0,1,1.76.51l.22.09.21.11.43.22c.28.15.55.35.87.5a5.74,5.74,0,0,0-.57-.85,5.25,5.25,0,0,0-.78-.7,4.45,4.45,0,0,0-2-.8,4.64,4.64,0,0,0-2.16.22A4,4,0,0,0,1276.69,548Z"/><path class="cls-3" d="M1271.4,547.8a4.16,4.16,0,0,0-1.64-1.28,4.59,4.59,0,0,0-2.12-.4,4.37,4.37,0,0,0-2.07.63,5.26,5.26,0,0,0-.84.63,6.15,6.15,0,0,0-.65.8c.33-.13.62-.3.92-.43l.45-.19.22-.09.22-.07a6.59,6.59,0,0,1,3.63-.19A11.26,11.26,0,0,1,1271.4,547.8Z"/><path class="cls-29" d="M1272.12,550.81a9.66,9.66,0,0,1,.18,2.74,8.57,8.57,0,0,1-.23,1.39,3.55,3.55,0,0,1-.68,1.36l-.16.16-.14.13c-.06.06-.15.11-.19.18a1,1,0,0,0-.23.41,1.2,1.2,0,0,0,.19,1,3.86,3.86,0,0,0,2.14,1.38,3.24,3.24,0,0,1-2.71-1,1.82,1.82,0,0,1-.46-1.55,1.24,1.24,0,0,1,.15-.42,1.43,1.43,0,0,1,.23-.37,2.83,2.83,0,0,1,.3-.3.58.58,0,0,0,.11-.1l.09-.09a3.24,3.24,0,0,0,.54-1,10,10,0,0,0,.35-1.25C1271.79,552.59,1271.94,551.71,1272.12,550.81Z"/><path class="cls-30" d="M1268.14,562c.44,1.56,2.36,2.72,4.65,2.68s4.16-1.26,4.55-2.84Z"/><path class="cls-2" d="M568.69,131.42c0,1.79-8.25,3.24-18.43,3.24s-18.44-1.45-18.44-3.24,8.25-3.25,18.44-3.25S568.69,129.63,568.69,131.42Z"/><path class="cls-3" d="M550.26,73.74c-8.39,0-15.19,6.07-15.19,13.56s15.19,44.12,15.19,44.12,15.18-36.64,15.18-44.12S558.64,73.74,550.26,73.74Zm0,21.43a6.44,6.44,0,1,1,6.44-6.44A6.44,6.44,0,0,1,550.26,95.17Z"/><path class="cls-20" d="M844.6,534.77c-2.83-2.45-5-10.11-4.44-10.67.72-.72,3.36-.2,4.19.11s1.85.61,2.69.93a1.74,1.74,0,0,0,2.23-1c.47-1-2.59-3-3.78-3.48-3.73-1.5-14.48-3.48-15.61-3.74-1.33-.3-16.65-19-22.4-24.94h0c-9.13-10.06-18-20.86-19-21.93l-25-52.53-22.82,1.67s26.93,58.69,28.61,61.47c.8,1.33,23.77,23,23.78,23,12,10,22.56,18.71,24.54,20.45,0,0,2.12,7.76,4.75,12.26C824.06,539.2,844.08,535.15,844.6,534.77Z"/><path class="cls-3" d="M752.56,376.82s17.6-3.1,26.34,60.88L749,446l-12.45-33.81Z"/><path class="cls-25" d="M787.53,585.53v33.18a11.63,11.63,0,0,0,11.63,11.63h72.7a11.63,11.63,0,0,0,11.62-11.63V585.53Z"/><path class="cls-2" d="M879.51,621.92l4-3.13v-2.16l-5.34,4.22-5.71-4.46,5.69-4.48,5.36,4.18V614l-4-3.12,4-3.15v-2.16l-5.37,4.24-5.71-4.46,5.69-4.48,5.39,4.21v-2.15l-4-3.14,4-3.17v-2.16l-5.39,4.26-5.71-4.46,5.68-4.48,5.42,4.23v-2.15l-4.05-3.16,4-3.12h-2.73l-2.6,2.05-2.63-2.05h-2.75l4,3.13L871,593.14l-5.71-4.45,4-3.16h-2.74l-2.64,2.09-2.67-2.09H858.5l4,3.16-5.69,4.49-5.71-4.46,4.05-3.19h-2.73l-2.69,2.12-2.72-2.12h-2.74l4.09,3.2-5.68,4.48L837,588.76l4.09-3.23h-2.73l-2.74,2.15-2.76-2.15h-2.75l4.14,3.23-5.68,4.49-5.71-4.46,4.13-3.26h-2.73l-2.78,2.19-2.8-2.19H816l4.19,3.27-5.69,4.48-5.71-4.46,4.18-3.29h-2.73l-2.82,2.22-2.85-2.22h-2.75l4.23,3.3-5.69,4.49-5.71-4.46,4.22-3.33h-2.73l-2.86,2.26-2.9-2.26h-2.75l4.28,3.34-4.33,3.41v4.28l4.36,3.39-4.36,3.44v4.23l4.38,3.42-4.38,3.46v4.19l4.41,3.44L789,624.42a11.52,11.52,0,0,0,.94,1.41l3.34-2.63,5.71,4.46-2.89,2.28a12.11,12.11,0,0,0,2.26.37l2-1.58,2.05,1.61h2.75l-3.44-2.69,5.69-4.48,5.71,4.45-3.44,2.72h2.73l2.08-1.64,2.11,1.64h2.75l-3.49-2.72,5.69-4.49,5.71,4.46-3.48,2.75h2.73l2.12-1.68,2.15,1.68h2.75L830,627.58l5.69-4.48,5.71,4.46-3.53,2.78h2.73l2.17-1.71,2.19,1.71h2.75l-3.57-2.79,5.69-4.49,5.71,4.46L852,630.34h2.73l2.21-1.75,2.24,1.75h2.75l-3.62-2.83L864,623l5.71,4.46-3.62,2.85h2.73l2.26-1.78,2.17,1.69a11.75,11.75,0,0,0,2.15-.47l-2.95-2.3,5.69-4.48,3.17,2.47a11.91,11.91,0,0,0,.88-1.45Zm-2.76-11.08-5.69,4.48-5.71-4.46,5.69-4.48Zm-75-5.37L807.4,601l5.71,4.46-5.69,4.48Zm4.34,5.54-5.69,4.48L794.65,611l5.69-4.49Zm8.43-4.49,5.71,4.45-5.69,4.49L808.79,611Zm1.37-1.08,5.69-4.48,5.71,4.45-5.69,4.49Zm12.77,1,5.71,4.46-5.69,4.48L822.93,611Zm1.37-1.07,5.68-4.49,5.72,4.46-5.69,4.48Zm12.77,1,5.71,4.45-5.69,4.49-5.71-4.46Zm1.37-1.08,5.68-4.48,5.71,4.45-5.68,4.49Zm12.77,1,5.71,4.46-5.69,4.48-5.71-4.45Zm1.36-1.07,5.69-4.49,5.71,4.46L864,609.79ZM871,595.29l5.71,4.46L871,604.23l-5.71-4.45Zm-7.08-5.53,5.71,4.46L864,598.7l-5.71-4.45Zm-7.06,5.57,5.71,4.45-5.69,4.49-5.71-4.46Zm-7.08-5.53,5.71,4.45-5.69,4.49-5.71-4.46Zm-7.06,5.56,5.71,4.46-5.69,4.48L837,599.84Zm-7.08-5.53,5.71,4.46-5.69,4.48L830,594.32Zm-7.06,5.56,5.71,4.46-5.69,4.48-5.71-4.45Zm-7.08-5.52,5.71,4.45-5.69,4.49-5.71-4.46Zm-7.06,5.56,5.71,4.46-5.69,4.48-5.71-4.46Zm-7.08-5.53,5.71,4.46-5.69,4.48-5.71-4.45Zm-7.06,5.56,5.71,4.46-5.68,4.48L794.63,600Zm-12.77-1,5.69-4.48,5.71,4.45-5.69,4.49Zm0,11.09,5.69-4.48,5.71,4.45L793.28,610Zm5.74,15.54-5.71-4.45,5.69-4.49,5.71,4.46Zm7.08,5.53-5.71-4.46,5.69-4.48,5.71,4.46Zm7.06-5.56-5.71-4.46,5.68-4.48,5.71,4.46Zm7.08,5.53-5.71-4.46,5.69-4.48,5.71,4.45Zm7.05-5.57-5.71-4.45,5.69-4.49,5.71,4.46Zm7.09,5.53L823,622.06l5.69-4.49,5.71,4.46Zm7.05-5.56L830,616.49,835.7,612l5.71,4.46Zm7.09,5.53L837.1,622l5.68-4.48L848.5,622Zm7.05-5.56-5.71-4.46,5.69-4.48,5.71,4.45Zm7.09,5.52L851.23,622l5.69-4.49,5.71,4.46Zm7-5.56-5.71-4.45,5.69-4.49,5.71,4.46Zm7.08,5.53L865.37,622l5.69-4.48,5.71,4.45Z"/><rect class="cls-3" x="780.63" y="571.3" width="106.94" height="14.23" rx="5.02"/><polygon class="cls-5" points="814.71 571.3 836.71 594.27 854.57 571.3 814.71 571.3"/><path class="cls-25" d="M861.62,581.91h0a3.59,3.59,0,0,1-3.59-3.59V562.19c0-14.09-10.17-28.26-23.39-28.26l-5-.11c-13.21,0-22.08,14.28-22.08,28.37v16.13a3.59,3.59,0,0,1-3.59,3.59h0a3.59,3.59,0,0,1-3.59-3.59V562.19c0-18,14-32.72,31.15-32.72h2.54c17.17,0,31.14,14.68,31.14,32.72v16.13A3.59,3.59,0,0,1,861.62,581.91Z"/><path class="cls-5" d="M863.79,578.42a2,2,0,1,1-2-2A2,2,0,0,1,863.79,578.42Z"/><path class="cls-5" d="M806.21,576.72a2,2,0,1,1-2-2A2,2,0,0,1,806.21,576.72Z"/><path class="cls-19" d="M821.33,527.88s-1.84,11.73,3.69,13,18.22-3.53,17-5.59-12.89-11-14.63-9.28S823.72,526.36,821.33,527.88Z"/><path class="cls-17" d="M771.47,321.89c-3.39-22.1-23.39-38-44.3-27.27-4.71,2.41-11.08,7.31-14.32,11.48-8.94,11.46-11.1,25.68-20.57,36.7-8.17,9.51-30,7.72-40.14,15s-17.31,20.42-17.31,36.1c0,17.54,4,36.16,17.54,47.24s32.91,13.85,49.8,9.16S733.57,434.11,744,420a152.85,152.85,0,0,0,23-46.3C772.82,355,773.66,336.18,771.47,321.89Z"/><path class="cls-4" d="M763.89,385.75c-10.9-24.3-47.31-27-70.45-13.85-6.88,3.91-8.1,3.63-12.42,7.94C669.71,391.16,653.18,507,687.7,514.29s63.86,4,75.24-13.9C770.56,488.42,780.67,423.13,763.89,385.75Z"/><path class="cls-19" d="M765.75,745.91s1.76,19.21.6,25.47a22.81,22.81,0,0,1-.89,3.07c-1.19,3.51,2.07,14.23,2.07,14.23l43.76.17c2.39,0,.79-1.51-1.15-2.89-3.17-2.27-5.73-3.77-15.83-8.49-.66-.31-3.07-1.8-3.94-2.31a30.37,30.37,0,0,1-6.32-5.44c-3.19-3.45-3.67-20.38-3.67-20.38Z"/><path class="cls-16" d="M790.37,775.16c-11.54,3.1-20.11,1.19-24.92-.67-1.19,3.5-3.43,15.36-2.1,15.36,11,0,20.26,2.07,51.71,1.58,1.12,0,1-3.89.25-4.74C813.28,784.33,791.24,775.67,790.37,775.16Z"/><path class="cls-17" d="M710.86,517.94s.63,27.41,8.48,45c7.65,17.1,44.27,59.27,54,83.88-3,13.88-11.28,33.39-10.68,48.78.68,17.44-.34,63.58-.34,63.58l19.65.62,25.78-119.06L768.91,512.24l-17.63-31.19Z"/><path class="cls-19" d="M626.9,718.61s-12.07,16.57-17.39,20.76c-2.85,2.24-10.58,5.26-11.4,9s35,36.53,35,36.53c1.9,1.68,1.69-.65,1.11-3.11-.94-4-1.93-7-6.69-17.9-.31-.71-1.19-3.58-1.52-4.6a32.13,32.13,0,0,1-1.23-8.79c-.12-5,11.37-18.85,11.37-18.85Z"/><path class="cls-16" d="M626,759.24c-11.39-5.61-16.9-13.16-19.43-18-3.41,2-12.59,6.15-11.78,7.32,6.34,9.2,12.92,20.64,38.37,42.31.91.78,4.65-3.69,4.66-4.89C637.9,782.65,626.37,760.26,626,759.24Z"/><path class="cls-20" d="M694.94,351.87S669.27,306.05,663,296.31s-22.52-48.45-23.1-50,11.21-19.84,8.58-20.47-5.55,9.66-8.35,8.43-11-26-12.61-24.76c-3,2.3,4.42,15.36,2.82,16.18s-6.43-14.37-9.56-13.92,6,13.92,5.08,15.11-10.31-11.51-12-8.8c-.93,1.47,8.68,11.09,6.83,12s-10.39-5.31-11.29-3.52,7.9,4.24,10.53,9.07,7.12,6.91,9,15.84,4.64,41.28,14.19,57.41,30.52,51.84,30.52,51.84Z"/><path class="cls-15" d="M712.25,500.39s-15.19,22.82-18.81,41.71c-3.53,18.4,2.33,73.94-3.79,99.69-10.42,9.65-28.38,20.91-36.7,33.86-9.44,14.68-36.7,51.92-36.7,51.92L632,739.34l89.34-82.82L757.51,546l12.41-32.31Z"/><path class="cls-3" d="M724.55,370.52s-20.12-1.28-28.08,7.38,17.66,77.15,19.11,88.16-11.88,33-11.88,33,55.37,25.89,68.88,17c0,0-2.17-88.3-3.61-96.17s-13.51-39.88-16.41-43S724.55,370.52,724.55,370.52Z"/><path class="cls-20" d="M731.25,343.69s-.11.59-.29,1.6c-.9,4.83-4.35,20.84-6.69,25.24-2.82,5.32,9.66,22.29,21.66,20.22,3.58-.62-3-15.59-2.7-17.18.61-3,1.43-7.17,2.27-11.42.47-2.4,1-4.83,1.41-7.11,1.28-6.49,2.33-11.79,2.33-11.79Z"/><path class="cls-3" d="M731,345.29c.18-1,.29-1.6.29-1.6l18-.44s-1,5.3-2.33,11.79l-1.4,7.07a16.89,16.89,0,0,1-8.59-4.3,22.7,22.7,0,0,1-6.51-9.66C730.63,347,730.82,346,731,345.29Z"/><path class="cls-20" d="M743.36,302.88s-8.48-1-13.8,5.88-11,28.08,2.16,39.62S758,346.86,759.91,333,762.59,302.38,743.36,302.88Z"/><path class="cls-20" d="M763.81,332.81c-1.57,3.05-4.22,4.75-5.91,3.78s-1.77-4.23-.2-7.29,4.22-4.75,5.91-3.78S765.39,329.75,763.81,332.81Z"/><path class="cls-17" d="M744.31,300.61S733,320.79,724.87,321.72s-9.17,11.65-9.17,11.65,2.9-24.7,10.92-29.46S744.31,300.61,744.31,300.61Z"/><path class="cls-20" d="M727,326.79c.66,3.58-.67,6.87-3,7.34s-4.69-2.05-5.35-5.64.66-6.86,3-7.34S726.34,323.21,727,326.79Z"/><path class="cls-25" d="M687.84,337s28.4,30.48,32.62,42.76-4.12,29.86-15.63,30.63-37.14-54.1-37.14-54.1Z"/><path class="cls-4" d="M720.94,365.24c12.52,16.76,18.24,43.36,9.79,69-3.48,10.13-7.42,19.95-14.91,30.08-9.44,12.58-16.86,15.88-16.21,15.5l-2.78-5.4a38.71,38.71,0,0,0,8.25-6.59c.27-.33,10.44-9.74,17.39-28.37,16.31-41.42-6.56-67.72-6.94-68.71-.16-.21-.32-.93-.42-1.05Z"/><path class="cls-4" d="M771.21,467.55c-3.76-50.15-24.58-93.09-24.8-93.37l5.66-.46c.26.31,6.36,3.64,12.15,17.53a137.92,137.92,0,0,1,10.26,52.48C774.5,448.5,771.21,467.55,771.21,467.55Z"/><path class="cls-31" d="M911.76,215.58a42.17,42.17,0,1,1,59.16,7.6A42.21,42.21,0,0,1,911.76,215.58Zm71.51-55.23A48.19,48.19,0,1,0,939,237.6C981.54,243.06,1009.35,194.11,983.27,160.35Z"/><path class="cls-30" d="M911.76,215.58a42.17,42.17,0,1,1,59.16,7.6A42.21,42.21,0,0,1,911.76,215.58Z"/><path class="cls-31" d="M945.11,161.4c-8.2.14-14.74,6.53-14.6,14.26s14.85,24.14,14.85,24.14,15-16.93,14.84-24.66S953.31,161.25,945.11,161.4Zm.35,19.6a5.61,5.61,0,1,1,5.84-5.71A5.77,5.77,0,0,1,945.46,181Z"/><path class="cls-31" d="M934,211.31l1.86,0,.12,1h0c1.05-1.6,3.43-1.49,4.09,0h0c1.38-2,4.62-1.81,4.68,1.79l.08,4.17-2.15,0-.07-3.86c0-1-.36-1.61-1.07-1.6a1.18,1.18,0,0,0-1.08,1.35l.08,4.15-2.15,0-.07-4c0-.9-.34-1.5-1-1.49a1.21,1.21,0,0,0-1.09,1.37l.07,4.13-2.14,0C934.09,213.89,934.14,213.47,934,211.31Z"/><path class="cls-31" d="M947.6,210.2a1.11,1.11,0,1,1,0-2.21A1.11,1.11,0,1,1,947.6,210.2Zm-1,8-.12-7.09,2.2,0,.12,7.09Z"/><path class="cls-31" d="M950.44,211l1.91,0,.12,1h0c1.08-1.75,4.69-1.88,4.75,1.83l.08,4.2-2.2,0-.07-3.93c0-.91-.35-1.53-1.15-1.51a1.26,1.26,0,0,0-1.18,1.39l.08,4.09-2.21,0C950.52,213.6,950.58,213.18,950.44,211Z"/><path class="cls-31" d="M962.6,336.5a42.18,42.18,0,1,1,41.48,42.86A42.22,42.22,0,0,1,962.6,336.5ZM1053,338a48.19,48.19,0,1,0-82.81,32.72C1000,401.52,1052.25,380.63,1053,338Z"/><path class="cls-30" d="M962.6,336.5a42.18,42.18,0,1,1,41.48,42.86A42.22,42.22,0,0,1,962.6,336.5Z"/><path class="cls-31" d="M1006.47,370.2h0a2,2,0,0,1-2-2V306.22a2,2,0,0,1,2-2h0a2,2,0,0,1,2,2v61.95A2,2,0,0,1,1006.47,370.2Z"/><path class="cls-31" d="M1016.82,327.93H986.64a1.28,1.28,0,0,1-.78-.26l-8.55-6.46a1.29,1.29,0,0,1-.06-2l8.59-7.22a1.3,1.3,0,0,1,.84-.31h30.14a1.3,1.3,0,0,1,1.3,1.3v13.68A1.3,1.3,0,0,1,1016.82,327.93Z"/><path class="cls-31" d="M997.45,346.82h30.18a1.28,1.28,0,0,0,.78-.26l8.56-6.46a1.31,1.31,0,0,0,0-2l-8.59-7.21a1.3,1.3,0,0,0-.84-.31H997.45a1.3,1.3,0,0,0-1.3,1.3v13.68A1.3,1.3,0,0,0,997.45,346.82Z"/><polygon class="cls-32" points="998.32 344.65 998.32 332.71 1027.27 332.71 1034.79 339.02 1027.34 344.65 998.32 344.65"/><path class="cls-31" d="M422.26,146.94a42.18,42.18,0,1,1,41.47,42.86A42.21,42.21,0,0,1,422.26,146.94Zm90.35,1.49a48.19,48.19,0,1,0-82.81,32.72C459.62,212,511.91,191.08,512.61,148.43Z"/><circle class="cls-30" cx="464.43" cy="147.64" r="42.18" transform="translate(220.18 569.33) rotate(-77.56)"/><path class="cls-31" d="M452,176h0a1.62,1.62,0,0,1-1.62-1.62V124.92A1.63,1.63,0,0,1,452,123.3h0a1.63,1.63,0,0,1,1.62,1.62v49.47A1.62,1.62,0,0,1,452,176Z"/><path class="cls-31" d="M477.78,176h0a1.61,1.61,0,0,1-1.62-1.62V124.92a1.62,1.62,0,0,1,1.62-1.62h0a1.63,1.63,0,0,1,1.62,1.62v49.47A1.62,1.62,0,0,1,477.78,176Z"/><path class="cls-31" d="M460.61,132.45c0,6.7-4,12.14-9,12.14s-9-5.44-9-12.14,4-12.13,9-12.13S460.61,125.75,460.61,132.45Z"/><path class="cls-31" d="M485.58,121.53H483.5a.7.7,0,0,0-.7.69v13.44a.69.69,0,0,1-.69.69h-1.65a.69.69,0,0,1-.69-.69V122.22a.69.69,0,0,0-.69-.69H476.3a.69.69,0,0,0-.69.69v13.44a.69.69,0,0,1-.69.69h-1.65a.69.69,0,0,1-.69-.69V122.22a.7.7,0,0,0-.7-.69h-2.25a.69.69,0,0,0-.7.69v16.47a8.67,8.67,0,1,0,17.34,0V122.22A.69.69,0,0,0,485.58,121.53Z"/><path class="cls-31" d="M796.84,153.39A42.17,42.17,0,1,1,847.53,122,42.21,42.21,0,0,1,796.84,153.39Zm20.63-88a48.19,48.19,0,1,0,14.4,87.86C868.32,130.68,859,75.15,817.47,65.42Z"/><circle class="cls-30" cx="806.47" cy="112.33" r="42.18" transform="translate(156.78 603.16) rotate(-45)"/><path class="cls-31" d="M793.71,132.73h0l-2,1-.45-1.87L794,130.5l2.08,0,.19,10.7-2.42.05Z"/><path class="cls-31" d="M805.86,136.34h0c.58-1.1,1-1.57,2.15-3.43l3-.06-2.83,3.32,3.38,4.73-3.08.06-2-3.28-.63.8L806,141l-2.51.05-.2-11.7,2.5,0Z"/><path class="cls-31" d="M812.33,132.83l2.11,0,.13,1.09h0c1.19-1.83,3.9-1.7,4.65,0h0a3,3,0,0,1,2.55-1.42c1.54,0,2.73,1,2.78,3.45l.08,4.74-2.44,0-.08-4.38c0-1.17-.41-1.84-1.21-1.82a1.33,1.33,0,0,0-1.23,1.54l.08,4.71-2.43,0-.08-4.51c-.05-2.52-2.46-2-2.43-.14l.08,4.69-2.43,0C812.42,135.76,812.48,135.28,812.33,132.83Z"/><path class="cls-31" d="M791.06,99.84h33.39a0,0,0,0,1,0,0v7.94a16.61,16.61,0,0,1-16.61,16.61h-.16a16.61,16.61,0,0,1-16.61-16.61V99.84A0,0,0,0,1,791.06,99.84Z"/><path class="cls-31" d="M825.77,115.7h-6a6.4,6.4,0,1,1,0-12.8h6a6.4,6.4,0,0,1,0,12.8Zm-6-10.57a4.18,4.18,0,1,0,0,8.35h6a4.18,4.18,0,1,0,0-8.35Z"/><path class="cls-31" d="M803.5,78.77c.86,3.46-2.71,4.56-2.42,7,.22,3.61,3.73,3,4,7a3.69,3.69,0,0,1-1.21,3,5.13,5.13,0,0,0,.35-1.16,4.05,4.05,0,0,0-.87-3.18c-.76-.89-1.89-1.36-2.64-2.26a4.64,4.64,0,0,1,.22-6.55c1.17-1.19,2-1.55,2.47-3.23Z"/><path class="cls-31" d="M812,78.77c.86,3.46-2.71,4.56-2.43,7,.22,3.61,3.73,3,4,7a3.66,3.66,0,0,1-1.21,3,5.13,5.13,0,0,0,.35-1.16,4.09,4.09,0,0,0-.86-3.18c-.76-.89-1.9-1.36-2.65-2.26a4.63,4.63,0,0,1,.23-6.55c1.16-1.19,1.95-1.55,2.47-3.23C812,79.18,812,79,812,78.77Z"/><path class="cls-31" d="M670.41,138.87A42.17,42.17,0,1,1,681,80.18,42.21,42.21,0,0,1,670.41,138.87ZM618.87,64.65a48.18,48.18,0,1,0,74.9,48.14C701.39,70.58,653.91,40.32,618.87,64.65Z"/><circle class="cls-30" cx="646.35" cy="104.23" r="42.18" transform="translate(-8.15 120.44) rotate(-10.58)"/><path class="cls-31" d="M629,82.91s-11.21,27.25-15.93,33.74h69.49S667.22,90.46,666,82.91Z"/><path class="cls-30" d="M666.08,83.11c-.92,3-2,5.88-3.12,8.77-.55,1.45-1.16,2.87-1.75,4.3S660,99,659.35,100.44c-1.28,2.83-2.63,5.62-4.1,8.36-.74,1.36-1.5,2.72-2.32,4-.21.33-.4.67-.62,1s-.43.65-.66,1a21.1,21.1,0,0,1-1.42,1.85l.55-1c.1-.17.2-.34.28-.51l.25-.52.52-1c.17-.34.33-.7.49-1,.33-.7.67-1.39,1-2.1s.65-1.39,1-2.1l3.8-8.45L660,95.64c.66-1.4,1.29-2.81,2-4.2C663.27,88.64,664.62,85.86,666.08,83.11Z"/><path class="cls-31" d="M612.48,116.61H614a.58.58,0,0,0-.1-.33l-2.41-3.87a.71.71,0,0,0-1.2.75Z"/><path class="cls-31" d="M682.59,116.61H681a.67.67,0,0,1,.1-.33l2.41-3.87a.71.71,0,0,1,1-.22.7.7,0,0,1,.22,1Z"/><path class="cls-28" d="M738.22,326.3a1.71,1.71,0,0,1-1.53,1.92,1.78,1.78,0,0,1-2-1.43,1.72,1.72,0,0,1,1.53-1.93A1.78,1.78,0,0,1,738.22,326.3Z"/><path class="cls-28" d="M753.68,325.15a1.72,1.72,0,0,1-1.52,1.93,1.79,1.79,0,0,1-2-1.44,1.72,1.72,0,0,1,1.52-1.93A1.79,1.79,0,0,1,753.68,325.15Z"/><path class="cls-33" d="M739.86,322.67a17.73,17.73,0,0,0-2.67-.45,9.59,9.59,0,0,0-2.52.11,8.59,8.59,0,0,0-2.37.79l-.29.13-.28.16-.57.33c-.39.22-.74.5-1.17.73a7.88,7.88,0,0,1,.73-1.17,6.39,6.39,0,0,1,1-1,6,6,0,0,1,2.69-1.19,6.56,6.56,0,0,1,3,.15A5.72,5.72,0,0,1,739.86,322.67Z"/><path class="cls-33" d="M747.09,322a5.57,5.57,0,0,1,2.15-1.8,6.41,6.41,0,0,1,2.88-.66,6.13,6.13,0,0,1,2.88.7,6.91,6.91,0,0,1,1.2.79,7.53,7.53,0,0,1,.94,1c-.47-.15-.86-.36-1.29-.51l-.63-.22-.3-.11-.32-.08a8.8,8.8,0,0,0-2.48-.36,9.39,9.39,0,0,0-2.5.33A18.8,18.8,0,0,0,747.09,322Z"/><path class="cls-29" d="M744.27,322.12a12.47,12.47,0,0,0-.06,3.66,9.2,9.2,0,0,0,.41,1.84,4.61,4.61,0,0,0,1,1.78l.23.2.2.16a1.55,1.55,0,0,1,.27.23,1.33,1.33,0,0,1,.35.54,1.57,1.57,0,0,1-.2,1.32,5.35,5.35,0,0,1-2.83,2,4.54,4.54,0,0,0,3.64-1.48,2.38,2.38,0,0,0,.52-2.11,1.73,1.73,0,0,0-.23-.54,2.32,2.32,0,0,0-.34-.48,5.08,5.08,0,0,0-.43-.38,1.64,1.64,0,0,1-.16-.13l-.13-.11a4.33,4.33,0,0,1-.81-1.35,13.76,13.76,0,0,1-.57-1.64C744.83,324.48,744.57,323.31,744.27,322.12Z"/><path class="cls-29" d="M736.29,333.36a9.67,9.67,0,0,0,3.47,3.65,8.13,8.13,0,0,0,2.37.93,15,15,0,0,0,2.64.32,11.88,11.88,0,0,1-1.35.23,9.22,9.22,0,0,1-1.39,0,6.38,6.38,0,0,1-2.65-.87,6.46,6.46,0,0,1-2-1.83A6,6,0,0,1,736.29,333.36Z"/><path class="cls-28" d="M474.38,280.79a1.35,1.35,0,1,1-1.23-1.47A1.35,1.35,0,0,1,474.38,280.79Z"/><path class="cls-28" d="M485.91,277.31a1.36,1.36,0,1,1-1.23-1.47A1.37,1.37,0,0,1,485.91,277.31Z"/><path class="cls-34" d="M476.25,278.26a13.56,13.56,0,0,0-1.87-.81,7.18,7.18,0,0,0-1.86-.35,6.35,6.35,0,0,0-1.88.21l-.24.05-.23.07-.48.16c-.33.1-.63.26-1,.36a5,5,0,0,1,.75-.78,5.15,5.15,0,0,1,.92-.59,4.55,4.55,0,0,1,2.19-.46,4.67,4.67,0,0,1,2.14.63A4.32,4.32,0,0,1,476.25,278.26Z"/><path class="cls-34" d="M480.86,276.74a4.24,4.24,0,0,1,.63-2.06,4.68,4.68,0,0,1,1.57-1.59,4.67,4.67,0,0,1,3.23-.58,5.87,5.87,0,0,1,1,.32c-.36.08-.7.1-1,.16l-.49.1-.24,0-.24.07a6.54,6.54,0,0,0-1.74.73,6.91,6.91,0,0,0-1.46,1.2A13,13,0,0,0,480.86,276.74Z"/><path class="cls-29" d="M480.28,281.63a10.33,10.33,0,0,0,.64,2.85,7.54,7.54,0,0,0,.64,1.35,3.8,3.8,0,0,0,1.08,1.2l.2.11.18.09a1.83,1.83,0,0,1,.24.13,1,1,0,0,1,.35.36,1.25,1.25,0,0,1,.1,1,4,4,0,0,1-1.7,2,3.32,3.32,0,0,0,2.38-1.78,2,2,0,0,0,0-1.73,1.42,1.42,0,0,0-.26-.38,1.92,1.92,0,0,0-.34-.3,2.16,2.16,0,0,0-.39-.22l-.14-.08-.11-.06a3.51,3.51,0,0,1-.85-.9,13.53,13.53,0,0,1-.72-1.17C481.13,283.36,480.72,282.5,480.28,281.63Z"/><path class="cls-29" d="M478.68,294.91a7.44,7.44,0,0,0,3.34,2,5.63,5.63,0,0,0,1.92.19,10.53,10.53,0,0,0,2-.33,8.82,8.82,0,0,1-.92.47,5.7,5.7,0,0,1-1,.28,4.71,4.71,0,0,1-2.11-.08,4.85,4.85,0,0,1-1.88-.95A4.93,4.93,0,0,1,478.68,294.91Z"/><path class="cls-28" d="M1052,549.47c0,.71-.46,1.26-1,1.24a1.19,1.19,0,0,1-1-1.31,1.13,1.13,0,0,1,1-1.23A1.18,1.18,0,0,1,1052,549.47Z"/><path class="cls-28" d="M1061.38,549.47c0,.71-.46,1.26-1,1.24a1.19,1.19,0,0,1-1-1.31,1.13,1.13,0,0,1,1-1.23A1.17,1.17,0,0,1,1061.38,549.47Z"/><path class="cls-17" d="M1053.77,546.19a8.7,8.7,0,0,0-1.4-.65,4,4,0,0,0-1.38-.22,3.53,3.53,0,0,0-1.37.3l-.17.06a1.4,1.4,0,0,0-.17.09l-.34.17c-.23.12-.45.28-.7.39a5.64,5.64,0,0,1,.5-.77,4.13,4.13,0,0,1,.65-.61,2.73,2.73,0,0,1,1.58-.55,2.83,2.83,0,0,1,1.6.46A3.52,3.52,0,0,1,1053.77,546.19Z"/><path class="cls-17" d="M1057.66,545.68a3.06,3.06,0,0,1,1.34-1.07,2.67,2.67,0,0,1,1.63-.15,3,3,0,0,1,1.5.87,4.52,4.52,0,0,1,.57.72,7,7,0,0,1,.42.87c-.24-.16-.44-.36-.65-.53l-.32-.24c-.06,0-.11-.08-.16-.11l-.16-.1a4.23,4.23,0,0,0-1.32-.57,4,4,0,0,0-1.39-.06A7.45,7.45,0,0,0,1057.66,545.68Z"/><path class="cls-29" d="M1057.67,548.51a12.49,12.49,0,0,0,0,2.73,9.65,9.65,0,0,0,.28,1.38,4.23,4.23,0,0,0,.61,1.36l.13.15.12.13a.84.84,0,0,1,.15.18,1.07,1.07,0,0,1,.21.41,1.49,1.49,0,0,1-.07,1,2.86,2.86,0,0,1-1.53,1.39,2,2,0,0,0,2-1,2.1,2.1,0,0,0,.24-1.55,1.32,1.32,0,0,0-.14-.41,2.18,2.18,0,0,0-.2-.37,1.8,1.8,0,0,0-.25-.29l-.09-.11-.07-.08a4,4,0,0,1-.49-1c-.15-.39-.24-.82-.36-1.24C1058,550.28,1057.86,549.41,1057.67,548.51Z"/><path class="cls-30" d="M1060.67,559.39a3.21,3.21,0,0,1-3.73,2.11,3.87,3.87,0,0,1-3.17-3.35Z"/></svg>