<svg id="圖層_1" data-name="圖層 1" xmlns="http://www.w3.org/2000/svg" viewBox="0 0 1922.19 800.7"><defs><style>.cls-1{fill:#0f4d71;}.cls-2{fill:#ea887c;}.cls-3{fill:#e97157;}.cls-4{fill:#f0c87f;}.cls-5{fill:#f6dcb0;}.cls-6{fill:#f0efef;}.cls-7{fill:#135e84;}.cls-8{fill:#489ba8;}.cls-9{fill:#1a2859;}.cls-10{fill:#0f4c64;}.cls-11{fill:#3a5c77;}.cls-12{fill:#58afc4;}.cls-13{fill:#113659;}.cls-14{fill:#345183;}.cls-15{fill:#174554;}.cls-16{fill:#51b79e;}.cls-17{fill:#efa08e;}.cls-18{fill:#f6bcb8;}.cls-19{fill:#3b8a78;}.cls-20{fill:#94d0c2;}.cls-21{fill:#4569ab;}.cls-22{fill:#b15541;}.cls-23{fill:#073357;}.cls-24{fill:#9abae2;}.cls-25{fill:#333;}.cls-26{fill:#ef948f;}.cls-27{fill:#fff;}.cls-28{fill:#eba343;}.cls-29{fill:#fefffe;}.cls-30{fill:#08102a;}.cls-31{fill:#5e411d;}</style></defs><rect class="cls-1" x="2.19" width="1920" height="800"/><path class="cls-2" d="M1183.73,442.38a10.41,10.41,0,0,1,3.81-7.91,7.88,7.88,0,0,1,11.3,1.18c2.83,3.39,3.63,11.25-1.88,22.59-12.15,3.35-19.35,1.6-22.6-2.3s-2.68-8.29.94-11.3A10.26,10.26,0,0,1,1183.73,442.38Z" transform="translate(2.19)"/><path class="cls-2" d="M1155.11,468.74a96.56,96.56,0,0,0,10-6.64c.95-.7,2.88-1.69,2.92-3a1.31,1.31,0,0,0-1-1.41c-1.32-.28-2.54,1.13-3.53,1.88a113.1,113.1,0,0,1-10.13,6.78,1.55,1.55,0,0,0-.33,2.07A1.52,1.52,0,0,0,1155.11,468.74Z" transform="translate(2.19)"/><path class="cls-2" d="M1210.52,439.27l4.28-3.2c1.37-1,3.16-2,4.1-3.39s-.14-2.4-1.41-2-3.06,1.94-4.43,3l-4.28,3.2A1.5,1.5,0,0,0,1210.52,439.27Z" transform="translate(2.19)"/><path class="cls-2" d="M1182.18,477.64c-.47-4.33,1-6.87,1.83-9.27a1.18,1.18,0,0,0-2-1.28c-2.64,2.73-3.21,7.3-2.78,10.88a1.47,1.47,0,0,0,2.92-.33Z" transform="translate(2.19)"/><path class="cls-2" d="M1204.21,472.93a13.18,13.18,0,0,1-2.45-4.8c-.33-1.13-.38-4.71-2.35-3.91s-.8,4-.38,5.37a15.36,15.36,0,0,0,2.78,5.08c1.22,1.46,3.62-.23,2.4-1.74Z" transform="translate(2.19)"/><path class="cls-2" d="M1209.67,455h3.63c1.22,0,2.63.28,3.48-.71a1.28,1.28,0,0,0-.14-1.79c-.85-.89-2.54-.52-3.67-.52l-3.63.1a1.51,1.51,0,0,0-1.36,1.65,1.54,1.54,0,0,0,1.69,1.31Z" transform="translate(2.19)"/><path class="cls-2" d="M1167.44,440.92c-8.47-5-8.43-5.13-9.46-5.27a1.32,1.32,0,0,0-1.27,2c.66.89.56.75,9.46,6a1.54,1.54,0,0,0,2-.8,1.63,1.63,0,0,0-.75-2Z" transform="translate(2.19)"/><path class="cls-2" d="M1180.39,431.17a22.34,22.34,0,0,0-1.74-4.52c-.71-1.31-1.6-3.48-3.3-3.48a1.09,1.09,0,0,0-.94.66c-.52,1.46.89,2.92,1.55,4.14a33.78,33.78,0,0,1,1.7,4.24,1.46,1.46,0,1,0,2.73-1Z" transform="translate(2.19)"/><path class="cls-2" d="M1199.69,418.7a1.39,1.39,0,0,0-1.69-.76c-.66.14-1.84,2.26-2.31,3.39a27.65,27.65,0,0,0-1.27,4,1.54,1.54,0,0,0,1.22,1.69,1.51,1.51,0,0,0,1.7-1.27C1198.8,420.67,1200.16,420.49,1199.69,418.7Z" transform="translate(2.19)"/><path class="cls-3" d="M999.46,252V244.5l-6.21-4.19a1,1,0,0,1-.28-1.43,1,1,0,0,1,.51-.4l7.11-2.4,2.07-7.16a1,1,0,0,1,1.28-.72,1.06,1.06,0,0,1,.56.39l4.47,6,7.49-.28a1,1,0,0,1,1,1,1.07,1.07,0,0,1-.2.62l-4.34,6.08,2.55,7.06a1,1,0,0,1-.66,1.31,1.15,1.15,0,0,1-.61,0l-7.16-2.26-5.93,4.61a1,1,0,0,1-1.46-.14A1.07,1.07,0,0,1,999.46,252Z" transform="translate(2.19)"/><path class="cls-3" d="M822.59,203.92l-.1-7.48-6.16-4.19a1,1,0,0,1-.28-1.44,1,1,0,0,1,.51-.4l7.11-2.35,2.07-7.21a1,1,0,0,1,1.31-.66,1,1,0,0,1,.48.33l4.47,6,7.49-.23a1,1,0,0,1,1.06,1,1,1,0,0,1-.17.6L836,194l2.54,7a1,1,0,0,1-.59,1.34,1,1,0,0,1-.68,0l-7.16-2.26-5.88,4.56a1,1,0,0,1-1.65-.8Z" transform="translate(2.19)"/><path class="cls-3" d="M303.5,329.62v-7.48L297.23,318a1,1,0,0,1,.29-1.84l7.06-2.35,2.12-7.21a1,1,0,0,1,1.18-.74,1,1,0,0,1,.61.42l4.47,6,7.48-.23a1,1,0,0,1,1.06.91,1,1,0,0,1-.21.69L317,319.74l2.54,7a1,1,0,0,1-.59,1.34,1,1,0,0,1-.68,0l-7.15-2.26-5.89,4.56a1,1,0,0,1-1.46-.14A1,1,0,0,1,303.5,329.62Z" transform="translate(2.19)"/><path class="cls-3" d="M1089.29,380.61v-7.49l-6.21-4.19a1,1,0,0,1-.26-1.44,1.07,1.07,0,0,1,.54-.39l7.11-2.4,2.07-7.16a1,1,0,0,1,1.18-.75,1,1,0,0,1,.61.42l4.47,6,7.49-.28a1,1,0,0,1,1,1,.94.94,0,0,1-.2.62l-4.33,6.08,2.54,7.06a1,1,0,0,1-.66,1.31,1.15,1.15,0,0,1-.61,0l-7.15-2.26-5.89,4.61a1,1,0,0,1-1.74-.8Z" transform="translate(2.19)"/><path class="cls-3" d="M346.9,118.62v-7.49l-6.21-4.19a1,1,0,0,1-.28-1.44,1.07,1.07,0,0,1,.51-.4l7.11-2.35,2.07-7.2a1,1,0,0,1,1.28-.72,1,1,0,0,1,.56.39l4.43,6,7.48-.23a1,1,0,0,1,1.11.85,1.05,1.05,0,0,1-.21.75l-4.34,6.12,2.55,7a1,1,0,0,1-1.27,1.37l-7.16-2.26-5.93,4.57a1,1,0,0,1-1.46-.14A1.07,1.07,0,0,1,346.9,118.62Z" transform="translate(2.19)"/><path class="cls-4" d="M710,41.83a11,11,0,1,1,0,.05Z" transform="translate(2.19)"/><path class="cls-4" d="M726.17,68.76a59.78,59.78,0,0,0-1.84-8.38,2.17,2.17,0,0,0-4.23.85c.14,2.44,1.17,6.07,1.83,9a2.26,2.26,0,0,0,2.87,1.36A2.53,2.53,0,0,0,726.17,68.76Z" transform="translate(2.19)"/><path class="cls-4" d="M742.51,56.94a107,107,0,0,1-8.81-6.35c-2.92-2.17-4.75,1.22-2.87,3.25a39.58,39.58,0,0,0,9.65,7.25,2.34,2.34,0,0,0,3.11-1,2.41,2.41,0,0,0-1.08-3.11Z" transform="translate(2.19)"/><path class="cls-4" d="M736.53,39.9a1.61,1.61,0,0,0-.43,2.17c1.09,1.93,3.82,1.83,5.75,1.78a19.34,19.34,0,0,0,5.88-1.13c2.83-.94,1.32-5.32-1.5-4.33C740.72,40.23,738.6,38.21,736.53,39.9Z" transform="translate(2.19)"/><path class="cls-4" d="M733.51,21.35c-2.77,4-5,5.41-4.7,7.67a1.87,1.87,0,0,0,2.05,1.7,1.64,1.64,0,0,0,.44-.09c1.51-.33,2.31-1.89,3.2-3s1.7-2.12,2.45-3.25a2.33,2.33,0,0,0-.19-3.24A2.18,2.18,0,0,0,733.51,21.35Z" transform="translate(2.19)"/><path class="cls-4" d="M722.69,20.64c-.9-2.44-1.09-3.34-2.22-4.51a1.92,1.92,0,0,0-3.24,1.13c-.15,1.45.18,2.3,1.13,4.89a2.3,2.3,0,1,0,4.49-1,2.26,2.26,0,0,0-.16-.48Z" transform="translate(2.19)"/><path class="cls-4" d="M711,26.58c-4-3-4.8-3.86-6.4-3.72s-1.93,1-1.74,2c.37,1.93,1.5,2.45,5.17,5.13a2.36,2.36,0,0,0,3.21-.23,2.29,2.29,0,0,0-.24-3.2Z" transform="translate(2.19)"/><path class="cls-4" d="M695,40.51c-1.6.85-.94,3.58.75,3.82s2.26-.1,10.22-1.51a2.38,2.38,0,0,0,2.11-2.5,2.14,2.14,0,0,0-2.44-2.11C697.36,39.66,696.51,39.66,695,40.51Z" transform="translate(2.19)"/><path class="cls-4" d="M707.39,53.51c-4.34,4.23-5,3.48-6.69,6a2,2,0,0,0,1.84,2.83c1.36-.24,2.26-.62,4.52-2.45a45.52,45.52,0,0,0,3.86-3.34,2.34,2.34,0,1,0-3.53-3.06Z" transform="translate(2.19)"/><path class="cls-5" d="M345.87,167c32.48-3.95,60.78,9,63.22,29,1.23,10-4.23,19.82-14.07,27.63l16.76,27.83-30.56-19.5a88.89,88.89,0,0,1-26.5,7.35c-32.53,4-60.83-9-63.28-28.95S313.38,171,345.87,167Z" transform="translate(2.19)"/><path class="cls-4" d="M373,204a20.67,20.67,0,1,1-17.51-23.4h0A20.63,20.63,0,0,1,373,203.93Z" transform="translate(2.19)"/><path class="cls-6" d="M341.16,202.75A11,11,0,1,0,363,205.9Z" transform="translate(2.19)"/><path class="cls-7" d="M417.76,758.75s165.9-267.08,229.13-279,117.37,97.31,117.37,97.31,28.62-25,72.59-15.21,280.08,231.26,280.08,231.26l-711.32-8.9Z" transform="translate(2.19)"/><path class="cls-8" d="M496.19,541.43C643.5,566,864.54,786.24,1032.89,786.24s204.6-52.68,267.74-41.57,147.87,41.57,147.87,41.57l-1251,3.67S348.88,517,496.19,541.43Z" transform="translate(2.19)"/><polygon class="cls-9" points="595.22 448.26 566.45 680.88 624.03 680.88 595.22 448.26"/><polygon class="cls-9" points="649.08 500.19 620.31 732.81 677.84 732.81 649.08 500.19"/><rect class="cls-10" x="244.34" y="670.38" width="8.8" height="97.75"/><polygon class="cls-11" points="248.76 480.75 220 713.36 277.58 713.36 248.76 480.75"/><polygon class="cls-12" points="230.4 629 271.46 664.17 269.9 651.46 231.72 618.69 230.4 629"/><polygon class="cls-12" points="236.71 578.01 261.85 586.58 260.68 577.07 237.84 569.21 236.71 578.01"/><rect class="cls-10" x="311.33" y="632.25" width="6.36" height="111.15"/><polygon class="cls-11" points="316.18 434.09 284.92 658.47 347.44 658.47 316.18 434.09"/><polygon class="cls-12" points="286.9 644.21 343.02 626.55 342.17 620.43 287.84 637.57 286.9 644.21"/><polygon class="cls-12" points="296.79 573.35 333.93 561.63 333.08 555.55 297.73 566.71 296.79 573.35"/><path class="cls-12" d="M197.47,789.91S359,649.62,567.23,641c69.91-2.87,356.25,55.13,597.39,100.71,10.12,1.93,32.06,20.71,42.32,22.64,114.12,21.42,220.52,26,254.93,27.35Z" transform="translate(2.19)"/><path class="cls-7" d="M1496.62,794.86S1437.3,716.14,1400,704s-2.16,35.92-2.16,35.92-66.2-72.4-90.49-65.86c-22.22,6,0,50.85,0,50.85s-25-24.86-55.46-24.86,23.49,93,23.49,93Z" transform="translate(2.19)"/><path class="cls-7" d="M1307.36,793.12s-40.49-108.38-90.67-95.86c-40.68,10.17-11.77,64.69-14.27,62.19s-24.29-39.5-59.6-39.5,10.87,50,10.87,50-75.23-23.49-81.11,1.18c-4.9,20.43,22.45,22,22.45,22Z" transform="translate(2.19)"/><path class="cls-10" d="M794.29,630.36a83.07,83.07,0,0,1,8.43,6.36c14.74,11.72,29.71,23.07,50.09,46.94a307.25,307.25,0,0,1,60,107.67c.42,1.41,2.68.8,2.21-.62a303.25,303.25,0,0,0-33.89-72.26c-38.89-60.78-87.33-88.42-86.82-88.09Z" transform="translate(2.19)"/><path class="cls-10" d="M867.83,637.66c3.25,21.42,14.41,40.72,22.13,60.69,20.62,53.52,24,94.25,25.84,98.77a.43.43,0,0,0,.47.37.41.41,0,0,0,.38-.47h0c.52-4.19-4-33.56-13-64.07-14.88-50.71-30.51-70.53-35.12-95.48-.1-.47-.8-.28-.71.19Z" transform="translate(2.19)"/><path class="cls-10" d="M818.77,631.45c-.51,1.13-2.82,4.14-3.15,7.72a19.69,19.69,0,0,0,.85,7.34,16.46,16.46,0,0,1-5-6.54c-1.6-4.24-1.74-10-.33-12.15,2.21-4.8,7.11-5.88,8.38-3.91S819.86,629,818.77,631.45Z" transform="translate(2.19)"/><path class="cls-10" d="M852.58,665.39c-.43,1.13-2.36,4.38-2.22,8a20.23,20.23,0,0,0,1.7,7.16c.05-.14-3.67-1.88-5.74-5.88s-2.92-9.7-1.79-12c1.64-4.94,6.35-6.64,7.86-4.8S853.33,662.75,852.58,665.39Z" transform="translate(2.19)"/><path class="cls-10" d="M895.56,682.06c-.85.33-3.62.7-5.6,2.44a14.85,14.85,0,0,0-3.34,4.29,11.11,11.11,0,0,1,.7-6c1.08-3.1,4.24-6.16,6.07-6.59,3.68-1.32,6.83.61,6.45,2.31S897.44,681.3,895.56,682.06Z" transform="translate(2.19)"/><path class="cls-10" d="M899.84,692.56c-.84.28-3.62.65-5.65,2.4a13.53,13.53,0,0,0-3.29,4.28,11.11,11.11,0,0,1,.71-6c1.08-3.1,4.23-6.16,6.07-6.59,3.62-1.32,6.78.62,6.4,2.31S901.73,691.75,899.84,692.56Z" transform="translate(2.19)"/><path class="cls-10" d="M804.46,653.62c.71-.85,2.36-4,5.28-5.55a19.39,19.39,0,0,1,6.45-2.12,15.45,15.45,0,0,0-7.4-1.75c-4.19.24-9,2.41-10.31,4.38-3.15,3.72-2.21,8.24,0,8.52S802.77,655.5,804.46,653.62Z" transform="translate(2.19)"/><path class="cls-10" d="M825.13,672.73c.75-.89,2.4-4,5.27-5.6a16.91,16.91,0,0,1,6.45-2.07c-.14.14-3.2-2-7.39-1.74s-9,2.35-10.31,4.33c-3.11,3.72-2.16,8.24,0,8.52S823.48,674.62,825.13,672.73Z" transform="translate(2.19)"/><path class="cls-10" d="M861.85,655.6c1.13.09,4.62-.38,7.63,1a16.72,16.72,0,0,1,5.46,4c-.19,0-.24-3.77-2.92-7s-7.25-5.93-9.6-5.79c-4.81-.33-8,3.06-6.92,5S859.36,655.36,861.85,655.6Z" transform="translate(2.19)"/><path class="cls-10" d="M867.92,670.29c1.13,0,4.57-.43,7.58.94a18.77,18.77,0,0,1,5.51,4,15,15,0,0,0-3-7c-2.69-3.2-7.21-5.93-9.56-5.84-4.85-.33-8,3.11-6.92,5S865.43,670,867.92,670.29Z" transform="translate(2.19)"/><path class="cls-10" d="M851.49,702.16c.71-.9,2.36-4,5.23-5.6a16.59,16.59,0,0,1,6.5-2.07c-.1.14-3.25-2-7.39-1.75s-9.09,2.36-10.36,4.33c-3.11,3.72-2.17,8.24,0,8.53S849.8,704,851.49,702.16Z" transform="translate(2.19)"/><path class="cls-10" d="M792.32,637.8a10.63,10.63,0,0,1,4-2.82,8.86,8.86,0,0,1,4.33-.47,8.91,8.91,0,0,0-4.38-2.07c-2.59-.57-6,.28-7.06,1.36-2.45,1.93-2.5,4.9-1.18,5.37S791,638.74,792.32,637.8Z" transform="translate(2.19)"/><path class="cls-10" d="M797.78,625.75c0,.75-.52,2.92.19,4.94a8.94,8.94,0,0,0,2.21,3.72,9.06,9.06,0,0,1-4.29-2.26c-2-1.74-3.39-5-3.15-6.49,0-3.11,2.45-4.9,3.58-4.1S797.78,624.15,797.78,625.75Z" transform="translate(2.19)"/><path class="cls-10" d="M1448.5,645.57a435.12,435.12,0,0,1,20.1,149.29h1.93a438.37,438.37,0,0,0-20.19-148.07c-3.49-11.11-7-24.1-17.37-30.83-.24-.14-.38.19-.19.33C1442.1,623,1445.21,635.21,1448.5,645.57Z" transform="translate(2.19)"/><path class="cls-10" d="M1461.87,794.86A546.08,546.08,0,0,0,1384.05,658c-.38-.42-1.13.14-.8.57a545.08,545.08,0,0,1,76.22,136.34Z" transform="translate(2.19)"/><path class="cls-10" d="M1452.93,619.68c-.94.8-4.19,2.68-5.89,5.83a18.37,18.37,0,0,0-2,7.07c.14-.14-2.26-3.39-2.12-7.91s2.21-9.89,4.33-11.3c3.91-3.53,8.8-2.69,9.23-.38S1454.86,617.75,1452.93,619.68Z" transform="translate(2.19)"/><path class="cls-10" d="M1436.92,654.37c1.13-.42,4.38-2.35,8-2.26a21.16,21.16,0,0,1,7.2,1.6,16.49,16.49,0,0,0-5.93-5.69c-4.05-2.07-9.75-2.78-12-1.65-4.94,1.7-6.59,6.45-4.75,7.91S1434.33,655.17,1436.92,654.37Z" transform="translate(2.19)"/><path class="cls-10" d="M1442.05,672.88c1.18-.43,4.38-2.36,8-2.31a18.46,18.46,0,0,1,7.15,1.65,16.39,16.39,0,0,0-5.93-5.7c-4-2.07-9.7-2.82-12-1.69-4.94,1.74-6.59,6.45-4.75,7.9S1439.46,673.68,1442.05,672.88Z" transform="translate(2.19)"/><path class="cls-10" d="M1398.5,700.89c1.18-.43,4.38-2.4,8-2.31a19.55,19.55,0,0,1,7.15,1.65,16.13,16.13,0,0,0-5.93-5.7c-4-2-9.7-2.82-12-1.69-5,1.74-6.59,6.45-4.76,7.91S1395.91,701.69,1398.5,700.89Z" transform="translate(2.19)"/><path class="cls-10" d="M1385.37,681.11c1.18-.42,4.38-2.35,8-2.25a19.85,19.85,0,0,1,7.16,1.6,16.39,16.39,0,0,0-5.93-5.7c-4-2.07-9.7-2.78-12-1.65-4.94,1.7-6.59,6.45-4.75,7.91S1382.78,681.92,1385.37,681.11Z" transform="translate(2.19)"/><path class="cls-10" d="M1461.26,641.24c-1,.66-4.57,2-6.73,4.9a18.7,18.7,0,0,0-3.11,6.63c.14-.09-1.69-3.72-.85-8.14s3.77-9.42,6.08-10.5c4.37-2.87,9.13-1.22,9.13,1.13S1463.52,639.69,1461.26,641.24Z" transform="translate(2.19)"/><path class="cls-10" d="M1467.71,659.84c-1.22.42-5,1.17-7.91,3.67a25.86,25.86,0,0,0-4.94,5.93,15.73,15.73,0,0,1,1.5-8.05c1.75-4.19,6.31-8.52,8.9-9.23,5-2.07,9.18.28,8.52,2.54S1470.3,658.66,1467.71,659.84Z" transform="translate(2.19)"/><path class="cls-10" d="M1477.55,694.39c-1.37.1-5.7-.61-9,1.37a17,17,0,0,0-5.46,5.74c.19,0-.8-5.46,1.51-10.12s7-8.57,9.89-8.33c5.74-.52,10.5,4.47,9.84,7.25S1480.47,694,1477.55,694.39Z" transform="translate(2.19)"/><path class="cls-10" d="M1429.25,701.92c-1.09.33-4.66.57-6.83,2.78a14.18,14.18,0,0,0-3.2,5.6c.14-.09-1.7-4.14-.8-8.28s3.91-8.15,6.21-8.52c4.48-1.51,9.23,1.5,9.23,3.86S1431.51,701,1429.25,701.92Z" transform="translate(2.19)"/><path class="cls-10" d="M1427.18,619.63c.65-.28,2.49-1.6,4.61-1.7a8.78,8.78,0,0,1,4.33.66,9,9,0,0,0-3.77-3.1c-2.35-1.23-5.83-1.27-7.15-.47-2.87,1.22-3.63,4.09-2.45,4.85S1425.67,620.24,1427.18,619.63Z" transform="translate(2.19)"/><path class="cls-10" d="M1435.56,609.37a10.8,10.8,0,0,0-1.09,4.85,11,11,0,0,0,1.23,4.19,9.37,9.37,0,0,1-3.58-3.35c-1.51-2.16-2-5.65-1.41-7,.84-3,3.57-4.14,4.47-3.11S1435.93,607.81,1435.56,609.37Z" transform="translate(2.19)"/><path class="cls-10" d="M1377.13,662.38c.66-.29,2.5-1.6,4.61-1.7a8.84,8.84,0,0,1,4.34.66,10,10,0,0,0-3.77-3.11c-2.5-1-5.89-1.22-7.16-.47-2.87,1.23-3.62,4.1-2.49,4.9S1375.62,663,1377.13,662.38Z" transform="translate(2.19)"/><path class="cls-10" d="M1386.59,652.35a11,11,0,0,0-1.46,4.71,9.32,9.32,0,0,0,.85,4.23,9.11,9.11,0,0,1-3.29-3.57c-1.32-2.26-1.51-5.79-.8-7.16,1.08-2.92,3.9-3.81,4.75-2.68S1387.11,650.8,1386.59,652.35Z" transform="translate(2.19)"/><path class="cls-10" d="M971.45,770.61a41.82,41.82,0,0,1,5.7,4.76,42.41,42.41,0,0,1,10.07,17.18c.14.42.19.85.61,1.08a.19.19,0,0,0,.27,0l0,0a1.77,1.77,0,0,0-.1-1.37,40.18,40.18,0,0,0-6-12c-5.13-7.11-8.89-8.75-10.54-9.7,0,0,0,0,0,.05Z" transform="translate(2.19)"/><path class="cls-10" d="M967.31,774.8a12.29,12.29,0,0,1,4.61-1.69,8.56,8.56,0,0,1,4.33.66,9.82,9.82,0,0,0-3.76-3.11c-2.5-1-5.89-1.23-7.16-.47-2.87,1.22-3.62,4.09-2.49,4.89S965.8,775.41,967.31,774.8Z" transform="translate(2.19)"/><path class="cls-10" d="M975.64,764.59a11.66,11.66,0,0,0-1,4.8,9,9,0,0,0,1.17,4.19,9.89,9.89,0,0,1-3.58-3.3c-1.36-2.3-2-5.65-1.41-7.06.85-3,3.63-4.14,4.52-3.11S976.07,763,975.64,764.59Z" transform="translate(2.19)"/><path class="cls-10" d="M696.42,736.39c28.67,8.75,53.48,26.83,77.35,44.44,16.1,11.86,14.73,14.12,18.08,16a.7.7,0,0,0,1-.15.72.72,0,0,0,.1-.65c-.85-3-4.14-5.55-6.36-7.63a96.69,96.69,0,0,0-8.24-6.73c-6-4.52-12.33-8.71-18.59-13-12.71-8.62-25.71-17-39.64-23.59a151.32,151.32,0,0,0-23.64-9c-.14,0-.18.19,0,.24Z" transform="translate(2.19)"/><path class="cls-10" d="M724.52,732.29c-.42,1.18-2.35,4.43-2.21,8a20.33,20.33,0,0,0,1.69,7.16c0-.19-3.67-1.84-5.74-5.84s-2.92-9.7-1.79-12c1.65-5,6.36-6.64,7.86-4.81S725.28,729.7,724.52,732.29Z" transform="translate(2.19)"/><path class="cls-10" d="M748.58,746.41c-.42,1.18-2.35,4.43-2.21,8.05a19.28,19.28,0,0,0,1.69,7.11c.05-.19-3.67-1.83-5.74-5.84s-2.92-9.69-1.79-12c1.65-4.94,6.35-6.64,7.81-4.8S749.33,743.82,748.58,746.41Z" transform="translate(2.19)"/><path class="cls-10" d="M772.54,763.08c-.37,1.18-2.3,4.42-2.21,8a18.7,18.7,0,0,0,1.74,7.16c0-.19-3.67-1.84-5.79-5.84s-2.87-9.7-1.79-12c1.7-4.95,6.41-6.64,7.86-4.81S773.34,760.49,772.54,763.08Z" transform="translate(2.19)"/><path class="cls-10" d="M712.23,754.93c.71-.89,2.36-3.95,5.28-5.6a16.91,16.91,0,0,1,6.45-2.07c-.1.14-3.2-2-7.39-1.74s-9,2.35-10.31,4.38c-3.16,3.67-2.22,8.19,0,8.47S710.54,756.82,712.23,754.93Z" transform="translate(2.19)"/><path class="cls-10" d="M737.28,769.53c.71-.9,2.35-4,5.27-5.6a16.75,16.75,0,0,1,6.45-2.07c-.09.14-3.2-2-7.39-1.75s-9,2.36-10.36,4.38c-3.1,3.67-2.16,8.19,0,8.48S735.59,771.41,737.28,769.53Z" transform="translate(2.19)"/><path class="cls-10" d="M693.69,741.28a11.22,11.22,0,0,1,4-2.82A8.86,8.86,0,0,1,702,738a9.69,9.69,0,0,0-4.38-2c-2.59-.56-6,.28-7.06,1.37-2.45,1.88-2.45,4.85-1.18,5.32S692.37,742.22,693.69,741.28Z" transform="translate(2.19)"/><path class="cls-10" d="M699.15,729.28c0,.7-.52,2.87.19,4.89a8.91,8.91,0,0,0,2.21,3.77,10.43,10.43,0,0,1-4.29-2.31c-1.93-1.88-3.39-4.94-3.15-6.45,0-3.1,2.45-4.89,3.58-4.14S699.15,727.63,699.15,729.28Z" transform="translate(2.19)"/><path class="cls-9" d="M1534.52,800.7H3.6c-3.2,0-5.79-1.89-5.79-4.19h0c0-2.36,2.59-4.24,5.79-4.24H1534.52c3.2,0,5.83,1.88,5.83,4.24h0C1540.35,798.81,1537.72,800.7,1534.52,800.7Z" transform="translate(2.19)"/><path class="cls-13" d="M376.51,324.12c-11.15,3-13,46-13,46L328.16,366s6.45-44.82,25.1-63.51,65.86-7.3,83.8,4.37,10.17,26.51,10.17,26.51S387.67,321.15,376.51,324.12Z" transform="translate(2.19)"/><path class="cls-14" d="M341,359.9c-1.89,40.81-13.33,44.44-13.56,45S318.09,412,308,402.69l3.39-3.39a14.13,14.13,0,0,0,5.74,3.39,10.39,10.39,0,0,0,8.1-1.22,10.59,10.59,0,0,0,3.86-3.68c5.88-7.81,8.66-28.2,9.46-38Z" transform="translate(2.19)"/><path class="cls-15" d="M459.8,330.09s-4.95,19.45-5.51,35.22-11.49,29-12.9,68.59a728.08,728.08,0,0,1-7.06,75.94s-43.88,3.06-52.54-6.26-4.9-94,3.62-135.21-29-52.4-9.46-65.86,44.91-4.38,55.65-.71S460.13,321.34,459.8,330.09Z" transform="translate(2.19)"/><path class="cls-4" d="M387.3,362.81s-5.18,31.59-1.28,63.56-2.3,95.15-2.3,95.15-32.72,22.83-42.33,4.71c-1.78-3.44-6.12-43.88-6.49-60.78-.43-17.94,2.07-80.65,2.87-101a25.57,25.57,0,0,1,3.67-12C348.6,340.78,365,314.94,370.72,314,378.16,312.86,391.2,329,387.3,362.81Z" transform="translate(2.19)"/><path class="cls-13" d="M336.92,386.31c4.62,4.47,33.85,32.58,48.49,34.6l-.42-5.32c-11.49-1.84-37.33-25.66-47.79-35.83C337.11,381.83,337,384,336.92,386.31Z" transform="translate(2.19)"/><path class="cls-13" d="M387.25,461.82c0-1.74.05-3.48.05-5.22-8.85,3.81-40.07,1.36-52.4,0,0,1.83,0,3.53,0,5C346.2,462.9,376.66,466.25,387.25,461.82Z" transform="translate(2.19)"/><path class="cls-13" d="M337.82,502.69c.18,1.64.37,3.29.56,4.84,12.34,2.45,36.06-8,47.46-13,.09-1.88.23-3.81.33-5.79C375.57,493.36,348.64,504.71,337.82,502.69Z" transform="translate(2.19)"/><path class="cls-13" d="M337.11,495.81c5.46,2.31,39.55,16.95,47.36,17.47.1-1.46.24-3.06.38-4.8-5.51-.52-31.45-11.4-48.31-18.41Z" transform="translate(2.19)"/><rect class="cls-16" x="365.52" y="431.66" width="25.23" height="78.46" rx="7.16"/><rect class="cls-13" x="365.52" y="454.99" width="25.23" height="5.28"/><path class="cls-17" d="M368.32,731,356.6,741.75c-1.6,1.18-6,3.86-7.3,5.18-4.8,4.9,25.9,17.18,23.17,10.22-.29-.66-.76-6.22.75-8a89.07,89.07,0,0,1,6.4-6.78Z" transform="translate(2.19)"/><path class="cls-15" d="M372.42,757.05s-6.59-3.53-9.56-5.69-3.39-8.76-6.07-9.75-15.4,11.68-15.4,11.68,24.3,26.41,37.06,35.21c2.73,1.93,6.07,1.32,7.2,1.32C390.17,789.91,379.48,770.8,372.42,757.05Z" transform="translate(2.19)"/><path class="cls-17" d="M515.49,751.78s3.63,17.56,3.67,17.61c.19,2.3.24,8.1.76,10.12,2,7.49,31.59-15.3,23.25-16.62-.75-.14-4.52-1.65-5.79-3.95-2.26-4-4.37-11.59-4.37-11.59Z" transform="translate(2.19)"/><path class="cls-15" d="M543.08,762.84a124.43,124.43,0,0,1-11.06,6c-3.86,1.65-10.88-2.92-13.37-.85s1.69,22.37,1.69,22.37S571,777,581.73,770.05C586,767.27,560.45,763.93,543.08,762.84Z" transform="translate(2.19)"/><path class="cls-18" d="M550.94,498.5c-8.05-3.58-8.38-2.12-9.41-2.59s-10.13-15.78-10.13-15.78-26.59-44.58-28-47l-5.27-53.71-28.2-4.1s7.39,58.28,8.33,61.2,44.21,58.9,47.83,64c0,0,2,7.68,3.44,12.43s5,8.62,5.6,9.89a42.36,42.36,0,0,0,6.69,8.57c3.62,3.72,2-1.51,2-1.51s-5.5-8.05-4.75-8.38,3.29,4.33,7.3,8.43l3,3.06c2.49,2.49,4.8,1.69,2.64-1.37a33.36,33.36,0,0,0-3.21-3.91,31.29,31.29,0,0,1-2.73-3.86,37.43,37.43,0,0,1-2.82-4c.14,0,.19-.75,1.32.38s3.57,4.71,5.74,6.5c1.22,1,3.63,3.29,3.63,3.29s4.37,2.69,4.61,2.5c1.41-1.09-1-3.77-2.87-4.9a21.72,21.72,0,0,0-3.39-3.67s-4.19-5.84-3.3-6.45,3.39,3,6.88,5.74,7,4.57,7.58,4S561.3,523,561.3,523s-2.45-2.11-3.2-2.87-3.3-3.81-3.3-3.81-7.86-10.5-7-11,3.62-1,4.33-.52,1.55,2,2.31,2.5a2.26,2.26,0,0,0,2.82-.33c.71-.85-1.88-4.52-1.88-4.52A13.43,13.43,0,0,0,550.94,498.5Z" transform="translate(2.19)"/><path class="cls-19" d="M472.32,330.19c21.8,5.22,27.31,53.86,28.62,60.17-7.25,2.54-15.81,5.08-23.25,7.25l-8.85-68.36S470.06,329.67,472.32,330.19Z" transform="translate(2.19)"/><path class="cls-14" d="M488.28,510.78l31.35,125.33,19.83,121.41-24.67,3.35S480,668,479.05,657.34,460.6,596.7,460.6,596.7Z" transform="translate(2.19)"/><path class="cls-13" d="M415.07,496.24s2.36,120.19.43,131.39S361,734.08,361,734.08l17.7,19.25s75.14-87.19,78.48-94.86c5.18-12.05,30.83-148,30.83-148Z" transform="translate(2.19)"/><path class="cls-20" d="M443.88,329.91s-13.32-1.23-18.64,11.44S414.6,414.65,417,443.79s-7.77,69.49-7.77,69.49c46.42,24,79.43-2,79.43-2s12.24-111.48,7.72-132.1c-9.42-43-27.54-49.95-27.54-49.95Z" transform="translate(2.19)"/><path class="cls-18" d="M407,530.74c-5-8.19-6.17-7.06-6.78-8.09s.05-20.81.05-20.81,2-57.53,2.26-60.64l25.75-53.1L406,367.24s-26.5,58.57-27.35,61.86,5.27,81.54,5.56,88.42c0,0-2.55,8.38-4,13.65s-.51,11-.7,12.57a46.94,46.94,0,0,0,.94,12c1.08,5.65,2.59-.18,2.59-.18s-.24-10.83.61-10.69.42,6,1.55,12.29c.33,1.6.62,3.2.9,4.66.75,3.81,3.29,4.47,3.11.33a42.32,42.32,0,0,0-.57-5.61,32.56,32.56,0,0,1-.23-5.22,45.07,45.07,0,0,1-.19-5.46c.14,0,.56-.57.94,1.13s.42,6.64,1.32,9.55c.52,1.7,1.32,5.28,1.32,5.28s2.26,5.13,2.58,5.13c1.84-.19,1.28-4.14.29-6.31a26.07,26.07,0,0,0-.9-5.46s-.33-8,.8-8,1.23,4.84,2.73,9.51,3.49,8.47,4.34,8.33.47-5.23.47-5.23-.95-3.43-1.13-4.61-.71-5.51-.71-5.51-.94-14.55.09-14.5,3.72,1.27,4.1,2.12.19,2.87.56,3.77a2.36,2.36,0,0,0,2.64,1.36c1.08-.33.94-5.32.94-5.32S408.43,533.1,407,530.74Z" transform="translate(2.19)"/><path class="cls-19" d="M395.06,382.78l29.19,22.64s12.9-12.29,19.35-25.89-1.41-50-8.38-48.12C419.59,335.56,395.06,382.78,395.06,382.78Z" transform="translate(2.19)"/><path class="cls-18" d="M449.49,303l-4.38,28.76s16,34.28,25.47,31.31c8-2.5,3.06-32.81,3.06-32.81s-4.33-16.29-3.06-24.44S449.49,303,449.49,303Z" transform="translate(2.19)"/><path class="cls-3" d="M470.58,305.8c1.32-8.14-21.09-2.82-21.09-2.82l-.38,2.35a13.79,13.79,0,0,0,2.4,4,29.45,29.45,0,0,0,19.63,8.9C470.48,313.85,470.06,309.14,470.58,305.8Z" transform="translate(2.19)"/><path class="cls-18" d="M445.77,262.25c-.61-.23-5.09,32.77,3.39,41.86S474,316.16,480,309c6.49-7.91,6.16-43.4-7-52.73S445.77,262.25,445.77,262.25Z" transform="translate(2.19)"/><path class="cls-15" d="M468,238.62a36.41,36.41,0,0,0-19.11,10.88c-4.62.56-10.88,3.1-17.33,13.79-8,13.18-2.07,27.78,7.16,34.93s9.13,15.4,9.13,15.4l1.46-4.29a24.2,24.2,0,0,0,1.18-10,19.89,19.89,0,0,0-1.51-6.07c-2.21-4.8,4.8-8,6.73-11.91,1.51-3.06,1.6-10.07,4-15.16l2.83-3.86s6.59-5.08,13-3.67S481,235.94,468,238.62Z" transform="translate(2.19)"/><path class="cls-18" d="M455.28,287.16c.09,4-1.74,7.34-4.1,7.39s-4.23-3.2-4.33-7.25,1.79-7.3,4.1-7.34S455.23,283.16,455.28,287.16Z" transform="translate(2.19)"/><path class="cls-15" d="M460.55,391c.61-25.1-.94-59.56-24.86-69.35-8.57-3.58-19,.42-26.93,3.39h0c9.75-1.37,18.88,2.4,23.64,5,19.68,9.93,19.54,38.46,18.83,60.68-1.84,55.84-44.63,49.91-44.63,49.91l-1,3.71s16.1,5.28,36.58-4.8C458.57,431.46,460.55,391,460.55,391Z" transform="translate(2.19)"/><path class="cls-21" d="M1247.8,574.72s-13.22,65-7.2,71S1280,664,1287.54,661.25s23.16-77,18.83-84.41S1251.29,564.41,1247.8,574.72Z" transform="translate(2.19)"/><path class="cls-18" d="M1253.12,767.6s.9,7.44.9,8.71v1.27l-.61,1.27-.29.52,4.48,6.26,18.31.28c.42,0-2.4-4.33-2.4-4.33s-5.93-4.47-7-7.58.9-9.65.9-9.65Z" transform="translate(2.19)"/><path class="cls-18" d="M1166.78,723s-6.35,3.95-7.34,4.75l-1,.76-.66,1.31-.24.48-7.67.42-11.58-14.17c-.24-.33,3.25.47,3.25.47s7.15.94,10.26-.14,9.42-7.35,9.42-7.35Z" transform="translate(2.19)"/><path class="cls-22" d="M1224.78,653l-68.73,58.57,10.59,15s67.46-42.37,71.14-42.89,9.51.8,10.21,3.53,2.83,82.53,2.83,82.53h18.36l9.56-101.88Z" transform="translate(2.19)"/><path class="cls-18" d="M1323.79,569.49c5.08-3.34,17-16.15,21.09-20.53,0-.51.42-3.48,3.67-7.25,2.31-2.63,4-8.71,5.56-7s-2.26,6.54-.52,6.59,10.22-9.51,11.58-8-7.29,10-5.74,10.08,8.52-8.57,10.45-6.36-9.18,9.33-8.14,10.55,7.9-3.53,9.51-1.74-9.75,5.93-8.86,6,7.44-.19,7.49,1.08-16.48,3.62-18.5,6.07h0c-4.29,6.88-12,19.4-19.73,24.91-9.51,6.73-31.49,21-31.49,21l-10.93-14.07S1317.76,573.45,1323.79,569.49Z" transform="translate(2.19)"/><path class="cls-18" d="M1353.59,544.3a6.62,6.62,0,0,1,.66,2.69,6.53,6.53,0,0,1-2.17,5.32A11.31,11.31,0,0,0,1353.59,544.3Z" transform="translate(2.19)"/><path class="cls-18" d="M1223,554.05c-4-4.52-12.24-20.06-15-25.33.09-.47.47-3.44-1.65-8-1.55-3.15-1.65-9.46-3.53-8.19s.42,6.88-1.22,6.5-7.39-11.86-9.09-10.73,4.38,11.62,2.87,11.25-6-10.55-8.42-8.9,6.4,11.44,5.13,12.29-6.74-5.46-8.71-4.15,7.81,8.29,6.92,8-7.11-2.07-7.44-.89,14.92,7.81,16.19,10.69h0c2.41,7.76,6.5,21.89,12.57,29.23,7.44,9,24.91,28.53,24.91,28.53l14.22-10.78S1227.84,559.46,1223,554.05Z" transform="translate(2.19)"/><path class="cls-18" d="M1200.87,522a6.72,6.72,0,0,0-1.32,2.4,6.59,6.59,0,0,0,.66,5.7A11.22,11.22,0,0,1,1200.87,522Z" transform="translate(2.19)"/><path class="cls-4" d="M1234.58,564.45l-12.86,16.76,16,23.68s-1.5,17.61-3.81,23.12-15.58,28.06-15.58,28.06,32.24,19.77,63.83,16.9c0,0,8.9-45.76,11.4-50.14s26.55-26.17,26.55-26.17l-11.68-18.88-20.19,11.15s-36.86-5.93-38.65-7.72S1234.58,564.45,1234.58,564.45Z" transform="translate(2.19)"/><path class="cls-3" d="M1276.19,530.23s-12.47-6.59-16.71,4.33c0,0-11.2-1.13-9.27,10.45,0,0-11.26,5.7-4.1,20.24,0,0-3.15,13.75,12.9,14.6,0,0,2.4,4.85,9.7,3.72s9.23-3.06,9.23-3.06,13,3.81,16.9-7.91c0,0,8.94-2.12,2.92-13.61,0,0,7.81-14.83-5.94-19.3C1291.82,539.69,1290.22,524.53,1276.19,530.23Z" transform="translate(2.19)"/><path class="cls-18" d="M1281.23,562.43c-1,2.82-.28,5.65,1.6,6.35s4.29-1.08,5.32-3.9.28-5.65-1.65-6.36S1282.22,559.6,1281.23,562.43Z" transform="translate(2.19)"/><path class="cls-18" d="M1247.62,555.46c-.14,3,1.41,5.51,3.43,5.6s3.77-2.26,3.91-5.22-1.36-5.51-3.39-5.6S1247.76,552.5,1247.62,555.46Z" transform="translate(2.19)"/><path class="cls-18" d="M1261.88,575.33c0,.19-1.65,7.15-2.49,10.83a2.91,2.91,0,0,0,1.64,3.34c3.44,1.55,10.17,3.77,14.83-.47a1.85,1.85,0,0,0,.62-1.51l-.57-16.57Z" transform="translate(2.19)"/><path class="cls-2" d="M1261,579.24c3.62,1.79,8.19,1.83,13.32-1.13l1.84-1.23-.24-5.93-14,4.38C1261.88,575.42,1261.5,577.12,1261,579.24Z" transform="translate(2.19)"/><path class="cls-18" d="M1271.81,537a17.63,17.63,0,0,1,9.75,7.58c3.63,6,5.6,23.21-7.25,30.79s-22.27-4.15-22-15.21S1257.46,535,1271.81,537Z" transform="translate(2.19)"/><path class="cls-21" d="M1249.88,790.24c-2.73-.37,2-9.84,3.53-11.39l20.1,2.73s9.7,4.47,12,6.78c.57.57.62,1.51-1.74,1.88C1276.15,791.37,1256,791,1249.88,790.24Z" transform="translate(2.19)"/><path class="cls-21" d="M1150.92,739.73c2.35,1.41,6.63-7.82,6.87-9.94L1141.55,717s-12.53-3.63-15.07-1.08S1145.55,736.53,1150.92,739.73Z" transform="translate(2.19)"/><path class="cls-21" d="M1287.26,654.47c-13-13-10.41-52.87-8-69.73l5.55.8c-2,14.27-4.75,53.77,6.45,64.93Z" transform="translate(2.19)"/><path class="cls-21" d="M1231.84,632.11l-.61-5a450.29,450.29,0,0,1,19.4-47.13l5,2.54C1255.57,582.67,1244.93,607.81,1231.84,632.11Z" transform="translate(2.19)"/><path class="cls-19" d="M1037.6,581.07s-22.18-2.92-30.23,1.23-12.52,54-12.52,54l7.2,2.16s-1,34.47,4.43,36.87,44-5,52.77-13.84-7.72-82.2-7.72-82.2Z" transform="translate(2.19)"/><path class="cls-18" d="M1081.29,546c2.59-5.79,5.83-23.77,6.92-29.89-.29-.47-1.6-3.3-.85-8.43.47-3.63-1.41-9.93.89-9.28s1.75,7,3.25,6.08,3.58-14.13,5.65-13.51-.7,12.9.66,12.05,2.64-12.34,5.6-11.49-2.77,13.42-1.22,13.84,5-7.53,7.34-6.87-5.13,10.73-4.33,10.21,6.41-4.28,7.11-3.24-12.38,12.47-12.76,15.77h0c.1,8.42.43,23.77-3.25,32.95-4.56,11.3-15.77,36.21-15.77,36.21L1063,584.13S1078.23,552.82,1081.29,546Z" transform="translate(2.19)"/><path class="cls-18" d="M1093.2,507.06a7.65,7.65,0,0,1,2.07,2,6.75,6.75,0,0,1,1.13,5.89A11.56,11.56,0,0,0,1093.2,507.06Z" transform="translate(2.19)"/><path class="cls-18" d="M969.05,585.54s.8-2.87-1.13-7.58c-1.22-3-1.08-8.94-2.82-7.81s.14,6.45-1.37,6-6.12-11.44-7.67-10.45,3.43,11,2.12,10.59-4.95-10.12-7.16-8.71,5.27,11,4.05,11.72-5.79-5.41-7.58-4.33,6.64,8.15,5.88,7.91-6.26-2.31-6.64-1.22,11,6.21,12,9,18.5,31.07,24.29,31.68,33.71-14.12,36.21-19.68.8-11.81-2.88-13-29.84,13.66-31,13.28S969.05,585.54,969.05,585.54Z" transform="translate(2.19)"/><path class="cls-2" d="M964,578.11a6.43,6.43,0,0,0-1.41,2.44,7,7,0,0,0,.66,6A11.72,11.72,0,0,1,964,578.11Z" transform="translate(2.19)"/><path class="cls-18" d="M992.78,717.6c-3-1-8.43-6.5-8.43-6.5-7,5.37-21.37,22.13-21.37,22.13s2.68,1.88,5,.8,12.85-5.74,17.79-4c1.27.43,15.63,5.32,28.34,8.57,1.61-4.52-2.73-13.65-.61-17.94C1006.71,718.4,993.77,718,992.78,717.6Z" transform="translate(2.19)"/><path class="cls-23" d="M989.29,715.48s-12.47,12.76-13.7,15-16.47,8.19-17.27,5.84,18.45-27.73,21.46-28.67S989.29,715.48,989.29,715.48Z" transform="translate(2.19)"/><path class="cls-18" d="M1070.13,754.7c-1,2.92-6.69,8.19-6.69,8.19,5.65,6.64,23.21,20.39,23.21,20.39s1.89-2.64.8-4.85-6.73-15.92-5-20.67c.43-1.27,3.72-10.5,6.78-15.73a122.1,122.1,0,0,1-13.84-5.69C1073.19,742.88,1070.46,753.76,1070.13,754.7Z" transform="translate(2.19)"/><path class="cls-22" d="M1068.15,655.79s32.49,32.06,35.83,38.27c2.45,4.62-12.52,52.17-12.52,52.17s-14.13-1.09-20-6.78c0,0,7.48-33.15,5.93-34.65s-38.65-23-38.65-23l4.56-19.63Z" transform="translate(2.19)"/><path class="cls-3" d="M1061,654.94s-8.48,19.68-8.48,27.4c0,5.84,2.59,53-9.79,57.53-7.06,2.54-40.25-1.22-40.25-1.22l3-21.33s15.82,2.31,17.18,1-12.66-36.87-9.7-49.06,27.26-19.63,27.26-19.63Z" transform="translate(2.19)"/><path class="cls-24" d="M1071.54,563.46s4,1.23,16.15,17.75l-19.59,31-11.91-28.76Z" transform="translate(2.19)"/><path class="cls-24" d="M1043,583.71s10.78-1.23,14.69-2.64,29.42,82.86,20.48,84.74l-67.09,14.69s-.85-4.8,1.79-13.13c4.52-14.41,7.06-47.32,7.06-53.15,0-3.39-17.65,8.42-17.65,8.42l-7.44-26.79s22.6-9,30.51-10.68C1027.57,584.74,1043,583.71,1043,583.71Z" transform="translate(2.19)"/><path class="cls-19" d="M1076.67,637.8c-2.87-13.74-27-55-27.21-55.41l4.94-2.68c.85,1.64,20.44,36.53,23.45,51.08Z" transform="translate(2.19)"/><path class="cls-23" d="M1068.2,757.81s14.08,12.8,16.62,14.07,6.87,16.2,4.23,17-28.76-18-29.84-21.14S1068.2,757.81,1068.2,757.81Z" transform="translate(2.19)"/><path class="cls-19" d="M1012.69,655.88l-2.54-4c.19-.14,21.56-13.79,24-31.21s-10-36.06-10.12-36.25l4-2.69c.57.8,13.56,20.15,10.88,39.6S1013.63,655.27,1012.69,655.88Z" transform="translate(2.19)"/><path class="cls-15" d="M1043.29,527.36s8.57-3.06,14.08,5.55,2.54,7.86,5.23,12.19,9.69,3.44,9.69,10.17-3.1,7.72-3.1,7.72a11.51,11.51,0,0,1-.33,10.64c-3.16,5.42-10.92,10-17.47,9.23,0,0-9.84,5.42-19.68,2.87s-6.45-2.54-10.45-2.54-14.92-5.55-13.13-13.61c0,0-6.64-7.9-.19-14.31s7.62-13,11.39-21.65S1038.82,525.28,1043.29,527.36Z" transform="translate(2.19)"/><path class="cls-18" d="M1049,573.45s-.38,11.91.75,13,2.68,3,1,5.79-8.81,1-12.1-.62a16,16,0,0,1-5.28-4.42l1.7-18.83Z" transform="translate(2.19)"/><path class="cls-22" d="M1044.28,578.39a16.58,16.58,0,0,1-9.37-7.35l.24-2.63,13.89,5s-.1,2.91,0,6A14.74,14.74,0,0,1,1044.28,578.39Z" transform="translate(2.19)"/><path class="cls-18" d="M1032.7,554.94s-.33-7-4.66-5.65-1,11.91,2.54,11.59S1032.7,554.94,1032.7,554.94Z" transform="translate(2.19)"/><path class="cls-18" d="M1046.17,532.11s6.73-.14,10.16,5.08,7.16,20.15,1.51,30.46-12.95,7.77-15.91,6.69-8.9-3.34-11.87-13S1029.22,530.09,1046.17,532.11Z" transform="translate(2.19)"/><path class="cls-25" d="M1270.59,552.17a1.27,1.27,0,0,0,1.17,1.36h0a1.22,1.22,0,0,0,1.4-1s0-.07,0-.11a1.22,1.22,0,0,0-1.07-1.36H1272a1.23,1.23,0,0,0-1.4,1S1270.59,552.13,1270.59,552.17Z" transform="translate(2.19)"/><path class="cls-25" d="M1259.34,551.84a1.21,1.21,0,0,0,1.07,1.35h.11a1.27,1.27,0,1,0-1.18-1.36Z" transform="translate(2.19)"/><path class="cls-3" d="M1269.27,549.53a9.25,9.25,0,0,1,1.93-.42,5.68,5.68,0,0,1,1.84,0,7.47,7.47,0,0,1,1.74.47l.19.09.23.14.43.19.85.52a4.51,4.51,0,0,0-.57-.85,5.58,5.58,0,0,0-.75-.71,5,5,0,0,0-2-.8,4.78,4.78,0,0,0-2.12.24A4,4,0,0,0,1269.27,549.53Z" transform="translate(2.19)"/><path class="cls-3" d="M1264,549.29a4,4,0,0,0-1.65-1.27,4.51,4.51,0,0,0-2.12-.37,3.63,3.63,0,0,0-2,.61,3.89,3.89,0,0,0-.85.61,6.38,6.38,0,0,0-.66.8l.9-.42.47-.19.23-.1h.19a6.49,6.49,0,0,1,1.79-.37,6,6,0,0,1,1.84.14A18.35,18.35,0,0,1,1264,549.29Z" transform="translate(2.19)"/><path class="cls-26" d="M1264.71,552.31a10.41,10.41,0,0,1,.18,2.73,6.9,6.9,0,0,1-.23,1.36,4,4,0,0,1-.66,1.37l-.19.14-.14.14c-.05.05-.14.09-.19.19a.87.87,0,0,0-.23.42,1.16,1.16,0,0,0,.18.94,4.33,4.33,0,0,0,2.17,1.42,3.46,3.46,0,0,1-2.73-1,1.77,1.77,0,0,1-.42-1.56.71.71,0,0,1,.14-.42,2.14,2.14,0,0,1,.23-.38l.29-.28.09-.09.09-.1a3.47,3.47,0,0,0,.57-1,8.57,8.57,0,0,0,.33-1.23C1264.38,554.05,1264.52,553.2,1264.71,552.31Z" transform="translate(2.19)"/><path class="cls-27" d="M1260.75,563.46c.42,1.56,2.36,2.69,4.62,2.64s4.14-1.22,4.56-2.82Z" transform="translate(2.19)"/><path class="cls-2" d="M563.7,134.34c0,1.79-8.19,3.25-18.36,3.25S527,136.13,527,134.34s8.19-3.25,18.36-3.25S563.7,132.55,563.7,134.34Z" transform="translate(2.19)"/><path class="cls-3" d="M545.34,76.86c-8.38,0-15.16,6.07-15.16,13.51s15.16,44,15.16,44,15.16-36.49,15.16-44S553.72,76.86,545.34,76.86Zm0,21.37a6.45,6.45,0,1,1,6.4-6.5v.1A6.4,6.4,0,0,1,545.34,98.23Z" transform="translate(2.19)"/><path class="cls-18" d="M838.69,536.3c-2.83-2.45-5-10.07-4.43-10.64s3.35-.19,4.15.14l2.68.9a1.68,1.68,0,0,0,2.21-1c.47-1-2.54-3-3.76-3.48-3.68-1.46-14.41-3.44-15.54-3.72s-16.57-18.88-22.32-24.86h0c-9.08-10-17.93-20.76-18.92-21.85L757.85,419.4l-22.73,1.7s26.83,58.47,28.52,61.25c.81,1.32,23.69,22.93,23.69,22.93,11.95,9.88,22.5,18.64,24.48,20.33,0,0,2.07,7.77,4.7,12.24C818.21,540.73,838.17,536.68,838.69,536.3Z" transform="translate(2.19)"/><path class="cls-3" d="M746.93,378.92s17.56-3.11,26.27,60.63l-29.8,8.34L731,414.18Z" transform="translate(2.19)"/><path class="cls-22" d="M781.82,586.91V620a11.57,11.57,0,0,0,11.58,11.58h72.45A11.57,11.57,0,0,0,877.43,620V586.91Z" transform="translate(2.19)"/><path class="cls-2" d="M873.48,623.16l3.95-3.11v-2.16l-5.32,4.19-5.69-4.43,5.65-4.47,5.36,4.19V615.2l-4-3.1,4-3.16v-2.12L872.07,611l-5.7-4.42,5.7-4.47,5.36,4.19v-2.12l-4-3.16,4-3.15v-2.12L872,600l-5.65-4.47L872,591.1l5.41,4.19v-2.12l-4-3.15,4-3.11h-2.73l-2.59,2-2.64-2h-2.73l4,3.11-5.7,4.47L859.31,590l4-3.11h-2.68L857.94,589l-2.68-2.07h-2.73l4.05,3.15-5.7,4.43-5.69-4.43,4-3.15H846.5L843.82,589l-2.68-2.07h-2.73l4.05,3.15-5.65,4.48-5.7-4.43,4.09-3.2h-2.73L829.74,589,827,586.91h-2.77l4.14,3.2-5.65,4.47-5.7-4.42,4.1-3.25H818.4l-2.73,2.17-2.83-2.17h-2.73l4.19,3.25-5.69,4.47-5.7-4.47,4.19-3.25h-2.73l-2.83,2.21-2.82-2.21H796l4.19,3.25-5.65,4.47-5.7-4.42,4.24-3.3h-2.73l-2.87,2.21-2.87-2.21h-2.74l4.24,3.3-4.28,3.39v4.28l4.33,3.39-4.33,3.44v4.19l4.33,3.43-4.33,3.44V620l4.38,3.39-2.92,2.31.94,1.41,3.34-2.64,5.7,4.43-2.87,2.3a10.26,10.26,0,0,0,2.21.33l2-1.55,2,1.6h2.77L796,628.86l5.65-4.48,5.69,4.48-3.43,2.68h2.73l2.07-1.65,2.12,1.65h2.73l-3.49-2.68,5.7-4.48,5.65,4.43L818,631.54h2.69l2.12-1.65,2.16,1.65h2.73l-3.53-2.73,5.7-4.47,5.69,4.42L832,631.54h2.73l2.17-1.69,2.17,1.69h2.73l-3.54-2.78,5.65-4.47,5.7,4.43L846,631.54h2.73L851,629.8l2.21,1.74H856l-3.63-2.82,5.65-4.48,5.7,4.48-3.58,2.82h2.73l2.21-1.79,2.17,1.7a12.23,12.23,0,0,0,2.16-.47l-3-2.26,5.69-4.48,3.16,2.45a15.36,15.36,0,0,0,.89-1.46ZM870.7,612.1l-5.65,4.47-5.69-4.43,5.65-4.47Zm-74.76-5.32,5.65-4.48,5.7,4.43-5.65,4.47Zm4.33,5.51-5.69,4.47-5.7-4.43,5.7-4.47Zm8.38-4.48,5.7,4.43-5.7,4.47L803,612.29Zm1.37-1.08,5.65-4.47,5.69,4.42-5.65,4.48Zm12.71,1,5.7,4.42-5.65,4.47-5.7-4.42Zm1.36-1.09,5.7-4.47,5.7,4.47-5.7,4.48Zm12.76,1,5.65,4.47-5.65,4.47-5.69-4.47Zm1.37-1,5.65-4.47,5.69,4.43-5.69,4.47Zm12.71,1,5.7,4.42-5.7,4.48-5.7-4.43Zm1.36-1.08,5.65-4.48,5.7,4.43L858,611.06Zm12.72-10,5.65,4.47L865,605.51l-5.7-4.43Zm-7.07-5.51,5.7,4.47-5.7,4.43-5.69-4.43Zm-7.06,5.56,5.7,4.42-5.65,4.47-5.7-4.42Zm-7.06-5.51,5.7,4.42L843.87,600l-5.7-4.42Zm-7,5.55,5.69,4.43-5.69,4.47-5.65-4.43Zm-7.07-5.51,5.7,4.43-5.65,4.47-5.7-4.42Zm-7,5.51,5.7,4.47-5.7,4.48-5.7-4.48Zm-7.06-5.51,5.69,4.48-5.69,4.47-5.7-4.47Zm-7.06,5.56,5.69,4.42-5.65,4.48L803,601.22Zm-7-5.51,5.65,4.43-5.65,4.47-5.7-4.43Zm-7.06,5.56,5.7,4.42-5.65,4.47-5.7-4.42Zm-12.71-1,5.65-4.47,5.69,4.42-5.65,4.48Zm0,11.06,5.69-4.47,5.7,4.43-5.7,4.47Zm5.74,15.49-5.7-4.47,5.65-4.47,5.7,4.47Zm7.06,5.51-5.69-4.47,5.65-4.47,5.69,4.47Zm7-5.55-5.7-4.43,5.7-4.47,5.69,4.42Zm7.06,5.5-5.7-4.42,5.7-4.47,5.65,4.42Zm7-5.55-5.65-4.43,5.65-4.47,5.7,4.43Zm7.07,5.51-5.7-4.43,5.7-4.47,5.69,4.42Zm7.06-5.56-5.7-4.42,5.65-4.48,5.7,4.43Zm7.06,5.51-5.7-4.43,5.65-4.47,5.7,4.43Zm7-5.51-5.69-4.47,5.69-4.47,5.65,4.47Zm7.07,5.51-5.7-4.47,5.65-4.47,5.7,4.47Zm7-5.56-5.7-4.42,5.7-4.47,5.7,4.42Zm7.06,5.51-5.69-4.42,5.69-4.47,5.7,4.42Z" transform="translate(2.19)"/><rect class="cls-3" x="777.13" y="572.69" width="106.59" height="14.18" rx="2.35"/><polygon class="cls-5" points="811.08 572.69 833.01 595.57 850.81 572.69 811.08 572.69"/><path class="cls-22" d="M855.64,583.28h0a3.57,3.57,0,0,1-3.58-3.57v-16.1c0-14-10.12-28.16-23.3-28.16l-5-.09c-13.18,0-22,14.22-22,28.25v16.1a3.57,3.57,0,0,1-3.58,3.57h0a3.57,3.57,0,0,1-3.58-3.57v-16.1c0-17.94,13.89-32.58,31-32.58h2.54c17.09,0,31,14.64,31,32.58v16.1a3.58,3.58,0,0,1-3.58,3.57Z" transform="translate(2.19)"/><path class="cls-5" d="M857.8,579.8a2.07,2.07,0,1,1-2.11-2h.09a2,2,0,0,1,2,2Z" transform="translate(2.19)"/><path class="cls-5" d="M800.41,578.11a2,2,0,1,1-2-2,2,2,0,0,1,2,2Z" transform="translate(2.19)"/><path class="cls-17" d="M815.48,529.43s-1.84,11.72,3.67,13,18.17-3.53,17-5.56-12.81-11-14.55-9.27S817.88,527.92,815.48,529.43Z" transform="translate(2.19)"/><path class="cls-15" d="M765.81,324.16c-3.39-22-23.3-37.85-44.16-27.16-4.71,2.4-11.06,7.25-14.26,11.44-8.9,11.39-11.07,25.56-20.53,36.58-8.15,9.46-29.85,7.67-40,15s-17.28,20.34-17.28,36c0,17.46,4,36,17.51,47.08s32.77,13.79,49.63,9.13S728,436,738.41,422a151.69,151.69,0,0,0,22.93-46.14C767.13,357.16,768,338.38,765.81,324.16Z" transform="translate(2.19)"/><path class="cls-4" d="M758.23,387.81c-10.87-24.24-47.13-27-70.19-13.84-6.88,3.91-8.1,3.63-12.39,8-11.25,11.25-27.73,126.69,6.64,134s63.65,4,75-13.88C764.87,490.12,774.94,425.05,758.23,387.81Z" transform="translate(2.19)"/><path class="cls-17" d="M760.11,746.74s1.75,19.12.57,25.38a20.61,20.61,0,0,1-.9,3.06c-1.17,3.48,2.08,14.17,2.08,14.17l43.64.14c2.35,0,.75-1.46-1.18-2.87-3.15-2.26-5.7-3.72-15.77-8.48-.66-.28-3.06-1.74-3.91-2.26a29.45,29.45,0,0,1-6.31-5.46c-3.2-3.43-3.67-20.29-3.67-20.29Z" transform="translate(2.19)"/><path class="cls-14" d="M784.64,775.88c-11.53,3.06-20,1.18-24.86-.7-1.17,3.53-3.43,15.35-2.07,15.35,10.93,0,20.2,2,51.51,1.55,1.13,0,1-3.86.28-4.71C807.48,785,785.49,776.36,784.64,775.88Z" transform="translate(2.19)"/><path class="cls-15" d="M705.41,519.54s.61,27.31,8.43,44.82,44.11,59,53.81,83.56c-3,13.85-11.21,33.29-10.64,48.64.7,17.37-.33,63.36-.33,63.36l19.58.62L802,641.9,763.22,513.84l-17.56-31.07Z" transform="translate(2.19)"/><path class="cls-17" d="M621.75,719.53s-12,16.48-17.37,20.67c-2.83,2.26-10.55,5.22-11.35,8.94S628,785.54,628,785.54c1.89,1.64,1.65-.66,1.09-3.11-.95-4-1.93-7-6.69-17.84-.28-.71-1.18-3.58-1.51-4.57a32.92,32.92,0,0,1-1.22-8.76c-.09-5,11.35-18.78,11.35-18.78Z" transform="translate(2.19)"/><path class="cls-14" d="M620.85,760c-11.34-5.6-16.85-13.14-19.34-18-3.39,2-12.57,6.12-11.77,7.29,6.35,9.18,12.9,20.58,38.27,42.18.9.76,4.61-3.67,4.61-4.89C632.67,783.32,621.18,761,620.85,760Z" transform="translate(2.19)"/><path class="cls-18" d="M689.54,354.06s-25.61-45.67-31.82-55.41-22.46-48.26-23-49.77,11.15-19.77,8.56-20.43-5.55,9.65-8.33,8.43-11-25.9-12.57-24.67c-3,2.26,4.38,15.3,2.83,16.1s-6.41-14.31-9.56-13.89,5.93,13.89,5.08,15.07-10.26-11.44-12-8.76c-.9,1.46,8.66,11.06,6.82,12s-10.35-5.32-11.25-3.53,7.86,4.23,10.5,9,7.11,6.92,9,15.81,4.61,41.1,14.12,57.21,30.46,51.64,30.46,51.64Z" transform="translate(2.19)"/><path class="cls-13" d="M706.77,502S691.61,524.77,688,543.6s2.3,73.68-3.77,99.38c-10.4,9.61-28.29,20.81-36.58,33.71-9.42,14.64-36.58,51.74-36.58,51.74l15.68,11.72,89-82.53,36.07-110.07,12.38-32.2Z" transform="translate(2.19)"/><path class="cls-3" d="M719,372.61s-20-1.27-28,7.39,17.61,76.88,19,87.85-11.82,32.86-11.82,32.86,55.18,25.8,68.64,16.9c0,0-2.16-88-3.57-95.85S749.85,382,746.93,378.92,719,372.61,719,372.61Z" transform="translate(2.19)"/><path class="cls-18" d="M725.7,345.91l-.28,1.56c-.9,4.8-4.33,20.76-6.64,25.18-2.83,5.28,9.6,22.18,21.56,20.15,3.58-.61-3-15.53-2.68-17.13.61-3,1.41-7.16,2.26-11.4.47-2.4.94-4.8,1.41-7.06l2.31-11.77Z" transform="translate(2.19)"/><path class="cls-3" d="M725.42,347.47l.28-1.56,17.94-.47-2.31,11.77c-.47,2.26-.94,4.66-1.41,7a16.62,16.62,0,0,1-8.57-4.29,22.69,22.69,0,0,1-6.5-9.6C725.09,349.21,725.28,348.22,725.42,347.47Z" transform="translate(2.19)"/><path class="cls-18" d="M737.8,305.24s-8.48-1-13.8,5.83-11,28,2.17,39.5,26.18-1.55,28.11-15.34S757,304.72,737.8,305.24Z" transform="translate(2.19)"/><path class="cls-18" d="M758.18,335c-1.6,3.06-4.23,4.75-5.93,3.76s-1.74-4.19-.19-7.25,4.24-4.75,5.89-3.76S759.74,332,758.18,335Z" transform="translate(2.19)"/><path class="cls-15" d="M738.74,303s-11.3,20.1-19.4,21-9.13,11.63-9.13,11.63,2.87-24.62,10.88-29.37S738.74,303,738.74,303Z" transform="translate(2.19)"/><path class="cls-18" d="M721.46,329.06c.66,3.58-.66,6.83-2.92,7.3s-4.7-2-5.36-5.61.66-6.87,3-7.34S720.8,325.48,721.46,329.06Z" transform="translate(2.19)"/><path class="cls-22" d="M682.43,339.23s28.3,30.36,32.54,42.6-4.1,29.76-15.59,30.56-37-53.91-37-53.91Z" transform="translate(2.19)"/><path class="cls-4" d="M715.44,367.38c12.47,16.67,18.17,43.17,9.74,68.74-3.44,10.07-7.39,19.86-14.83,30-9.41,12.52-16.81,15.81-16.15,15.44l-2.77-5.42a36.16,36.16,0,0,0,8.19-6.54c.28-.33,10.4-9.7,17.32-28.25,16.29-41.29-6.49-67.51-6.92-68.5-.14-.19-.28-.94-.37-1Z" transform="translate(2.19)"/><path class="cls-4" d="M765.53,469.31c-3.77-49.95-24.48-92.75-24.72-93l5.65-.47c.24.33,6.36,3.62,12.1,17.46a137.11,137.11,0,0,1,10.22,52.31C768.82,450.33,765.53,469.31,765.53,469.31Z" transform="translate(2.19)"/><path class="cls-28" d="M905.59,218.23a42,42,0,1,1,59,7.56l0,0A42,42,0,0,1,905.59,218.23Zm71.28-55a48,48,0,1,0-44.12,77C975.12,245.59,1002.85,196.81,976.87,163.2Z" transform="translate(2.19)"/><path class="cls-27" d="M905.59,218.23a42,42,0,1,1,59,7.56l0,0A42,42,0,0,1,905.59,218.23Z" transform="translate(2.19)"/><path class="cls-28" d="M938.83,164.24c-8.15.14-14.69,6.49-14.55,14.21s14.78,24.06,14.78,24.06,15-16.9,14.83-24.57S947,164.09,938.83,164.24Zm.33,19.53a5.59,5.59,0,1,1,5.83-5.69A5.74,5.74,0,0,1,939.16,183.77Z" transform="translate(2.19)"/><path class="cls-28" d="M927.76,214h1.84l.14.94h0c1-1.6,3.39-1.5,4.05,0h0c1.37-2,4.62-1.79,4.66,1.79l.1,4.14h-2.17V217c-.05-1-.38-1.65-1.08-1.6s-1.08.47-1.08,1.32l.09,4.14h-2.17v-4c0-.9-.33-1.51-1-1.51a1.18,1.18,0,0,0-1.1,1.25s0,.08,0,.12v4.14H928C927.86,216.54,927.9,216.12,927.76,214Z" transform="translate(2.19)"/><path class="cls-28" d="M941.32,212.87a1.11,1.11,0,1,1-.05-2.21,1.13,1.13,0,1,1,.51,2.2A1.19,1.19,0,0,1,941.32,212.87Zm-.94,7.95-.14-7.06h2.21l.09,7.06Z" transform="translate(2.19)"/><path class="cls-28" d="M944.15,213.67H946l.14,1h.05c1.08-1.75,4.66-1.89,4.75,1.83v4.19h-2.12l-.09-4c0-.9-.33-1.51-1.13-1.51a1.27,1.27,0,0,0-1.18,1.36v4.1h-2.16C944.24,216.26,944.29,215.83,944.15,213.67Z" transform="translate(2.19)"/><path class="cls-28" d="M956.24,338.71a42,42,0,1,1,41.38,42.7h0A42.09,42.09,0,0,1,956.24,338.71Zm90.07,1.51a48,48,0,1,0-82.53,32.58C993.48,403.54,1045.6,382.68,1046.31,340.22Z" transform="translate(2.19)"/><path class="cls-27" d="M956.24,338.71a42,42,0,1,1,41.38,42.7h0A42.09,42.09,0,0,1,956.24,338.71Z" transform="translate(2.19)"/><path class="cls-28" d="M1000,372.32h0a2,2,0,0,1-2-2h0V308.53a2,2,0,0,1,2-2h0a2,2,0,0,1,2,2h0V370.3a2,2,0,0,1-2,2Z" transform="translate(2.19)"/><path class="cls-28" d="M1010.29,330.19H980.21a1.17,1.17,0,0,1-.76-.28l-8.52-6.41a1.26,1.26,0,0,1-.28-1.77,1.14,1.14,0,0,1,.24-.25l8.52-7.2a1.38,1.38,0,0,1,.85-.33h30a1.36,1.36,0,0,1,1.32,1.31v13.61A1.32,1.32,0,0,1,1010.29,330.19Z" transform="translate(2.19)"/><path class="cls-28" d="M991,349h30.08a1.07,1.07,0,0,0,.76-.28l8.56-6.45a1.32,1.32,0,0,0,.22-1.85,1.45,1.45,0,0,0-.17-.18l-8.57-7.15a1.07,1.07,0,0,0-.84-.33H991a1.27,1.27,0,0,0-1.27,1.27V347.7A1.32,1.32,0,0,0,991,349Z" transform="translate(2.19)"/><polygon class="cls-29" points="994.07 346.86 994.07 334.94 1022.93 334.94 1030.42 341.25 1022.98 346.86 994.07 346.86"/><path class="cls-28" d="M417.8,149.83a42,42,0,1,1,41.37,42.7h0A42.09,42.09,0,0,1,417.8,149.83Zm90,1.46a48,48,0,1,0-82.53,32.62C455,214.61,507.11,193.8,507.82,151.29Z" transform="translate(2.19)"/><circle class="cls-27" cx="459.47" cy="150.24" r="42.04" transform="matrix(0.37, -0.93, 0.93, 0.37, 152.71, 522.05)"/><path class="cls-28" d="M447.42,178.78h0a1.59,1.59,0,0,1-1.6-1.6h0V127.89a1.64,1.64,0,0,1,1.6-1.65h0a1.65,1.65,0,0,1,1.6,1.65v49.29a1.6,1.6,0,0,1-1.6,1.6Z" transform="translate(2.19)"/><path class="cls-28" d="M473.12,178.78h0a1.6,1.6,0,0,1-1.6-1.6h0V127.89a1.65,1.65,0,0,1,1.6-1.65h0a1.65,1.65,0,0,1,1.6,1.65v49.29a1.6,1.6,0,0,1-1.6,1.6Z" transform="translate(2.19)"/><path class="cls-28" d="M456,135.38c0,6.68-4,12.1-9,12.1s-9-5.42-9-12.1,4-12.1,9-12.1S456,128.69,456,135.38Z" transform="translate(2.19)"/><path class="cls-28" d="M480.89,124.5h-2.07a.71.71,0,0,0-.71.71v13.37a.7.7,0,0,1-.66.7H475.8a.7.7,0,0,1-.7-.7h0V125.21a.71.71,0,0,0-.71-.71h-2.73a.7.7,0,0,0-.7.71v13.37a.7.7,0,0,1-.71.7H468.6a.7.7,0,0,1-.66-.7V125.21a.7.7,0,0,0-.7-.71H465a.65.65,0,0,0-.66.66v16.43a8.66,8.66,0,1,0,17.28,1.28,9.11,9.11,0,0,0,0-1.28V125.21A.71.71,0,0,0,480.89,124.5Z" transform="translate(2.19)"/><path class="cls-28" d="M791.09,156.23a42,42,0,1,1,50.53-31.34v0A42.07,42.07,0,0,1,791.09,156.23Zm20.53-87.66A48,48,0,1,0,826,156.14C862.32,133.59,853,78.27,811.62,68.57Z" transform="translate(2.19)"/><circle class="cls-27" cx="800.69" cy="115.34" r="42.04" transform="translate(155.15 599.95) rotate(-45)"/><path class="cls-28" d="M787.94,135.66h0l-2,1-.47-1.84,2.83-1.36h2.07l.19,10.68h-2.45Z" transform="translate(2.19)"/><path class="cls-28" d="M800.08,139.24h0c.62-1.09,1-1.56,2.17-3.39h3l-2.82,3.29,3.34,4.71h-3.06l-2-3.25-.66.8v2.5h-2.49l-.19-11.68h2.5Z" transform="translate(2.19)"/><path class="cls-28" d="M806.49,135.75h2.12l.14,1.09h0c1.18-1.79,3.91-1.7,4.62,0h0a2.94,2.94,0,0,1,2.55-1.41c1.55-.05,2.73,1,2.77,3.44l.1,4.7h-2.45l-.09-4.37c0-1.18-.38-1.84-1.18-1.79s-1.27.56-1.22,1.5v4.71h-2.41l-.09-4.52c0-2.49-2.45-1.93-2.4-.14v4.71h-2.4C806.58,138.67,806.68,138.2,806.49,135.75Z" transform="translate(2.19)"/><path class="cls-28" d="M785.35,102.89h33.28v7.82A16.62,16.62,0,0,1,802,127.33h0a16.62,16.62,0,0,1-16.61-16.62h0v-7.82Z" transform="translate(2.19)"/><path class="cls-28" d="M819.9,118.71h-6a6.4,6.4,0,1,1-1.1-12.76,6.73,6.73,0,0,1,1.1,0h6a6.4,6.4,0,0,1,1.1,12.76A6.73,6.73,0,0,1,819.9,118.71Zm-6-10.55a4.15,4.15,0,0,0,0,8.29h6a4.15,4.15,0,1,0,0-8.29Z" transform="translate(2.19)"/><path class="cls-28" d="M797.73,81.89c.85,3.44-2.73,4.52-2.45,7,.24,3.58,3.72,3,4,7a3.66,3.66,0,0,1-1.22,2.92,5.82,5.82,0,0,0,.33-1.13,4.12,4.12,0,0,0-.85-3.21c-.75-.84-1.88-1.36-2.63-2.21a4.59,4.59,0,0,1-1.13-4.09,4.47,4.47,0,0,1,1.36-2.45c1.18-1.18,1.93-1.56,2.45-3.25Z" transform="translate(2.19)"/><path class="cls-28" d="M806.2,81.89c.9,3.44-2.68,4.52-2.4,7,.24,3.58,3.72,3,4,7a3.49,3.49,0,0,1-1.18,2.92,5.82,5.82,0,0,0,.33-1.13,4.12,4.12,0,0,0-.85-3.21c-.75-.84-1.88-1.36-2.63-2.21a4.72,4.72,0,0,1-1.18-4.09,4.9,4.9,0,0,1,1.41-2.45c1.13-1.18,1.93-1.56,2.45-3.25C806.16,82.27,806.16,82.08,806.2,81.89Z" transform="translate(2.19)"/><path class="cls-28" d="M665.06,141.78a42,42,0,1,1,10.57-58.51l0,0A42,42,0,0,1,665.06,141.78Zm-51.36-74a48,48,0,1,0,74.67,48C696,73.7,648.63,43.57,613.7,67.82Z" transform="translate(2.19)"/><circle class="cls-27" cx="641.13" cy="107.02" r="42.04" transform="translate(-6.56 119.76) rotate(-10.6)"/><path class="cls-28" d="M623.82,86S612.66,113.15,608,119.65h69.26S661.91,93.52,660.73,86Z" transform="translate(2.19)"/><path class="cls-27" d="M660.78,86.23c-.94,2.91-2,5.83-3.11,8.71-.56,1.45-1.18,2.87-1.74,4.28s-1.23,2.87-1.88,4.24c-1.28,2.82-2.59,5.6-4.1,8.33-.71,1.36-1.46,2.73-2.31,4a10.13,10.13,0,0,1-.61,1,6.64,6.64,0,0,1-.66.94,17.39,17.39,0,0,1-1.41,1.88l.56-1,.29-.52.23-.52c.19-.33.33-.71.52-1s.33-.7.52-1,.66-1.37.94-2.07l1-2.12,3.76-8.43,1.93-4.19c.66-1.41,1.28-2.82,1.93-4.19C658,91.73,659.32,89,660.78,86.23Z" transform="translate(2.19)"/><path class="cls-28" d="M607.34,119.6h1.56a.71.71,0,0,0-.1-.32l-2.4-3.87a.76.76,0,0,0-1-.23.71.71,0,0,0-.19,1h0Z" transform="translate(2.19)"/><path class="cls-28" d="M677.21,119.6h-1.56a.71.71,0,0,1,.1-.32l2.4-3.87a.72.72,0,1,1,1.22.76Z" transform="translate(2.19)"/><path class="cls-25" d="M732.67,328.54a1.74,1.74,0,0,1-1.54,1.93h0a1.78,1.78,0,0,1-2-1.41,1.74,1.74,0,0,1,1.53-1.93h0A1.79,1.79,0,0,1,732.67,328.54Z" transform="translate(2.19)"/><path class="cls-25" d="M748.06,327.41a1.69,1.69,0,0,1-1.43,1.92h-.07a1.79,1.79,0,0,1-2-1.46,1.65,1.65,0,0,1,1.39-1.87H746a1.74,1.74,0,0,1,2,1.4Z" transform="translate(2.19)"/><path class="cls-30" d="M734.27,324.92a18.16,18.16,0,0,0-2.64-.43,8.66,8.66,0,0,0-2.49.1,10.26,10.26,0,0,0-2.36.8l-.33.14-.28.14-.56.33-1.13.75a6.12,6.12,0,0,1,.7-1.18,6.9,6.9,0,0,1,1-1,5.69,5.69,0,0,1,2.68-1.18,6.14,6.14,0,0,1,2.92.14A5.48,5.48,0,0,1,734.27,324.92Z" transform="translate(2.19)"/><path class="cls-30" d="M741.52,324.3a5.27,5.27,0,0,1,2.12-1.79,6.59,6.59,0,0,1,2.87-.65,6,6,0,0,1,2.87.7,7,7,0,0,1,1.18.76,6.57,6.57,0,0,1,.94,1c-.47-.14-.85-.38-1.27-.52l-.61-.19-.33-.14H749a7.48,7.48,0,0,0-2.49-.37,8.86,8.86,0,0,0-2.5.33A13.77,13.77,0,0,0,741.52,324.3Z" transform="translate(2.19)"/><path class="cls-26" d="M738.69,324.4a10.48,10.48,0,0,0,0,3.62,8.23,8.23,0,0,0,.37,1.84,5.46,5.46,0,0,0,1,1.79l.23.19.19.18.28.24a1.11,1.11,0,0,1,.33.52,1.51,1.51,0,0,1-.18,1.32,5.6,5.6,0,0,1-2.83,2,4.63,4.63,0,0,0,3.63-1.5,2.43,2.43,0,0,0,.51-2.07,2.35,2.35,0,0,0-.23-.57,1.9,1.9,0,0,0-.33-.47l-.42-.38-.19-.14-.1-.09a5.38,5.38,0,0,1-.84-1.32,16.07,16.07,0,0,1-.57-1.65Z" transform="translate(2.19)"/><path class="cls-26" d="M730.74,335.6a9.42,9.42,0,0,0,3.43,3.63,8.69,8.69,0,0,0,2.4.94,22.64,22.64,0,0,0,2.59.33l-1.31.19c-.48,0-1,0-1.42,0a6.64,6.64,0,0,1-2.63-.9,6,6,0,0,1-2-1.79A6.07,6.07,0,0,1,730.74,335.6Z" transform="translate(2.19)"/><path class="cls-25" d="M469.73,283.2a1.31,1.31,0,0,1-1.4,1.23h-.06A1.33,1.33,0,0,1,467,283s0,0,0-.06a1.36,1.36,0,0,1,1.66-1A1.34,1.34,0,0,1,469.73,283.2Z" transform="translate(2.19)"/><path class="cls-25" d="M481.22,279.72a1.36,1.36,0,1,1-2.72.21,1.15,1.15,0,0,1,0-.45,1.36,1.36,0,0,1,1.45-1.22A1.42,1.42,0,0,1,481.22,279.72Z" transform="translate(2.19)"/><path class="cls-31" d="M471.57,280.66a17.63,17.63,0,0,0-1.84-.8,6.69,6.69,0,0,0-1.88-.33,6,6,0,0,0-1.84.19h-.23l-.24.09-.47.15-1,.37a3.84,3.84,0,0,1,.76-.8,5.8,5.8,0,0,1,.89-.56,4.67,4.67,0,0,1,2.17-.47,4.86,4.86,0,0,1,2.16.66A4.1,4.1,0,0,1,471.57,280.66Z" transform="translate(2.19)"/><path class="cls-31" d="M476.18,279.16a4.53,4.53,0,0,1,.61-2,4.38,4.38,0,0,1,1.6-1.6,4.7,4.7,0,0,1,2.12-.66,4.42,4.42,0,0,1,1.09.09,4.26,4.26,0,0,1,1,.33l-1,.15-.52.09h-.47a6.47,6.47,0,0,0-1.75.75,8.6,8.6,0,0,0-1.45,1.18A13.89,13.89,0,0,0,476.18,279.16Z" transform="translate(2.19)"/><path class="cls-26" d="M475.62,284.05a9.81,9.81,0,0,0,.61,2.83,8.53,8.53,0,0,0,.66,1.36,3.7,3.7,0,0,0,1.08,1.18l.19.09.19.1.23.14a.84.84,0,0,1,.33.37,1.4,1.4,0,0,1,.14,1,4.13,4.13,0,0,1-1.74,2,3.29,3.29,0,0,0,2.4-1.78,2,2,0,0,0,0-1.7l-.28-.38a2.57,2.57,0,0,0-.33-.33l-.38-.23h-.28a9,9,0,0,1-.85-.9l-.7-1.17Z" transform="translate(2.19)"/><path class="cls-26" d="M474,297.28a7.62,7.62,0,0,0,3.34,2,6,6,0,0,0,1.88.19,9.6,9.6,0,0,0,2-.37,4.28,4.28,0,0,1-.9.47,3.66,3.66,0,0,1-1,.28,4.39,4.39,0,0,1-2.07-.05,5.16,5.16,0,0,1-1.89-.94A4.62,4.62,0,0,1,474,297.28Z" transform="translate(2.19)"/><path class="cls-25" d="M1045.37,550.94a1,1,0,1,1-2-.05c0-.7.47-1.27,1-1.22A1.25,1.25,0,0,1,1045.37,550.94Z" transform="translate(2.19)"/><path class="cls-25" d="M1054.69,550.94a1.14,1.14,0,0,1-1,1.27,1.23,1.23,0,0,1-1-1.32,1.1,1.1,0,0,1,1-1.22A1.14,1.14,0,0,1,1054.69,550.94Z" transform="translate(2.19)"/><path class="cls-15" d="M1047.11,547.69a8.24,8.24,0,0,0-1.37-.66,5.2,5.2,0,0,0-1.41-.23,3.87,3.87,0,0,0-1.37.33h-.14l-.19.09-.32.19-.71.38a4.27,4.27,0,0,1,.52-.76,2,2,0,0,1,.66-.61,2.31,2.31,0,0,1,1.55-.56,2.83,2.83,0,0,1,1.6.47A3.68,3.68,0,0,1,1047.11,547.69Z" transform="translate(2.19)"/><path class="cls-15" d="M1051,547.18a3,3,0,0,1,1.32-1.09,3.23,3.23,0,0,1,1.6-.14,2.94,2.94,0,0,1,1.51.9,4.2,4.2,0,0,1,.56.7,3.4,3.4,0,0,1,.43.85l-.66-.52-.28-.23-.19-.1-.14-.09a3.18,3.18,0,0,0-1.32-.57,3.53,3.53,0,0,0-1.41-.09A7.84,7.84,0,0,0,1051,547.18Z" transform="translate(2.19)"/><path class="cls-26" d="M1051,550a10.84,10.84,0,0,0,0,2.73,9.25,9.25,0,0,0,.28,1.37,4,4,0,0,0,.62,1.36l.09.14.14.14.14.15a1.76,1.76,0,0,1,.24.42,1.47,1.47,0,0,1-.1,1,2.67,2.67,0,0,1-1.5,1.36,2.07,2.07,0,0,0,2.26-1.86,2.21,2.21,0,0,0,0-.68l-.14-.38-.19-.37-.28-.29-.1-.14h0a5,5,0,0,1-.52-1,8.57,8.57,0,0,1-.33-1.23Z" transform="translate(2.19)"/><path class="cls-27" d="M1054,560.83a3.25,3.25,0,0,1-3.72,2.12,3.92,3.92,0,0,1-3.15-3.35Z" transform="translate(2.19)"/></svg>