<svg id="圖層_1" data-name="圖層 1" xmlns="http://www.w3.org/2000/svg" xmlns:xlink="http://www.w3.org/1999/xlink" viewBox="0 0 1920 1080"><defs><style>.cls-1{fill:#617e5f;}.cls-2{fill:url(#未命名漸層_100);}.cls-3{fill:url(#未命名漸層_100-2);}.cls-4{fill:url(#未命名漸層_89);}.cls-5{fill:url(#未命名漸層_82);}.cls-6{fill:url(#未命名漸層_89-2);}.cls-7{fill:url(#未命名漸層_82-2);}.cls-8{fill:url(#未命名漸層_89-3);}.cls-9{fill:url(#未命名漸層_82-3);}.cls-10{fill:url(#未命名漸層_89-4);}.cls-11{fill:url(#未命名漸層_90);}.cls-12{fill:url(#未命名漸層_89-5);}.cls-13{fill:url(#未命名漸層_86);}.cls-14{fill:url(#未命名漸層_89-6);}.cls-15{fill:url(#未命名漸層_86-2);}.cls-16{fill:url(#未命名漸層_87);}.cls-17{fill:url(#未命名漸層_88);}.cls-18{fill:url(#未命名漸層_89-7);}.cls-19{fill:url(#未命名漸層_90-2);}.cls-20{fill:url(#未命名漸層_89-8);}.cls-21{fill:url(#未命名漸層_82-4);}.cls-22{fill:url(#未命名漸層_89-9);}.cls-23{fill:url(#未命名漸層_82-5);}.cls-24{fill:url(#未命名漸層_89-10);}.cls-25{fill:url(#未命名漸層_86-3);}.cls-26{fill:url(#未命名漸層_89-11);}.cls-27{fill:url(#未命名漸層_86-4);}.cls-28{fill:url(#未命名漸層_87-2);}.cls-29{fill:url(#未命名漸層_88-2);}.cls-30{fill:#b8dbaf;}.cls-31{fill:#82a285;}.cls-32{fill:url(#未命名漸層_89-12);}.cls-33{fill:url(#未命名漸層_90-3);}.cls-34{fill:#4a9d89;}.cls-35{fill:url(#未命名漸層_96);}.cls-36{fill:url(#未命名漸層_96-2);}.cls-37{fill:url(#未命名漸層_96-3);}.cls-38{fill:url(#未命名漸層_100-3);}.cls-39{fill:#1d2950;}.cls-40{fill:url(#未命名漸層_96-4);}.cls-41{fill:url(#未命名漸層_96-5);}.cls-42{fill:none;stroke:#1d2950;stroke-linecap:round;stroke-linejoin:round;stroke-width:0.53px;}.cls-43{fill:url(#未命名漸層_104);}.cls-44{fill:url(#未命名漸層_104-2);}.cls-45{fill:url(#未命名漸層_104-3);}.cls-46{fill:url(#未命名漸層_100-4);}.cls-47{fill:url(#未命名漸層_104-4);}.cls-48{fill:url(#未命名漸層_104-5);}.cls-49{fill:#124926;}.cls-50{fill:#1b3e20;}.cls-51{fill:#4f1c3d;}.cls-52{fill:#751d3c;}.cls-53{fill:#631c3d;}.cls-54{fill:url(#未命名漸層_104-6);}.cls-55{fill:url(#未命名漸層_104-7);}.cls-56{fill:url(#未命名漸層_105);}</style><linearGradient id="未命名漸層_100" x1="155.51" y1="1303.61" x2="236.11" y2="476.29" gradientTransform="matrix(1, 0, 0, -1, 0, 1082)" gradientUnits="userSpaceOnUse"><stop offset="0" stop-color="#fff"/><stop offset="1" stop-color="#fff" stop-opacity="0"/></linearGradient><linearGradient id="未命名漸層_100-2" x1="1626.07" y1="1394.21" x2="1717.17" y2="459.04" xlink:href="#未命名漸層_100"/><linearGradient id="未命名漸層_89" x1="1258.22" y1="429.63" x2="1261.96" y2="369.51" gradientTransform="translate(1298.8 1082) rotate(180)" gradientUnits="userSpaceOnUse"><stop offset="0" stop-color="#54435f"/><stop offset="1" stop-color="#39334f"/></linearGradient><linearGradient id="未命名漸層_82" x1="65.12" y1="290.36" x2="50.15" y2="524.67" gradientTransform="matrix(1, 0, 0, -1, 0, 1082)" gradientUnits="userSpaceOnUse"><stop offset="0" stop-color="#1b4543"/><stop offset="1" stop-color="#006258"/></linearGradient><linearGradient id="未命名漸層_89-2" x1="1146.77" y1="384.94" x2="1150.51" y2="324.82" xlink:href="#未命名漸層_89"/><linearGradient id="未命名漸層_82-2" x1="159.68" y1="244.59" x2="144.71" y2="478.9" xlink:href="#未命名漸層_82"/><linearGradient id="未命名漸層_89-3" x1="-490.02" y1="384.94" x2="-486.27" y2="324.82" xlink:href="#未命名漸層_89"/><linearGradient id="未命名漸層_82-3" x1="1796.49" y1="244.59" x2="1781.52" y2="478.9" xlink:href="#未命名漸層_82"/><linearGradient id="未命名漸層_89-4" x1="1420.94" y1="451.66" x2="1424.69" y2="391.54" gradientTransform="matrix(1, 0, 0, -1, -888.98, 1082)" xlink:href="#未命名漸層_89"/><linearGradient id="未命名漸層_90" x1="547.02" y1="254.83" x2="532.04" y2="489.14" gradientTransform="matrix(1, 0, 0, -1, 0, 1082)" gradientUnits="userSpaceOnUse"><stop offset="0" stop-color="#1d4942"/><stop offset="1" stop-color="#1a9171"/></linearGradient><linearGradient id="未命名漸層_89-5" x1="136.52" y1="464.47" x2="141.8" y2="379.62" gradientTransform="translate(409.82 1082) rotate(180)" xlink:href="#未命名漸層_89"/><linearGradient id="未命名漸層_86" x1="128.64" y1="979.27" x2="140.97" y2="392.62" gradientTransform="translate(409.82 1082) rotate(180)" gradientUnits="userSpaceOnUse"><stop offset="0" stop-color="#bcc64d"/><stop offset="1" stop-color="#12843d"/></linearGradient><linearGradient id="未命名漸層_89-6" x1="-309.52" y1="426.83" x2="-304.24" y2="341.97" gradientTransform="translate(409.82 1082) rotate(180)" xlink:href="#未命名漸層_89"/><linearGradient id="未命名漸層_86-2" x1="-317.4" y1="941.62" x2="-305.07" y2="354.98" xlink:href="#未命名漸層_86"/><linearGradient id="未命名漸層_87" x1="-6.21" y1="643.69" x2="104.78" y2="287.82" gradientTransform="matrix(1, 0, 0, -1, 0, 1082)" gradientUnits="userSpaceOnUse"><stop offset="0" stop-color="#78a152"/><stop offset="1" stop-color="#3b5131"/></linearGradient><linearGradient id="未命名漸層_88" x1="825.61" y1="229.9" x2="887.92" y2="30.12" gradientTransform="translate(1419.94 36.57) rotate(123.82)" gradientUnits="userSpaceOnUse"><stop offset="0" stop-color="#8fc877"/><stop offset="1" stop-color="#3a7e76"/></linearGradient><linearGradient id="未命名漸層_89-7" x1="1572.23" y1="415.21" x2="1575.97" y2="355.08" gradientTransform="matrix(1, 0, 0, -1, 0, 1082)" xlink:href="#未命名漸層_89"/><linearGradient id="未命名漸層_90-2" x1="1521.04" y1="739" x2="1560.68" y2="503.81" xlink:href="#未命名漸層_90"/><linearGradient id="未命名漸層_89-8" x1="-124.31" y1="451.66" x2="-120.56" y2="391.54" xlink:href="#未命名漸層_89"/><linearGradient id="未命名漸層_82-4" x1="1430.79" y1="311.31" x2="1415.81" y2="545.62" xlink:href="#未命名漸層_82"/><linearGradient id="未命名漸層_89-9" x1="-586.41" y1="429.63" x2="-582.67" y2="369.51" xlink:href="#未命名漸層_89"/><linearGradient id="未命名漸層_82-5" x1="1878.77" y1="290.46" x2="1863.89" y2="523.34" xlink:href="#未命名漸層_82"/><linearGradient id="未命名漸層_89-10" x1="1681.77" y1="464.47" x2="1687.05" y2="379.62" gradientTransform="matrix(1, 0, 0, -1, 0, 1082)" xlink:href="#未命名漸層_89"/><linearGradient id="未命名漸層_86-3" x1="1673.9" y1="979.27" x2="1686.23" y2="392.62" gradientTransform="matrix(1, 0, 0, -1, 0, 1082)" xlink:href="#未命名漸層_86"/><linearGradient id="未命名漸層_89-11" x1="1235.73" y1="426.83" x2="1241.01" y2="341.97" gradientTransform="matrix(1, 0, 0, -1, 0, 1082)" xlink:href="#未命名漸層_89"/><linearGradient id="未命名漸層_86-4" x1="1227.85" y1="941.62" x2="1240.19" y2="354.97" gradientTransform="matrix(1, 0, 0, -1, 0, 1082)" xlink:href="#未命名漸層_86"/><linearGradient id="未命名漸層_87-2" x1="1768.82" y1="362.28" x2="1920.96" y2="362.28" xlink:href="#未命名漸層_87"/><linearGradient id="未命名漸層_88-2" x1="1685.61" y1="1513.8" x2="1747.92" y2="1314.02" gradientTransform="matrix(0.56, 0.83, 0.83, -0.56, -1010.12, 36.57)" xlink:href="#未命名漸層_88"/><linearGradient id="未命名漸層_89-12" x1="26.97" y1="415.21" x2="30.72" y2="355.08" gradientTransform="translate(409.82 1082) rotate(180)" xlink:href="#未命名漸層_89"/><linearGradient id="未命名漸層_90-3" x1="-24.21" y1="739" x2="15.43" y2="503.81" gradientTransform="translate(409.82 1082) rotate(180)" xlink:href="#未命名漸層_90"/><linearGradient id="未命名漸層_96" x1="1405.84" y1="564.15" x2="1482.47" y2="170.41" gradientTransform="matrix(1, 0, 0, -1, 0, 1082)" gradientUnits="userSpaceOnUse"><stop offset="0" stop-color="#47bbea"/><stop offset="1" stop-color="#48318f"/></linearGradient><linearGradient id="未命名漸層_96-2" x1="1563.98" y1="397.1" x2="1562.66" y2="311.22" xlink:href="#未命名漸層_96"/><linearGradient id="未命名漸層_96-3" x1="1247.28" y1="418.73" x2="1404.96" y2="43.49" xlink:href="#未命名漸層_96"/><linearGradient id="未命名漸層_100-3" x1="-35.17" y1="426.41" x2="-137.35" y2="317.77" gradientTransform="translate(1144.71 1082) rotate(180)" xlink:href="#未命名漸層_100"/><linearGradient id="未命名漸層_96-4" x1="1249.38" y1="596.29" x2="1298.7" y2="97.72" xlink:href="#未命名漸層_96"/><linearGradient id="未命名漸層_96-5" x1="1330.8" y1="604.35" x2="1380.13" y2="105.78" xlink:href="#未命名漸層_96"/><linearGradient id="未命名漸層_104" x1="-106.33" y1="564.15" x2="-29.7" y2="170.41" gradientTransform="translate(409.82 1082) rotate(180)" gradientUnits="userSpaceOnUse"><stop offset="0" stop-color="#f0c455"/><stop offset="1" stop-color="#eb5c46"/></linearGradient><linearGradient id="未命名漸層_104-2" x1="365.55" y1="485.71" x2="361.58" y2="317.91" gradientTransform="matrix(1, 0, 0, -1, 0, 1082)" xlink:href="#未命名漸層_104"/><linearGradient id="未命名漸層_104-3" x1="619.23" y1="467.96" x2="571.66" y2="-332.74" gradientTransform="matrix(1, 0, 0, -1, 0, 1082)" xlink:href="#未命名漸層_104"/><linearGradient id="未命名漸層_100-4" x1="742.02" y1="426.42" x2="639.84" y2="317.78" xlink:href="#未命名漸層_100"/><linearGradient id="未命名漸層_104-4" x1="694.09" y1="678.38" x2="631.99" y2="231.79" gradientTransform="matrix(1, 0, 0, -1, 0, 1082)" xlink:href="#未命名漸層_104"/><linearGradient id="未命名漸層_104-5" x1="613.43" y1="689.6" x2="551.33" y2="243.01" gradientTransform="matrix(1, 0, 0, -1, 0, 1082)" xlink:href="#未命名漸層_104"/><linearGradient id="未命名漸層_104-6" x1="930.22" y1="136.19" x2="919.65" y2="378.12" gradientTransform="matrix(1, -0.03, -0.03, -1, 46.74, 1094.15)" xlink:href="#未命名漸層_104"/><linearGradient id="未命名漸層_104-7" x1="888.82" y1="168.73" x2="1061.46" y2="463.51" gradientTransform="matrix(1, -0.03, -0.03, -1, 46.74, 1094.15)" xlink:href="#未命名漸層_104"/><linearGradient id="未命名漸層_105" x1="959.32" y1="363.38" x2="920.56" y2="167.84" gradientTransform="matrix(1, -0.03, -0.03, -1, 46.74, 1094.15)" gradientUnits="userSpaceOnUse"><stop offset="0" stop-color="#f0c455"/><stop offset="1" stop-color="#f5ed51"/></linearGradient></defs><path class="cls-1" d="M947.74,697.39v90.74l-65.38-1.4h0l-23.58-.52h0L174.26,771.35,158,771l-15.81-.36L1,767.56V195.83c114.59,41.28,324.47-5.35,445.78,120.4,86,89.12,159.65,113.77,229,133.6,31,8.88,61.2,16.75,91.21,29.06a319,319,0,0,1,70.69,39.58C959.07,608.76,947.74,697.39,947.74,697.39Z"/><path class="cls-2" d="M441.32,452.37H1V305.23c6.66-2.88,16.69-4.21,30.4,1.83,27.73,12.18,19.37,34.19,19.37,34.19s32.13-16,53.94,0,17.44,46.86,17.44,46.86,35.95-16.62,58.06-9.21,20,45.29,20,45.29L225,427.07l95,11.1Z"/><path class="cls-1" d="M1921,195.87V767.59l-126.14,2.75-14.4.32-1.44,0-679.3,14.72h0l-30.4.69h0l-95,2.06V697.42s-11.33-88.66,110-178.89c36.21-26.91,71.84-41.5,108.12-53,27.43-8.65,55.22-15.54,83.89-24.65,60.58-19.2,125.2-48.23,198.84-124.58C1596.5,190.51,1806.38,237.14,1921,195.87Z"/><path class="cls-3" d="M1921,235.93V452.34H1459.05l178.3-20.87,62.77-7.34s-1.74-32,15.15-42.95a20.44,20.44,0,0,1,4.86-2.35c22.11-7.44,58.06,9.21,58.06,9.21s-4.4-30.82,17.41-46.86,54,0,54,0-8.36-22,19.36-34.19c27.07-11.95,39.91,4.87,40.49,5.65C1908.82,311.07,1888.31,256,1921,235.93Z"/><polygon class="cls-4" points="30.78 731.64 46.58 731.64 46.58 634.3 30.78 634.3 30.78 731.64"/><path class="cls-5" d="M95.83,658.72H1V541.29l47.68-11.95H2.43L24,463a15.18,15.18,0,0,1,5.58-7.71A15.41,15.41,0,0,1,53.31,463L66.8,504.36H46L68.63,510,95,591.09H67l30.5,7.64,2.58,8,1.54,4.74,8.81,27.1A15.34,15.34,0,0,1,95.83,658.72Z"/><polygon class="cls-6" points="142.23 776.35 158.03 776.35 158.03 678.97 142.23 678.97 142.23 776.35"/><path class="cls-7" d="M93,703.43H207.28a15.42,15.42,0,0,0,14.66-20.18L209,643.47l-30.53-7.64h28l-26.39-81.08-22.63-5.68h20.8l-13.45-41.38A15.45,15.45,0,0,0,141.09,500a15.17,15.17,0,0,0-5.59,7.71l-21.58,66.36h46.3L109.8,586.68,78.36,683.25A15.36,15.36,0,0,0,93,703.43Z"/><polygon class="cls-8" points="1779.01 776.35 1794.82 776.35 1794.82 678.97 1779.01 678.97 1779.01 776.35"/><path class="cls-9" d="M1729.77,703.43h114.32a15.42,15.42,0,0,0,14.67-20.18l-12.94-39.78-30.53-7.64h28l-26.39-81.08-22.63-5.68h20.8l-13.45-41.38A15.45,15.45,0,0,0,1777.9,500a15.1,15.1,0,0,0-5.58,7.71l-21.59,66.36H1797l-50.42,12.63-31.45,96.57A15.35,15.35,0,0,0,1729.77,703.43Z"/><rect class="cls-10" x="525.96" y="612.25" width="15.81" height="97.35"/><path class="cls-11" d="M591,636.68H476.72a15.41,15.41,0,0,1-14.66-20.18L475,576.72l30.53-7.64h-28L503.89,488l22.63-5.68h-20.8l13.45-41.38a15.44,15.44,0,0,1,23.74-7.7,15,15,0,0,1,5.58,7.7l21.59,66.36H523.77l50.42,12.64,31.45,96.56A15.36,15.36,0,0,1,591,636.68Z"/><polygon class="cls-12" points="259.46 729.42 281.77 729.42 281.77 592.01 259.46 592.01 259.46 729.42"/><path class="cls-13" d="M189.94,626.49H351.29A21.74,21.74,0,0,0,372,598l-18.25-56.14-43.08-10.81h39.55L312.92,416.65l-31.94-8h29.36l-19-58.39a21.75,21.75,0,0,0-41.37,0l-30.47,93.62h65.35l-71.16,17.83L169.3,598A21.7,21.7,0,0,0,189.94,626.49Z"/><polygon class="cls-14" points="705.5 767.07 727.8 767.07 727.8 629.66 705.5 629.66 705.5 767.07"/><path class="cls-15" d="M636,664.14H797.33A21.74,21.74,0,0,0,818,635.67l-18.26-56.14-43.07-10.81h39.55L759,454.3l-31.94-8h29.36l-19-58.39a21.75,21.75,0,0,0-41.37,0l-30.47,93.62h65.34l-71.15,17.83L615.34,635.67A21.72,21.72,0,0,0,636,664.14Z"/><path class="cls-16" d="M186.28,719.72A117.11,117.11,0,0,1,69.11,836.86,116.55,116.55,0,0,1,1,815V624.37a116.39,116.39,0,0,1,68.11-21.82c2.42,0,4.84.07,7.25.23L69.8,658.72l-.69,5.95,2.32-5.95,21-53.85c2.61.53,5.16,1.15,7.7,1.86,1,.23,1.9.53,2.81.79a117.28,117.28,0,0,1,50.78,31.15l-49.8,51.11,59.4-39.71a117,117,0,0,1,23,69.65Z"/><path class="cls-17" d="M835.4,776.44a65.78,65.78,0,1,0,33.54-120.36l0,40.1L860.65,657a65.68,65.68,0,0,0-34.91,18l20.6,29.55-26.58-22.7c-.81,1.08-1.6,2.19-2.38,3.3A65.8,65.8,0,0,0,835.4,776.44Z"/><rect class="cls-18" x="1566.23" y="648.7" width="15.81" height="97.35"/><path class="cls-19" d="M1631.28,673.16H1517A15.42,15.42,0,0,1,1502.29,653l12.93-39.77,30.53-7.64h-28l26.38-81.08,22.63-5.69H1546l13.45-41.37a15.44,15.44,0,0,1,23.74-7.71,15.08,15.08,0,0,1,5.59,7.71l21.58,66.36H1564l50.42,12.63L1645.88,653A15.36,15.36,0,0,1,1631.28,673.16Z"/><polygon class="cls-20" points="1413.3 709.6 1429.11 709.6 1429.11 612.25 1413.3 612.25 1413.3 709.6"/><path class="cls-21" d="M1364.06,636.68h114.33a15.42,15.42,0,0,0,14.66-20.18l-12.93-39.78-30.54-7.64h28L1451.22,488l-22.63-5.68h20.8l-13.46-41.38a15.44,15.44,0,0,0-23.74-7.7,15,15,0,0,0-5.58,7.7L1385,507.3h46.3l-50.42,12.64-31.45,96.56A15.35,15.35,0,0,0,1364.06,636.68Z"/><polygon class="cls-22" points="1875.41 731.64 1891.21 731.64 1891.21 634.3 1875.41 634.3 1875.41 731.64"/><path class="cls-23" d="M1921,591.13h-9.3l9.3,2.31v65.25h-94.8a15.11,15.11,0,0,1-6.79-1.57h0a15.42,15.42,0,0,1-7.87-18.61l4.08-12.48,12.25-37.65v0l15.12-46.4,50.42-12.64H1847L1868.62,463a15.2,15.2,0,0,1,5.58-7.7,15.41,15.41,0,0,1,23.71,7.7l13.49,41.38h-20.81l22.63,5.65,7.68,23.57v57.58Z"/><rect class="cls-24" x="1673.31" y="592.01" width="22.3" height="137.41"/><path class="cls-25" d="M1765.13,626.49H1603.78A21.74,21.74,0,0,1,1583.11,598l18.26-56.14,43.07-10.81h-39.55l37.26-114.42,31.94-8h-29.36l19-58.39a21.76,21.76,0,0,1,33.47-10.87,21.5,21.5,0,0,1,7.9,10.87l30.47,93.62h-65.34l71.15,17.83L1785.77,598A21.68,21.68,0,0,1,1765.13,626.49Z"/><rect class="cls-26" x="1227.27" y="629.66" width="22.3" height="137.41"/><path class="cls-27" d="M1319.09,664.14H1157.74a21.74,21.74,0,0,1-20.67-28.47l18.26-56.14,43.07-10.81h-39.55l37.26-114.42,31.94-8h-29.36l19-58.39A21.76,21.76,0,0,1,1251.17,377a21.48,21.48,0,0,1,7.9,10.87l30.47,93.62H1224.2l71.15,17.83,44.38,136.31A21.72,21.72,0,0,1,1319.09,664.14Z"/><path class="cls-28" d="M1921,607.88V831.57a117.29,117.29,0,0,1-137.57-55.22c-1.05-1.87-2-3.76-2.94-5.69-.49-1-1-2-1.44-3.07a116.37,116.37,0,0,1-10.19-47.84,122,122,0,0,1,1.11-16.32,117,117,0,0,1,21.85-53.36l59.4,39.71-31.77-32.63h0l-7.21-7.41-10.78-11.07a118.86,118.86,0,0,1,14.2-12.6,116.92,116.92,0,0,1,47.09-21.2l12.74,32.72,8.23,21.13,2.32,5.95-.69-5.95-2.87-24.42-3.69-31.52c2.38-.16,4.8-.23,7.25-.23A118.08,118.08,0,0,1,1921,607.88Z"/><path class="cls-29" d="M1119.67,776.44a65.78,65.78,0,1,1-33.54-120.36l0,40.1,8.27-39.19a65.66,65.66,0,0,1,34.9,18l-20.6,29.55,26.58-22.7c.82,1.08,1.6,2.19,2.38,3.3A65.8,65.8,0,0,1,1119.67,776.44Z"/><rect class="cls-30" x="1.03" y="714.73" width="1919.93" height="366.78"/><polygon class="cls-31" points="1920.96 923.56 1920.96 1081.51 1.03 1081.51 1.03 1026.03 1920.96 923.56"/><polygon class="cls-32" points="373.04 746.08 388.84 746.08 388.84 648.7 373.04 648.7 373.04 746.08"/><path class="cls-33" d="M323.79,673.16H438.12A15.42,15.42,0,0,0,452.78,653L439.85,613.2l-30.53-7.64h28L411,524.48l-22.63-5.69h20.8l-13.45-41.37a15.44,15.44,0,0,0-23.74-7.71,15.13,15.13,0,0,0-5.59,7.71l-21.58,66.36h46.3l-50.42,12.63L309.2,653A15.35,15.35,0,0,0,323.79,673.16Z"/><path class="cls-34" d="M1715.5,864.19H1042A18.2,18.2,0,0,1,1023.76,846h0A18.19,18.19,0,0,1,1042,827.81h673.58A18.19,18.19,0,0,1,1733.72,846h0A18.23,18.23,0,0,1,1715.5,864.19Z"/><path class="cls-35" d="M1643,804.3V846H1288.3V804.3s34.71-28.77,73.64-67.21l-5.52-.55-41.11-138.95h150.34C1486.19,674.49,1643,804.3,1643,804.3Z"/><rect class="cls-36" x="1480.67" y="804.3" width="162.3" height="41.7"/><path class="cls-37" d="M1492.66,804.3V846H1138V804.3s156.78-129.81,177.36-206.71C1335.85,674.49,1492.66,804.3,1492.66,804.3Z"/><path class="cls-38" d="M1137.86,804.3v8.42c13.06-14,44.8-13.58,50.68-34.84,7-25.54,56.82-17.6,59-52s40.06-33.93,42.71-64.95c2.29-27,28.64-33.21,26.19-59.14-.49-1.4-.88-2.8-1.27-4.18C1294.67,674.49,1137.86,804.3,1137.86,804.3Z"/><polygon class="cls-39" points="1315.31 664.08 1282.72 846 1347.9 846 1315.31 664.08"/><polygon class="cls-40" points="1315.31 664.08 1233.08 809 1282.72 846 1315.31 664.08"/><polygon class="cls-41" points="1315.31 664.08 1397.53 809 1347.9 846 1315.31 664.08"/><polyline class="cls-42" points="1492.66 804.3 1582.49 846 1588.96 832.48"/><polyline class="cls-42" points="1137.95 804.3 1048.12 846 1041.65 832.48"/><polyline class="cls-42" points="1643 804.3 1719.19 846 1726.21 832.48"/><path class="cls-34" d="M206.5,864.19H880.08A18.2,18.2,0,0,0,898.27,846h0a18.2,18.2,0,0,0-18.19-18.19H206.5A18.19,18.19,0,0,0,188.31,846h0A18.17,18.17,0,0,0,206.5,864.19Z"/><path class="cls-43" d="M279,804.3V846h354.7V804.3S599,775.53,560.05,737.09l5.52-.55,41.12-138.95H456.34C435.8,674.49,279,804.3,279,804.3Z"/><rect class="cls-44" x="278.99" y="804.3" width="162.3" height="41.7"/><path class="cls-45" d="M784,804.3V846H429.34V804.3S580.56,679.13,605.41,601.77c.49-1.4.88-2.81,1.28-4.18C627.26,674.49,784,804.3,784,804.3Z"/><path class="cls-46" d="M784,804.3v8.42c-13.07-14-44.81-13.58-50.68-34.84-7.06-25.54-56.82-17.6-59-52S634.28,692,631.63,660.94c-2.28-27-28.63-33.21-26.18-59.14.49-1.4.88-2.8,1.27-4.18C627.26,674.49,784,804.3,784,804.3Z"/><polygon class="cls-39" points="606.69 664.08 639.28 846 574.1 846 606.69 664.08"/><polygon class="cls-47" points="606.69 664.08 688.91 809 639.28 846 606.69 664.08"/><polygon class="cls-48" points="606.69 664.08 524.46 809 574.1 846 606.69 664.08"/><polyline class="cls-42" points="429.33 804.3 339.5 846 333.04 832.48"/><polyline class="cls-42" points="784.04 804.3 873.87 846 880.34 832.48"/><polyline class="cls-42" points="278.99 804.3 202.81 846 195.78 832.48"/><path class="cls-49" d="M1921,914.28v167.23h-209a170.46,170.46,0,0,1,33.57-101.92l86.86,58.1-72.82-74.75a171.07,171.07,0,0,1,89.67-49.44l34.06,87.45-10.61-90.52c3.52-.23,7-.33,10.61-.33A172.39,172.39,0,0,1,1921,914.28Z"/><path class="cls-50" d="M1767.19,1081.51H1520.94a127.94,127.94,0,0,1,64.62-79.42l38.93,67.5-24-74a127.65,127.65,0,0,1,76.25-3.46l-6.07,69.72,22.79-64c2.42,1,4.84,2.09,7.19,3.26a127.8,127.8,0,0,1,66.55,80.4Z"/><path class="cls-49" d="M210.06,1081.51H1V914.28a172.32,172.32,0,0,1,37.65-4.15c3.56,0,7.09.1,10.61.33L38.68,1001l34.06-87.45A171.07,171.07,0,0,1,162.41,963l-72.82,74.75,86.86-58.09a170.71,170.71,0,0,1,33.61,101.88Z"/><path class="cls-50" d="M401.06,1081.51H154.8a127.43,127.43,0,0,1,42.49-65,129.22,129.22,0,0,1,24.06-15.45c2.36-1.18,4.77-2.29,7.19-3.27l22.79,64-6.07-69.72a127.33,127.33,0,0,1,76.25,3.46l-24,74,38.92-67.5a128,128,0,0,1,64.63,79.45Z"/><path class="cls-34" d="M1046.72,931.3H875.28a23.05,23.05,0,0,1-23.06-23.06h0a23.05,23.05,0,0,1,23.06-23h171.44a23.05,23.05,0,0,1,23,23h0A23.05,23.05,0,0,1,1046.72,931.3Z"/><path class="cls-51" d="M1024.12,902.26l-60-53.55a7.13,7.13,0,0,0-10.85,1.67l-9,15.15a7.07,7.07,0,0,0,1.57,9l65.93,55.06a7.11,7.11,0,0,0,11.53-4.15l3.07-16.62A7.06,7.06,0,0,0,1024.12,902.26Z"/><path class="cls-52" d="M964.42,861.58,886.84,882.9a7.09,7.09,0,0,0-4.48,10l7.84,15.78a7.13,7.13,0,0,0,8.46,3.62l82-25.47a7.08,7.08,0,0,0,2.77-11.92l-12.28-11.63A7,7,0,0,0,964.42,861.58Z"/><path class="cls-53" d="M1042.08,868.21l-74.65-30.05a7.06,7.06,0,0,0-9.6,5.26l-3.3,17.31a7.11,7.11,0,0,0,4.54,8l80.69,29.45a7.09,7.09,0,0,0,9.44-7.8l-2.75-16.69A7.14,7.14,0,0,0,1042.08,868.21Z"/><path class="cls-54" d="M953,880.91c-57.6,8.65-77.88-63.84-53.09-96.66s11,13.16,26.45,18.22,33.53-25.47,22.36-61.55,6.11-83,19.53-76.29-2,29.88,10.22,52.38,28.71,24.62,33.41,51.2-8.82,36.12-1.11,46.47,10.25-18.84,22.92-8.39S1036.72,891.1,953,880.91Z"/><path class="cls-55" d="M953,880.91c-35.85-6.7-50.84-59.14-39.84-64.5s4.15,10.45,25.12,13,38-40,29.48-59.14,10.39-29.42,17.51-6.72,13.94,33.63,8.68,61.42,4.44,10.12,14.73,18.91S1009.78,880.81,953,880.91Z"/><path class="cls-56" d="M960.57,878.2c-.91,0-1.79.06-2.74.06a5.66,5.66,0,0,1-1.47-.16c-11.89-3-19.76-13.16-23.48-19.1-.07-.1-.1-.17-.16-.26a5.37,5.37,0,0,1,5.38-8.1c.53.06,1,.16,1.6.23a30.42,30.42,0,0,0,4.15.19c11.17-.36,21.72-7.61,29.72-20.38.49-.78,1-1.6,1.47-2.44,3-5.33,11.17-2.49,10,3.52a1.78,1.78,0,0,0-.06.43c-2.06,10.81-3.17,19.56,2.19,25.83a14.83,14.83,0,0,0,12.21,5.09c1.11,0,2.12-.16,3-.26.2,0,.39,0,.59-.07a9.09,9.09,0,0,1-1.66,2.81C999,868.27,989.41,877.28,960.57,878.2Z"/></svg>