<svg id="圖層_1" data-name="圖層 1" xmlns="http://www.w3.org/2000/svg" xmlns:xlink="http://www.w3.org/1999/xlink" viewBox="0 0 1920 1080"><defs><style>.cls-1{fill:url(#未命名漸層_54);}.cls-2{fill:url(#未命名漸層_48);}.cls-3{fill:url(#未命名漸層_54-2);}.cls-4{fill:url(#未命名漸層_48-2);}.cls-5{fill:url(#未命名漸層_35);}.cls-6{fill:url(#未命名漸層_54-3);}.cls-7{fill:url(#未命名漸層_35-2);}.cls-8{fill:url(#未命名漸層_54-4);}.cls-9{fill:url(#未命名漸層_35-3);}.cls-10{fill:url(#未命名漸層_54-5);}.cls-11{fill:url(#未命名漸層_35-4);}.cls-12{fill:url(#未命名漸層_54-6);}.cls-13{fill:url(#未命名漸層_35-5);}.cls-14{fill:url(#未命名漸層_55);}.cls-15{fill:url(#未命名漸層_35-6);}.cls-16{fill:url(#未命名漸層_55-2);}.cls-17{fill:url(#未命名漸層_55-3);}.cls-18{fill:url(#未命名漸層_55-4);}.cls-19{fill:url(#未命名漸層_35-7);}.cls-20{fill:url(#未命名漸層_55-5);}.cls-21{fill:url(#未命名漸層_35-8);}.cls-22{fill:url(#未命名漸層_54-7);}.cls-23{fill:url(#未命名漸層_35-9);}.cls-24{fill:url(#未命名漸層_54-8);}.cls-25{fill:url(#未命名漸層_35-10);}.cls-26{fill:url(#未命名漸層_55-6);}.cls-27{fill:url(#未命名漸層_35-11);}.cls-28{fill:url(#未命名漸層_55-7);}.cls-29{fill:url(#未命名漸層_55-8);}.cls-30{fill:url(#未命名漸層_55-9);}.cls-31{fill:url(#未命名漸層_55-10);}.cls-32{fill:url(#未命名漸層_55-11);}.cls-33{fill:url(#未命名漸層_35-12);}.cls-34{fill:url(#未命名漸層_55-12);}.cls-35{fill:url(#未命名漸層_55-13);}.cls-36{fill:url(#未命名漸層_43);}.cls-37{fill:url(#未命名漸層_43-2);}.cls-38{fill:url(#未命名漸層_43-3);}.cls-39{fill:url(#未命名漸層_48-3);}.cls-40{fill:#1d2950;}.cls-41{fill:url(#未命名漸層_43-4);}.cls-42{fill:url(#未命名漸層_43-5);}.cls-43{fill:none;stroke:#1d2950;stroke-linecap:round;stroke-linejoin:round;stroke-width:0.53px;}.cls-44{fill:url(#未命名漸層_55-14);}.cls-45{fill:url(#未命名漸層_57);}.cls-46{fill:url(#未命名漸層_57-2);}.cls-47{fill:url(#未命名漸層_57-3);}.cls-48{fill:url(#未命名漸層_48-4);}.cls-49{fill:url(#未命名漸層_57-4);}.cls-50{fill:url(#未命名漸層_57-5);}.cls-51{fill:url(#未命名漸層_54-9);}.cls-52{fill:url(#未命名漸層_54-10);}.cls-53{fill:url(#未命名漸層_54-11);}.cls-54{fill:url(#未命名漸層_54-12);}.cls-55{fill:url(#未命名漸層_55-15);}.cls-56{fill:#4f1c3d;}.cls-57{fill:#751d3c;}.cls-58{fill:#631c3d;}.cls-59{fill:url(#未命名漸層_57-6);}.cls-60{fill:url(#未命名漸層_57-7);}.cls-61{fill:url(#未命名漸層_58);}</style><linearGradient id="未命名漸層_54" x1="477.24" y1="-77.12" x2="467.62" y2="1015.49" gradientTransform="matrix(1, 0, 0, -1, 0, 1082)" gradientUnits="userSpaceOnUse"><stop offset="0" stop-color="#1c2c42"/><stop offset="1" stop-color="#114d72"/></linearGradient><linearGradient id="未命名漸層_48" x1="154.42" y1="1306.21" x2="235.02" y2="478.83" gradientTransform="matrix(1, 0, 0, -1, 0, 1082)" gradientUnits="userSpaceOnUse"><stop offset="0" stop-color="#fff"/><stop offset="1" stop-color="#fff" stop-opacity="0"/></linearGradient><linearGradient id="未命名漸層_54-2" x1="1452.41" y1="-68.31" x2="1442.81" y2="1023.54" xlink:href="#未命名漸層_54"/><linearGradient id="未命名漸層_48-2" x1="1625.07" y1="1396.81" x2="1716.18" y2="461.58" xlink:href="#未命名漸層_48"/><linearGradient id="未命名漸層_35" x1="1259.31" y1="432.17" x2="1263.05" y2="372.05" gradientTransform="translate(1298.8 1082) rotate(180)" gradientUnits="userSpaceOnUse"><stop offset="0" stop-color="#54435f"/><stop offset="1" stop-color="#39334f"/></linearGradient><linearGradient id="未命名漸層_54-3" x1="64.03" y1="292.9" x2="49.06" y2="527.22" xlink:href="#未命名漸層_54"/><linearGradient id="未命名漸層_35-2" x1="1147.88" y1="387.48" x2="1151.62" y2="327.36" xlink:href="#未命名漸層_35"/><linearGradient id="未命名漸層_54-4" x1="158.6" y1="247.12" x2="143.62" y2="481.44" xlink:href="#未命名漸層_54"/><linearGradient id="未命名漸層_35-3" x1="-489.04" y1="387.48" x2="-485.3" y2="327.36" xlink:href="#未命名漸層_35"/><linearGradient id="未命名漸層_54-5" x1="1795.49" y1="247.12" x2="1780.51" y2="481.44" xlink:href="#未命名漸層_54"/><linearGradient id="未命名漸層_35-4" x1="1419.89" y1="454.21" x2="1423.63" y2="394.08" gradientTransform="matrix(1, 0, 0, -1, -888.98, 1082)" xlink:href="#未命名漸層_35"/><linearGradient id="未命名漸層_54-6" x1="545.96" y1="257.36" x2="530.98" y2="491.69" xlink:href="#未命名漸層_54"/><linearGradient id="未命名漸層_35-5" x1="137.61" y1="467.02" x2="142.89" y2="382.16" gradientTransform="translate(409.82 1082) rotate(180)" xlink:href="#未命名漸層_35"/><linearGradient id="未命名漸層_55" x1="129.72" y1="981.85" x2="142.05" y2="395.16" gradientTransform="translate(409.82 1082) rotate(180)" gradientUnits="userSpaceOnUse"><stop offset="0" stop-color="#58afc4"/><stop offset="1" stop-color="#3a5c77"/></linearGradient><linearGradient id="未命名漸層_35-6" x1="-308.48" y1="429.37" x2="-303.19" y2="344.51" gradientTransform="translate(409.82 1082) rotate(180)" xlink:href="#未命名漸層_35"/><linearGradient id="未命名漸層_55-2" x1="-316.35" y1="944.2" x2="-304.02" y2="357.51" xlink:href="#未命名漸層_55"/><linearGradient id="未命名漸層_55-3" x1="-7.31" y1="646.25" x2="103.69" y2="290.36" gradientTransform="matrix(1, 0, 0, -1, 0, 1082)" xlink:href="#未命名漸層_55"/><linearGradient id="未命名漸層_55-4" x1="824.06" y1="232.18" x2="886.38" y2="32.39" gradientTransform="translate(1419.94 36.57) rotate(123.82)" xlink:href="#未命名漸層_55"/><linearGradient id="未命名漸層_35-7" x1="1571.24" y1="417.75" x2="1574.99" y2="357.62" gradientTransform="matrix(1, 0, 0, -1, 0, 1082)" xlink:href="#未命名漸層_35"/><linearGradient id="未命名漸層_55-5" x1="1520.05" y1="741.57" x2="1559.69" y2="506.36" gradientTransform="matrix(1, 0, 0, -1, 0, 1082)" xlink:href="#未命名漸層_55"/><linearGradient id="未命名漸層_35-8" x1="-123.31" y1="454.21" x2="-119.57" y2="394.08" xlink:href="#未命名漸層_35"/><linearGradient id="未命名漸層_54-7" x1="1429.76" y1="313.85" x2="1414.79" y2="548.17" xlink:href="#未命名漸層_54"/><linearGradient id="未命名漸層_35-9" x1="-585.45" y1="432.17" x2="-581.7" y2="372.05" xlink:href="#未命名漸層_35"/><linearGradient id="未命名漸層_54-8" x1="1877.8" y1="292.99" x2="1862.92" y2="525.89" xlink:href="#未命名漸層_54"/><linearGradient id="未命名漸層_35-10" x1="1680.79" y1="467.02" x2="1686.07" y2="382.16" gradientTransform="matrix(1, 0, 0, -1, 0, 1082)" xlink:href="#未命名漸層_35"/><linearGradient id="未命名漸層_55-6" x1="1672.91" y1="981.85" x2="1685.25" y2="395.16" gradientTransform="matrix(1, 0, 0, -1, 0, 1082)" xlink:href="#未命名漸層_55"/><linearGradient id="未命名漸層_35-11" x1="1234.69" y1="429.37" x2="1239.97" y2="344.51" gradientTransform="matrix(1, 0, 0, -1, 0, 1082)" xlink:href="#未命名漸層_35"/><linearGradient id="未命名漸層_55-7" x1="1226.82" y1="944.2" x2="1239.15" y2="357.51" gradientTransform="matrix(1, 0, 0, -1, 0, 1082)" xlink:href="#未命名漸層_55"/><linearGradient id="未命名漸層_55-8" x1="1774.23" y1="635.21" x2="1885.23" y2="279.31" gradientTransform="matrix(1, 0, 0, -1, 0, 1082)" xlink:href="#未命名漸層_55"/><linearGradient id="未命名漸層_55-9" x1="1682.9" y1="1514.36" x2="1745.22" y2="1314.57" gradientTransform="matrix(0.56, 0.83, 0.83, -0.56, -1010.12, 36.57)" xlink:href="#未命名漸層_55"/><linearGradient id="未命名漸層_55-10" x1="948.25" y1="577.9" x2="978.2" y2="-422.82" gradientTransform="matrix(1, 0, 0, -1, 0, 1082)" xlink:href="#未命名漸層_55"/><linearGradient id="未命名漸層_55-11" x1="843.94" y1="672.78" x2="1006.63" y2="-155.63" gradientTransform="matrix(1, 0, 0, -1, 0, 1082)" xlink:href="#未命名漸層_55"/><linearGradient id="未命名漸層_35-12" x1="28.04" y1="417.75" x2="31.79" y2="357.62" gradientTransform="translate(409.82 1082) rotate(180)" xlink:href="#未命名漸層_35"/><linearGradient id="未命名漸層_55-12" x1="-23.15" y1="741.56" x2="16.49" y2="506.36" xlink:href="#未命名漸層_55"/><linearGradient id="未命名漸層_55-13" x1="1365.5" y1="499.19" x2="1385.76" y2="67.55" gradientTransform="matrix(1, 0, 0, -1, 0, 1082)" xlink:href="#未命名漸層_55"/><linearGradient id="未命名漸層_43" x1="1404.84" y1="566.71" x2="1481.48" y2="172.94" gradientTransform="matrix(1, 0, 0, -1, 0, 1082)" gradientUnits="userSpaceOnUse"><stop offset="0" stop-color="#47bbea"/><stop offset="1" stop-color="#48318f"/></linearGradient><linearGradient id="未命名漸層_43-2" x1="1562.99" y1="399.64" x2="1561.67" y2="313.75" xlink:href="#未命名漸層_43"/><linearGradient id="未命名漸層_43-3" x1="1246.27" y1="421.28" x2="1403.96" y2="46.01" xlink:href="#未命名漸層_43"/><linearGradient id="未命名漸層_48-3" x1="-34.15" y1="428.96" x2="-136.33" y2="320.31" gradientTransform="translate(1144.71 1082) rotate(180)" xlink:href="#未命名漸層_48"/><linearGradient id="未命名漸層_43-4" x1="1248.37" y1="598.84" x2="1297.7" y2="100.25" xlink:href="#未命名漸層_43"/><linearGradient id="未命名漸層_43-5" x1="1329.8" y1="606.9" x2="1379.13" y2="108.3" xlink:href="#未命名漸層_43"/><linearGradient id="未命名漸層_55-14" x1="-144.65" y1="499.19" x2="-124.39" y2="67.54" xlink:href="#未命名漸層_55"/><linearGradient id="未命名漸層_57" x1="-105.27" y1="566.7" x2="-28.64" y2="172.94" gradientTransform="translate(409.82 1082) rotate(180)" gradientUnits="userSpaceOnUse"><stop offset="0" stop-color="#f0c455"/><stop offset="1" stop-color="#eb5c46"/></linearGradient><linearGradient id="未命名漸層_57-2" x1="364.48" y1="488.26" x2="360.51" y2="320.45" gradientTransform="matrix(1, 0, 0, -1, 0, 1082)" xlink:href="#未命名漸層_57"/><linearGradient id="未命名漸層_57-3" x1="618.18" y1="470.51" x2="570.61" y2="-330.24" gradientTransform="matrix(1, 0, 0, -1, 0, 1082)" xlink:href="#未命名漸層_57"/><linearGradient id="未命名漸層_48-4" x1="740.98" y1="428.95" x2="638.79" y2="320.31" xlink:href="#未命名漸層_48"/><linearGradient id="未命名漸層_57-4" x1="693.05" y1="680.94" x2="630.94" y2="234.32" gradientTransform="matrix(1, 0, 0, -1, 0, 1082)" xlink:href="#未命名漸層_57"/><linearGradient id="未命名漸層_57-5" x1="612.37" y1="692.16" x2="550.27" y2="245.54" gradientTransform="matrix(1, 0, 0, -1, 0, 1082)" xlink:href="#未命名漸層_57"/><linearGradient id="未命名漸層_54-9" x1="1988.61" y1="-310.39" x2="1784.24" y2="158.25" xlink:href="#未命名漸層_54"/><linearGradient id="未命名漸層_54-10" x1="1654.99" y1="-124.38" x2="1628.56" y2="158.39" xlink:href="#未命名漸層_54"/><linearGradient id="未命名漸層_54-11" x1="141.32" y1="-82.34" x2="46.03" y2="177.66" xlink:href="#未命名漸層_54"/><linearGradient id="未命名漸層_54-12" x1="324.89" y1="-127.45" x2="247.86" y2="82.72" xlink:href="#未命名漸層_54"/><linearGradient id="未命名漸層_55-15" x1="949.9" y1="491.43" x2="963.11" y2="77.84" gradientTransform="matrix(1, 0, 0, -1, 0, 1082)" xlink:href="#未命名漸層_55"/><linearGradient id="未命名漸層_57-6" x1="929.27" y1="138.74" x2="918.7" y2="380.69" gradientTransform="matrix(1, -0.03, -0.03, -1, 46.74, 1094.15)" xlink:href="#未命名漸層_57"/><linearGradient id="未命名漸層_57-7" x1="887.87" y1="171.29" x2="1060.52" y2="466.09" gradientTransform="matrix(1, -0.03, -0.03, -1, 46.74, 1094.15)" xlink:href="#未命名漸層_57"/><linearGradient id="未命名漸層_58" x1="958.38" y1="365.95" x2="919.62" y2="170.39" gradientTransform="matrix(1, -0.03, -0.03, -1, 46.74, 1094.15)" gradientUnits="userSpaceOnUse"><stop offset="0" stop-color="#f0c455"/><stop offset="1" stop-color="#f5ed51"/></linearGradient></defs><path class="cls-1" d="M946.71,694.85V785.6l-65.38-1.4h0l-23.58-.52h0l-684.5-14.86-16.3-.36-15.81-.36L-.13,765V193.3c114.6,41.28,324.49-5.36,445.81,120.4,86,89.13,159.66,113.78,229,133.61,31,8.88,61.2,16.75,91.22,29.06A319.32,319.32,0,0,1,836.59,516C958,606.22,946.71,694.85,946.71,694.85Z"/><path class="cls-2" d="M440.23,449.79H-.06V302.63c6.66-2.87,16.69-4.21,30.4,1.83,27.73,12.18,19.37,34.19,19.37,34.19s32.13-16,54,0,17.44,46.87,17.44,46.87,36-16.62,58.06-9.21,20.05,45.29,20.05,45.29l24.66,2.88,95,11.1Z"/><path class="cls-3" d="M1920,193.3V765.06l-126.16,2.75-14.4.32-1.43,0-679.35,14.72h0l-30.4.69h0l-95,2.06V694.88S961.86,606.22,1083.25,516c36.22-26.91,71.85-41.5,108.13-53,27.43-8.65,55.22-15.54,83.9-24.65,60.58-19.21,125.21-48.24,198.85-124.59C1595.52,187.94,1805.41,234.58,1920,193.3Z"/><path class="cls-4" d="M1920,233.37V449.79H1458l178.31-20.87,62.76-7.35s-1.73-32,15.16-42.94a20.06,20.06,0,0,1,4.86-2.35c22.11-7.45,58.07,9.21,58.07,9.21s-4.41-30.87,17.41-46.87,54,0,54,0-8.36-22,19.36-34.19c27.07-11.95,39.91,4.9,40.5,5.65C1907.85,308.51,1887.31,253.39,1920,233.37Z"/><polygon class="cls-5" points="29.69 729.11 45.49 729.11 45.49 631.75 29.69 631.75 29.69 729.11"/><path class="cls-6" d="M94.74,656.18H-.06V538.75l47.68-12H1.34l21.59-66.36a15.2,15.2,0,0,1,5.58-7.7,15.41,15.41,0,0,1,23.71,7.7l13.49,41.38H44.91l22.63,5.65,26.39,81.09h-28l30.5,7.64,2.58,8,1.53,4.73L109.34,636A15.35,15.35,0,0,1,94.74,656.18Z"/><polygon class="cls-7" points="141.12 773.82 156.92 773.82 156.92 676.43 141.12 676.43 141.12 773.82"/><path class="cls-8" d="M91.87,700.89H206.2a15.42,15.42,0,0,0,14.67-20.18l-12.94-39.78-30.53-7.64h28L179,552.2l-22.63-5.68h20.8l-13.45-41.38a15.44,15.44,0,0,0-23.74-7.7,15,15,0,0,0-5.59,7.7L112.83,571.5h46.31l-50.42,12.64L77.27,680.71A15.35,15.35,0,0,0,91.87,700.89Z"/><polygon class="cls-9" points="1778.04 773.82 1793.84 773.82 1793.84 676.43 1778.04 676.43 1778.04 773.82"/><path class="cls-10" d="M1728.76,700.89h114.33a15.41,15.41,0,0,0,14.66-20.18l-12.93-39.78-30.53-7.64h28l-26.39-81.09-22.63-5.68h20.8l-13.45-41.38a15.45,15.45,0,0,0-23.75-7.7,15.09,15.09,0,0,0-5.58,7.7l-21.59,66.36H1796l-50.42,12.64-31.45,96.57A15.36,15.36,0,0,0,1728.76,700.89Z"/><rect class="cls-11" x="524.91" y="609.71" width="15.81" height="97.35"/><path class="cls-12" d="M590,634.14H475.66A15.41,15.41,0,0,1,461,614l12.93-39.78,30.53-7.64h-28l26.39-81.09,22.63-5.68h-20.8l13.45-41.38a15.45,15.45,0,0,1,23.75-7.71,15.06,15.06,0,0,1,5.58,7.71L569,504.75H522.72l50.42,12.64L604.59,614A15.38,15.38,0,0,1,590,634.14Z"/><polygon class="cls-13" points="258.36 726.89 280.69 726.89 280.69 589.46 258.36 589.46 258.36 726.89"/><path class="cls-14" d="M188.86,624H350.22a21.73,21.73,0,0,0,20.67-28.48l-18.25-56.14-43.08-10.81h39.55L311.85,414.09l-31.94-8h29.36l-19-58.39a21.76,21.76,0,0,0-33.47-10.87,21.44,21.44,0,0,0-7.9,10.87l-30.47,93.63h65.34L212.6,459.16,168.22,595.47A21.69,21.69,0,0,0,188.86,624Z"/><polygon class="cls-15" points="704.46 764.54 726.76 764.54 726.76 627.12 704.46 627.12 704.46 764.54"/><path class="cls-16" d="M634.93,661.6H796.29A21.74,21.74,0,0,0,817,633.13L798.71,577l-43.08-10.81h39.55L757.92,451.75l-31.94-8h29.36l-19-58.4a21.76,21.76,0,0,0-41.38,0L664.48,479h65.35l-71.16,17.83L614.29,633.13A21.72,21.72,0,0,0,634.93,661.6Z"/><path class="cls-17" d="M185.2,717.19A117.11,117.11,0,0,1,68,834.33,116.61,116.61,0,0,1-.1,812.51V621.86A116.45,116.45,0,0,1,68,600c2.41,0,4.83.07,7.25.23l-6.57,56L68,662.16l2.32-5.94,21-53.86c2.62.53,5.16,1.15,7.71,1.86,1,.23,1.89.53,2.81.79a117.34,117.34,0,0,1,50.78,31.15l-49.8,51.11,59.4-39.71a117,117,0,0,1,23,69.63Z"/><path class="cls-18" d="M834.37,773.88A65.78,65.78,0,1,0,867.91,653.5l0,40.11-8.26-39.19a65.72,65.72,0,0,0-34.91,18L845.31,702l-26.58-22.7c-.82,1.08-1.61,2.19-2.39,3.3A65.8,65.8,0,0,0,834.37,773.88Z"/><rect class="cls-19" x="1565.24" y="646.16" width="15.81" height="97.35"/><path class="cls-20" d="M1630.3,670.62H1516a15.42,15.42,0,0,1-14.66-20.18l12.93-39.78,30.54-7.64h-28l26.38-81.09,22.63-5.68H1545l13.46-41.38a15.44,15.44,0,0,1,23.74-7.71,15.06,15.06,0,0,1,5.58,7.71l21.59,66.36H1563l50.42,12.64,31.45,96.57A15.34,15.34,0,0,1,1630.3,670.62Z"/><polygon class="cls-21" points="1412.31 707.06 1428.11 707.06 1428.11 609.71 1412.31 609.71 1412.31 707.06"/><path class="cls-22" d="M1363,634.14h114.33A15.41,15.41,0,0,0,1492,614l-12.93-39.78-30.53-7.64h28l-26.39-81.09-22.63-5.68h20.8l-13.45-41.38a15.45,15.45,0,0,0-23.75-7.71,15.06,15.06,0,0,0-5.58,7.71L1384,504.75h46.31l-50.42,12.64L1348.43,614A15.36,15.36,0,0,0,1363,634.14Z"/><polygon class="cls-23" points="1874.44 729.11 1890.25 729.11 1890.25 631.75 1874.44 631.75 1874.44 729.11"/><path class="cls-24" d="M1920,588.58h-9.31l9.31,2.32v65.25h-94.8a15.12,15.12,0,0,1-6.8-1.57h0A15.42,15.42,0,0,1,1810.5,636l4.08-12.48,12.25-37.65v0L1842,539.4l50.42-12.64h-46.31l21.59-66.36a15.22,15.22,0,0,1,5.58-7.71,15.43,15.43,0,0,1,23.71,7.71l13.49,41.38h-20.8l22.63,5.65,7.67,23.58v57.57Z"/><rect class="cls-25" x="1672.33" y="589.46" width="22.31" height="137.42"/><path class="cls-26" d="M1764.16,624H1602.8a21.73,21.73,0,0,1-20.67-28.48l18.25-56.14,43.08-10.81h-39.55l37.26-114.43,31.94-8h-29.36l19-58.39a21.76,21.76,0,0,1,33.47-10.87,21.44,21.44,0,0,1,7.9,10.87l30.47,93.63h-65.34l71.16,17.83,44.38,136.31A21.71,21.71,0,0,1,1764.16,624Z"/><rect class="cls-27" x="1226.22" y="627.12" width="22.31" height="137.42"/><path class="cls-28" d="M1318.06,661.6H1156.7A21.73,21.73,0,0,1,1136,633.13L1154.28,577l43.08-10.81h-39.55l37.26-114.43,31.94-8h-29.36l19-58.4a21.76,21.76,0,0,1,33.47-10.87,21.48,21.48,0,0,1,7.9,10.87L1288.5,479h-65.34l71.16,17.83,44.38,136.32A21.69,21.69,0,0,1,1318.06,661.6Z"/><path class="cls-29" d="M1920,605.34V829a117.31,117.31,0,0,1-137.59-55.23q-1.56-2.79-2.93-5.68c-.49-1-1-2-1.44-3.07a116.25,116.25,0,0,1-10.19-47.84,122.26,122.26,0,0,1,1.11-16.33,116.85,116.85,0,0,1,21.85-53.36l59.4,39.71-31.77-32.62h0l-7.21-7.42-10.78-11.07a118.09,118.09,0,0,1,14.2-12.6,116.89,116.89,0,0,1,47.1-21.2l12.73,32.72,8.23,21.13,2.32,6-.68-6-2.88-24.42-3.69-31.52c2.39-.16,4.8-.23,7.25-.23A116.86,116.86,0,0,1,1920,605.34Z"/><path class="cls-30" d="M1118.62,773.88a65.78,65.78,0,1,1-33.54-120.38l0,40.11,8.26-39.19a65.71,65.71,0,0,1,34.92,18L1107.68,702l26.58-22.7c.82,1.08,1.6,2.19,2.39,3.3A65.75,65.75,0,0,1,1118.62,773.88Z"/><rect class="cls-31" x="-0.06" y="712.19" width="1920.06" height="366.81"/><polygon class="cls-32" points="1920 921.03 1920 1079 -0.06 1079 -0.06 1023.51 1920 921.03"/><polygon class="cls-33" points="371.97 743.54 387.78 743.54 387.78 646.16 371.97 646.16 371.97 743.54"/><path class="cls-34" d="M322.72,670.62H437.06a15.42,15.42,0,0,0,14.66-20.18l-12.93-39.78L408.25,603h28l-26.38-81.09-22.64-5.68h20.81L394.6,474.87a15.44,15.44,0,0,0-23.74-7.71,15.06,15.06,0,0,0-5.58,7.71l-21.59,66.36H390l-50.43,12.64-31.44,96.57A15.34,15.34,0,0,0,322.72,670.62Z"/><path class="cls-35" d="M1714.52,861.66H1040.93a18.19,18.19,0,0,1-18.19-18.19h0a18.19,18.19,0,0,1,18.19-18.19h673.62a18.2,18.2,0,0,1,18.19,18.19h0A18.22,18.22,0,0,1,1714.52,861.66Z"/><path class="cls-36" d="M1642,801.77v41.7H1287.29v-41.7S1322,773,1360.94,734.56l-5.52-.55-41.12-139h150.36C1485.2,672,1642,801.77,1642,801.77Z"/><rect class="cls-37" x="1479.68" y="801.77" width="162.31" height="41.7"/><path class="cls-38" d="M1491.66,801.77v41.7H1136.94v-41.7S1293.73,672,1314.3,595.05C1334.84,672,1491.66,801.77,1491.66,801.77Z"/><path class="cls-39" d="M1136.84,801.77v8.43c13.06-14,44.81-13.59,50.69-34.85,7-25.54,56.82-17.6,59-52s40.07-33.93,42.71-65c2.29-27,28.64-33.21,26.2-59.14-.49-1.4-.89-2.81-1.28-4.18C1293.66,672,1136.84,801.77,1136.84,801.77Z"/><polygon class="cls-40" points="1314.3 661.54 1281.71 843.47 1346.89 843.47 1314.3 661.54"/><polygon class="cls-41" points="1314.3 661.54 1232.07 806.44 1281.71 843.47 1314.3 661.54"/><polygon class="cls-42" points="1314.3 661.54 1396.53 806.44 1346.89 843.47 1314.3 661.54"/><polyline class="cls-43" points="1491.66 801.77 1581.51 843.47 1587.97 829.95"/><polyline class="cls-43" points="1136.94 801.77 1047.1 843.47 1040.63 829.95"/><polyline class="cls-43" points="1642.02 801.77 1718.21 843.47 1725.23 829.95"/><path class="cls-44" d="M205.42,861.66H879a18.19,18.19,0,0,0,18.19-18.19h0A18.19,18.19,0,0,0,879,825.28H205.42a18.2,18.2,0,0,0-18.19,18.19h0A18.17,18.17,0,0,0,205.42,861.66Z"/><path class="cls-45" d="M277.92,801.77v41.7H632.64v-41.7S597.93,773,559,734.56l5.52-.55,41.12-139H455.28C434.74,672,277.92,801.77,277.92,801.77Z"/><rect class="cls-46" x="277.92" y="801.77" width="162.31" height="41.7"/><path class="cls-47" d="M783,801.77v41.7H428.27v-41.7S579.51,676.59,604.36,599.23c.49-1.41.88-2.81,1.28-4.18C626.18,672,783,801.77,783,801.77Z"/><path class="cls-48" d="M783,801.77v8.43c-13.07-14-44.81-13.59-50.69-34.85-7-25.54-56.82-17.6-59-52s-40.07-33.93-42.71-65c-2.29-27-28.65-33.21-26.2-59.14.49-1.4.89-2.81,1.28-4.18C626.18,672,783,801.77,783,801.77Z"/><polygon class="cls-40" points="605.63 661.54 638.23 843.47 573.04 843.47 605.63 661.54"/><polygon class="cls-49" points="605.63 661.54 687.87 806.44 638.23 843.47 605.63 661.54"/><polygon class="cls-50" points="605.63 661.54 523.4 806.44 573.04 843.47 605.63 661.54"/><polyline class="cls-43" points="428.27 801.77 338.43 843.47 331.97 829.95"/><polyline class="cls-43" points="783 801.77 872.84 843.47 879.3 829.95"/><polyline class="cls-43" points="277.92 801.77 201.73 843.47 194.67 829.95"/><path class="cls-51" d="M1920,911.76V1079H1711a170.57,170.57,0,0,1,33.57-101.92l86.87,58.09-72.83-74.75A171.1,171.1,0,0,1,1848.25,911l34.06,87.45-10.61-90.52c3.53-.23,7-.33,10.61-.33A172.48,172.48,0,0,1,1920,911.76Z"/><path class="cls-52" d="M1766.22,1079H1520a125.59,125.59,0,0,1,8.55-22.37,127,127,0,0,1,56.08-57.05l38.92,67.5-24-74a127.56,127.56,0,0,1,76.25-3.46l-6.07,69.72,22.8-64c2.41,1,4.83,2.09,7.18,3.27a127.64,127.64,0,0,1,66.56,80.4Z"/><path class="cls-53" d="M209,1079H-.06V911.76a172.32,172.32,0,0,1,37.65-4.15c3.56,0,7.09.1,10.62.33L37.59,998.47,71.65,911a171.1,171.1,0,0,1,89.68,49.44L88.5,1035.21l86.87-58.1A170.74,170.74,0,0,1,196.21,1014,170.29,170.29,0,0,1,209,1079Z"/><path class="cls-54" d="M400,1079H153.72a127.52,127.52,0,0,1,42.49-65,129.81,129.81,0,0,1,24.07-15.45c2.35-1.17,4.77-2.28,7.18-3.26l22.8,64-6.08-69.73A127.52,127.52,0,0,1,320.44,993l-24,74,38.93-67.51A128,128,0,0,1,400,1079Z"/><path class="cls-55" d="M1045.69,928.77H874.24a23.05,23.05,0,0,1-23-23h0a23.05,23.05,0,0,1,23-23.06h171.45a23.05,23.05,0,0,1,23.06,23.06h0A23.05,23.05,0,0,1,1045.69,928.77Z"/><path class="cls-56" d="M1023.1,899.74,963,846.18a7.12,7.12,0,0,0-10.84,1.67l-9,15.15a7.08,7.08,0,0,0,1.56,9l65.94,55.06a7.11,7.11,0,0,0,11.53-4.15l3.07-16.62A7.18,7.18,0,0,0,1023.1,899.74Z"/><path class="cls-57" d="M963.4,859.05l-77.6,21.33a7.08,7.08,0,0,0-4.47,10l7.84,15.77a7.12,7.12,0,0,0,8.46,3.63l82-25.47a7.08,7.08,0,0,0,2.78-11.92l-12.28-11.63A7.07,7.07,0,0,0,963.4,859.05Z"/><path class="cls-58" d="M1041.06,865.65l-74.66-30a7.07,7.07,0,0,0-9.6,5.26l-3.3,17.31a7.12,7.12,0,0,0,4.54,8l80.7,29.46a7.1,7.1,0,0,0,9.44-7.81l-2.75-16.69A7.24,7.24,0,0,0,1041.06,865.65Z"/><path class="cls-59" d="M951.93,878.38c-57.6,8.66-77.88-63.84-53.1-96.66s11,13.16,26.46,18.22,33.54-25.47,22.37-61.56,6.1-83,19.53-76.29-2,29.89,10.22,52.39,28.7,24.62,33.41,51.2-8.82,36.12-1.11,46.47,10.25-18.84,22.92-8.39S1035.7,888.54,951.93,878.38Z"/><path class="cls-60" d="M951.93,878.38c-35.85-6.69-50.84-59.14-39.84-64.49s4.15,10.45,25.12,13,38-40,29.49-59.14,10.38-29.42,17.5-6.73,13.95,33.64,8.69,61.43,4.44,10.13,14.73,18.91S1008.76,878.29,951.93,878.38Z"/><path class="cls-61" d="M959.54,875.67c-.91,0-1.79.07-2.74.07a5.66,5.66,0,0,1-1.47-.16c-11.89-3-19.76-13.17-23.48-19.11l-.16-.26a5.38,5.38,0,0,1,5.39-8.1c.52.07,1,.16,1.6.23a30.21,30.21,0,0,0,4.14.2c11.17-.36,21.72-7.61,29.72-20.38.49-.79,1-1.6,1.47-2.45,3-5.33,11.17-2.48,10,3.52a1.49,1.49,0,0,0-.07.43c-2.06,10.81-3.17,19.56,2.19,25.83a14.84,14.84,0,0,0,12.21,5.1c1.11,0,2.13-.17,3-.27.19,0,.39,0,.59-.06a9.07,9.07,0,0,1-1.67,2.81C998,865.71,988.38,874.73,959.54,875.67Z"/></svg>